<?xml version="1.0" standalone="no"?>
 <!DOCTYPE svg PUBLIC "-//W3C//DTD SVG 1.1//EN" 
 "http://www.w3.org/Graphics/SVG/1.1/DTD/svg11.dtd"> 
<svg xmlns="http://www.w3.org/2000/svg" version="1.1" 
    width="29.7002cm" height="21.0007cm" viewBox="0 0 116930 82680 ">
<title>SVG Picture created as Power_Supply-Edge.Cuts.svg date 2018/12/18 02:52:00 </title>
  <desc>Picture generated by PCBNEW </desc>
<g style="fill:#000000; fill-opacity:1;stroke:#000000; stroke-opacity:1;
stroke-linecap:round; stroke-linejoin:round; "
 transform="translate(0 0) scale(1 1)">
</g>
<g style="fill:#000000; fill-opacity:0.0; 
stroke:#000000; stroke-width:-0.000393701; stroke-opacity:1; 
stroke-linecap:round; stroke-linejoin:round;">
</g>
<g style="fill:#000000; fill-opacity:0.0; 
stroke:#000000; stroke-width:59.0551; stroke-opacity:1; 
stroke-linecap:round; stroke-linejoin:round;">
<path d="M51761 14173
L52185 14173
" />
<path d="M51761 14566
L51761 14173
" />
<path d="M51742 14586
L51761 14566
" />
<path d="M51742 14724
L51742 14586
" />
<path d="M51722 14744
L51742 14724
" />
<path d="M51722 14832
L51722 14744
" />
<path d="M51702 14852
L51722 14832
" />
<path d="M51702 14980
L51702 14852
" />
<path d="M51673 15009
L51702 14980
" />
<path d="M51673 15078
L51673 15009
" />
<path d="M51653 15098
L51673 15078
" />
<path d="M51653 15187
L51653 15098
" />
<path d="M51624 15216
L51653 15187
" />
<path d="M51624 15285
L51624 15216
" />
<path d="M51594 15314
L51624 15285
" />
<path d="M51594 15374
L51594 15314
" />
<path d="M51564 15403
L51594 15374
" />
<path d="M51564 15462
L51564 15403
" />
<path d="M51535 15492
L51564 15462
" />
<path d="M51535 15561
L51535 15492
" />
<path d="M51496 15600
L51535 15561
" />
<path d="M51496 15659
L51496 15600
" />
<path d="M51456 15698
L51496 15659
" />
<path d="M51456 15738
L51456 15698
" />
<path d="M51417 15777
L51456 15738
" />
<path d="M51417 15836
L51417 15777
" />
<path d="M51377 15875
L51417 15836
" />
<path d="M51377 15915
L51377 15875
" />
<path d="M51328 15964
L51377 15915
" />
<path d="M51328 16013
L51328 15964
" />
<path d="M51279 16062
L51328 16013
" />
<path d="M51279 16102
L51279 16062
" />
<path d="M51220 16161
L51279 16102
" />
<path d="M51220 16200
L51220 16161
" />
<path d="M51161 16259
L51220 16200
" />
<path d="M51161 16289
L51161 16259
" />
<path d="M51122 16328
L51161 16289
" />
<path d="M51122 16358
L51122 16328
" />
<path d="M51072 16407
L51122 16358
" />
<path d="M51072 16427
L51072 16407
" />
<path d="M50984 16515
L51072 16427
" />
<path d="M50984 16545
L50984 16515
" />
<path d="M50885 16643
L50984 16545
" />
<path d="M50885 16673
L50885 16643
" />
<path d="M50846 16712
L50885 16673
" />
<path d="M50826 16732
L50846 16712
" />
<path d="M50629 16929
L50826 16732
" />
<path d="M50629 16958
L50629 16929
" />
<path d="M50531 17057
L50629 16958
" />
<path d="M50501 17057
L50531 17057
" />
<path d="M50344 17214
L50501 17057
" />
<path d="M50324 17214
L50344 17214
" />
<path d="M50255 17283
L50324 17214
" />
<path d="M50236 17283
L50255 17283
" />
<path d="M50157 17362
L50236 17283
" />
<path d="M50127 17362
L50157 17362
" />
<path d="M50059 17431
L50127 17362
" />
<path d="M50029 17431
L50059 17431
" />
<path d="M49960 17500
L50029 17431
" />
<path d="M49931 17500
L49960 17500
" />
<path d="M49891 17539
L49931 17500
" />
<path d="M49872 17539
L49891 17539
" />
<path d="M49832 17578
L49872 17539
" />
<path d="M49803 17578
L49832 17578
" />
<path d="M49753 17627
L49803 17578
" />
<path d="M49704 17627
L49753 17627
" />
<path d="M49665 17667
L49704 17627
" />
<path d="M49625 17667
L49665 17667
" />
<path d="M49576 17716
L49625 17667
" />
<path d="M49527 17716
L49576 17716
" />
<path d="M49488 17755
L49527 17716
" />
<path d="M49438 17755
L49488 17755
" />
<path d="M49399 17795
L49438 17755
" />
<path d="M49350 17795
L49399 17795
" />
<path d="M49311 17834
L49350 17795
" />
<path d="M49261 17834
L49311 17834
" />
<path d="M49242 17854
L49261 17834
" />
<path d="M49192 17854
L49242 17854
" />
<path d="M49153 17893
L49192 17854
" />
<path d="M49104 17893
L49153 17893
" />
<path d="M49064 17933
L49104 17893
" />
<path d="M49015 17933
L49064 17933
" />
<path d="M48966 17933
L49015 17933
" />
<path d="M48937 17962
L48966 17933
" />
<path d="M48877 17962
L48937 17962
" />
<path d="M48858 17982
L48877 17962
" />
<path d="M48789 17982
L48858 17982
" />
<path d="M48759 18011
L48789 17982
" />
<path d="M48651 18011
L48759 18011
" />
<path d="M48622 18041
L48651 18011
" />
<path d="M48533 18041
L48622 18041
" />
<path d="M48513 18061
L48533 18041
" />
<path d="M48395 18061
L48513 18061
" />
<path d="M48375 18080
L48395 18061
" />
<path d="M48346 18080
L48375 18080
" />
<path d="M48218 18080
L48346 18080
" />
<path d="M48198 18100
L48218 18080
" />
<path d="M48080 18100
L48198 18100
" />
<path d="M48070 18110
L48080 18100
" />
<path d="M47834 18110
L48070 18110
" />
<path d="M47834 52362
L47834 18110
" />
<path d="M48129 52362
L47834 52362
" />
<path d="M48149 52381
L48129 52362
" />
<path d="M48297 52381
L48149 52381
" />
<path d="M48316 52401
L48297 52381
" />
<path d="M48444 52401
L48316 52401
" />
<path d="M48464 52421
L48444 52401
" />
<path d="M48553 52421
L48464 52421
" />
<path d="M48572 52440
L48553 52421
" />
<path d="M48681 52440
L48572 52440
" />
<path d="M48710 52470
L48681 52440
" />
<path d="M48779 52470
L48710 52470
" />
<path d="M48799 52490
L48779 52470
" />
<path d="M48877 52490
L48799 52490
" />
<path d="M48907 52519
L48877 52490
" />
<path d="M48996 52519
L48907 52519
" />
<path d="M49035 52559
L48996 52519
" />
<path d="M49114 52559
L49035 52559
" />
<path d="M49153 52598
L49114 52559
" />
<path d="M49212 52598
L49153 52598
" />
<path d="M49242 52627
L49212 52598
" />
<path d="M49281 52627
L49242 52627
" />
<path d="M49311 52657
L49281 52627
" />
<path d="M49360 52657
L49311 52657
" />
<path d="M49379 52677
L49360 52657
" />
<path d="M49399 52696
L49379 52677
" />
<path d="M49448 52696
L49399 52696
" />
<path d="M49488 52736
L49448 52696
" />
<path d="M49537 52736
L49488 52736
" />
<path d="M49596 52795
L49537 52736
" />
<path d="M49645 52795
L49596 52795
" />
<path d="M49675 52824
L49645 52795
" />
<path d="M49704 52824
L49675 52824
" />
<path d="M49744 52864
L49704 52824
" />
<path d="M49773 52864
L49744 52864
" />
<path d="M49822 52913
L49773 52864
" />
<path d="M49852 52913
L49822 52913
" />
<path d="M49881 52942
L49852 52913
" />
<path d="M49911 52942
L49881 52942
" />
<path d="M49970 53001
L49911 52942
" />
<path d="M50000 53001
L49970 53001
" />
<path d="M50059 53061
L50000 53001
" />
<path d="M50078 53061
L50059 53061
" />
<path d="M50127 53110
L50078 53061
" />
<path d="M50137 53100
L50127 53110
" />
<path d="M50196 53159
L50137 53100
" />
<path d="M50226 53159
L50196 53159
" />
<path d="M50305 53238
L50226 53159
" />
<path d="M50314 53248
L50305 53238
" />
<path d="M50324 53248
L50314 53248
" />
<path d="M50334 53248
L50324 53248
" />
<path d="M50452 53366
L50334 53248
" />
<path d="M50472 53366
L50452 53366
" />
<path d="M50807 53700
L50472 53366
" />
<path d="M50807 53730
L50807 53700
" />
<path d="M50935 53858
L50807 53730
" />
<path d="M50935 53887
L50935 53858
" />
<path d="M51023 53976
L50935 53887
" />
<path d="M51023 54005
L51023 53976
" />
<path d="M51092 54074
L51023 54005
" />
<path d="M51092 54104
L51092 54074
" />
<path d="M51151 54163
L51092 54104
" />
<path d="M51151 54192
L51151 54163
" />
<path d="M51200 54242
L51151 54192
" />
<path d="M51200 54271
L51200 54242
" />
<path d="M51259 54330
L51200 54271
" />
<path d="M51259 54379
L51259 54330
" />
<path d="M51309 54429
L51259 54379
" />
<path d="M51309 54468
L51309 54429
" />
<path d="M51348 54507
L51309 54468
" />
<path d="M51348 54537
L51348 54507
" />
<path d="M51387 54576
L51348 54537
" />
<path d="M51387 54625
L51387 54576
" />
<path d="M51427 54665
L51387 54625
" />
<path d="M51427 54704
L51427 54665
" />
<path d="M51456 54734
L51427 54704
" />
<path d="M51456 54783
L51456 54734
" />
<path d="M51496 54822
L51456 54783
" />
<path d="M51496 54872
L51496 54822
" />
<path d="M51525 54901
L51496 54872
" />
<path d="M51525 54970
L51525 54901
" />
<path d="M51555 55000
L51525 54970
" />
<path d="M51555 55049
L51555 55000
" />
<path d="M51584 55078
L51555 55049
" />
<path d="M51584 55127
L51584 55078
" />
<path d="M51614 55157
L51584 55127
" />
<path d="M51614 55196
L51614 55157
" />
<path d="M51643 55226
L51614 55196
" />
<path d="M51643 55275
L51643 55226
" />
<path d="M51643 55344
L51643 55275
" />
<path d="M51673 55374
L51643 55344
" />
<path d="M51673 55413
L51673 55374
" />
<path d="M51673 55452
L51673 55413
" />
<path d="M51692 55472
L51673 55452
" />
<path d="M51692 55492
L51692 55472
" />
<path d="M51692 55561
L51692 55492
" />
<path d="M51712 55580
L51692 55561
" />
<path d="M51712 55649
L51712 55580
" />
<path d="M51722 55659
L51712 55649
" />
<path d="M51722 55748
L51722 55659
" />
<path d="M51742 55767
L51722 55748
" />
<path d="M51742 55905
L51742 55767
" />
<path d="M51761 55925
L51742 55905
" />
<path d="M51761 55964
L51761 55925
" />
<path d="M51761 56033
L51761 55964
" />
<path d="M51771 56043
L51761 56033
" />
<path d="M51771 56299
L51771 56043
" />
<path d="M69891 56299
L51771 56299
" />
<path d="M69891 55895
L69891 56299
" />
<path d="M69911 55875
L69891 55895
" />
<path d="M69911 55797
L69911 55875
" />
<path d="M69921 55787
L69911 55797
" />
<path d="M69921 55738
L69921 55787
" />
<path d="M69931 55728
L69921 55738
" />
<path d="M69931 55570
L69931 55728
" />
<path d="M69960 55570
L69931 55570
" />
<path d="M69960 55482
L69960 55570
" />
<path d="M69980 55462
L69960 55482
" />
<path d="M69980 55403
L69980 55462
" />
<path d="M70000 55383
L69980 55403
" />
<path d="M70000 55305
L70000 55383
" />
<path d="M70029 55275
L70000 55305
" />
<path d="M70029 55216
L70029 55275
" />
<path d="M70049 55196
L70029 55216
" />
<path d="M70049 55147
L70049 55196
" />
<path d="M70068 55127
L70049 55147
" />
<path d="M70068 55068
L70068 55127
" />
<path d="M70098 55039
L70068 55068
" />
<path d="M70098 54980
L70098 55039
" />
<path d="M70127 54950
L70098 54980
" />
<path d="M70127 54901
L70127 54950
" />
<path d="M70157 54872
L70127 54901
" />
<path d="M70157 54832
L70157 54872
" />
<path d="M70187 54803
L70157 54832
" />
<path d="M70187 54763
L70187 54803
" />
<path d="M70216 54734
L70187 54763
" />
<path d="M70216 54685
L70216 54734
" />
<path d="M70255 54645
L70216 54685
" />
<path d="M70255 54596
L70255 54645
" />
<path d="M70295 54557
L70255 54596
" />
<path d="M70295 54527
L70295 54557
" />
<path d="M70334 54488
L70295 54527
" />
<path d="M70334 54448
L70334 54488
" />
<path d="M70374 54409
L70334 54448
" />
<path d="M70374 54379
L70374 54409
" />
<path d="M70413 54340
L70374 54379
" />
<path d="M70413 54311
L70413 54340
" />
<path d="M70452 54271
L70413 54311
" />
<path d="M70452 54242
L70452 54271
" />
<path d="M70492 54202
L70452 54242
" />
<path d="M70492 54183
L70492 54202
" />
<path d="M70541 54133
L70492 54183
" />
<path d="M70541 54114
L70541 54133
" />
<path d="M70570 54084
L70541 54114
" />
<path d="M70570 54064
L70570 54084
" />
<path d="M70620 54015
L70570 54064
" />
<path d="M70620 53996
L70620 54015
" />
<path d="M70688 53927
L70620 53996
" />
<path d="M70688 53897
L70688 53927
" />
<path d="M70718 53868
L70688 53897
" />
<path d="M70807 53779
L70718 53868
" />
<path d="M70807 53759
L70807 53779
" />
<path d="M70807 53750
L70807 53759
" />
<path d="M70836 53720
L70807 53750
" />
<path d="M70856 53700
L70836 53720
" />
<path d="M71289 53267
L70856 53700
" />
<path d="M71318 53267
L71289 53267
" />
<path d="M71427 53159
L71318 53267
" />
<path d="M71456 53159
L71427 53159
" />
<path d="M71535 53080
L71456 53159
" />
<path d="M71564 53080
L71535 53080
" />
<path d="M71624 53021
L71564 53080
" />
<path d="M71653 53021
L71624 53021
" />
<path d="M71702 52972
L71653 53021
" />
<path d="M71722 52972
L71702 52972
" />
<path d="M71761 52933
L71722 52972
" />
<path d="M71791 52933
L71761 52933
" />
<path d="M71840 52883
L71791 52933
" />
<path d="M71870 52883
L71840 52883
" />
<path d="M71909 52844
L71870 52883
" />
<path d="M71948 52844
L71909 52844
" />
<path d="M71988 52805
L71948 52844
" />
<path d="M72007 52805
L71988 52805
" />
<path d="M72027 52785
L72007 52805
" />
<path d="M72057 52785
L72027 52785
" />
<path d="M72066 52775
L72057 52785
" />
<path d="M72086 52755
L72066 52775
" />
<path d="M72106 52755
L72086 52755
" />
<path d="M72125 52736
L72106 52755
" />
<path d="M72155 52736
L72125 52736
" />
<path d="M72165 52726
L72155 52736
" />
<path d="M72185 52706
L72165 52726
" />
<path d="M72214 52706
L72185 52706
" />
<path d="M72244 52677
L72214 52706
" />
<path d="M72263 52657
L72244 52677
" />
<path d="M72303 52657
L72263 52657
" />
<path d="M72332 52657
L72303 52657
" />
<path d="M72352 52637
L72332 52657
" />
<path d="M72391 52637
L72352 52637
" />
<path d="M72421 52608
L72391 52637
" />
<path d="M72460 52608
L72421 52608
" />
<path d="M72480 52588
L72460 52608
" />
<path d="M72529 52588
L72480 52588
" />
<path d="M72559 52559
L72529 52588
" />
<path d="M72578 52559
L72559 52559
" />
<path d="M72618 52559
L72578 52559
" />
<path d="M72647 52529
L72618 52559
" />
<path d="M72706 52529
L72647 52529
" />
<path d="M72726 52509
L72706 52529
" />
<path d="M72765 52509
L72726 52509
" />
<path d="M72785 52490
L72765 52509
" />
<path d="M72844 52490
L72785 52490
" />
<path d="M72864 52470
L72844 52490
" />
<path d="M72883 52470
L72864 52470
" />
<path d="M72923 52470
L72883 52470
" />
<path d="M72942 52450
L72923 52470
" />
<path d="M72982 52450
L72942 52450
" />
<path d="M72992 52440
L72982 52450
" />
<path d="M73031 52440
L72992 52440
" />
<path d="M73041 52431
L73031 52440
" />
<path d="M73090 52431
L73041 52431
" />
<path d="M73100 52421
L73090 52431
" />
<path d="M73208 52421
L73100 52421
" />
<path d="M73228 52401
L73208 52421
" />
<path d="M73346 52401
L73228 52401
" />
<path d="M73366 52381
L73346 52401
" />
<path d="M73543 52381
L73366 52381
" />
<path d="M73562 52362
L73543 52381
" />
<path d="M73641 52362
L73562 52362
" />
<path d="M73818 52362
L73641 52362
" />
<path d="M73818 18129
L73818 52362
" />
<path d="M73543 18129
L73818 18129
" />
<path d="M73523 18110
L73543 18129
" />
<path d="M73464 18110
L73523 18110
" />
<path d="M73346 18110
L73464 18110
" />
<path d="M73326 18090
L73346 18110
" />
<path d="M73287 18090
L73326 18090
" />
<path d="M73188 18090
L73287 18090
" />
<path d="M73169 18070
L73188 18090
" />
<path d="M73090 18070
L73169 18070
" />
<path d="M73070 18051
L73090 18070
" />
<path d="M72992 18051
L73070 18051
" />
<path d="M72972 18031
L72992 18051
" />
<path d="M72933 18031
L72972 18031
" />
<path d="M72893 18031
L72933 18031
" />
<path d="M72874 18011
L72893 18031
" />
<path d="M72854 18011
L72874 18011
" />
<path d="M72814 18011
L72854 18011
" />
<path d="M72795 17992
L72814 18011
" />
<path d="M72755 17992
L72795 17992
" />
<path d="M72736 17972
L72755 17992
" />
<path d="M72696 17972
L72736 17972
" />
<path d="M72677 17952
L72696 17972
" />
<path d="M72637 17952
L72677 17952
" />
<path d="M72618 17933
L72637 17952
" />
<path d="M72578 17933
L72618 17933
" />
<path d="M72559 17913
L72578 17933
" />
<path d="M72500 17913
L72559 17913
" />
<path d="M72480 17893
L72500 17913
" />
<path d="M72460 17893
L72480 17893
" />
<path d="M72440 17874
L72460 17893
" />
<path d="M72401 17874
L72440 17874
" />
<path d="M72381 17854
L72401 17874
" />
<path d="M72362 17854
L72381 17854
" />
<path d="M72342 17834
L72362 17854
" />
<path d="M72303 17834
L72342 17834
" />
<path d="M72283 17814
L72303 17834
" />
<path d="M72263 17814
L72283 17814
" />
<path d="M72244 17795
L72263 17814
" />
<path d="M72204 17795
L72244 17795
" />
<path d="M72185 17775
L72204 17795
" />
<path d="M72145 17775
L72185 17775
" />
<path d="M72125 17755
L72145 17775
" />
<path d="M72106 17736
L72125 17755
" />
<path d="M72066 17736
L72106 17736
" />
<path d="M72066 17696
L72066 17736
" />
<path d="M72007 17696
L72066 17696
" />
<path d="M71988 17677
L72007 17696
" />
<path d="M71968 17677
L71988 17677
" />
<path d="M71948 17657
L71968 17677
" />
<path d="M71929 17657
L71948 17657
" />
<path d="M71909 17637
L71929 17657
" />
<path d="M71889 17618
L71909 17637
" />
<path d="M71850 17618
L71889 17618
" />
<path d="M71830 17598
L71850 17618
" />
<path d="M71811 17578
L71830 17598
" />
<path d="M71791 17578
L71811 17578
" />
<path d="M71771 17559
L71791 17578
" />
<path d="M71751 17559
L71771 17559
" />
<path d="M71712 17519
L71751 17559
" />
<path d="M71692 17500
L71712 17519
" />
<path d="M71673 17500
L71692 17500
" />
<path d="M71653 17480
L71673 17500
" />
<path d="M71633 17480
L71653 17480
" />
<path d="M71594 17440
L71633 17480
" />
<path d="M71574 17440
L71594 17440
" />
<path d="M71555 17421
L71574 17440
" />
<path d="M71535 17401
L71555 17421
" />
<path d="M71515 17401
L71535 17401
" />
<path d="M71496 17381
L71515 17401
" />
<path d="M71476 17362
L71496 17381
" />
<path d="M71437 17322
L71476 17362
" />
<path d="M71417 17322
L71437 17322
" />
<path d="M71358 17263
L71417 17322
" />
<path d="M71338 17263
L71358 17263
" />
<path d="M71220 17145
L71338 17263
" />
<path d="M71200 17145
L71220 17145
" />
<path d="M71161 17106
L71200 17145
" />
<path d="M70866 16811
L71161 17106
" />
<path d="M70866 16791
L70866 16811
" />
<path d="M70748 16673
L70866 16791
" />
<path d="M70748 16653
L70748 16673
" />
<path d="M70669 16574
L70748 16653
" />
<path d="M70669 16555
L70669 16574
" />
<path d="M70610 16496
L70669 16555
" />
<path d="M70610 16476
L70610 16496
" />
<path d="M70551 16417
L70610 16476
" />
<path d="M70551 16397
L70551 16417
" />
<path d="M70531 16377
L70551 16397
" />
<path d="M70511 16358
L70531 16377
" />
<path d="M70511 16338
L70511 16358
" />
<path d="M70472 16299
L70511 16338
" />
<path d="M70452 16279
L70472 16299
" />
<path d="M70452 16240
L70452 16279
" />
<path d="M70433 16220
L70452 16240
" />
<path d="M70393 16181
L70433 16220
" />
<path d="M70393 16141
L70393 16181
" />
<path d="M70374 16122
L70393 16141
" />
<path d="M70354 16102
L70374 16122
" />
<path d="M70354 16062
L70354 16102
" />
<path d="M70334 16043
L70354 16062
" />
<path d="M70314 16023
L70334 16043
" />
<path d="M70314 15984
L70314 16023
" />
<path d="M70295 15964
L70314 15984
" />
<path d="M70275 15944
L70295 15964
" />
<path d="M70275 15905
L70275 15944
" />
<path d="M70255 15885
L70275 15905
" />
<path d="M70236 15866
L70255 15885
" />
<path d="M70236 15826
L70236 15866
" />
<path d="M70196 15787
L70236 15826
" />
<path d="M70196 15748
L70196 15787
" />
<path d="M70177 15728
L70196 15748
" />
<path d="M70157 15708
L70177 15728
" />
<path d="M70157 15669
L70157 15708
" />
<path d="M70137 15649
L70157 15669
" />
<path d="M70137 15610
L70137 15649
" />
<path d="M70118 15590
L70137 15610
" />
<path d="M70118 15551
L70118 15590
" />
<path d="M70098 15531
L70118 15551
" />
<path d="M70078 15511
L70098 15531
" />
<path d="M70078 15452
L70078 15511
" />
<path d="M70059 15433
L70078 15452
" />
<path d="M70059 15393
L70059 15433
" />
<path d="M70039 15374
L70059 15393
" />
<path d="M70039 15334
L70039 15374
" />
<path d="M70019 15314
L70039 15334
" />
<path d="M70019 15255
L70019 15314
" />
<path d="M70000 15236
L70019 15255
" />
<path d="M70000 15177
L70000 15236
" />
<path d="M69980 15157
L70000 15177
" />
<path d="M69980 15098
L69980 15157
" />
<path d="M69960 15078
L69980 15098
" />
<path d="M69960 15000
L69960 15078
" />
<path d="M69940 14980
L69960 15000
" />
<path d="M69940 14921
L69940 14980
" />
<path d="M69921 14901
L69940 14921
" />
<path d="M69921 14783
L69921 14901
" />
<path d="M69901 14763
L69921 14783
" />
<path d="M69901 14645
L69901 14763
" />
<path d="M69881 14625
L69901 14645
" />
<path d="M69881 14527
L69881 14625
" />
<path d="M69881 14448
L69881 14527
" />
<path d="M69862 14429
L69881 14448
" />
<path d="M69862 14350
L69862 14429
" />
<path d="M69862 14271
L69862 14350
" />
<path d="M69862 14173
L69862 14271
" />
<path d="M52185 14173
L69862 14173
" />
</g> 
</svg>
