<?xml version="1.0" standalone="no"?>
 <!DOCTYPE svg PUBLIC "-//W3C//DTD SVG 1.1//EN" 
 "http://www.w3.org/Graphics/SVG/1.1/DTD/svg11.dtd"> 
<svg xmlns="http://www.w3.org/2000/svg" version="1.1" 
    width="29.7002cm" height="21.0007cm" viewBox="0 0 116930 82680 ">
<title>SVG Picture created as Power_Supply-F.CrtYd.svg date 2018/12/18 02:52:01 </title>
  <desc>Picture generated by PCBNEW </desc>
<g style="fill:#000000; fill-opacity:1;stroke:#000000; stroke-opacity:1;
stroke-linecap:round; stroke-linejoin:round; "
 transform="translate(0 0) scale(1 1)">
</g>
<g style="fill:#000000; fill-opacity:0.0; 
stroke:#000000; stroke-width:-0.000393701; stroke-opacity:1; 
stroke-linecap:round; stroke-linejoin:round;">
</g>
<g style="fill:#000000; fill-opacity:0.0; 
stroke:#000000; stroke-width:19.685; stroke-opacity:1; 
stroke-linecap:round; stroke-linejoin:round;">
<path d="M55816 31299
L52391 31299
" />
<path d="M52391 31299
L52391 34724
" />
<path d="M52391 34724
L55816 34724
" />
<path d="M55816 34724
L55816 31299
" />
<path d="M50255 26003
L50255 28326
" />
<path d="M50255 28326
L57716 28326
" />
<path d="M57716 28326
L57716 26003
" />
<path d="M57716 26003
L50255 26003
" />
<path d="M50334 50718
L52106 50718
" />
<path d="M52106 50718
L52106 48809
" />
<path d="M52106 48809
L50334 48809
" />
<path d="M50334 48809
L50334 50718
" />
<path d="M68336 40476
L68336 36342
" />
<path d="M68336 40476
L71486 40476
" />
<path d="M71486 36342
L68336 36342
" />
<path d="M71486 36342
L71486 40476
" />
<path d="M68336 36342
L68336 32208
" />
<path d="M68336 36342
L71486 36342
" />
<path d="M71486 32208
L68336 32208
" />
<path d="M71486 32208
L71486 36342
" />
<path d="M68326 45161
L68326 41027
" />
<path d="M68326 45161
L71476 45161
" />
<path d="M71476 41027
L68326 41027
" />
<path d="M71476 41027
L71476 45161
" />
<path d="M68326 49295
L68326 45161
" />
<path d="M68326 49295
L71476 49295
" />
<path d="M71476 45161
L68326 45161
" />
<path d="M71476 45161
L71476 49295
" />
<path d="M54133 48641
L54133 47381
" />
<path d="M54133 47381
L50295 47381
" />
<path d="M50295 47381
L50295 48641
" />
<path d="M50295 48641
L54133 48641
" />
<path d="M66791 24763
L64547 24763
" />
<path d="M64547 24763
L64547 27007
" />
<path d="M64547 27007
L66791 27007
" />
<path d="M66791 27007
L66791 24763
" />
<path d="M68277 27228
L68277 23094
" />
<path d="M68277 27228
L71427 27228
" />
<path d="M71427 23094
L68277 23094
" />
<path d="M71427 23094
L71427 27228
" />
<path d="M68287 31381
L68287 27248
" />
<path d="M68287 31381
L71437 31381
" />
<path d="M71437 27248
L68287 27248
" />
<path d="M71437 27248
L71437 31381
" />
<path d="M64655 32726
L62411 32726
" />
<path d="M62411 32726
L62411 34970
" />
<path d="M62411 34970
L64655 34970
" />
<path d="M64655 34970
L64655 32726
" />
<path d="M64675 41515
L62431 41515
" />
<path d="M62431 41515
L62431 43759
" />
<path d="M62431 43759
L64675 43759
" />
<path d="M64675 43759
L64675 41515
" />
<path d="M66988 28255
L66988 26956
" />
<path d="M66988 26956
L65177 26956
" />
<path d="M65177 26956
L65177 28255
" />
<path d="M65177 28255
L66988 28255
" />
<path d="M62409 32602
L63708 32602
" />
<path d="M63708 32602
L63708 30791
" />
<path d="M63708 30791
L62409 30791
" />
<path d="M62409 30791
L62409 32602
" />
<path d="M62425 41354
L63724 41354
" />
<path d="M63724 41354
L63724 39543
" />
<path d="M63724 39543
L62425 39543
" />
<path d="M62425 39543
L62425 41354
" />
</g> 
</svg>
