<?xml version="1.0" standalone="no"?>
 <!DOCTYPE svg PUBLIC "-//W3C//DTD SVG 1.1//EN" 
 "http://www.w3.org/Graphics/SVG/1.1/DTD/svg11.dtd"> 
<svg xmlns="http://www.w3.org/2000/svg" version="1.1" 
    width="29.7002cm" height="21.0007cm" viewBox="0 0 116930 82680 ">
<title>SVG Picture created as Power_Supply-F.SilkS.svg date 2018/12/18 02:52:00 </title>
  <desc>Picture generated by PCBNEW </desc>
<g style="fill:#000000; fill-opacity:1;stroke:#000000; stroke-opacity:1;
stroke-linecap:round; stroke-linejoin:round; "
 transform="translate(0 0) scale(1 1)">
</g>
<g style="fill:#000000; fill-opacity:0.0; 
stroke:#000000; stroke-width:-0.000393701; stroke-opacity:1; 
stroke-linecap:round; stroke-linejoin:round;">
</g>
<g style="fill:#000000; fill-opacity:0.0; 
stroke:#000000; stroke-width:275.591; stroke-opacity:1; 
stroke-linecap:round; stroke-linejoin:round;">
<path d="M73307 18631
L73307 23287
" />
<path d="M73316 26102
L73316 25807
" />
<path d="M73336 27155
L73346 27155
" />
<path d="M73336 27824
L73336 27155
" />
<path d="M73356 29773
L73356 29557
" />
<path d="M73336 32116
L73336 31112
" />
<path d="M48326 18671
L48336 18671
" />
<path d="M48326 51771
L48326 18671
" />
<path d="M69291 55807
L52362 55807
" />
<path d="M73326 49311
L73326 51771
" />
<path d="M73326 48129
L73326 48326
" />
<path d="M73326 44685
L73326 45669
" />
<path d="M73326 43503
L73326 43602
" />
<path d="M73326 40059
L73326 40944
" />
<path d="M73326 38188
L73326 39074
" />
<path d="M73326 35531
L73326 36614
" />
<path d="M73326 33661
L73326 34448
" />
<path d="M52362 14665
L69291 14665
" />
<path d="M47834 51771
L47736 51771
" />
<path d="M47834 18700
L47834 51771
" />
<path d="M52362 14173
L69291 14173
" />
<path d="M73818 51771
L73818 18700
" />
<path d="M52362 56299
L69291 56299
" />
<circle cx="47834.6" cy="56299.2" r="4531.84" /> 
<circle cx="47834.6" cy="56299.2" r="3937.01" /> 
<circle cx="73818.9" cy="56299.2" r="4527.56" /> 
<circle cx="73818.9" cy="56299.2" r="3941.93" /> 
<circle cx="47834.6" cy="14173.2" r="3937.01" /> 
<circle cx="47834.6" cy="14173.2" r="4531.84" /> 
<circle cx="73818.9" cy="14173.2" r="3937.01" /> 
<circle cx="73818.9" cy="14173.2" r="4527.56" /> 
</g>
<g style="fill:#000000; fill-opacity:0.0; 
stroke:#000000; stroke-width:196.85; stroke-opacity:1; 
stroke-linecap:round; stroke-linejoin:round;">
<path d="M72401 39459
L72364 39534
L72364 39646
L72401 39759
L72476 39834
L72551 39871
L72701 39909
L72814 39909
L72964 39871
L73038 39834
L73113 39759
L73151 39646
L73151 39571
L73113 39459
L73076 39421
L72814 39421
L72814 39571
" />
<path d="M72364 37509
L72364 37884
L72739 37921
L72701 37884
L72664 37809
L72664 37621
L72701 37546
L72739 37509
L72814 37471
L73001 37471
L73076 37509
L73113 37546
L73151 37621
L73151 37809
L73113 37884
L73076 37921
" />
<path d="M72626 37209
L73151 37021
L72626 36834
" />
<path d="M72401 34922
L72364 34997
L72364 35109
L72401 35222
L72476 35297
L72551 35334
L72701 35372
L72814 35372
L72964 35334
L73038 35297
L73113 35222
L73151 35109
L73151 35034
L73113 34922
L73076 34884
L72814 34884
L72814 35034
" />
<path d="M72364 32972
L72364 33347
L72739 33384
L72701 33347
L72664 33272
L72664 33084
L72701 33009
L72739 32972
L72814 32934
L73001 32934
L73076 32972
L73113 33009
L73151 33084
L73151 33272
L73113 33347
L73076 33384
" />
<path d="M72626 32672
L73151 32485
L72626 32297
" />
<path d="M72539 48674
L72501 48749
L72501 48861
L72539 48974
L72614 49049
L72689 49086
L72839 49124
L72951 49124
L73101 49086
L73176 49049
L73251 48974
L73289 48861
L73289 48786
L73251 48674
L73214 48636
L72951 48636
L72951 48786
" />
<path d="M72501 47774
L72501 47286
L72801 47549
L72801 47436
L72839 47361
L72876 47324
L72951 47286
L73139 47286
L73214 47324
L73251 47361
L73289 47436
L73289 47661
L73251 47736
L73214 47774
" />
<path d="M72764 47024
L73289 46836
L72764 46649
" />
<path d="M72501 46424
L72501 45936
L72801 46199
L72801 46086
L72839 46011
L72876 45974
L72951 45936
L73139 45936
L73214 45974
L73251 46011
L73289 46086
L73289 46311
L73251 46386
L73214 46424
" />
<path d="M72539 43987
L72501 44062
L72501 44174
L72539 44287
L72614 44362
L72689 44399
L72839 44437
L72951 44437
L73101 44399
L73176 44362
L73251 44287
L73289 44174
L73289 44099
L73251 43987
L73214 43949
L72951 43949
L72951 44099
" />
<path d="M72501 43087
L72501 42599
L72801 42862
L72801 42749
L72839 42674
L72876 42637
L72951 42599
L73139 42599
L73214 42637
L73251 42674
L73289 42749
L73289 42974
L73251 43049
L73214 43087
" />
<path d="M72764 42337
L73289 42149
L72764 41962
" />
<path d="M72501 41737
L72501 41249
L72801 41512
L72801 41399
L72839 41324
L72876 41287
L72951 41249
L73139 41249
L73214 41287
L73251 41324
L73289 41399
L73289 41624
L73251 41699
L73214 41737
" />
</g>
<g style="fill:#000000; fill-opacity:0.0; 
stroke:#000000; stroke-width:393.701; stroke-opacity:1; 
stroke-linecap:round; stroke-linejoin:round;">
<path d="M66279 50988
L66579 50988
L66729 51062
L66879 51212
L66954 51512
L66954 52037
L66879 52337
L66729 52487
L66579 52562
L66279 52562
L66129 52487
L65979 52337
L65904 52037
L65904 51512
L65979 51212
L66129 51062
L66279 50988
" />
<path d="M67629 50988
L67629 52262
L67704 52412
L67779 52487
L67929 52562
L68229 52562
L68379 52487
L68454 52412
L68529 52262
L68529 50988
" />
<path d="M69054 50988
L69954 50988
" />
<path d="M69504 52562
L69504 50988
" />
<path d="M66271 19157
L66271 17582
" />
<path d="M67021 19157
L67021 17582
L67921 19157
L67921 17582
" />
</g>
<g style="fill:#000000; fill-opacity:0.0; 
stroke:#000000; stroke-width:78.7402; stroke-opacity:1; 
stroke-linecap:round; stroke-linejoin:round;">
<circle cx="47834.6" cy="56299.2" r="3937.01" /> 
<circle cx="73818.9" cy="56299.2" r="3937.01" /> 
<circle cx="73818.9" cy="14173.2" r="3956.64" /> 
<circle cx="47834.6" cy="14173.2" r="3937.01" /> 
<path d="M47834 56299
L47834 14173
" />
<path d="M73818 56299
L47834 56299
" />
<path d="M73818 14173
L73818 56299
" />
<path d="M47834 14173
L73818 14173
" />
</g>
<g style="fill:#000000; fill-opacity:0.0; 
stroke:#000000; stroke-width:59.0551; stroke-opacity:1; 
stroke-linecap:round; stroke-linejoin:round;">
<path d="M52744 22956
L52744 23087
" />
<path d="M52950 23087
L52557 23087
L52557 22899
" />
<path d="M52950 22543
L52950 22768
" />
<path d="M52950 22656
L52557 22656
L52613 22693
L52650 22731
L52669 22768
" />
</g>
<g style="fill:#000000; fill-opacity:0.0; 
stroke:#000000; stroke-width:78.7402; stroke-opacity:1; 
stroke-linecap:round; stroke-linejoin:round;">
<path d="M51350 23237
L51350 23342
" />
<path d="M51515 23342
L51200 23342
L51200 23192
" />
<path d="M51200 23072
L51455 23072
L51485 23057
L51500 23042
L51515 23012
L51515 22952
L51500 22922
L51485 22907
L51455 22892
L51200 22892
" />
<path d="M51500 22757
L51515 22712
L51515 22637
L51500 22607
L51485 22592
L51455 22577
L51425 22577
L51395 22592
L51380 22607
L51365 22637
L51350 22697
L51335 22727
L51320 22742
L51290 22757
L51260 22757
L51230 22742
L51215 22727
L51200 22697
L51200 22622
L51215 22577
" />
<path d="M51350 22442
L51350 22337
" />
<path d="M51515 22292
L51515 22442
L51200 22442
L51200 22292
" />
</g>
<g style="fill:#000000; fill-opacity:0.0; 
stroke:#000000; stroke-width:59.0551; stroke-opacity:1; 
stroke-linecap:round; stroke-linejoin:round;">
<path d="M50609 28770
L50609 29089
L50628 29126
L50646 29145
L50684 29164
L50759 29164
L50796 29145
L50815 29126
L50834 29089
L50834 28770
" />
<path d="M51228 29164
L51003 29164
" />
<path d="M51115 29164
L51115 28770
L51078 28826
L51040 28864
L51003 28883
" />
</g>
<g style="fill:#000000; fill-opacity:0.0; 
stroke:#000000; stroke-width:196.85; stroke-opacity:1; 
stroke-linecap:round; stroke-linejoin:round;">
<path d="M57114 36390
L57226 36428
L57264 36465
L57301 36540
L57301 36653
L57264 36728
L57226 36765
L57151 36803
L56851 36803
L56851 36015
L57114 36015
L57189 36053
L57226 36090
L57264 36165
L57264 36240
L57226 36315
L57189 36353
L57114 36390
L56851 36390
" />
<path d="M57976 36278
L57976 36803
" />
<path d="M57639 36278
L57639 36690
L57676 36765
L57751 36803
L57864 36803
L57939 36765
L57976 36728
" />
<path d="M58689 36765
L58614 36803
L58464 36803
L58389 36765
L58351 36728
L58314 36653
L58314 36428
L58351 36353
L58389 36315
L58464 36278
L58614 36278
L58689 36315
" />
<path d="M59026 36803
L59026 36015
" />
<path d="M59101 36503
L59326 36803
" />
<path d="M59326 36278
L59026 36578
" />
<path d="M59476 36878
L60076 36878
" />
<path d="M60638 36015
L60263 36015
L60226 36390
L60263 36353
L60338 36315
L60526 36315
L60601 36353
L60638 36390
L60676 36465
L60676 36653
L60638 36728
L60601 36765
L60526 36803
L60338 36803
L60263 36765
L60226 36728
" />
<path d="M60938 36278
L61126 36803
L61313 36278
" />
</g>
<g style="fill:#000000; fill-opacity:0.0; 
stroke:#000000; stroke-width:118.11; stroke-opacity:1; 
stroke-linecap:round; stroke-linejoin:round;">
<path d="M64839 37644
L64839 37554
L64862 37509
L64907 37464
L64997 37442
L65154 37442
L65244 37464
L65289 37509
L65312 37554
L65312 37644
L65289 37689
L65244 37734
L65154 37757
L64997 37757
L64907 37734
L64862 37689
L64839 37644
" />
<path d="M64839 37239
L65222 37239
L65267 37217
L65289 37194
L65312 37149
L65312 37059
L65289 37014
L65267 36992
L65222 36969
L64839 36969
" />
<path d="M64839 36812
L64839 36542
" />
<path d="M65312 36677
L64839 36677
" />
<path d="M65492 36250
L65469 36272
L65402 36317
L65357 36339
L65289 36362
L65177 36384
L65087 36384
L64974 36362
L64907 36339
L64862 36317
L64794 36272
L64772 36250
" />
<path d="M65132 36070
L65132 35710
" />
<path d="M65492 35530
L65469 35507
L65402 35462
L65357 35440
L65289 35417
L65177 35395
L65087 35395
L64974 35417
L64907 35440
L64862 35462
L64794 35507
L64772 35530
" />
<path d="M64829 32152
L64829 32062
L64852 32017
L64897 31972
L64987 31950
L65144 31950
L65234 31972
L65279 32017
L65302 32062
L65302 32152
L65279 32197
L65234 32242
L65144 32265
L64987 32265
L64897 32242
L64852 32197
L64829 32152
" />
<path d="M64829 31747
L65212 31747
L65257 31725
L65279 31702
L65302 31657
L65302 31567
L65279 31522
L65257 31500
L65212 31477
L64829 31477
" />
<path d="M64829 31320
L64829 31050
" />
<path d="M65302 31185
L64829 31185
" />
<path d="M65482 30757
L65459 30780
L65392 30825
L65347 30847
L65279 30870
L65167 30892
L65077 30892
L64964 30870
L64897 30847
L64852 30825
L64784 30780
L64762 30757
" />
<path d="M65122 30577
L65122 30217
" />
<path d="M65302 30397
L64942 30397
" />
<path d="M65482 30037
L65459 30015
L65392 29970
L65347 29947
L65279 29925
L65167 29902
L65077 29902
L64964 29925
L64897 29947
L64852 29970
L64784 30015
L64762 30037
" />
<path d="M52329 37636
L51857 37636
" />
<path d="M52329 37411
L51857 37411
L52329 37141
L51857 37141
" />
<path d="M52509 36781
L52487 36803
L52419 36848
L52374 36871
L52307 36893
L52194 36916
L52104 36916
L51992 36893
L51924 36871
L51879 36848
L51812 36803
L51789 36781
" />
<path d="M52149 36601
L52149 36241
" />
<path d="M52509 36061
L52487 36039
L52419 35994
L52374 35971
L52307 35949
L52194 35926
L52104 35926
L51992 35949
L51924 35971
L51879 35994
L51812 36039
L51789 36061
" />
<path d="M52320 31642
L51847 31642
" />
<path d="M52320 31417
L51847 31417
L52320 31147
L51847 31147
" />
<path d="M52500 30787
L52477 30809
L52410 30854
L52365 30877
L52297 30899
L52185 30922
L52095 30922
L51982 30899
L51915 30877
L51870 30854
L51802 30809
L51780 30787
" />
<path d="M52140 30607
L52140 30247
" />
<path d="M52320 30427
L51960 30427
" />
<path d="M52500 30067
L52477 30044
L52410 30000
L52365 29977
L52297 29955
L52185 29932
L52095 29932
L51982 29955
L51915 29977
L51870 30000
L51802 30044
L51780 30067
" />
</g>
<g style="fill:#000000; fill-opacity:0.0; 
stroke:#000000; stroke-width:59.0551; stroke-opacity:1; 
stroke-linecap:round; stroke-linejoin:round;">
<path d="M56237 33077
L56255 33096
L56274 33152
L56274 33189
L56255 33246
L56218 33283
L56180 33302
L56105 33321
L56049 33321
L55974 33302
L55937 33283
L55899 33246
L55880 33189
L55880 33152
L55899 33096
L55918 33077
" />
<path d="M56274 32702
L56274 32927
" />
<path d="M56274 32814
L55880 32814
L55937 32852
L55974 32889
L55993 32927
" />
<path d="M53452 35315
L53227 35315
" />
<path d="M53340 35315
L53340 34922
L53302 34978
L53265 35015
L53227 35034
" />
<path d="M53696 34922
L53734 34922
L53771 34940
L53790 34959
L53809 34997
L53827 35072
L53827 35165
L53809 35240
L53790 35278
L53771 35297
L53734 35315
L53696 35315
L53659 35297
L53640 35278
L53621 35240
L53602 35165
L53602 35072
L53621 34997
L53640 34959
L53659 34940
L53696 34922
" />
<path d="M54071 34922
L54109 34922
L54146 34940
L54165 34959
L54184 34997
L54202 35072
L54202 35165
L54184 35240
L54165 35278
L54146 35297
L54109 35315
L54071 35315
L54034 35297
L54015 35278
L53996 35240
L53977 35165
L53977 35072
L53996 34997
L54015 34959
L54034 34940
L54071 34922
" />
<path d="M54540 35053
L54540 35315
" />
<path d="M54371 35053
L54371 35259
L54390 35297
L54427 35315
L54483 35315
L54521 35297
L54540 35278
" />
<path d="M54671 35053
L54821 35053
" />
<path d="M54727 35315
L54727 34978
L54746 34940
L54783 34922
L54821 34922
" />
<path d="M53693 25902
L53693 25508
L53787 25508
L53843 25527
L53881 25565
L53899 25602
L53918 25677
L53918 25733
L53899 25808
L53881 25846
L53843 25883
L53787 25902
L53693 25902
" />
<path d="M54293 25902
L54068 25902
" />
<path d="M54181 25902
L54181 25508
L54143 25565
L54106 25602
L54068 25621
" />
<path d="M52707 49936
L52313 49936
L52313 49842
L52332 49786
L52370 49748
L52407 49730
L52482 49711
L52538 49711
L52613 49730
L52651 49748
L52688 49786
L52707 49842
L52707 49936
" />
<path d="M52351 49561
L52332 49542
L52313 49505
L52313 49411
L52332 49373
L52351 49355
L52388 49336
L52426 49336
L52482 49355
L52707 49580
L52707 49336
" />
<path d="M50498 51378
L50498 50985
" />
<path d="M50685 51116
L50685 51378
" />
<path d="M50685 51153
L50704 51135
L50741 51116
L50798 51116
L50835 51135
L50854 51172
L50854 51378
" />
<path d="M51210 51378
L51210 50985
" />
<path d="M51210 51360
L51173 51378
L51098 51378
L51060 51360
L51041 51341
L51023 51303
L51023 51191
L51041 51153
L51060 51135
L51098 51116
L51173 51116
L51210 51135
" />
<path d="M51398 51378
L51398 51116
" />
<path d="M51398 50985
L51379 51003
L51398 51022
L51416 51003
L51398 50985
L51398 51022
" />
<path d="M51754 51360
L51716 51378
L51641 51378
L51604 51360
L51585 51341
L51566 51303
L51566 51191
L51585 51153
L51604 51135
L51641 51116
L51716 51116
L51754 51135
" />
<path d="M52091 51378
L52091 51172
L52073 51135
L52035 51116
L51960 51116
L51923 51135
" />
<path d="M52091 51360
L52054 51378
L51960 51378
L51923 51360
L51904 51322
L51904 51285
L51923 51247
L51960 51228
L52054 51228
L52091 51210
" />
<path d="M52223 51116
L52372 51116
" />
<path d="M52279 50985
L52279 51322
L52297 51360
L52335 51378
L52372 51378
" />
<path d="M52560 51378
L52522 51360
L52504 51341
L52485 51303
L52485 51191
L52504 51153
L52522 51135
L52560 51116
L52616 51116
L52654 51135
L52672 51153
L52691 51191
L52691 51303
L52672 51341
L52654 51360
L52616 51378
L52560 51378
" />
<path d="M52860 51378
L52860 51116
" />
<path d="M52860 51191
L52879 51153
L52897 51135
L52935 51116
L52972 51116
" />
<path d="M53591 51378
L53404 51378
L53404 50985
" />
<path d="M53722 51172
L53854 51172
" />
<path d="M53910 51378
L53722 51378
L53722 50985
L53910 50985
" />
<path d="M54079 51378
L54079 50985
L54172 50985
L54229 51003
L54266 51041
L54285 51078
L54303 51153
L54303 51210
L54285 51285
L54266 51322
L54229 51360
L54172 51378
L54079 51378
" />
<path d="M63189 23105
L63189 23386
L63170 23443
L63132 23480
L63076 23499
L63039 23499
" />
<path d="M63582 23499
L63357 23499
" />
<path d="M63470 23499
L63470 23105
L63432 23161
L63395 23199
L63357 23218
" />
<path d="M58989 46935
L58989 47216
L58970 47272
L58932 47310
L58876 47329
L58839 47329
" />
<path d="M59157 46972
L59176 46954
L59214 46935
L59307 46935
L59345 46954
L59364 46972
L59382 47010
L59382 47047
L59364 47104
L59139 47329
L59382 47329
" />
<path d="M67695 38540
L67977 38540
L68033 38559
L68070 38596
L68089 38653
L68089 38690
" />
<path d="M67695 38390
L67695 38146
L67845 38278
L67845 38221
L67864 38184
L67883 38165
L67920 38146
L68014 38146
L68052 38165
L68070 38184
L68089 38221
L68089 38334
L68070 38371
L68052 38390
" />
<path d="M67695 34406
L67977 34406
L68033 34425
L68070 34463
L68089 34519
L68089 34556
" />
<path d="M67827 34050
L68089 34050
" />
<path d="M67677 34144
L67958 34238
L67958 33994
" />
<path d="M67685 43225
L67967 43225
L68023 43244
L68060 43281
L68079 43338
L68079 43375
" />
<path d="M67685 42850
L67685 43038
L67873 43056
L67854 43038
L67835 43000
L67835 42907
L67854 42869
L67873 42850
L67910 42832
L68004 42832
L68042 42850
L68060 42869
L68079 42907
L68079 43000
L68060 43038
L68042 43056
" />
<path d="M67685 47359
L67967 47359
L68023 47378
L68060 47415
L68079 47472
L68079 47509
" />
<path d="M67685 47003
L67685 47078
L67704 47115
L67723 47134
L67779 47172
L67854 47190
L68004 47190
L68042 47172
L68060 47153
L68079 47115
L68079 47040
L68060 47003
L68042 46984
L68004 46965
L67910 46965
L67873 46984
L67854 47003
L67835 47040
L67835 47115
L67854 47153
L67873 47172
L67910 47190
" />
<path d="M54717 48209
L54586 48022
" />
<path d="M54492 48209
L54492 47815
L54642 47815
L54680 47834
L54699 47853
L54717 47890
L54717 47947
L54699 47984
L54680 48003
L54642 48022
L54492 48022
" />
<path d="M55092 48209
L54867 48209
" />
<path d="M54980 48209
L54980 47815
L54942 47872
L54905 47909
L54867 47928
" />
<path d="M50609 37599
L50609 37918
L50628 37955
L50646 37974
L50684 37993
L50759 37993
L50796 37974
L50815 37955
L50834 37918
L50834 37599
" />
<path d="M51003 37636
L51021 37618
L51059 37599
L51153 37599
L51190 37618
L51209 37636
L51228 37674
L51228 37711
L51209 37768
L50984 37993
L51228 37993
" />
</g>
<g style="fill:#000000; fill-opacity:0.0; 
stroke:#000000; stroke-width:196.85; stroke-opacity:1; 
stroke-linecap:round; stroke-linejoin:round;">
<path d="M56690 45642
L56802 45680
L56840 45717
L56877 45792
L56877 45905
L56840 45980
L56802 46017
L56727 46055
L56427 46055
L56427 45267
L56690 45267
L56765 45305
L56802 45342
L56840 45417
L56840 45492
L56802 45567
L56765 45605
L56690 45642
L56427 45642
" />
<path d="M57552 45530
L57552 46055
" />
<path d="M57215 45530
L57215 45942
L57252 46017
L57327 46055
L57440 46055
L57514 46017
L57552 45980
" />
<path d="M58264 46017
L58189 46055
L58039 46055
L57964 46017
L57927 45980
L57889 45905
L57889 45680
L57927 45605
L57964 45567
L58039 45530
L58189 45530
L58264 45567
" />
<path d="M58602 46055
L58602 45267
" />
<path d="M58677 45755
L58902 46055
" />
<path d="M58902 45530
L58602 45830
" />
<path d="M59052 46130
L59652 46130
" />
<path d="M59764 45267
L60252 45267
L59989 45567
L60102 45567
L60177 45605
L60214 45642
L60252 45717
L60252 45905
L60214 45980
L60177 46017
L60102 46055
L59877 46055
L59802 46017
L59764 45980
" />
<path d="M60514 45530
L60702 46055
L60889 45530
" />
<path d="M61114 45267
L61601 45267
L61339 45567
L61452 45567
L61526 45605
L61564 45642
L61601 45717
L61601 45905
L61564 45980
L61526 46017
L61452 46055
L61227 46055
L61152 46017
L61114 45980
" />
</g>
<g style="fill:#000000; fill-opacity:0.0; 
stroke:#000000; stroke-width:118.11; stroke-opacity:1; 
stroke-linecap:round; stroke-linejoin:round;">
<path d="M64839 46473
L64839 46383
L64862 46338
L64907 46293
L64997 46271
L65154 46271
L65244 46293
L65289 46338
L65312 46383
L65312 46473
L65289 46518
L65244 46563
L65154 46586
L64997 46586
L64907 46563
L64862 46518
L64839 46473
" />
<path d="M64839 46068
L65222 46068
L65267 46046
L65289 46023
L65312 45978
L65312 45888
L65289 45843
L65267 45821
L65222 45798
L64839 45798
" />
<path d="M64839 45641
L64839 45371
" />
<path d="M65312 45506
L64839 45506
" />
<path d="M65492 45078
L65469 45101
L65402 45146
L65357 45168
L65289 45191
L65177 45213
L65087 45213
L64974 45191
L64907 45168
L64862 45146
L64794 45101
L64772 45078
" />
<path d="M65132 44898
L65132 44538
" />
<path d="M65492 44358
L65469 44336
L65402 44291
L65357 44268
L65289 44246
L65177 44223
L65087 44223
L64974 44246
L64907 44268
L64862 44291
L64794 44336
L64772 44358
" />
<path d="M64829 40981
L64829 40891
L64852 40846
L64897 40801
L64987 40778
L65144 40778
L65234 40801
L65279 40846
L65302 40891
L65302 40981
L65279 41026
L65234 41071
L65144 41093
L64987 41093
L64897 41071
L64852 41026
L64829 40981
" />
<path d="M64829 40576
L65212 40576
L65257 40553
L65279 40531
L65302 40486
L65302 40396
L65279 40351
L65257 40329
L65212 40306
L64829 40306
" />
<path d="M64829 40149
L64829 39879
" />
<path d="M65302 40014
L64829 40014
" />
<path d="M65482 39586
L65459 39609
L65392 39654
L65347 39676
L65279 39699
L65167 39721
L65077 39721
L64964 39699
L64897 39676
L64852 39654
L64784 39609
L64762 39586
" />
<path d="M65122 39406
L65122 39046
" />
<path d="M65302 39226
L64942 39226
" />
<path d="M65482 38866
L65459 38844
L65392 38799
L65347 38776
L65279 38754
L65167 38731
L65077 38731
L64964 38754
L64897 38776
L64852 38799
L64784 38844
L64762 38866
" />
<path d="M52467 46347
L51995 46347
" />
<path d="M52467 46122
L51995 46122
L52467 45852
L51995 45852
" />
<path d="M52647 45492
L52625 45514
L52557 45559
L52512 45582
L52445 45604
L52332 45627
L52242 45627
L52130 45604
L52062 45582
L52017 45559
L51950 45514
L51927 45492
" />
<path d="M52287 45312
L52287 44952
" />
<path d="M52647 44772
L52625 44749
L52557 44704
L52512 44682
L52445 44659
L52332 44637
L52242 44637
L52130 44659
L52062 44682
L52017 44704
L51950 44749
L51927 44772
" />
<path d="M52428 40510
L51955 40510
" />
<path d="M52428 40285
L51955 40285
L52428 40015
L51955 40015
" />
<path d="M52608 39655
L52585 39678
L52518 39723
L52473 39745
L52405 39767
L52293 39790
L52203 39790
L52090 39767
L52023 39745
L51978 39723
L51910 39678
L51888 39655
" />
<path d="M52248 39475
L52248 39115
" />
<path d="M52428 39295
L52068 39295
" />
<path d="M52608 38935
L52585 38913
L52518 38868
L52473 38845
L52405 38823
L52293 38800
L52203 38800
L52090 38823
L52023 38845
L51978 38868
L51910 38913
L51888 38935
" />
</g>
<g style="fill:#000000; fill-opacity:0.0; 
stroke:#000000; stroke-width:59.0551; stroke-opacity:1; 
stroke-linecap:round; stroke-linejoin:round;">
<path d="M66320 24581
L66301 24600
L66245 24619
L66207 24619
L66151 24600
L66113 24562
L66095 24525
L66076 24450
L66076 24394
L66095 24319
L66113 24281
L66151 24244
L66207 24225
L66245 24225
L66301 24244
L66320 24262
" />
<path d="M66657 24356
L66657 24619
" />
<path d="M66563 24206
L66470 24487
L66713 24487
" />
<path d="M67276 26204
L67276 26429
" />
<path d="M67276 26316
L66882 26316
L66939 26354
L66976 26391
L66995 26429
" />
<path d="M66882 25960
L66882 25922
L66901 25885
L66920 25866
L66957 25847
L67032 25829
L67126 25829
L67201 25847
L67239 25866
L67257 25885
L67276 25922
L67276 25960
L67257 25997
L67239 26016
L67201 26035
L67126 26054
L67032 26054
L66957 26035
L66920 26016
L66901 25997
L66882 25960
" />
<path d="M67014 25491
L67276 25491
" />
<path d="M67014 25660
L67220 25660
L67257 25641
L67276 25604
L67276 25547
L67257 25510
L67239 25491
" />
<path d="M67014 25360
L67014 25210
" />
<path d="M67276 25304
L66939 25304
L66901 25285
L66882 25248
L66882 25210
" />
<path d="M67636 25292
L67917 25292
L67974 25311
L68011 25348
L68030 25405
L68030 25442
" />
<path d="M67636 25142
L67636 24880
L68030 25048
" />
</g>
<g style="fill:#000000; fill-opacity:0.0; 
stroke:#000000; stroke-width:196.85; stroke-opacity:1; 
stroke-linecap:round; stroke-linejoin:round;">
<path d="M72509 26369
L72472 26444
L72472 26557
L72509 26669
L72584 26744
L72659 26782
L72809 26819
L72922 26819
L73072 26782
L73147 26744
L73222 26669
L73259 26557
L73259 26482
L73222 26369
L73184 26332
L72922 26332
L72922 26482
" />
<path d="M73259 24982
L73259 25432
" />
<path d="M73259 25207
L72472 25207
L72584 25282
L72659 25357
L72697 25432
" />
<path d="M72547 24682
L72509 24645
L72472 24570
L72472 24382
L72509 24307
L72547 24270
L72622 24232
L72697 24232
L72809 24270
L73259 24720
L73259 24232
" />
<path d="M72734 23970
L73259 23782
L72734 23595
" />
</g>
<g style="fill:#000000; fill-opacity:0.0; 
stroke:#000000; stroke-width:59.0551; stroke-opacity:1; 
stroke-linecap:round; stroke-linejoin:round;">
<path d="M67646 29446
L67927 29446
L67984 29464
L68021 29502
L68040 29558
L68040 29596
" />
<path d="M67815 29202
L67796 29239
L67777 29258
L67740 29277
L67721 29277
L67684 29258
L67665 29239
L67646 29202
L67646 29127
L67665 29089
L67684 29071
L67721 29052
L67740 29052
L67777 29071
L67796 29089
L67815 29127
L67815 29202
L67834 29239
L67852 29258
L67890 29277
L67965 29277
L68002 29258
L68021 29239
L68040 29202
L68040 29127
L68021 29089
L68002 29071
L67965 29052
L67890 29052
L67852 29071
L67834 29089
L67815 29127
" />
</g>
<g style="fill:#000000; fill-opacity:0.0; 
stroke:#000000; stroke-width:209.646; stroke-opacity:1; 
stroke-linecap:round; stroke-linejoin:round;">
<path d="M72523 30178
L72483 30258
L72483 30378
L72523 30498
L72603 30578
L72683 30618
L72843 30658
L72962 30658
L73122 30618
L73202 30578
L73282 30498
L73322 30378
L73322 30298
L73282 30178
L73242 30138
L72962 30138
L72962 30298
" />
<path d="M73322 29100
L73322 28940
L73282 28861
L73242 28821
L73122 28741
L72962 28701
L72643 28701
L72563 28741
L72523 28781
L72483 28861
L72483 29020
L72523 29100
L72563 29140
L72643 29180
L72843 29180
L72922 29140
L72962 29100
L73002 29020
L73002 28861
L72962 28781
L72922 28741
L72843 28701
" />
<path d="M72763 28421
L73322 28222
L72763 28022
" />
</g>
<g style="fill:#000000; fill-opacity:0.0; 
stroke:#000000; stroke-width:59.0551; stroke-opacity:1; 
stroke-linecap:round; stroke-linejoin:round;">
<path d="M61568 26668
L61887 26668
L61924 26649
L61943 26630
L61962 26593
L61962 26518
L61943 26480
L61924 26461
L61887 26443
L61568 26443
" />
<path d="M61568 26293
L61568 26049
L61718 26180
L61718 26124
L61737 26086
L61756 26068
L61793 26049
L61887 26049
L61924 26068
L61943 26086
L61962 26124
L61962 26236
L61943 26274
L61924 26293
" />
<path d="M61962 26996
L61962 27183
L61568 27183
" />
<path d="M61568 26902
L61568 26639
L61962 26808
" />
<path d="M61737 26433
L61718 26471
L61699 26489
L61662 26508
L61643 26508
L61606 26489
L61587 26471
L61568 26433
L61568 26358
L61587 26321
L61606 26302
L61643 26283
L61662 26283
L61699 26302
L61718 26321
L61737 26358
L61737 26433
L61756 26471
L61774 26489
L61812 26508
L61887 26508
L61924 26489
L61943 26471
L61962 26433
L61962 26358
L61943 26321
L61924 26302
L61887 26283
L61812 26283
L61774 26302
L61756 26321
L61737 26358
" />
<path d="M61568 26040
L61568 26002
L61587 25965
L61606 25946
L61643 25927
L61718 25908
L61812 25908
L61887 25927
L61924 25946
L61943 25965
L61962 26002
L61962 26040
L61943 26077
L61924 26096
L61887 26115
L61812 26133
L61718 26133
L61643 26115
L61606 26096
L61587 26077
L61568 26040
" />
<path d="M61962 25721
L61962 25646
L61943 25608
L61924 25590
L61868 25552
L61793 25533
L61643 25533
L61606 25552
L61587 25571
L61568 25608
L61568 25683
L61587 25721
L61606 25740
L61643 25758
L61737 25758
L61774 25740
L61793 25721
L61812 25683
L61812 25608
L61793 25571
L61774 25552
L61737 25533
" />
<path d="M62694 35467
L62675 35486
L62619 35504
L62581 35504
L62525 35486
L62488 35448
L62469 35411
L62450 35336
L62450 35279
L62469 35204
L62488 35167
L62525 35129
L62581 35111
L62619 35111
L62675 35129
L62694 35148
" />
<path d="M62844 35148
L62862 35129
L62900 35111
L62994 35111
L63031 35129
L63050 35148
L63069 35186
L63069 35223
L63050 35279
L62825 35504
L63069 35504
" />
<path d="M62309 34214
L62309 34438
" />
<path d="M62309 34326
L61916 34326
L61972 34363
L62010 34401
L62028 34438
" />
<path d="M61916 33970
L61916 33932
L61935 33895
L61953 33876
L61991 33857
L62066 33839
L62160 33839
L62235 33857
L62272 33876
L62291 33895
L62309 33932
L62309 33970
L62291 34007
L62272 34026
L62235 34045
L62160 34064
L62066 34064
L61991 34045
L61953 34026
L61935 34007
L61916 33970
" />
<path d="M62047 33501
L62309 33501
" />
<path d="M62047 33670
L62253 33670
L62291 33651
L62309 33614
L62309 33557
L62291 33520
L62272 33501
" />
<path d="M62047 33370
L62047 33220
" />
<path d="M62309 33314
L61972 33314
L61935 33295
L61916 33257
L61916 33220
" />
<path d="M62702 44337
L62683 44356
L62627 44374
L62589 44374
L62533 44356
L62495 44318
L62477 44281
L62458 44206
L62458 44149
L62477 44074
L62495 44037
L62533 44000
L62589 43981
L62627 43981
L62683 44000
L62702 44018
" />
<path d="M62833 43981
L63077 43981
L62945 44131
L63002 44131
L63039 44149
L63058 44168
L63077 44206
L63077 44299
L63058 44337
L63039 44356
L63002 44374
L62889 44374
L62852 44356
L62833 44337
" />
<path d="M62195 43101
L62195 43326
" />
<path d="M62195 43214
L61802 43214
L61858 43251
L61895 43289
L61914 43326
" />
<path d="M61802 42858
L61802 42820
L61820 42783
L61839 42764
L61877 42745
L61952 42726
L62045 42726
L62120 42745
L62158 42764
L62177 42783
L62195 42820
L62195 42858
L62177 42895
L62158 42914
L62120 42933
L62045 42951
L61952 42951
L61877 42933
L61839 42914
L61820 42895
L61802 42858
" />
<path d="M61933 42389
L62195 42389
" />
<path d="M61933 42558
L62139 42558
L62177 42539
L62195 42501
L62195 42445
L62177 42408
L62158 42389
" />
<path d="M61933 42258
L61933 42108
" />
<path d="M62195 42201
L61858 42201
L61820 42183
L61802 42145
L61802 42108
" />
<path d="M66017 28676
L65998 28694
L65942 28713
L65904 28713
L65848 28694
L65810 28657
L65792 28619
L65773 28544
L65773 28488
L65792 28413
L65810 28376
L65848 28338
L65904 28319
L65942 28319
L65998 28338
L66017 28357
" />
<path d="M66373 28319
L66185 28319
L66167 28507
L66185 28488
L66223 28469
L66317 28469
L66354 28488
L66373 28507
L66392 28544
L66392 28638
L66373 28676
L66354 28694
L66317 28713
L66223 28713
L66185 28694
L66167 28676
" />
<path d="M62270 31762
L62289 31781
L62308 31837
L62308 31874
L62289 31931
L62251 31968
L62214 31987
L62139 32006
L62083 32006
L62008 31987
L61970 31968
L61933 31931
L61914 31874
L61914 31837
L61933 31781
L61951 31762
" />
<path d="M61914 31425
L61914 31500
L61933 31537
L61951 31556
L62008 31593
L62083 31612
L62233 31612
L62270 31593
L62289 31574
L62308 31537
L62308 31462
L62289 31425
L62270 31406
L62233 31387
L62139 31387
L62101 31406
L62083 31425
L62064 31462
L62064 31537
L62083 31574
L62101 31593
L62139 31612
" />
<path d="M62286 40514
L62305 40533
L62323 40589
L62323 40626
L62305 40683
L62267 40720
L62230 40739
L62155 40758
L62098 40758
L62023 40739
L61986 40720
L61948 40683
L61930 40626
L61930 40589
L61948 40533
L61967 40514
" />
<path d="M61930 40383
L61930 40120
L62323 40289
" />
</g>
<g style="fill:#000000; fill-opacity:0.0; 
stroke:#000000; stroke-width:78.7402; stroke-opacity:1; 
stroke-linecap:round; stroke-linejoin:round;">
<path d="M61937 38155
L67003 38155
" />
<path d="M61909 29557
L66988 29557
" />
<path d="M66988 29557
L66988 38139
" />
<path d="M61870 29557
L61948 29557
" />
<path d="M50145 38163
L61952 38155
" />
<path d="M50137 29553
L61885 29553
" />
<path d="M50149 29938
L50149 29549
" />
<path d="M50145 29950
L50145 38139
" />
</g>
<g style="fill:#000000; fill-opacity:0.0; 
stroke:#000000; stroke-width:47.2441; stroke-opacity:1; 
stroke-linecap:round; stroke-linejoin:round;">
<circle cx="54104.3" cy="33011.8" r="1610.24" /> 
<path d="M55698 33011
L52509 33011
" />
<path d="M55698 33027
L52509 33027
" />
<path d="M55698 33043
L52509 33043
" />
<path d="M55698 33059
L52510 33059
" />
<path d="M55697 33074
L52511 33074
" />
<path d="M55697 33090
L52511 33090
" />
<path d="M55696 33106
L52512 33106
" />
<path d="M55695 33122
L52513 33122
" />
<path d="M55694 33137
L52514 33137
" />
<path d="M55692 33153
L52515 33153
" />
<path d="M55691 33169
L52517 33169
" />
<path d="M55689 33185
L52518 33185
" />
<path d="M55687 33200
L52520 33200
" />
<path d="M55685 33216
L52522 33216
" />
<path d="M55683 33232
L52524 33232
" />
<path d="M55681 33248
L52527 33248
" />
<path d="M55679 33263
L52529 33263
" />
<path d="M55676 33279
L52531 33279
" />
<path d="M55674 33295
L52534 33295
" />
<path d="M55670 33311
L52537 33311
" />
<path d="M55667 33327
L54490 33327
" />
<path d="M53718 33327
L52540 33327
" />
<path d="M55664 33342
L54490 33342
" />
<path d="M53718 33342
L52544 33342
" />
<path d="M55661 33358
L54490 33358
" />
<path d="M53718 33358
L52547 33358
" />
<path d="M55657 33374
L54490 33374
" />
<path d="M53718 33374
L52550 33374
" />
<path d="M55653 33390
L54490 33390
" />
<path d="M53718 33390
L52554 33390
" />
<path d="M55650 33405
L54490 33405
" />
<path d="M53718 33405
L52558 33405
" />
<path d="M55646 33421
L54490 33421
" />
<path d="M53718 33421
L52562 33421
" />
<path d="M55641 33437
L54490 33437
" />
<path d="M53718 33437
L52566 33437
" />
<path d="M55637 33453
L54490 33453
" />
<path d="M53718 33453
L52571 33453
" />
<path d="M55633 33468
L54490 33468
" />
<path d="M53718 33468
L52575 33468
" />
<path d="M55627 33484
L54490 33484
" />
<path d="M53718 33484
L52580 33484
" />
<path d="M55623 33500
L54490 33500
" />
<path d="M53718 33500
L52585 33500
" />
<path d="M55618 33516
L54490 33516
" />
<path d="M53718 33516
L52590 33516
" />
<path d="M55612 33531
L54490 33531
" />
<path d="M53718 33531
L52595 33531
" />
<path d="M55607 33547
L54490 33547
" />
<path d="M53718 33547
L52601 33547
" />
<path d="M55601 33563
L54490 33563
" />
<path d="M53718 33563
L52607 33563
" />
<path d="M55596 33579
L54490 33579
" />
<path d="M53718 33579
L52612 33579
" />
<path d="M55589 33594
L54490 33594
" />
<path d="M53718 33594
L52618 33594
" />
<path d="M55583 33610
L54490 33610
" />
<path d="M53718 33610
L52624 33610
" />
<path d="M55577 33626
L54490 33626
" />
<path d="M53718 33626
L52631 33626
" />
<path d="M55570 33642
L54490 33642
" />
<path d="M53718 33642
L52637 33642
" />
<path d="M55563 33657
L54490 33657
" />
<path d="M53718 33657
L52644 33657
" />
<path d="M55557 33673
L54490 33673
" />
<path d="M53718 33673
L52651 33673
" />
<path d="M55549 33689
L54490 33689
" />
<path d="M53718 33689
L52659 33689
" />
<path d="M55542 33705
L54490 33705
" />
<path d="M53718 33705
L52666 33705
" />
<path d="M55534 33720
L54490 33720
" />
<path d="M53718 33720
L52674 33720
" />
<path d="M55526 33736
L54490 33736
" />
<path d="M53718 33736
L52681 33736
" />
<path d="M55518 33752
L54490 33752
" />
<path d="M53718 33752
L52689 33752
" />
<path d="M55510 33768
L54490 33768
" />
<path d="M53718 33768
L52698 33768
" />
<path d="M55501 33783
L54490 33783
" />
<path d="M53718 33783
L52706 33783
" />
<path d="M55493 33799
L54490 33799
" />
<path d="M53718 33799
L52715 33799
" />
<path d="M55484 33815
L54490 33815
" />
<path d="M53718 33815
L52724 33815
" />
<path d="M55475 33831
L54490 33831
" />
<path d="M53718 33831
L52733 33831
" />
<path d="M55465 33846
L54490 33846
" />
<path d="M53718 33846
L52742 33846
" />
<path d="M55456 33862
L54490 33862
" />
<path d="M53718 33862
L52752 33862
" />
<path d="M55446 33878
L54490 33878
" />
<path d="M53718 33878
L52762 33878
" />
<path d="M55436 33894
L54490 33894
" />
<path d="M53718 33894
L52772 33894
" />
<path d="M55425 33909
L54490 33909
" />
<path d="M53718 33909
L52783 33909
" />
<path d="M55414 33925
L54490 33925
" />
<path d="M53718 33925
L52793 33925
" />
<path d="M55403 33941
L54490 33941
" />
<path d="M53718 33941
L52804 33941
" />
<path d="M55392 33957
L54490 33957
" />
<path d="M53718 33957
L52816 33957
" />
<path d="M55381 33972
L54490 33972
" />
<path d="M53718 33972
L52827 33972
" />
<path d="M55369 33988
L54490 33988
" />
<path d="M53718 33988
L52839 33988
" />
<path d="M55357 34004
L54490 34004
" />
<path d="M53718 34004
L52851 34004
" />
<path d="M55344 34020
L54490 34020
" />
<path d="M53718 34020
L52864 34020
" />
<path d="M55331 34035
L54490 34035
" />
<path d="M53718 34035
L52876 34035
" />
<path d="M55318 34051
L54490 34051
" />
<path d="M53718 34051
L52890 34051
" />
<path d="M55305 34067
L54490 34067
" />
<path d="M53718 34067
L52903 34067
" />
<path d="M55291 34083
L54490 34083
" />
<path d="M53718 34083
L52917 34083
" />
<path d="M55277 34098
L52931 34098
" />
<path d="M55262 34114
L52946 34114
" />
<path d="M55247 34130
L52961 34130
" />
<path d="M55232 34146
L52976 34146
" />
<path d="M55216 34161
L52992 34161
" />
<path d="M55200 34177
L53008 34177
" />
<path d="M55183 34193
L53025 34193
" />
<path d="M55166 34209
L53042 34209
" />
<path d="M55148 34224
L53060 34224
" />
<path d="M55129 34240
L53078 34240
" />
<path d="M55111 34256
L53097 34256
" />
<path d="M55091 34272
L53116 34272
" />
<path d="M55071 34287
L53137 34287
" />
<path d="M55050 34303
L53157 34303
" />
<path d="M55029 34319
L53179 34319
" />
<path d="M55007 34335
L53201 34335
" />
<path d="M54983 34350
L53224 34350
" />
<path d="M54959 34366
L53248 34366
" />
<path d="M54934 34382
L53274 34382
" />
<path d="M54908 34398
L53300 34398
" />
<path d="M54881 34413
L53327 34413
" />
<path d="M54853 34429
L53355 34429
" />
<path d="M54823 34445
L53385 34445
" />
<path d="M54791 34461
L53417 34461
" />
<path d="M54757 34476
L53450 34476
" />
<path d="M54722 34492
L53486 34492
" />
<path d="M54684 34508
L53524 34508
" />
<path d="M54643 34524
L53565 34524
" />
<path d="M54598 34539
L53610 34539
" />
<path d="M54548 34555
L53660 34555
" />
<path d="M54491 34571
L53717 34571
" />
<path d="M54424 34587
L53783 34587
" />
<path d="M54339 34602
L53868 34602
" />
<path d="M54201 34618
L54007 34618
" />
<path d="M54104 31456
L54104 31929
" />
<path d="M54360 31692
L53848 31692
" />
<path d="M52090 26118
L52090 28212
" />
<path d="M52090 28212
L55877 28212
" />
<path d="M55877 28212
L55877 26118
" />
<path d="M55877 26118
L52090 26118
" />
<path d="M51685 27165
L52090 27165
" />
<path d="M56283 27165
L55877 27165
" />
<path d="M52675 26118
L52675 28212
" />
<path d="M50795.8 49107.3 A783.465 783.465 0.0 0 0 50734 50379.9 " />
<path d="M51706.9 50379.9 A783.465 783.465 0.0 0 0 51645.1 49107.3 " />
<path d="M50795.3 49355.9 A590.551 590.551 0.0 0 0 50795.3 50175.6 " />
<path d="M51645.7 50175.6 A590.551 590.551 0.0 0 0 51645.6 49355.9 " />
<path d="M50733 50379
L50795 50379
" />
<path d="M51645 50379
L51707 50379
" />
</g>
<g style="fill:#000000; fill-opacity:0.0; 
stroke:#000000; stroke-width:590.551; stroke-opacity:1; 
stroke-linecap:round; stroke-linejoin:round;">
<path d="M64880 22741
L57559 22741
" />
<path d="M57430 22716
L57430 15551
" />
<path d="M64890 15378
L57410 15378
" />
<path d="M64910 22637
L64910 15511
" />
<path d="M61170 15758
L61170 22451
" />
<path d="M57560 47731
L64881 47731
" />
<path d="M65010 47755
L65010 54921
" />
<path d="M57550 55094
L65030 55094
" />
<path d="M57530 47834
L57530 54960
" />
<path d="M61270 54714
L61270 48021
" />
</g>
<g style="fill:#000000; fill-opacity:0.0; 
stroke:#000000; stroke-width:47.2441; stroke-opacity:1; 
stroke-linecap:round; stroke-linejoin:round;">
<path d="M70911 36409
L70911 40409
" />
<path d="M71411 36409
L68411 36409
" />
<path d="M68411 36409
L68411 40409
" />
<path d="M68411 40409
L71411 40409
" />
<path d="M71411 40409
L71411 36409
" />
<path d="M70911 32275
L70911 36275
" />
<path d="M71411 32275
L68411 32275
" />
<path d="M68411 32275
L68411 36275
" />
<path d="M68411 36275
L71411 36275
" />
<path d="M71411 36275
L71411 32275
" />
<path d="M70901 41094
L70901 45094
" />
<path d="M71401 41094
L68401 41094
" />
<path d="M68401 41094
L68401 45094
" />
<path d="M68401 45094
L71401 45094
" />
<path d="M71401 45094
L71401 41094
" />
<path d="M70901 45228
L70901 49228
" />
<path d="M71401 45228
L68401 45228
" />
<path d="M68401 45228
L68401 49228
" />
<path d="M68401 49228
L71401 49228
" />
<path d="M71401 49228
L71401 45228
" />
<path d="M53484 48397
L53484 48527
" />
<path d="M53484 48527
L50956 48527
" />
<path d="M50956 48527
L50956 48397
" />
<path d="M53484 47625
L53484 47496
" />
<path d="M53484 47496
L50956 47496
" />
<path d="M50956 47496
L50956 47625
" />
</g>
<g style="fill:#000000; fill-opacity:0.0; 
stroke:#000000; stroke-width:78.7402; stroke-opacity:1; 
stroke-linecap:round; stroke-linejoin:round;">
<path d="M61937 46984
L67003 46984
" />
<path d="M61909 38385
L66988 38385
" />
<path d="M66988 38385
L66988 46968
" />
<path d="M61870 38385
L61948 38385
" />
<path d="M50145 46992
L61952 46984
" />
<path d="M50137 38381
L61885 38381
" />
<path d="M50149 38767
L50149 38377
" />
<path d="M50145 38779
L50145 46968
" />
</g>
<g style="fill:#000000; fill-opacity:0.0; 
stroke:#000000; stroke-width:47.2441; stroke-opacity:1; 
stroke-linecap:round; stroke-linejoin:round;">
<path d="M66055.7 26829.5 A1019.69 1019.69 0.0 0 0 66055.1 24942 " />
<path d="M65283.5 24942 A1019.69 1019.69 0.0 0 0 65282.9 26829.5 " />
<path d="M65282.9 26829.5 A1019.69 1019.69 0.0 0 0 66055.1 26829.7 " />
<path d="M66673 25885
L64665 25885
" />
<path d="M66673 25901
L64665 25901
" />
<path d="M66672 25917
L64665 25917
" />
<path d="M66672 25933
L64666 25933
" />
<path d="M66671 25948
L64666 25948
" />
<path d="M66670 25964
L64668 25964
" />
<path d="M66668 25980
L64669 25980
" />
<path d="M66667 25996
L66055 25996
" />
<path d="M65283 25996
L64671 25996
" />
<path d="M66665 26011
L66055 26011
" />
<path d="M65283 26011
L64672 26011
" />
<path d="M66663 26027
L66055 26027
" />
<path d="M65283 26027
L64675 26027
" />
<path d="M66661 26043
L66055 26043
" />
<path d="M65283 26043
L64677 26043
" />
<path d="M66658 26059
L66055 26059
" />
<path d="M65283 26059
L64679 26059
" />
<path d="M66655 26074
L66055 26074
" />
<path d="M65283 26074
L64682 26074
" />
<path d="M66652 26090
L66055 26090
" />
<path d="M65283 26090
L64685 26090
" />
<path d="M66649 26106
L66055 26106
" />
<path d="M65283 26106
L64689 26106
" />
<path d="M66645 26122
L66055 26122
" />
<path d="M65283 26122
L64692 26122
" />
<path d="M66641 26137
L66055 26137
" />
<path d="M65283 26137
L64696 26137
" />
<path d="M66637 26153
L66055 26153
" />
<path d="M65283 26153
L64700 26153
" />
<path d="M66633 26169
L66055 26169
" />
<path d="M65283 26169
L64705 26169
" />
<path d="M66628 26185
L66055 26185
" />
<path d="M65283 26185
L64710 26185
" />
<path d="M66623 26201
L66055 26201
" />
<path d="M65283 26201
L64714 26201
" />
<path d="M66618 26216
L66055 26216
" />
<path d="M65283 26216
L64720 26216
" />
<path d="M66612 26232
L66055 26232
" />
<path d="M65283 26232
L64725 26232
" />
<path d="M66607 26248
L66055 26248
" />
<path d="M65283 26248
L64731 26248
" />
<path d="M66600 26264
L66055 26264
" />
<path d="M65283 26264
L64737 26264
" />
<path d="M66594 26279
L66055 26279
" />
<path d="M65283 26279
L64744 26279
" />
<path d="M66587 26295
L66055 26295
" />
<path d="M65283 26295
L64750 26295
" />
<path d="M66580 26311
L66055 26311
" />
<path d="M65283 26311
L64757 26311
" />
<path d="M66573 26327
L66055 26327
" />
<path d="M65283 26327
L64765 26327
" />
<path d="M66565 26342
L66055 26342
" />
<path d="M65283 26342
L64773 26342
" />
<path d="M66557 26358
L66055 26358
" />
<path d="M65283 26358
L64781 26358
" />
<path d="M66548 26374
L66055 26374
" />
<path d="M65283 26374
L64789 26374
" />
<path d="M66540 26390
L66055 26390
" />
<path d="M65283 26390
L64798 26390
" />
<path d="M66531 26405
L66055 26405
" />
<path d="M65283 26405
L64807 26405
" />
<path d="M66521 26421
L66055 26421
" />
<path d="M65283 26421
L64816 26421
" />
<path d="M66511 26437
L66055 26437
" />
<path d="M65283 26437
L64826 26437
" />
<path d="M66501 26453
L66055 26453
" />
<path d="M65283 26453
L64837 26453
" />
<path d="M66490 26468
L66055 26468
" />
<path d="M65283 26468
L64848 26468
" />
<path d="M66479 26484
L66055 26484
" />
<path d="M65283 26484
L64859 26484
" />
<path d="M66467 26500
L66055 26500
" />
<path d="M65283 26500
L64870 26500
" />
<path d="M66455 26516
L66055 26516
" />
<path d="M65283 26516
L64883 26516
" />
<path d="M66442 26531
L66055 26531
" />
<path d="M65283 26531
L64895 26531
" />
<path d="M66429 26547
L66055 26547
" />
<path d="M65283 26547
L64908 26547
" />
<path d="M66416 26563
L66055 26563
" />
<path d="M65283 26563
L64922 26563
" />
<path d="M66401 26579
L66055 26579
" />
<path d="M65283 26579
L64936 26579
" />
<path d="M66387 26594
L66055 26594
" />
<path d="M65283 26594
L64951 26594
" />
<path d="M66371 26610
L66055 26610
" />
<path d="M65283 26610
L64967 26610
" />
<path d="M66355 26626
L66055 26626
" />
<path d="M65283 26626
L64983 26626
" />
<path d="M66338 26642
L66055 26642
" />
<path d="M65283 26642
L65000 26642
" />
<path d="M66320 26657
L66055 26657
" />
<path d="M65283 26657
L65018 26657
" />
<path d="M66301 26673
L66055 26673
" />
<path d="M65283 26673
L65037 26673
" />
<path d="M66281 26689
L66055 26689
" />
<path d="M65283 26689
L65056 26689
" />
<path d="M66261 26705
L66055 26705
" />
<path d="M65283 26705
L65077 26705
" />
<path d="M66239 26720
L66055 26720
" />
<path d="M65283 26720
L65099 26720
" />
<path d="M66216 26736
L66055 26736
" />
<path d="M65283 26736
L65122 26736
" />
<path d="M66191 26752
L66055 26752
" />
<path d="M65283 26752
L65146 26752
" />
<path d="M66165 26768
L65172 26768
" />
<path d="M66137 26783
L65201 26783
" />
<path d="M66107 26799
L65231 26799
" />
<path d="M66074 26815
L65264 26815
" />
<path d="M66037 26831
L65301 26831
" />
<path d="M65995 26846
L65342 26846
" />
<path d="M65947 26862
L65390 26862
" />
<path d="M65889 26878
L65449 26878
" />
<path d="M65808 26894
L65529 26894
" />
<path d="M65669 24527
L65669 25000
" />
<path d="M65925 24763
L65413 24763
" />
<path d="M70852 23161
L70852 27161
" />
<path d="M71352 23161
L68352 23161
" />
<path d="M68352 23161
L68352 27161
" />
<path d="M68352 27161
L71352 27161
" />
<path d="M71352 27161
L71352 23161
" />
<path d="M70862 27314
L70862 31314
" />
<path d="M71362 27314
L68362 27314
" />
<path d="M68362 27314
L68362 31314
" />
<path d="M68362 31314
L71362 31314
" />
<path d="M71362 31314
L71362 27314
" />
</g>
<g style="fill:#000000; fill-opacity:0.0; 
stroke:#000000; stroke-width:59.0551; stroke-opacity:1; 
stroke-linecap:round; stroke-linejoin:round;">
<path d="M62834 24468
L64184 24468
" />
<path d="M62834 28268
L64184 28268
" />
<path d="M62384 24268
L62384 28468
" />
<path d="M62784 25668
L62284 25668
" />
<path d="M62784 27068
L62284 27068
" />
<path d="M62834 28468
L62834 24268
" />
<path d="M64184 24268
L64184 28468
" />
<path d="M62284 28468
L64184 28468
" />
<path d="M62284 24268
L64184 24268
" />
<path d="M62284 24268
L62284 28468
" />
</g>
<g style="fill:#000000; fill-opacity:0.0; 
stroke:#000000; stroke-width:47.2441; stroke-opacity:1; 
stroke-linecap:round; stroke-linejoin:round;">
<path d="M63919.8 34792.1 A1019.69 1019.69 0.0 0 0 63919.3 32904.6 " />
<path d="M63147.6 32904.6 A1019.69 1019.69 0.0 0 0 63147.1 34792.1 " />
<path d="M63147.1 34792.1 A1019.69 1019.69 0.0 0 0 63919.3 34792.3 " />
<path d="M64537 33848
L62529 33848
" />
<path d="M64537 33864
L62529 33864
" />
<path d="M64537 33879
L62529 33879
" />
<path d="M64536 33895
L62530 33895
" />
<path d="M64535 33911
L62531 33911
" />
<path d="M64534 33927
L62532 33927
" />
<path d="M64533 33942
L62533 33942
" />
<path d="M64531 33958
L63919 33958
" />
<path d="M63147 33958
L62535 33958
" />
<path d="M64529 33974
L63919 33974
" />
<path d="M63147 33974
L62537 33974
" />
<path d="M64527 33990
L63919 33990
" />
<path d="M63147 33990
L62539 33990
" />
<path d="M64525 34005
L63919 34005
" />
<path d="M63147 34005
L62541 34005
" />
<path d="M64522 34021
L63919 34021
" />
<path d="M63147 34021
L62544 34021
" />
<path d="M64520 34037
L63919 34037
" />
<path d="M63147 34037
L62546 34037
" />
<path d="M64516 34053
L63919 34053
" />
<path d="M63147 34053
L62550 34053
" />
<path d="M64513 34068
L63919 34068
" />
<path d="M63147 34068
L62553 34068
" />
<path d="M64509 34084
L63919 34084
" />
<path d="M63147 34084
L62557 34084
" />
<path d="M64505 34100
L63919 34100
" />
<path d="M63147 34100
L62561 34100
" />
<path d="M64501 34116
L63919 34116
" />
<path d="M63147 34116
L62564 34116
" />
<path d="M64497 34132
L63919 34132
" />
<path d="M63147 34132
L62569 34132
" />
<path d="M64492 34148
L63919 34148
" />
<path d="M63147 34148
L62574 34148
" />
<path d="M64487 34163
L63919 34163
" />
<path d="M63147 34163
L62579 34163
" />
<path d="M64482 34179
L63919 34179
" />
<path d="M63147 34179
L62584 34179
" />
<path d="M64476 34195
L63919 34195
" />
<path d="M63147 34195
L62590 34195
" />
<path d="M64471 34211
L63919 34211
" />
<path d="M63147 34211
L62595 34211
" />
<path d="M64464 34226
L63919 34226
" />
<path d="M63147 34226
L62601 34226
" />
<path d="M64458 34242
L63919 34242
" />
<path d="M63147 34242
L62608 34242
" />
<path d="M64451 34258
L63919 34258
" />
<path d="M63147 34258
L62614 34258
" />
<path d="M64444 34274
L63919 34274
" />
<path d="M63147 34274
L62622 34274
" />
<path d="M64437 34289
L63919 34289
" />
<path d="M63147 34289
L62629 34289
" />
<path d="M64429 34305
L63919 34305
" />
<path d="M63147 34305
L62637 34305
" />
<path d="M64421 34321
L63919 34321
" />
<path d="M63147 34321
L62645 34321
" />
<path d="M64412 34337
L63919 34337
" />
<path d="M63147 34337
L62653 34337
" />
<path d="M64404 34352
L63919 34352
" />
<path d="M63147 34352
L62662 34352
" />
<path d="M64395 34368
L63919 34368
" />
<path d="M63147 34368
L62671 34368
" />
<path d="M64385 34384
L63919 34384
" />
<path d="M63147 34384
L62681 34384
" />
<path d="M64375 34400
L63919 34400
" />
<path d="M63147 34400
L62690 34400
" />
<path d="M64365 34415
L63919 34415
" />
<path d="M63147 34415
L62701 34415
" />
<path d="M64354 34431
L63919 34431
" />
<path d="M63147 34431
L62712 34431
" />
<path d="M64343 34447
L63919 34447
" />
<path d="M63147 34447
L62723 34447
" />
<path d="M64331 34462
L63919 34462
" />
<path d="M63147 34462
L62735 34462
" />
<path d="M64319 34478
L63919 34478
" />
<path d="M63147 34478
L62747 34478
" />
<path d="M64307 34494
L63919 34494
" />
<path d="M63147 34494
L62759 34494
" />
<path d="M64294 34510
L63919 34510
" />
<path d="M63147 34510
L62772 34510
" />
<path d="M64280 34525
L63919 34525
" />
<path d="M63147 34525
L62786 34525
" />
<path d="M64266 34541
L63919 34541
" />
<path d="M63147 34541
L62800 34541
" />
<path d="M64251 34557
L63919 34557
" />
<path d="M63147 34557
L62815 34557
" />
<path d="M64235 34573
L63919 34573
" />
<path d="M63147 34573
L62831 34573
" />
<path d="M64219 34588
L63919 34588
" />
<path d="M63147 34588
L62847 34588
" />
<path d="M64202 34604
L63919 34604
" />
<path d="M63147 34604
L62864 34604
" />
<path d="M64184 34620
L63919 34620
" />
<path d="M63147 34620
L62882 34620
" />
<path d="M64165 34636
L63919 34636
" />
<path d="M63147 34636
L62901 34636
" />
<path d="M64146 34651
L63919 34651
" />
<path d="M63147 34651
L62920 34651
" />
<path d="M64125 34667
L63919 34667
" />
<path d="M63147 34667
L62941 34667
" />
<path d="M64103 34683
L63919 34683
" />
<path d="M63147 34683
L62963 34683
" />
<path d="M64080 34699
L63919 34699
" />
<path d="M63147 34699
L62986 34699
" />
<path d="M64055 34714
L63919 34714
" />
<path d="M63147 34714
L63011 34714
" />
<path d="M64029 34730
L63037 34730
" />
<path d="M64001 34746
L63065 34746
" />
<path d="M63971 34762
L63095 34762
" />
<path d="M63938 34777
L63128 34777
" />
<path d="M63901 34793
L63165 34793
" />
<path d="M63859 34809
L63207 34809
" />
<path d="M63811 34825
L63255 34825
" />
<path d="M63753 34840
L63313 34840
" />
<path d="M63672 34856
L63394 34856
" />
<path d="M63533 32490
L63533 32962
" />
<path d="M63789 32726
L63277 32726
" />
<path d="M63939.5 43581.4 A1019.69 1019.69 0.0 0 0 63939 41693.9 " />
<path d="M63167.3 41693.9 A1019.69 1019.69 0.0 0 0 63166.8 43581.4 " />
<path d="M63166.8 43581.4 A1019.69 1019.69 0.0 0 0 63939 43581.7 " />
<path d="M64557 42637
L62549 42637
" />
<path d="M64557 42653
L62549 42653
" />
<path d="M64556 42669
L62549 42669
" />
<path d="M64556 42685
L62550 42685
" />
<path d="M64555 42700
L62550 42700
" />
<path d="M64554 42716
L62551 42716
" />
<path d="M64552 42732
L62553 42732
" />
<path d="M64551 42748
L63938 42748
" />
<path d="M63167 42748
L62555 42748
" />
<path d="M64549 42763
L63938 42763
" />
<path d="M63167 42763
L62556 42763
" />
<path d="M64547 42779
L63938 42779
" />
<path d="M63167 42779
L62559 42779
" />
<path d="M64544 42795
L63938 42795
" />
<path d="M63167 42795
L62561 42795
" />
<path d="M64542 42811
L63938 42811
" />
<path d="M63167 42811
L62563 42811
" />
<path d="M64539 42826
L63938 42826
" />
<path d="M63167 42826
L62566 42826
" />
<path d="M64536 42842
L63938 42842
" />
<path d="M63167 42842
L62569 42842
" />
<path d="M64533 42858
L63938 42858
" />
<path d="M63167 42858
L62573 42858
" />
<path d="M64529 42874
L63938 42874
" />
<path d="M63167 42874
L62576 42874
" />
<path d="M64525 42889
L63938 42889
" />
<path d="M63167 42889
L62580 42889
" />
<path d="M64521 42905
L63938 42905
" />
<path d="M63167 42905
L62584 42905
" />
<path d="M64516 42921
L63938 42921
" />
<path d="M63167 42921
L62589 42921
" />
<path d="M64512 42937
L63938 42937
" />
<path d="M63167 42937
L62594 42937
" />
<path d="M64507 42953
L63938 42953
" />
<path d="M63167 42953
L62598 42953
" />
<path d="M64501 42968
L63938 42968
" />
<path d="M63167 42968
L62604 42968
" />
<path d="M64496 42984
L63938 42984
" />
<path d="M63167 42984
L62609 42984
" />
<path d="M64490 43000
L63938 43000
" />
<path d="M63167 43000
L62615 43000
" />
<path d="M64484 43016
L63938 43016
" />
<path d="M63167 43016
L62621 43016
" />
<path d="M64478 43031
L63938 43031
" />
<path d="M63167 43031
L62627 43031
" />
<path d="M64471 43047
L63938 43047
" />
<path d="M63167 43047
L62634 43047
" />
<path d="M64464 43063
L63938 43063
" />
<path d="M63167 43063
L62641 43063
" />
<path d="M64457 43079
L63938 43079
" />
<path d="M63167 43079
L62649 43079
" />
<path d="M64449 43094
L63938 43094
" />
<path d="M63167 43094
L62657 43094
" />
<path d="M64441 43110
L63938 43110
" />
<path d="M63167 43110
L62664 43110
" />
<path d="M64432 43126
L63938 43126
" />
<path d="M63167 43126
L62673 43126
" />
<path d="M64424 43142
L63938 43142
" />
<path d="M63167 43142
L62682 43142
" />
<path d="M64414 43157
L63938 43157
" />
<path d="M63167 43157
L62691 43157
" />
<path d="M64405 43173
L63938 43173
" />
<path d="M63167 43173
L62700 43173
" />
<path d="M64395 43189
L63938 43189
" />
<path d="M63167 43189
L62710 43189
" />
<path d="M64385 43205
L63938 43205
" />
<path d="M63167 43205
L62721 43205
" />
<path d="M64374 43220
L63938 43220
" />
<path d="M63167 43220
L62731 43220
" />
<path d="M64363 43236
L63938 43236
" />
<path d="M63167 43236
L62742 43236
" />
<path d="M64351 43252
L63938 43252
" />
<path d="M63167 43252
L62754 43252
" />
<path d="M64339 43268
L63938 43268
" />
<path d="M63167 43268
L62766 43268
" />
<path d="M64326 43283
L63938 43283
" />
<path d="M63167 43283
L62779 43283
" />
<path d="M64313 43299
L63938 43299
" />
<path d="M63167 43299
L62792 43299
" />
<path d="M64300 43315
L63938 43315
" />
<path d="M63167 43315
L62806 43315
" />
<path d="M64285 43331
L63938 43331
" />
<path d="M63167 43331
L62820 43331
" />
<path d="M64270 43346
L63938 43346
" />
<path d="M63167 43346
L62835 43346
" />
<path d="M64255 43362
L63938 43362
" />
<path d="M63167 43362
L62851 43362
" />
<path d="M64238 43378
L63938 43378
" />
<path d="M63167 43378
L62867 43378
" />
<path d="M64222 43394
L63938 43394
" />
<path d="M63167 43394
L62884 43394
" />
<path d="M64204 43409
L63938 43409
" />
<path d="M63167 43409
L62901 43409
" />
<path d="M64185 43425
L63938 43425
" />
<path d="M63167 43425
L62920 43425
" />
<path d="M64165 43441
L63938 43441
" />
<path d="M63167 43441
L62940 43441
" />
<path d="M64145 43457
L63938 43457
" />
<path d="M63167 43457
L62961 43457
" />
<path d="M64123 43472
L63938 43472
" />
<path d="M63167 43472
L62983 43472
" />
<path d="M64100 43488
L63938 43488
" />
<path d="M63167 43488
L63005 43488
" />
<path d="M64075 43504
L63938 43504
" />
<path d="M63167 43504
L63030 43504
" />
<path d="M64049 43520
L63056 43520
" />
<path d="M64021 43535
L63085 43535
" />
<path d="M63990 43551
L63115 43551
" />
<path d="M63957 43567
L63148 43567
" />
<path d="M63920 43583
L63185 43583
" />
<path d="M63879 43598
L63226 43598
" />
<path d="M63831 43614
L63274 43614
" />
<path d="M63773 43630
L63333 43630
" />
<path d="M63692 43646
L63413 43646
" />
<path d="M63553 41279
L63553 41751
" />
<path d="M63809 41515
L63297 41515
" />
<path d="M66854 28141
L65311 28141
" />
<path d="M66854 27070
L65311 27070
" />
<path d="M66854 28141
L66854 27901
" />
<path d="M66854 27311
L66854 27070
" />
<path d="M65311 28141
L65311 27901
" />
<path d="M65311 27311
L65311 27070
" />
<path d="M62523 32468
L62523 30925
" />
<path d="M63594 32468
L63594 30925
" />
<path d="M62523 32468
L62763 32468
" />
<path d="M63354 32468
L63594 32468
" />
<path d="M62523 30925
L62763 30925
" />
<path d="M63354 30925
L63594 30925
" />
<path d="M62539 41220
L62539 39677
" />
<path d="M63610 41220
L63610 39677
" />
<path d="M62539 41220
L62779 41220
" />
<path d="M63370 41220
L63610 41220
" />
<path d="M62539 39677
L62779 39677
" />
<path d="M63370 39677
L63610 39677
" />
</g>
<g style="fill:#000000; fill-opacity:1.0; 
stroke:#000000; stroke-width:0; stroke-opacity:1; 
stroke-linecap:round; stroke-linejoin:round;">
<circle cx="52322.8" cy="21474.8" r="984.252" /> 
</g>
<g style="fill:#000000; fill-opacity:1.0; 
stroke:#000000; stroke-width:39.3701; stroke-opacity:1; 
stroke-linecap:round; stroke-linejoin:round;">
</g>
<g style="fill:#000000; fill-opacity:1.0; 
stroke:#000000; stroke-width:0; stroke-opacity:1; 
stroke-linecap:round; stroke-linejoin:round;">
<circle cx="52322.8" cy="23824.8" r="984.252" /> 
</g>
<g style="fill:#000000; fill-opacity:1.0; 
stroke:#000000; stroke-width:39.3701; stroke-opacity:1; 
stroke-linecap:round; stroke-linejoin:round;">
</g>
<g style="fill:#000000; fill-opacity:1.0; 
stroke:#000000; stroke-width:1968.5; stroke-opacity:1; 
stroke-linecap:round; stroke-linejoin:round;">
</g>
<g style="fill:#000000; fill-opacity:0.0; 
stroke:#000000; stroke-width:1968.5; stroke-opacity:1; 
stroke-linecap:round; stroke-linejoin:round;">
<path d="M63040 21427
L63040 21427
" />
<path d="M59300 21427
L59300 21427
" />
<path d="M63040 16782
L63040 16782
" />
<path d="M59300 16782
L59300 16782
" />
<path d="M59400 49044
L59400 49044
" />
<path d="M63140 49044
L63140 49044
" />
<path d="M59400 53690
L59400 53690
" />
<path d="M63140 53690
L63140 53690
" />
</g> 
</svg>
