<?xml version="1.0" standalone="no"?>
 <!DOCTYPE svg PUBLIC "-//W3C//DTD SVG 1.1//EN" 
 "http://www.w3.org/Graphics/SVG/1.1/DTD/svg11.dtd"> 
<svg xmlns="http://www.w3.org/2000/svg" version="1.1" 
    width="29.7002cm" height="21.0007cm" viewBox="0 0 116930 82680 ">
<title>SVG Picture created as Power_Supply-F.Fab.svg date 2018/12/18 02:52:01 </title>
  <desc>Picture generated by PCBNEW </desc>
<g style="fill:#000000; fill-opacity:1;stroke:#000000; stroke-opacity:1;
stroke-linecap:round; stroke-linejoin:round; "
 transform="translate(0 0) scale(1 1)">
</g>
<g style="fill:#000000; fill-opacity:0.0; 
stroke:#000000; stroke-width:-0.000393701; stroke-opacity:1; 
stroke-linecap:round; stroke-linejoin:round;">
</g>
<g style="fill:#000000; fill-opacity:0.0; 
stroke:#000000; stroke-width:59.0551; stroke-opacity:1; 
stroke-linecap:round; stroke-linejoin:round;">
<path d="M53952 27412
L53952 27018
L54045 27018
L54101 27037
L54139 27074
L54158 27112
L54176 27187
L54176 27243
L54158 27318
L54139 27356
L54101 27393
L54045 27412
L53952 27412
" />
<path d="M68731 38422
L68731 38609
L68918 38628
L68899 38609
L68881 38572
L68881 38478
L68899 38441
L68918 38422
L68956 38403
L69049 38403
L69087 38422
L69106 38441
L69124 38478
L69124 38572
L69106 38609
L69087 38628
" />
<path d="M68862 38272
L69124 38178
L68862 38084
" />
<path d="M68731 34377
L68731 34564
L68918 34583
L68899 34564
L68881 34527
L68881 34433
L68899 34395
L68918 34377
L68956 34358
L69049 34358
L69087 34377
L69106 34395
L69124 34433
L69124 34527
L69106 34564
L69087 34583
" />
<path d="M68862 34227
L69124 34133
L68862 34039
" />
<path d="M68691 43480
L68691 43236
L68841 43368
L68841 43311
L68860 43274
L68879 43255
L68916 43236
L69010 43236
L69048 43255
L69066 43274
L69085 43311
L69085 43424
L69066 43461
L69048 43480
" />
<path d="M68823 43105
L69085 43011
L68823 42918
" />
<path d="M68691 42805
L68691 42561
L68841 42693
L68841 42636
L68860 42599
L68879 42580
L68916 42561
L69010 42561
L69048 42580
L69066 42599
L69085 42636
L69085 42749
L69066 42786
L69048 42805
" />
<path d="M68642 47634
L68642 47390
L68792 47521
L68792 47465
L68811 47427
L68830 47409
L68867 47390
L68961 47390
L68998 47409
L69017 47427
L69036 47465
L69036 47577
L69017 47615
L68998 47634
" />
<path d="M68773 47259
L69036 47165
L68773 47071
" />
<path d="M68642 46959
L68642 46715
L68792 46846
L68792 46790
L68811 46752
L68830 46734
L68867 46715
L68961 46715
L68998 46734
L69017 46752
L69036 46790
L69036 46902
L69017 46940
L68998 46959
" />
<path d="M52058 48199
L51833 48199
" />
<path d="M51946 48199
L51946 47806
L51908 47862
L51871 47899
L51833 47918
" />
<path d="M52227 48199
L52227 47806
" />
<path d="M52265 48049
L52377 48199
" />
<path d="M52377 47937
L52227 48087
" />
<path d="M52527 47843
L52546 47824
L52583 47806
L52677 47806
L52715 47824
L52733 47843
L52752 47881
L52752 47918
L52733 47974
L52508 48199
L52752 48199
" />
<path d="M65820 26855
L65595 26855
" />
<path d="M65707 26855
L65707 26461
L65670 26517
L65632 26555
L65595 26574
" />
<path d="M66063 26461
L66101 26461
L66138 26480
L66157 26499
L66176 26536
L66195 26611
L66195 26705
L66176 26780
L66157 26817
L66138 26836
L66101 26855
L66063 26855
L66026 26836
L66007 26817
L65988 26780
L65970 26705
L65970 26611
L65988 26536
L66007 26499
L66026 26480
L66063 26461
" />
<path d="M66532 26592
L66532 26855
" />
<path d="M66438 26442
L66345 26724
L66588 26724
" />
<path d="M64166 31959
L64166 32184
" />
<path d="M64166 32071
L63772 32071
L63828 32109
L63866 32146
L63885 32184
" />
<path d="M63772 31715
L63772 31678
L63791 31640
L63810 31621
L63847 31603
L63922 31584
L64016 31584
L64091 31603
L64128 31621
L64147 31640
L64166 31678
L64166 31715
L64147 31753
L64128 31771
L64091 31790
L64016 31809
L63922 31809
L63847 31790
L63810 31771
L63791 31753
L63772 31715
" />
<path d="M63903 31246
L64166 31246
" />
<path d="M63753 31340
L64035 31434
L64035 31190
" />
<path d="M64182 40711
L64182 40936
" />
<path d="M64182 40823
L63788 40823
L63844 40861
L63882 40898
L63900 40936
" />
<path d="M63788 40467
L63788 40430
L63807 40392
L63825 40373
L63863 40355
L63938 40336
L64032 40336
L64107 40355
L64144 40373
L64163 40392
L64182 40430
L64182 40467
L64163 40505
L64144 40523
L64107 40542
L64032 40561
L63938 40561
L63863 40542
L63825 40523
L63807 40505
L63788 40467
" />
<path d="M63919 39998
L64182 39998
" />
<path d="M63769 40092
L64050 40186
L64050 39942
" />
</g>
<g style="fill:#000000; fill-opacity:0.0; 
stroke:#000000; stroke-width:39.3701; stroke-opacity:1; 
stroke-linecap:round; stroke-linejoin:round;">
<circle cx="54104.3" cy="33011.8" r="1574.8" /> 
<path d="M54104 31456
L54104 31929
" />
<path d="M54360 31692
L53848 31692
" />
<path d="M52114 26141
L52114 28188
" />
<path d="M52114 28188
L55854 28188
" />
<path d="M55854 28188
L55854 26141
" />
<path d="M55854 26141
L52114 26141
" />
<path d="M50984 27165
L52114 27165
" />
<path d="M56984 27165
L55854 27165
" />
<path d="M52675 26141
L52675 28188
" />
<path d="M51679.3 50356.5 A748.031 748.031 0.0 1 0 50761.3 50356.3 " />
<circle cx="51220.5" cy="49765.7" r="590.551" /> 
<path d="M50761 50356
L51679 50356
" />
<path d="M70915 40358
L70915 36460
" />
<path d="M68435 40377
L71387 40377
" />
<path d="M71387 40377
L71387 36440
" />
<path d="M71387 36440
L68435 36440
" />
<path d="M68435 36440
L68435 40377
" />
<path d="M70915 36224
L70915 32326
" />
<path d="M68435 36244
L71387 36244
" />
<path d="M71387 36244
L71387 32307
" />
<path d="M71387 32307
L68435 32307
" />
<path d="M68435 32307
L68435 36244
" />
<path d="M70905 45043
L70905 41145
" />
<path d="M68425 45062
L71377 45062
" />
<path d="M71377 45062
L71377 41125
" />
<path d="M71377 41125
L68425 41125
" />
<path d="M68425 41125
L68425 45062
" />
<path d="M70905 49177
L70905 45279
" />
<path d="M68425 49196
L71377 49196
" />
<path d="M71377 49196
L71377 45259
" />
<path d="M71377 45259
L68425 45259
" />
<path d="M68425 45259
L68425 49196
" />
<path d="M53460 48503
L53460 47519
" />
<path d="M53460 47519
L50980 47519
" />
<path d="M50980 47519
L50980 48503
" />
<path d="M50980 48503
L53460 48503
" />
<path d="M53720 48011
L53460 48011
" />
<path d="M50720 48011
L50980 48011
" />
<circle cx="65669.3" cy="25885.8" r="984.252" /> 
<path d="M65669 24527
L65669 25000
" />
<path d="M65925 24763
L65413 24763
" />
<path d="M70856 27110
L70856 23212
" />
<path d="M68375 27129
L71328 27129
" />
<path d="M71328 27129
L71328 23192
" />
<path d="M71328 23192
L68375 23192
" />
<path d="M68375 23192
L68375 27129
" />
<path d="M70866 31263
L70866 27366
" />
<path d="M68385 31283
L71338 31283
" />
<path d="M71338 31283
L71338 27346
" />
<path d="M71338 27346
L68385 27346
" />
<path d="M68385 27346
L68385 31283
" />
<circle cx="63533.5" cy="33848.4" r="984.252" /> 
<path d="M63533 32490
L63533 32962
" />
<path d="M63789 32726
L63277 32726
" />
<circle cx="63553.1" cy="42637.8" r="984.252" /> 
<path d="M63553 41279
L63553 41751
" />
<path d="M63809 41515
L63297 41515
" />
<path d="M66830 28118
L66830 27094
" />
<path d="M66830 27094
L65334 27094
" />
<path d="M65334 27094
L65334 28118
" />
<path d="M65334 28118
L66830 28118
" />
<path d="M62547 32444
L63570 32444
" />
<path d="M63570 32444
L63570 30948
" />
<path d="M63570 30948
L62547 30948
" />
<path d="M62547 30948
L62547 32444
" />
<path d="M62562 41196
L63586 41196
" />
<path d="M63586 41196
L63586 39700
" />
<path d="M63586 39700
L62562 39700
" />
<path d="M62562 39700
L62562 41196
" />
</g> 
</svg>
