<?xml version="1.0" standalone="no"?>
 <!DOCTYPE svg PUBLIC "-//W3C//DTD SVG 1.1//EN" 
 "http://www.w3.org/Graphics/SVG/1.1/DTD/svg11.dtd"> 
<svg xmlns="http://www.w3.org/2000/svg" version="1.1" 
    width="29.7002cm" height="21.0007cm" viewBox="0 0 116930 82680 ">
<title>SVG Picture created as Power_Supply-brd.svg date 2018/12/18 03:38:36 </title>
  <desc>Picture generated by PCBNEW </desc>
<g style="fill:#000000; fill-opacity:1;stroke:#000000; stroke-opacity:1;
stroke-linecap:round; stroke-linejoin:round; "
 transform="translate(0 0) scale(1 1)">
</g>
<g style="fill:#000000; fill-opacity:0.0; 
stroke:#000000; stroke-width:-0.000393701; stroke-opacity:1; 
stroke-linecap:round; stroke-linejoin:round;">
</g>
<g style="fill:#000000; fill-opacity:0.0; 
stroke:#000000; stroke-width:492.126; stroke-opacity:1; 
stroke-linecap:round; stroke-linejoin:round;">
<path d="M59324 36500
L59324 37437
" />
<path d="M59886 36312
L57918 36968
L59886 37625
" />
<path d="M59886 38281
L57918 38281
L59886 39406
L57918 39406
" />
<path d="M57918 40062
L57918 41187
" />
<path d="M59886 40624
L57918 40624
" />
</g>
<g style="fill:#000000; fill-opacity:1.0; 
stroke:#000000; stroke-width:0; stroke-opacity:1; 
stroke-linecap:round; stroke-linejoin:round;">
<circle cx="52322.8" cy="21474.8" r="984.252" /> 
</g>
<g style="fill:#000000; fill-opacity:1.0; 
stroke:#000000; stroke-width:39.3701; stroke-opacity:1; 
stroke-linecap:round; stroke-linejoin:round;">
</g>
<g style="fill:#000000; fill-opacity:1.0; 
stroke:#000000; stroke-width:0; stroke-opacity:1; 
stroke-linecap:round; stroke-linejoin:round;">
<circle cx="52322.8" cy="23824.8" r="984.252" /> 
</g>
<g style="fill:#000000; fill-opacity:1.0; 
stroke:#000000; stroke-width:39.3701; stroke-opacity:1; 
stroke-linecap:round; stroke-linejoin:round;">
</g>
<g style="fill:#000000; fill-opacity:1.0; 
stroke:#000000; stroke-width:807.087; stroke-opacity:1; 
stroke-linecap:round; stroke-linejoin:round;">
</g>
<g style="fill:#000000; fill-opacity:0.0; 
stroke:#000000; stroke-width:807.087; stroke-opacity:1; 
stroke-linecap:round; stroke-linejoin:round;">
<path d="M66222 33309
L66399 33309
" />
<path d="M50875 30305
L51053 30305
" />
<path d="M50875 31305
L51053 31305
" />
<path d="M50875 32305
L51053 32305
" />
<path d="M50875 33305
L51053 33305
" />
<path d="M50875 34305
L51053 34305
" />
<path d="M50875 35305
L51053 35305
" />
<path d="M50875 36305
L51053 36305
" />
<path d="M50875 37305
L51053 37305
" />
<path d="M66230 30305
L66407 30305
" />
<path d="M66222 31301
L66399 31301
" />
<path d="M66222 32301
L66399 32301
" />
<path d="M66222 34301
L66399 34301
" />
<path d="M66222 35301
L66399 35301
" />
<path d="M66222 36301
L66399 36301
" />
<path d="M66222 37301
L66399 37301
" />
</g>
<g style="fill:#000000; fill-opacity:1.0; 
stroke:#000000; stroke-width:0; stroke-opacity:1; 
stroke-linecap:round; stroke-linejoin:round;">
<circle cx="54104.3" cy="32322.8" r="492.126" /> 
</g>
<g style="fill:#000000; fill-opacity:1.0; 
stroke:#000000; stroke-width:39.3701; stroke-opacity:1; 
stroke-linecap:round; stroke-linejoin:round;">
</g>
<g style="fill:#000000; fill-opacity:1.0; 
stroke:#000000; stroke-width:0; stroke-opacity:1; 
stroke-linecap:round; stroke-linejoin:round;">
<circle cx="54104.3" cy="33700.8" r="492.126" /> 
</g>
<g style="fill:#000000; fill-opacity:1.0; 
stroke:#000000; stroke-width:39.3701; stroke-opacity:1; 
stroke-linecap:round; stroke-linejoin:round;">
</g>
<g style="fill:#000000; fill-opacity:1.0; 
stroke:#000000; stroke-width:0; stroke-opacity:1; 
stroke-linecap:round; stroke-linejoin:round;">
<circle cx="50984.3" cy="27165.4" r="787.402" /> 
</g>
<g style="fill:#000000; fill-opacity:1.0; 
stroke:#000000; stroke-width:39.3701; stroke-opacity:1; 
stroke-linecap:round; stroke-linejoin:round;">
</g>
<g style="fill:#000000; fill-opacity:1.0; 
stroke:#000000; stroke-width:0; stroke-opacity:1; 
stroke-linecap:round; stroke-linejoin:round;">
<circle cx="56984.3" cy="27165.4" r="787.402" /> 
</g>
<g style="fill:#000000; fill-opacity:1.0; 
stroke:#000000; stroke-width:39.3701; stroke-opacity:1; 
stroke-linecap:round; stroke-linejoin:round;">
</g>
<g style="fill:#000000; fill-opacity:1.0; 
stroke:#000000; stroke-width:826.772; stroke-opacity:1; 
stroke-linecap:round; stroke-linejoin:round;">
</g>
<g style="fill:#000000; fill-opacity:0.0; 
stroke:#000000; stroke-width:826.772; stroke-opacity:1; 
stroke-linecap:round; stroke-linejoin:round;">
<path d="M51043 50265
L51397 50265
" />
<path d="M51043 49265
L51397 49265
" />
</g>
<g style="fill:#000000; fill-opacity:0.0; 
stroke:#000000; stroke-width:1968.5; stroke-opacity:1; 
stroke-linecap:round; stroke-linejoin:round;">
<path d="M63040 21427
L63040 21427
" />
<path d="M59300 21427
L59300 21427
" />
<path d="M63040 16782
L63040 16782
" />
<path d="M59300 16782
L59300 16782
" />
<path d="M59400 49044
L59400 49044
" />
<path d="M63140 49044
L63140 49044
" />
<path d="M59400 53690
L59400 53690
" />
<path d="M63140 53690
L63140 53690
" />
</g>
<g style="fill:#000000; fill-opacity:1.0; 
stroke:#000000; stroke-width:0; stroke-opacity:1; 
stroke-linecap:round; stroke-linejoin:round;">
<circle cx="69911.4" cy="39409.4" r="688.976" /> 
</g>
<g style="fill:#000000; fill-opacity:1.0; 
stroke:#000000; stroke-width:39.3701; stroke-opacity:1; 
stroke-linecap:round; stroke-linejoin:round;">
</g>
<g style="fill:#000000; fill-opacity:1.0; 
stroke:#000000; stroke-width:0; stroke-opacity:1; 
stroke-linecap:round; stroke-linejoin:round;">
<circle cx="69911.4" cy="37409.4" r="688.976" /> 
</g>
<g style="fill:#000000; fill-opacity:1.0; 
stroke:#000000; stroke-width:39.3701; stroke-opacity:1; 
stroke-linecap:round; stroke-linejoin:round;">
</g>
<g style="fill:#000000; fill-opacity:1.0; 
stroke:#000000; stroke-width:0; stroke-opacity:1; 
stroke-linecap:round; stroke-linejoin:round;">
<circle cx="69911.4" cy="35275.6" r="688.976" /> 
</g>
<g style="fill:#000000; fill-opacity:1.0; 
stroke:#000000; stroke-width:39.3701; stroke-opacity:1; 
stroke-linecap:round; stroke-linejoin:round;">
</g>
<g style="fill:#000000; fill-opacity:1.0; 
stroke:#000000; stroke-width:0; stroke-opacity:1; 
stroke-linecap:round; stroke-linejoin:round;">
<circle cx="69911.4" cy="33275.6" r="688.976" /> 
</g>
<g style="fill:#000000; fill-opacity:1.0; 
stroke:#000000; stroke-width:39.3701; stroke-opacity:1; 
stroke-linecap:round; stroke-linejoin:round;">
</g>
<g style="fill:#000000; fill-opacity:1.0; 
stroke:#000000; stroke-width:0; stroke-opacity:1; 
stroke-linecap:round; stroke-linejoin:round;">
<circle cx="69901.6" cy="44094.5" r="688.976" /> 
</g>
<g style="fill:#000000; fill-opacity:1.0; 
stroke:#000000; stroke-width:39.3701; stroke-opacity:1; 
stroke-linecap:round; stroke-linejoin:round;">
</g>
<g style="fill:#000000; fill-opacity:1.0; 
stroke:#000000; stroke-width:0; stroke-opacity:1; 
stroke-linecap:round; stroke-linejoin:round;">
<circle cx="69901.6" cy="42094.5" r="688.976" /> 
</g>
<g style="fill:#000000; fill-opacity:1.0; 
stroke:#000000; stroke-width:39.3701; stroke-opacity:1; 
stroke-linecap:round; stroke-linejoin:round;">
</g>
<g style="fill:#000000; fill-opacity:1.0; 
stroke:#000000; stroke-width:0; stroke-opacity:1; 
stroke-linecap:round; stroke-linejoin:round;">
<circle cx="69901.6" cy="48228.3" r="688.976" /> 
</g>
<g style="fill:#000000; fill-opacity:1.0; 
stroke:#000000; stroke-width:39.3701; stroke-opacity:1; 
stroke-linecap:round; stroke-linejoin:round;">
</g>
<g style="fill:#000000; fill-opacity:1.0; 
stroke:#000000; stroke-width:0; stroke-opacity:1; 
stroke-linecap:round; stroke-linejoin:round;">
<circle cx="69901.6" cy="46228.3" r="688.976" /> 
</g>
<g style="fill:#000000; fill-opacity:1.0; 
stroke:#000000; stroke-width:39.3701; stroke-opacity:1; 
stroke-linecap:round; stroke-linejoin:round;">
</g>
<g style="fill:#000000; fill-opacity:1.0; 
stroke:#000000; stroke-width:0; stroke-opacity:1; 
stroke-linecap:round; stroke-linejoin:round;">
<circle cx="53720.5" cy="48011.8" r="452.756" /> 
</g>
<g style="fill:#000000; fill-opacity:1.0; 
stroke:#000000; stroke-width:39.3701; stroke-opacity:1; 
stroke-linecap:round; stroke-linejoin:round;">
</g>
<g style="fill:#000000; fill-opacity:1.0; 
stroke:#000000; stroke-width:0; stroke-opacity:1; 
stroke-linecap:round; stroke-linejoin:round;">
<circle cx="50720.5" cy="48011.8" r="452.756" /> 
</g>
<g style="fill:#000000; fill-opacity:1.0; 
stroke:#000000; stroke-width:39.3701; stroke-opacity:1; 
stroke-linecap:round; stroke-linejoin:round;">
</g>
<g style="fill:#000000; fill-opacity:1.0; 
stroke:#000000; stroke-width:807.087; stroke-opacity:1; 
stroke-linecap:round; stroke-linejoin:round;">
</g>
<g style="fill:#000000; fill-opacity:0.0; 
stroke:#000000; stroke-width:807.087; stroke-opacity:1; 
stroke-linecap:round; stroke-linejoin:round;">
<path d="M66222 42137
L66399 42137
" />
<path d="M50875 39133
L51053 39133
" />
<path d="M50875 40133
L51053 40133
" />
<path d="M50875 41133
L51053 41133
" />
<path d="M50875 42133
L51053 42133
" />
<path d="M50875 43133
L51053 43133
" />
<path d="M50875 44133
L51053 44133
" />
<path d="M50875 45133
L51053 45133
" />
<path d="M50875 46133
L51053 46133
" />
<path d="M66230 39133
L66407 39133
" />
<path d="M66222 40129
L66399 40129
" />
<path d="M66222 41129
L66399 41129
" />
<path d="M66222 43129
L66399 43129
" />
<path d="M66222 44129
L66399 44129
" />
<path d="M66222 45129
L66399 45129
" />
<path d="M66222 46129
L66399 46129
" />
</g>
<g style="fill:#000000; fill-opacity:1.0; 
stroke:#000000; stroke-width:0; stroke-opacity:1; 
stroke-linecap:round; stroke-linejoin:round;">
<circle cx="65669.3" cy="25393.7" r="413.386" /> 
</g>
<g style="fill:#000000; fill-opacity:1.0; 
stroke:#000000; stroke-width:39.3701; stroke-opacity:1; 
stroke-linecap:round; stroke-linejoin:round;">
</g>
<g style="fill:#000000; fill-opacity:1.0; 
stroke:#000000; stroke-width:0; stroke-opacity:1; 
stroke-linecap:round; stroke-linejoin:round;">
<circle cx="65669.3" cy="26378" r="413.386" /> 
</g>
<g style="fill:#000000; fill-opacity:1.0; 
stroke:#000000; stroke-width:39.3701; stroke-opacity:1; 
stroke-linecap:round; stroke-linejoin:round;">
</g>
<g style="fill:#000000; fill-opacity:1.0; 
stroke:#000000; stroke-width:0; stroke-opacity:1; 
stroke-linecap:round; stroke-linejoin:round;">
<circle cx="69852.4" cy="26161.4" r="688.976" /> 
</g>
<g style="fill:#000000; fill-opacity:1.0; 
stroke:#000000; stroke-width:39.3701; stroke-opacity:1; 
stroke-linecap:round; stroke-linejoin:round;">
</g>
<g style="fill:#000000; fill-opacity:1.0; 
stroke:#000000; stroke-width:0; stroke-opacity:1; 
stroke-linecap:round; stroke-linejoin:round;">
<circle cx="69852.4" cy="24161.4" r="688.976" /> 
</g>
<g style="fill:#000000; fill-opacity:1.0; 
stroke:#000000; stroke-width:39.3701; stroke-opacity:1; 
stroke-linecap:round; stroke-linejoin:round;">
</g>
<g style="fill:#000000; fill-opacity:1.0; 
stroke:#000000; stroke-width:0; stroke-opacity:1; 
stroke-linecap:round; stroke-linejoin:round;">
<circle cx="69862.2" cy="30315" r="688.976" /> 
</g>
<g style="fill:#000000; fill-opacity:1.0; 
stroke:#000000; stroke-width:39.3701; stroke-opacity:1; 
stroke-linecap:round; stroke-linejoin:round;">
</g>
<g style="fill:#000000; fill-opacity:1.0; 
stroke:#000000; stroke-width:0; stroke-opacity:1; 
stroke-linecap:round; stroke-linejoin:round;">
<circle cx="69862.2" cy="28315" r="688.976" /> 
</g>
<g style="fill:#000000; fill-opacity:1.0; 
stroke:#000000; stroke-width:39.3701; stroke-opacity:1; 
stroke-linecap:round; stroke-linejoin:round;">
</g>
<g style="fill:#000000; fill-opacity:1.0; 
stroke:#000000; stroke-width:826.772; stroke-opacity:1; 
stroke-linecap:round; stroke-linejoin:round;">
</g>
<g style="fill:#000000; fill-opacity:0.0; 
stroke:#000000; stroke-width:826.772; stroke-opacity:1; 
stroke-linecap:round; stroke-linejoin:round;">
<path d="M63397 26368
L63570 26368
" />
<path d="M63397 25368
L63570 25368
" />
<path d="M63397 27368
L63570 27368
" />
</g>
<g style="fill:#000000; fill-opacity:1.0; 
stroke:#000000; stroke-width:0; stroke-opacity:1; 
stroke-linecap:round; stroke-linejoin:round;">
<circle cx="63533.5" cy="33356.3" r="413.386" /> 
</g>
<g style="fill:#000000; fill-opacity:1.0; 
stroke:#000000; stroke-width:39.3701; stroke-opacity:1; 
stroke-linecap:round; stroke-linejoin:round;">
</g>
<g style="fill:#000000; fill-opacity:1.0; 
stroke:#000000; stroke-width:0; stroke-opacity:1; 
stroke-linecap:round; stroke-linejoin:round;">
<circle cx="63533.5" cy="34340.6" r="413.386" /> 
</g>
<g style="fill:#000000; fill-opacity:1.0; 
stroke:#000000; stroke-width:39.3701; stroke-opacity:1; 
stroke-linecap:round; stroke-linejoin:round;">
</g>
<g style="fill:#000000; fill-opacity:1.0; 
stroke:#000000; stroke-width:0; stroke-opacity:1; 
stroke-linecap:round; stroke-linejoin:round;">
<circle cx="63553.1" cy="42145.7" r="413.386" /> 
</g>
<g style="fill:#000000; fill-opacity:1.0; 
stroke:#000000; stroke-width:39.3701; stroke-opacity:1; 
stroke-linecap:round; stroke-linejoin:round;">
</g>
<g style="fill:#000000; fill-opacity:1.0; 
stroke:#000000; stroke-width:0; stroke-opacity:1; 
stroke-linecap:round; stroke-linejoin:round;">
<circle cx="63553.1" cy="43129.9" r="413.386" /> 
</g>
<g style="fill:#000000; fill-opacity:1.0; 
stroke:#000000; stroke-width:39.3701; stroke-opacity:1; 
stroke-linecap:round; stroke-linejoin:round;">
</g>
<g style="fill:#000000; fill-opacity:1.0; 
stroke:#000000; stroke-width:0; stroke-opacity:1; 
stroke-linecap:round; stroke-linejoin:round;">
<circle cx="66574.8" cy="27606.3" r="393.701" /> 
</g>
<g style="fill:#000000; fill-opacity:1.0; 
stroke:#000000; stroke-width:39.3701; stroke-opacity:1; 
stroke-linecap:round; stroke-linejoin:round;">
</g>
<g style="fill:#000000; fill-opacity:1.0; 
stroke:#000000; stroke-width:0; stroke-opacity:1; 
stroke-linecap:round; stroke-linejoin:round;">
<circle cx="65590.6" cy="27606.3" r="393.701" /> 
</g>
<g style="fill:#000000; fill-opacity:1.0; 
stroke:#000000; stroke-width:39.3701; stroke-opacity:1; 
stroke-linecap:round; stroke-linejoin:round;">
</g>
<g style="fill:#000000; fill-opacity:1.0; 
stroke:#000000; stroke-width:0; stroke-opacity:1; 
stroke-linecap:round; stroke-linejoin:round;">
<circle cx="63059.1" cy="32189" r="393.701" /> 
</g>
<g style="fill:#000000; fill-opacity:1.0; 
stroke:#000000; stroke-width:39.3701; stroke-opacity:1; 
stroke-linecap:round; stroke-linejoin:round;">
</g>
<g style="fill:#000000; fill-opacity:1.0; 
stroke:#000000; stroke-width:0; stroke-opacity:1; 
stroke-linecap:round; stroke-linejoin:round;">
<circle cx="63059.1" cy="31204.7" r="393.701" /> 
</g>
<g style="fill:#000000; fill-opacity:1.0; 
stroke:#000000; stroke-width:39.3701; stroke-opacity:1; 
stroke-linecap:round; stroke-linejoin:round;">
</g>
<g style="fill:#000000; fill-opacity:1.0; 
stroke:#000000; stroke-width:0; stroke-opacity:1; 
stroke-linecap:round; stroke-linejoin:round;">
<circle cx="63074.8" cy="40940.9" r="393.701" /> 
</g>
<g style="fill:#000000; fill-opacity:1.0; 
stroke:#000000; stroke-width:39.3701; stroke-opacity:1; 
stroke-linecap:round; stroke-linejoin:round;">
</g>
<g style="fill:#000000; fill-opacity:1.0; 
stroke:#000000; stroke-width:0; stroke-opacity:1; 
stroke-linecap:round; stroke-linejoin:round;">
<circle cx="63074.8" cy="39956.7" r="393.701" /> 
</g>
<g style="fill:#000000; fill-opacity:1.0; 
stroke:#000000; stroke-width:39.3701; stroke-opacity:1; 
stroke-linecap:round; stroke-linejoin:round;">
</g>
<g style="fill:#000000; fill-opacity:1.0; 
stroke:#000000; stroke-width:590.551; stroke-opacity:1; 
stroke-linecap:round; stroke-linejoin:round;">
</g>
<g style="fill:#000000; fill-opacity:0.0; 
stroke:#000000; stroke-width:590.551; stroke-opacity:1; 
stroke-linecap:round; stroke-linejoin:round;">
<path d="M69852 24161
L61970 24161
" />
<path d="M60905 25226
L60905 26938
" />
<path d="M61970 24161
L60905 25226
" />
<path d="M60879 26938
L60905 26938
" />
<path d="M60905 26938
L61334 27368
" />
<path d="M60879 27368
L60879 26938
" />
<path d="M50984 27165
L53651 27165
" />
<path d="M60879 27368
L61334 27368
" />
<path d="M61334 27368
L63484 27368
" />
<path d="M59320 28927
L60879 27368
" />
<path d="M55413 28927
L59320 28927
" />
<path d="M53651 27165
L55413 28927
" />
</g>
<g style="fill:#000000; fill-opacity:0.0; 
stroke:#000000; stroke-width:393.701; stroke-opacity:1; 
stroke-linecap:round; stroke-linejoin:round;">
<path d="M50964 32305
L54086 32305
" />
<path d="M54086 32305
L54104 32322
" />
</g>
<g style="fill:#000000; fill-opacity:0.0; 
stroke:#000000; stroke-width:590.551; stroke-opacity:1; 
stroke-linecap:round; stroke-linejoin:round;">
<path d="M59400 49044
L59400 53690
" />
<path d="M50964 33305
L52084 33305
" />
<path d="M51948 39133
L50964 39133
" />
<path d="M52726 38356
L51948 39133
" />
<path d="M52726 33946
L52726 38356
" />
<path d="M52084 33305
L52726 33946
" />
<path d="M53720 48011
L58367 48011
" />
<path d="M58367 48011
L59400 49044
" />
<path d="M50964 42133
L52822 42133
" />
<path d="M52822 42133
L53720 43031
" />
<path d="M53720 43031
L53720 48011
" />
</g>
<g style="fill:#000000; fill-opacity:0.0; 
stroke:#000000; stroke-width:393.701; stroke-opacity:1; 
stroke-linecap:round; stroke-linejoin:round;">
<path d="M53720 43031
L53720 48011
" />
<path d="M52822 42133
L53720 43031
" />
<path d="M50964 41133
L50964 42133
" />
<path d="M50964 40133
L50964 41133
" />
<path d="M50964 39133
L50964 40133
" />
<path d="M50986 32283
L50964 32305
" />
<path d="M50964 31305
L50964 30305
" />
<path d="M50964 32305
L50964 31305
" />
<path d="M50964 33305
L50964 32305
" />
</g>
<g style="fill:#000000; fill-opacity:0.0; 
stroke:#000000; stroke-width:787.402; stroke-opacity:1; 
stroke-linecap:round; stroke-linejoin:round;">
<path d="M50984 27165
L50984 30285
" />
<path d="M50984 30285
L50964 30305
" />
</g>
<g style="fill:#000000; fill-opacity:0.0; 
stroke:#000000; stroke-width:393.701; stroke-opacity:1; 
stroke-linecap:round; stroke-linejoin:round;">
<path d="M63059 32188
L63059 32881
" />
<path d="M63059 32881
L63533 33356
" />
<path d="M66311 33309
L63580 33309
" />
<path d="M63580 33309
L63533 33356
" />
</g>
<g style="fill:#000000; fill-opacity:0.0; 
stroke:#000000; stroke-width:590.551; stroke-opacity:1; 
stroke-linecap:round; stroke-linejoin:round;">
<path d="M66311 33309
L69877 33309
" />
<path d="M69877 33309
L69911 33275
" />
<path d="M69911 37409
L70622 37409
" />
<path d="M70622 37409
L71171 36860
" />
<path d="M71171 36860
L71171 33779
" />
<path d="M71171 33779
L70667 33275
" />
<path d="M70667 33275
L69911 33275
" />
</g>
<g style="fill:#000000; fill-opacity:0.0; 
stroke:#000000; stroke-width:393.701; stroke-opacity:1; 
stroke-linecap:round; stroke-linejoin:round;">
<path d="M66311 33309
L66311 32301
" />
<path d="M66311 31301
L66311 30312
" />
<path d="M66311 30312
L66318 30305
" />
<path d="M66311 32301
L66311 31301
" />
<path d="M66293 32283
L66311 32301
" />
<path d="M66338 30318
L66330 30326
" />
<path d="M63074 40940
L63074 41667
" />
<path d="M63074 41667
L63553 42145
" />
<path d="M63525 42173
L63553 42145
" />
<path d="M66311 42137
L63561 42137
" />
<path d="M63561 42137
L63553 42145
" />
</g>
<g style="fill:#000000; fill-opacity:0.0; 
stroke:#000000; stroke-width:590.551; stroke-opacity:1; 
stroke-linecap:round; stroke-linejoin:round;">
<path d="M69901 42094
L66354 42094
" />
<path d="M66354 42094
L66311 42137
" />
<path d="M69901 42094
L70568 42094
" />
<path d="M70568 42094
L71141 42667
" />
<path d="M70681 46228
L69901 46228
" />
<path d="M71141 45767
L70681 46228
" />
<path d="M71141 42667
L71141 45767
" />
<path d="M66279 42106
L66311 42137
" />
</g>
<g style="fill:#000000; fill-opacity:0.0; 
stroke:#000000; stroke-width:393.701; stroke-opacity:1; 
stroke-linecap:round; stroke-linejoin:round;">
<path d="M66311 41129
L66311 42137
" />
<path d="M66311 40129
L66311 41129
" />
<path d="M66318 39133
L66318 40122
" />
<path d="M66318 40122
L66311 40129
" />
</g>
<g style="fill:#000000; fill-opacity:0.0; 
stroke:#000000; stroke-width:787.402; stroke-opacity:1; 
stroke-linecap:round; stroke-linejoin:round;">
<path d="M52322 23824
L55744 23824
" />
<path d="M56984 25064
L56984 27165
" />
<path d="M55744 23824
L56984 25064
" />
</g>
<g style="fill:#000000; fill-opacity:0.0; 
stroke:#000000; stroke-width:98.4252; stroke-opacity:1; 
stroke-linecap:round; stroke-linejoin:round;">
<path d="M65590 27606
L65590 27637
" />
<path d="M65590 27637
L66125 28173
" />
<path d="M65590 27606
L65590 27748
" />
<path d="M65590 27748
L66000 28157
" />
<path d="M65590 27606
L65590 27511
" />
<path d="M65590 27511
L66031 27070
" />
<path d="M65590 27606
L65590 27452
" />
<path d="M65590 27452
L65968 27074
" />
<path d="M65590 27606
L65590 27322
" />
<path d="M65590 27322
L65905 27007
" />
</g>
<g style="fill:#000000; fill-opacity:0.0; 
stroke:#000000; stroke-width:393.701; stroke-opacity:1; 
stroke-linecap:round; stroke-linejoin:round;">
<path d="M69901 44094
L69893 44094
" />
<path d="M69893 44094
L69106 44881
" />
<path d="M69901 44094
L69862 44094
" />
<path d="M69862 44094
L69118 43350
" />
<path d="M69911 35275
L69877 35275
" />
<path d="M69877 35275
L69145 34543
" />
<path d="M69911 35275
L69911 35305
" />
<path d="M69911 35305
L69240 35976
" />
<path d="M63484 26368
L64246 26368
" />
<path d="M64246 26368
L64255 26358
" />
<path d="M63484 26368
L62860 26368
" />
<path d="M62860 26368
L62854 26362
" />
<path d="M51220 49265
L51220 48511
" />
<path d="M51220 48511
L50720 48011
" />
</g>
<g style="fill:#000000; fill-opacity:0.0; 
stroke:#000000; stroke-width:787.402; stroke-opacity:1; 
stroke-linecap:round; stroke-linejoin:round;">
<path d="M59300 21427
L52369 21427
" />
<path d="M52369 21427
L52322 21474
" />
<path d="M59300 16782
L59300 21427
" />
</g>
<g style="fill:#000000; fill-opacity:0.0; 
stroke:#000000; stroke-width:393.701; stroke-opacity:1; 
stroke-linecap:round; stroke-linejoin:round;">
<path d="M68001 27519
L66661 27519
" />
<path d="M66661 27519
L66574 27606
" />
</g>
<g style="fill:#000000; fill-opacity:0.0; 
stroke:#000000; stroke-width:590.551; stroke-opacity:1; 
stroke-linecap:round; stroke-linejoin:round;">
<path d="M69862 28314
L68797 28314
" />
<path d="M67421 25393
L65669 25393
" />
<path d="M68001 25974
L67421 25393
" />
<path d="M68001 27519
L68001 25974
" />
<path d="M68797 28314
L68001 27519
" />
<path d="M63484 25368
L65643 25368
" />
<path d="M65643 25368
L65669 25393
" />
</g>
<g style="fill:#000000; fill-opacity:1.0; 
stroke:#000000; stroke-width:100; stroke-opacity:1; 
stroke-linecap:round; stroke-linejoin:round;">
<polyline style="fill-rule:evenodd;"
points="69412,14635
69423,14651
69448,14676
69448,14734
69451,14753
69462,14769
69487,14794
69487,14931
69491,14950
69502,14966
69526,14991
69526,15127
69530,15147
69541,15163
69566,15188
69566,15324
69570,15344
69580,15360
69605,15384
69605,15482
69609,15501
69620,15517
69644,15542
69644,15600
69648,15619
69659,15635
69684,15660
69684,15679
69688,15698
69698,15714
69723,15739
69723,15757
69727,15777
69738,15793
69762,15817
69762,15875
69766,15895
69777,15911
69802,15936
69802,15994
69806,16013
69817,16029
69841,16054
69841,16072
69845,16092
69856,16108
69881,16132
69881,16151
69885,16171
69895,16186
69959,16251
69959,16269
69963,16289
69974,16305
69999,16329
69999,16348
70003,16367
70013,16383
70038,16408
70038,16427
70042,16446
70053,16462
70077,16487
70077,16505
70081,16525
70092,16541
70196,16644
70196,16663
70200,16682
70210,16698
70323,16811
70358,16882
70368,16895
70519,17047
70555,17118
70565,17131
70840,17407
70842,17409
71197,17724
71204,17729
71715,18044
71721,18047
72076,18205
72076,18205
72352,18323
72356,18324
72592,18403
72596,18404
72911,18483
72916,18484
73190,18523
73385,18562
73385,51942
73308,51967
73159,51967
73148,51968
72636,52087
72630,52088
72138,52265
72134,52267
71720,52464
71716,52467
71361,52683
71357,52686
70944,53001
70938,53006
70465,53498
70461,53503
70107,53975
70103,53982
69808,54533
69805,54539
69628,55011
69626,55018
69527,55471
69527,55475
69471,55865
52277,55865
52244,55632
52243,55628
52164,55274
52164,55272
52066,54898
52063,54892
51768,54183
51763,54174
51468,53741
51466,53739
51269,53483
51268,53481
51012,53185
51008,53182
50674,52867
50668,52862
50215,52547
50213,52546
49898,52349
49892,52345
49577,52208
49574,52206
49081,52029
49076,52028
48642,51929
48639,51928
48383,51889
48383,51889
48288,51875
48288,50418
50397,50418
50411,50473
50538,50699
50743,50859
50993,50929
51170,50929
51170,50315
51270,50315
51270,50929
51447,50929
51697,50859
51902,50699
52029,50473
52043,50418
51996,50315
51270,50315
51170,50315
50444,50315
50397,50418
48288,50418
48288,48166
49938,48166
50057,48453
50277,48673
50487,48761
50339,48981
50283,49265
50339,49549
50500,49790
50549,49823
50538,49832
50411,50058
50397,50112
50444,50215
51170,50215
51170,50207
51270,50207
51270,50215
51996,50215
52043,50112
52029,50058
51902,49832
51891,49823
51940,49790
52101,49549
52157,49265
52101,48981
51940,48740
51746,48611
51746,48511
51734,48455
51706,48310
51640,48212
51592,48140
51592,48140
51501,48049
51502,47857
51383,47569
51163,47349
50876,47230
50565,47230
50278,47348
50058,47568
49939,47855
49938,48166
48288,48166
48288,46285
50240,46285
50248,46324
50368,46550
50566,46712
50811,46786
50914,46726
50914,46183
51014,46183
51014,46726
51117,46786
51362,46712
51560,46550
51681,46324
51688,46285
51642,46183
51014,46183
50914,46183
50287,46183
50240,46285
48288,46285
48288,45285
50240,45285
50248,45324
50368,45550
50470,45633
50368,45717
50248,45943
50240,45982
50287,46083
50914,46083
50914,45183
51014,45183
51014,46083
51642,46083
51688,45982
51681,45943
51560,45717
51458,45633
51560,45550
51681,45324
51688,45285
51642,45183
51014,45183
50914,45183
50287,45183
50240,45285
48288,45285
48288,44285
50240,44285
50248,44324
50368,44550
50470,44633
50368,44717
50248,44943
50240,44982
50287,45083
50914,45083
50914,44183
51014,44183
51014,45083
51642,45083
51688,44982
51681,44943
51560,44717
51458,44633
51560,44550
51681,44324
51688,44285
51642,44183
51014,44183
50914,44183
50287,44183
50240,44285
48288,44285
48288,43285
50240,43285
50248,43324
50368,43550
50470,43633
50368,43717
50248,43943
50240,43982
50287,44083
50914,44083
50914,43183
51014,43183
51014,44083
51642,44083
51688,43982
51681,43943
51560,43717
51458,43633
51560,43550
51681,43324
51688,43285
51642,43183
51014,43183
50914,43183
50287,43183
50240,43285
48288,43285
48288,37456
50240,37456
50248,37495
50368,37721
50566,37883
50811,37958
50914,37897
50914,37355
51014,37355
51014,37897
51117,37958
51362,37883
51560,37721
51681,37495
51688,37456
51642,37355
51014,37355
50914,37355
50287,37355
50240,37456
48288,37456
48288,36456
50240,36456
50248,36495
50368,36721
50470,36805
50368,36888
50248,37114
50240,37153
50287,37255
50914,37255
50914,36355
51014,36355
51014,37255
51642,37255
51688,37153
51681,37114
51560,36888
51458,36805
51560,36721
51681,36495
51688,36456
51642,36355
51014,36355
50914,36355
50287,36355
50240,36456
48288,36456
48288,35456
50240,35456
50248,35495
50368,35721
50470,35805
50368,35888
50248,36114
50240,36153
50287,36255
50914,36255
50914,35355
51014,35355
51014,36255
51642,36255
51688,36153
51681,36114
51560,35888
51458,35805
51560,35721
51681,35495
51688,35456
51642,35355
51014,35355
50914,35355
50287,35355
50240,35456
48288,35456
48288,34456
50240,34456
50248,34495
50368,34721
50470,34805
50368,34888
50248,35114
50240,35153
50287,35255
50914,35255
50914,34355
51014,34355
51014,35255
51642,35255
51688,35153
51681,35114
51560,34888
51458,34805
51560,34721
51681,34495
51688,34456
51642,34355
51014,34355
50914,34355
50287,34355
50240,34456
48288,34456
48288,27386
49867,27386
50037,27796
50261,28021
50261,29907
50183,30024
50127,30305
50183,30585
50330,30805
50183,31024
50127,31305
50183,31585
50330,31805
50183,32024
50127,32305
50183,32585
50330,32805
50183,33024
50127,33305
50183,33585
50342,33822
50401,33862
50368,33888
50248,34114
50240,34153
50287,34255
50914,34255
50914,34247
51014,34247
51014,34255
51642,34255
51688,34153
51681,34114
51581,33929
51826,33929
52102,34205
52102,38097
51690,38509
51428,38509
51349,38457
51069,38401
50859,38401
50579,38457
50342,38616
50183,38853
50127,39133
50183,39414
50330,39633
50183,39853
50127,40133
50183,40414
50330,40633
50183,40853
50127,41133
50183,41414
50330,41633
50183,41853
50127,42133
50183,42414
50342,42651
50401,42691
50368,42717
50248,42943
50240,42982
50287,43083
50914,43083
50914,43075
51014,43075
51014,43083
51642,43083
51688,42982
51681,42943
51581,42757
52564,42757
53096,43289
53096,47530
53058,47568
52939,47855
52938,48166
53057,48453
53277,48673
53564,48793
53875,48793
54162,48674
54201,48635
58109,48635
58154,48681
58087,49019
58087,49070
58187,49572
58472,49998
58776,50202
58776,52532
58472,52736
58187,53162
58087,53664
58087,53716
58187,54218
58472,54644
58898,54929
59400,55029
59903,54929
60328,54644
60613,54218
60670,53932
61930,53932
62115,54377
62456,54717
62898,54900
63090,54861
63090,53740
63190,53740
63190,54861
63383,54900
63825,54717
64166,54377
64350,53932
64311,53740
63190,53740
63090,53740
61969,53740
61930,53932
60670,53932
60713,53716
60713,53664
60670,53448
61930,53448
61969,53640
63090,53640
63090,52519
63190,52519
63190,53640
64311,53640
64350,53448
64166,53003
63825,52663
63383,52480
63190,52519
63090,52519
62898,52480
62456,52663
62115,53003
61930,53448
60670,53448
60613,53162
60328,52736
60024,52532
60024,50202
60328,49998
60613,49572
60670,49287
61930,49287
62115,49731
62456,50071
62898,50254
63090,50215
63090,49094
63190,49094
63190,50215
63383,50254
63825,50071
64166,49731
64350,49287
64311,49094
63190,49094
63090,49094
61969,49094
61930,49287
60670,49287
60713,49070
60713,49019
60670,48802
61930,48802
61969,48994
63090,48994
63090,47874
63190,47874
63190,48994
64311,48994
64331,48895
69305,48895
69380,49031
69727,49169
70100,49164
70423,49031
70498,48895
69901,48299
69305,48895
64331,48895
64350,48802
64166,48357
63861,48053
68960,48053
68965,48427
69098,48749
69234,48824
69830,48228
69972,48228
70568,48824
70704,48749
70842,48402
70838,48029
70704,47706
70568,47631
69972,48228
69830,48228
69234,47631
69098,47706
68960,48053
63861,48053
63825,48017
63383,47834
63190,47874
63090,47874
62898,47834
62456,48017
62115,48357
61930,48802
60670,48802
60613,48516
60328,48090
59903,47805
59400,47706
59020,47781
58808,47570
58794,47561
69305,47561
69901,48157
70498,47561
70423,47425
70076,47287
69702,47291
69380,47425
69305,47561
58794,47561
58606,47435
58367,47387
54344,47387
54344,46281
65586,46281
65594,46320
65715,46546
65913,46708
66158,46782
66261,46722
66261,46179
66361,46179
66361,46722
66463,46782
66708,46708
66906,46546
67027,46320
67035,46281
66988,46179
66361,46179
66261,46179
65633,46179
65586,46281
54344,46281
54344,45281
65586,45281
65594,45320
65715,45546
65817,45629
65715,45713
65594,45939
65586,45978
65633,46079
66261,46079
66261,45179
66361,45179
66361,46079
66988,46079
67035,45978
67027,45939
66906,45713
66804,45629
66906,45546
67027,45320
67035,45281
66988,45179
66361,45179
66261,45179
65633,45179
65586,45281
54344,45281
54344,44281
65586,44281
65594,44320
65715,44546
65817,44629
65715,44713
65594,44939
65586,44978
65633,45079
66261,45079
66261,44179
66361,44179
66361,45079
66988,45079
67035,44978
67027,44939
66906,44713
66804,44629
66906,44546
67027,44320
67035,44281
66988,44179
66361,44179
66261,44179
65633,44179
65586,44281
54344,44281
54344,43597
63155,43597
63197,43705
63444,43797
63708,43788
63909,43705
63950,43597
63553,43200
63155,43597
54344,43597
54344,43031
54296,42792
54161,42590
53264,41692
53061,41557
52822,41509
51681,41509
51745,41414
51801,41133
51745,40853
51598,40633
51745,40414
51801,40133
51745,39853
51681,39757
51948,39757
52187,39710
52390,39575
53167,38797
53302,38595
53350,38356
53350,35796
57043,35796
57043,41703
61145,41703
61145,41084
62352,41084
62461,41349
62549,41437
62549,41667
62549,41667
62589,41868
62703,42038
62811,42146
62810,42292
62923,42565
63042,42684
63040,42687
63085,42732
62978,42773
62885,43021
62894,43284
62978,43485
63085,43527
63482,43129
63476,43124
63547,43053
63553,43059
63558,43053
63629,43124
63623,43129
64021,43527
64128,43485
64204,43281
65586,43281
65594,43320
65715,43546
65817,43629
65715,43713
65594,43939
65586,43978
65633,44079
66261,44079
66261,43179
66361,43179
66361,44079
66988,44079
67035,43978
67027,43939
67017,43919
68960,43919
68965,44293
69098,44615
69234,44690
69830,44094
69234,43498
69098,43572
68960,43919
67017,43919
66906,43713
66804,43629
66906,43546
67027,43320
67035,43281
66988,43179
66361,43179
66261,43179
65633,43179
65586,43281
64204,43281
64220,43238
64211,42975
64128,42773
64021,42732
64066,42687
64063,42684
64084,42663
65700,42663
65742,42691
65715,42713
65594,42939
65586,42978
65633,43079
66261,43079
66261,43072
66361,43072
66361,43079
66988,43079
67035,42978
67027,42939
66909,42718
69086,42718
69324,42956
69516,43036
69516,43234
69380,43291
69305,43427
69901,44023
69907,44018
69977,44088
69972,44094
69977,44100
69907,44170
69901,44165
69305,44761
69380,44897
69526,44955
69526,45282
69325,45365
69039,45651
68884,46025
68883,46429
69038,46804
69324,47090
69698,47245
70103,47246
70477,47091
70725,46843
70919,46804
71122,46669
71582,46208
71718,46006
71765,45767
71765,42667
71718,42428
71582,42226
71010,41653
70807,41517
70753,41507
70478,41232
70104,41076
69700,41076
69325,41231
69086,41470
67051,41470
67092,41410
67147,41129
67092,40849
66945,40629
67092,40410
67147,40129
67137,40076
69314,40076
69389,40212
69736,40350
70110,40345
70432,40212
70507,40076
69911,39480
69314,40076
67137,40076
67092,39849
66950,39637
67100,39414
67135,39234
68970,39234
68974,39608
69108,39930
69244,40005
69840,39409
69982,39409
70578,40005
70714,39930
70852,39584
70847,39210
70714,38887
70578,38813
69982,39409
69840,39409
69244,38813
69108,38887
68970,39234
67135,39234
67155,39133
67100,38853
67025,38742
69314,38742
69911,39338
70507,38742
70432,38606
70085,38468
69712,38472
69389,38606
69314,38742
67025,38742
66941,38616
66703,38457
66423,38401
66214,38401
65934,38457
65696,38616
65537,38853
65481,39133
65537,39414
65679,39625
65529,39849
65474,40129
65529,40410
65676,40629
65529,40849
65474,41129
65529,41410
65664,41612
64069,41612
63974,41516
63701,41403
63633,41403
63686,41350
63797,41085
63797,40797
63687,40532
63556,40401
63573,40384
63528,40339
63633,40300
63722,40060
63713,39804
63633,39612
63528,39573
63145,39956
63151,39962
63080,40032
63074,40027
63069,40032
62998,39962
63004,39956
62621,39573
62515,39612
62426,39852
62436,40108
62515,40300
62621,40339
62576,40384
62592,40401
62462,40531
62352,40796
62352,41084
61145,41084
61145,39502
62691,39502
63074,39885
63457,39502
63419,39397
63178,39308
62923,39318
62730,39397
62691,39502
61145,39502
61145,37452
65586,37452
65594,37491
65715,37717
65913,37879
66158,37954
66261,37893
66261,37351
66361,37351
66361,37893
66463,37954
66708,37879
66906,37717
67027,37491
67035,37452
66988,37351
66361,37351
66261,37351
65633,37351
65586,37452
61145,37452
61145,36452
65586,36452
65594,36491
65715,36717
65817,36801
65715,36884
65594,37110
65586,37149
65633,37251
66261,37251
66261,36351
66361,36351
66361,37251
66988,37251
67035,37149
67027,37110
66906,36884
66804,36801
66906,36717
67027,36491
67035,36452
66988,36351
66361,36351
66261,36351
65633,36351
65586,36452
61145,36452
61145,35796
57043,35796
53350,35796
53350,35452
65586,35452
65594,35491
65715,35717
65817,35801
65715,35884
65594,36110
65586,36149
65633,36251
66261,36251
66261,35351
66361,35351
66361,36251
66988,36251
67035,36149
67027,36110
66906,35884
66804,35801
66906,35717
67027,35491
67035,35452
66988,35351
66361,35351
66261,35351
65633,35351
65586,35452
53350,35452
53350,34808
63136,34808
63177,34915
63424,35008
63688,34998
63889,34915
63930,34808
63533,34411
63136,34808
53350,34808
53350,34225
53650,34225
53700,34340
53976,34446
54271,34438
54507,34340
54558,34225
54104,33771
53650,34225
53350,34225
53350,33946
53302,33708
53212,33573
53358,33573
53366,33868
53464,34104
53579,34155
54033,33700
54175,33700
54629,34155
54744,34104
54850,33828
54842,33533
54744,33297
54629,33246
54175,33700
54033,33700
53579,33246
53464,33297
53358,33573
53212,33573
53167,33505
52525,32863
52476,32830
53451,32830
53638,33018
53720,33052
53700,33060
53650,33175
54104,33630
54558,33175
54507,33060
54487,33052
54568,33019
54799,32788
54925,32486
54925,32332
62336,32332
62446,32597
62533,32685
62533,32881
62533,32881
62573,33083
62687,33253
62791,33357
62791,33503
62903,33776
63023,33895
63020,33898
63065,33943
62958,33984
62865,34231
62875,34495
62958,34696
63065,34737
63462,34340
63457,34334
63527,34264
63533,34269
63539,34264
63609,34334
63604,34340
64001,34737
64108,34696
64199,34452
65586,34452
65594,34491
65715,34717
65817,34801
65715,34884
65594,35110
65586,35149
65633,35251
66261,35251
66261,34351
66361,34351
66361,35251
66988,35251
67035,35149
67027,35110
67022,35101
68970,35101
68974,35474
69108,35797
69244,35872
69840,35275
69244,34679
69108,34754
68970,35101
67022,35101
66906,34884
66804,34801
66906,34717
67027,34491
67035,34452
66988,34351
66361,34351
66261,34351
65633,34351
65586,34452
64199,34452
64201,34449
64191,34185
64108,33984
64001,33943
64046,33898
64043,33895
64104,33834
65700,33834
65742,33862
65715,33884
65594,34110
65586,34149
65633,34251
66261,34251
66261,34243
66361,34243
66361,34251
66988,34251
67035,34149
67027,34110
66932,33933
69129,33933
69334,34137
69524,34217
69524,34416
69389,34472
69314,34608
69911,35204
69916,35199
69987,35270
69982,35275
69987,35281
69916,35351
69911,35346
69314,35942
69389,36078
69473,36111
69473,36489
69335,36546
69049,36832
68893,37206
68893,37610
69048,37985
69334,38271
69708,38426
70112,38427
70487,38272
70752,38007
70860,37985
71063,37850
71612,37301
71747,37099
71795,36860
71795,33779
71749,33547
71747,33540
71612,33338
71108,32834
70906,32699
70741,32666
70488,32413
70114,32258
69709,32257
69335,32412
69062,32685
67022,32685
67092,32581
67147,32301
67092,32020
66945,31801
67092,31581
67147,31301
67092,31020
67066,30982
69265,30982
69340,31117
69687,31256
70061,31251
70383,31117
70458,30982
69862,30385
69265,30982
67066,30982
66950,30809
67100,30585
67155,30305
67123,30140
68920,30140
68925,30513
69059,30836
69195,30911
69791,30314
69932,30314
70529,30911
70665,30836
70803,30489
70798,30116
70665,29793
70529,29718
69932,30314
69791,30314
69195,29718
69059,29793
68920,30140
67123,30140
67100,30024
66941,29787
66732,29647
69265,29647
69862,30244
70458,29647
70383,29512
70036,29373
69663,29378
69340,29512
69265,29647
66732,29647
66703,29628
66423,29572
66214,29572
65934,29628
65696,29787
65537,30024
65481,30305
65537,30585
65679,30797
65529,31020
65474,31301
65529,31581
65676,31801
65529,32020
65474,32301
65529,32581
65664,32783
64010,32783
63954,32727
63681,32614
63655,32614
63671,32598
63781,32333
63781,32045
63671,31780
63541,31649
63557,31632
63512,31587
63617,31548
63707,31308
63697,31052
63617,30860
63512,30821
63129,31204
63135,31210
63064,31281
63059,31275
63053,31281
62982,31210
62988,31204
62605,30821
62500,30860
62411,31100
62420,31356
62500,31548
62605,31587
62560,31632
62576,31649
62446,31779
62336,32044
62336,32332
54925,32332
54925,32160
54800,31858
54569,31627
54268,31502
53941,31501
53639,31626
53486,31779
51616,31779
51745,31585
51801,31305
51745,31024
51598,30805
51635,30750
62676,30750
63059,31134
63442,30750
63403,30645
63163,30556
62907,30566
62714,30645
62676,30750
51635,30750
51745,30585
51801,30305
51745,30024
51706,29966
51706,28021
51929,27798
51933,27789
53393,27789
54972,29368
55174,29503
55413,29551
59320,29551
59559,29503
59762,29368
61138,27992
63005,27992
63097,28053
63381,28110
63587,28110
63871,28053
64111,27892
64272,27652
64302,27502
64942,27502
64952,27758
65031,27950
65136,27989
65519,27606
65136,27223
65031,27262
64942,27502
64302,27502
64329,27368
64272,27084
64111,26843
64061,26809
64087,26788
64208,26558
64216,26520
64169,26418
63534,26418
63534,26425
63434,26425
63434,26418
63426,26418
63426,26318
63434,26318
63434,26310
63534,26310
63534,26318
64169,26318
64216,26215
64208,26177
64110,25992
65171,25992
65094,26021
65001,26269
65010,26532
65094,26733
65201,26775
65598,26377
65593,26372
65663,26301
65669,26307
65674,26301
65745,26372
65740,26377
66137,26775
66244,26733
66336,26486
66327,26223
66244,26021
66233,26017
67162,26017
67377,26232
67377,26994
66984,26994
66719,26883
66431,26883
66166,26993
66035,27124
66018,27107
65973,27152
65934,27047
65862,27020
66025,26953
66066,26845
65669,26448
65272,26845
65313,26953
65397,26984
65246,27047
65207,27152
65590,27535
65596,27530
65666,27600
65661,27606
65666,27611
65596,27682
65590,27677
65207,28060
65246,28165
65486,28254
65742,28244
65934,28165
65973,28060
66018,28105
66035,28088
66165,28218
66430,28328
66717,28328
66983,28219
67157,28045
67645,28045
68355,28756
68558,28891
68598,28899
68797,28938
69047,28938
69284,29177
69658,29332
70063,29332
70437,29178
70724,28892
70879,28518
70880,28113
70725,27739
70439,27452
70065,27297
69660,27297
69286,27451
69051,27686
68625,27261
68625,26828
69255,26828
69330,26964
69677,27102
70051,27097
70373,26964
70448,26828
69852,26232
69255,26828
68625,26828
68625,25986
68911,25986
68915,26360
69049,26682
69185,26757
69781,26161
69923,26161
70519,26757
70655,26682
70793,26335
70788,25962
70655,25639
70519,25564
69923,26161
69781,26161
69185,25564
69049,25639
68911,25986
68625,25986
68625,25974
68603,25860
68605,25858
68609,25838
68609,25494
69255,25494
69852,26090
70448,25494
70373,25358
70026,25220
69653,25224
69330,25358
69255,25494
68609,25494
68609,24785
69037,24785
69275,25023
69649,25178
70053,25179
70428,25024
70714,24738
70869,24364
70870,23959
70715,23585
70429,23299
70055,23143
69650,23143
69276,23298
69036,23537
61970,23537
61731,23584
61529,23720
60464,24785
60328,24987
60281,25226
60281,26810
60255,26938
60255,27109
59062,28303
55671,28303
54092,26724
53890,26588
53651,26541
51934,26541
51931,26533
51617,26219
51207,26049
50763,26049
50352,26218
50038,26532
49868,26942
49867,27386
48288,27386
48288,21734
51009,21734
51209,22217
51578,22587
51728,22649
51580,22711
51210,23080
51010,23562
51009,24084
51209,24567
51578,24937
52060,25137
52582,25138
53065,24938
53435,24569
53444,24547
55444,24547
56261,25364
56261,26309
56038,26532
55868,26942
55867,27386
56037,27796
56351,28111
56761,28281
57205,28281
57615,28112
57929,27798
58100,27388
58100,26944
57931,26533
57706,26309
57706,25064
57651,24788
57495,24554
56254,23313
56020,23157
55744,23102
53444,23102
53436,23082
53067,22712
52917,22649
53065,22588
53435,22219
53464,22150
58216,22150
58371,22381
58797,22666
59300,22766
59802,22666
60228,22381
60513,21955
60570,21670
61830,21670
62015,22114
62355,22454
62798,22637
62990,22598
62990,21477
63090,21477
63090,22598
63282,22637
63724,22454
64065,22114
64250,21670
64211,21477
63090,21477
62990,21477
61869,21477
61830,21670
60570,21670
60613,21453
60613,21401
60570,21185
61830,21185
61869,21377
62990,21377
62990,20257
63090,20257
63090,21377
64211,21377
64250,21185
64065,20740
63724,20400
63282,20217
63090,20257
62990,20257
62798,20217
62355,20400
62015,20740
61830,21185
60570,21185
60513,20899
60228,20473
60022,20335
60022,17873
60228,17736
60513,17310
60570,17024
61830,17024
62015,17469
62355,17809
62798,17992
62990,17952
62990,16832
63090,16832
63090,17952
63282,17992
63724,17809
64065,17469
64250,17024
64211,16832
63090,16832
62990,16832
61869,16832
61830,17024
60570,17024
60613,16807
60613,16756
60570,16539
61830,16539
61869,16732
62990,16732
62990,15611
63090,15611
63090,16732
64211,16732
64250,16539
64065,16095
63724,15754
63282,15571
63090,15611
62990,15611
62798,15571
62355,15754
62015,16095
61830,16539
60570,16539
60513,16253
60228,15827
59802,15543
59300,15443
58797,15543
58371,15827
58087,16253
57987,16756
57987,16807
58087,17310
58371,17736
58577,17873
58577,20335
58371,20473
58216,20705
53409,20705
53067,20362
52585,20162
52062,20161
51580,20361
51210,20730
51010,21212
51009,21734
48288,21734
48288,18557
48520,18523
48525,18522
48913,18425
48946,18425
48956,18425
49055,18405
49058,18404
49274,18345
49279,18344
49594,18225
49600,18223
49974,18026
49976,18024
50331,17808
50335,17805
50591,17608
50593,17607
50829,17410
50832,17407
51088,17151
51092,17147
51328,16852
51329,16851
51525,16595
51527,16592
51645,16415
51649,16409
51885,15917
51886,15914
51985,15678
51987,15672
52085,15318
52086,15314
52219,14630
52226,14626
69410,14626
69412,14635
" /> 
</g>
<g style="fill:#FFFFFF; fill-opacity:1.0; 
stroke:#FFFFFF; stroke-width:100; stroke-opacity:1; 
stroke-linecap:round; stroke-linejoin:round;">
</g>
<g style="fill:#FFFFFF; fill-opacity:1.0; 
stroke:#FFFFFF; stroke-width:0; stroke-opacity:1; 
stroke-linecap:round; stroke-linejoin:round;">
<circle cx="52322.8" cy="21474.8" r="150" /> 
</g>
<g style="fill:#FFFFFF; fill-opacity:1.0; 
stroke:#FFFFFF; stroke-width:39.3701; stroke-opacity:1; 
stroke-linecap:round; stroke-linejoin:round;">
</g>
<g style="fill:#FFFFFF; fill-opacity:1.0; 
stroke:#FFFFFF; stroke-width:0; stroke-opacity:1; 
stroke-linecap:round; stroke-linejoin:round;">
<circle cx="52322.8" cy="23824.8" r="150" /> 
</g>
<g style="fill:#FFFFFF; fill-opacity:1.0; 
stroke:#FFFFFF; stroke-width:39.3701; stroke-opacity:1; 
stroke-linecap:round; stroke-linejoin:round;">
</g>
<g style="fill:#FFFFFF; fill-opacity:1.0; 
stroke:#FFFFFF; stroke-width:0; stroke-opacity:1; 
stroke-linecap:round; stroke-linejoin:round;">
<circle cx="66311" cy="33309.1" r="157.48" /> 
</g>
<g style="fill:#FFFFFF; fill-opacity:1.0; 
stroke:#FFFFFF; stroke-width:39.3701; stroke-opacity:1; 
stroke-linecap:round; stroke-linejoin:round;">
</g>
<g style="fill:#FFFFFF; fill-opacity:1.0; 
stroke:#FFFFFF; stroke-width:0; stroke-opacity:1; 
stroke-linecap:round; stroke-linejoin:round;">
<circle cx="50964.6" cy="30305.1" r="157.48" /> 
</g>
<g style="fill:#FFFFFF; fill-opacity:1.0; 
stroke:#FFFFFF; stroke-width:39.3701; stroke-opacity:1; 
stroke-linecap:round; stroke-linejoin:round;">
</g>
<g style="fill:#FFFFFF; fill-opacity:1.0; 
stroke:#FFFFFF; stroke-width:0; stroke-opacity:1; 
stroke-linecap:round; stroke-linejoin:round;">
<circle cx="50964.6" cy="31305.1" r="157.48" /> 
</g>
<g style="fill:#FFFFFF; fill-opacity:1.0; 
stroke:#FFFFFF; stroke-width:39.3701; stroke-opacity:1; 
stroke-linecap:round; stroke-linejoin:round;">
</g>
<g style="fill:#FFFFFF; fill-opacity:1.0; 
stroke:#FFFFFF; stroke-width:0; stroke-opacity:1; 
stroke-linecap:round; stroke-linejoin:round;">
<circle cx="50964.6" cy="32305.1" r="157.48" /> 
</g>
<g style="fill:#FFFFFF; fill-opacity:1.0; 
stroke:#FFFFFF; stroke-width:39.3701; stroke-opacity:1; 
stroke-linecap:round; stroke-linejoin:round;">
</g>
<g style="fill:#FFFFFF; fill-opacity:1.0; 
stroke:#FFFFFF; stroke-width:0; stroke-opacity:1; 
stroke-linecap:round; stroke-linejoin:round;">
<circle cx="50964.6" cy="33305.1" r="157.48" /> 
</g>
<g style="fill:#FFFFFF; fill-opacity:1.0; 
stroke:#FFFFFF; stroke-width:39.3701; stroke-opacity:1; 
stroke-linecap:round; stroke-linejoin:round;">
</g>
<g style="fill:#FFFFFF; fill-opacity:1.0; 
stroke:#FFFFFF; stroke-width:0; stroke-opacity:1; 
stroke-linecap:round; stroke-linejoin:round;">
<circle cx="50964.6" cy="34305.1" r="157.48" /> 
</g>
<g style="fill:#FFFFFF; fill-opacity:1.0; 
stroke:#FFFFFF; stroke-width:39.3701; stroke-opacity:1; 
stroke-linecap:round; stroke-linejoin:round;">
</g>
<g style="fill:#FFFFFF; fill-opacity:1.0; 
stroke:#FFFFFF; stroke-width:0; stroke-opacity:1; 
stroke-linecap:round; stroke-linejoin:round;">
<circle cx="50964.6" cy="35305.1" r="157.48" /> 
</g>
<g style="fill:#FFFFFF; fill-opacity:1.0; 
stroke:#FFFFFF; stroke-width:39.3701; stroke-opacity:1; 
stroke-linecap:round; stroke-linejoin:round;">
</g>
<g style="fill:#FFFFFF; fill-opacity:1.0; 
stroke:#FFFFFF; stroke-width:0; stroke-opacity:1; 
stroke-linecap:round; stroke-linejoin:round;">
<circle cx="50964.6" cy="36305.1" r="157.48" /> 
</g>
<g style="fill:#FFFFFF; fill-opacity:1.0; 
stroke:#FFFFFF; stroke-width:39.3701; stroke-opacity:1; 
stroke-linecap:round; stroke-linejoin:round;">
</g>
<g style="fill:#FFFFFF; fill-opacity:1.0; 
stroke:#FFFFFF; stroke-width:0; stroke-opacity:1; 
stroke-linecap:round; stroke-linejoin:round;">
<circle cx="50964.6" cy="37305.1" r="157.48" /> 
</g>
<g style="fill:#FFFFFF; fill-opacity:1.0; 
stroke:#FFFFFF; stroke-width:39.3701; stroke-opacity:1; 
stroke-linecap:round; stroke-linejoin:round;">
</g>
<g style="fill:#FFFFFF; fill-opacity:1.0; 
stroke:#FFFFFF; stroke-width:0; stroke-opacity:1; 
stroke-linecap:round; stroke-linejoin:round;">
<circle cx="66318.9" cy="30305.1" r="157.48" /> 
</g>
<g style="fill:#FFFFFF; fill-opacity:1.0; 
stroke:#FFFFFF; stroke-width:39.3701; stroke-opacity:1; 
stroke-linecap:round; stroke-linejoin:round;">
</g>
<g style="fill:#FFFFFF; fill-opacity:1.0; 
stroke:#FFFFFF; stroke-width:0; stroke-opacity:1; 
stroke-linecap:round; stroke-linejoin:round;">
<circle cx="66311" cy="31301.2" r="157.48" /> 
</g>
<g style="fill:#FFFFFF; fill-opacity:1.0; 
stroke:#FFFFFF; stroke-width:39.3701; stroke-opacity:1; 
stroke-linecap:round; stroke-linejoin:round;">
</g>
<g style="fill:#FFFFFF; fill-opacity:1.0; 
stroke:#FFFFFF; stroke-width:0; stroke-opacity:1; 
stroke-linecap:round; stroke-linejoin:round;">
<circle cx="66311" cy="32301.2" r="157.48" /> 
</g>
<g style="fill:#FFFFFF; fill-opacity:1.0; 
stroke:#FFFFFF; stroke-width:39.3701; stroke-opacity:1; 
stroke-linecap:round; stroke-linejoin:round;">
</g>
<g style="fill:#FFFFFF; fill-opacity:1.0; 
stroke:#FFFFFF; stroke-width:0; stroke-opacity:1; 
stroke-linecap:round; stroke-linejoin:round;">
<circle cx="66311" cy="34301.2" r="157.48" /> 
</g>
<g style="fill:#FFFFFF; fill-opacity:1.0; 
stroke:#FFFFFF; stroke-width:39.3701; stroke-opacity:1; 
stroke-linecap:round; stroke-linejoin:round;">
</g>
<g style="fill:#FFFFFF; fill-opacity:1.0; 
stroke:#FFFFFF; stroke-width:0; stroke-opacity:1; 
stroke-linecap:round; stroke-linejoin:round;">
<circle cx="66311" cy="35301.2" r="157.48" /> 
</g>
<g style="fill:#FFFFFF; fill-opacity:1.0; 
stroke:#FFFFFF; stroke-width:39.3701; stroke-opacity:1; 
stroke-linecap:round; stroke-linejoin:round;">
</g>
<g style="fill:#FFFFFF; fill-opacity:1.0; 
stroke:#FFFFFF; stroke-width:0; stroke-opacity:1; 
stroke-linecap:round; stroke-linejoin:round;">
<circle cx="66311" cy="36301.2" r="157.48" /> 
</g>
<g style="fill:#FFFFFF; fill-opacity:1.0; 
stroke:#FFFFFF; stroke-width:39.3701; stroke-opacity:1; 
stroke-linecap:round; stroke-linejoin:round;">
</g>
<g style="fill:#FFFFFF; fill-opacity:1.0; 
stroke:#FFFFFF; stroke-width:0; stroke-opacity:1; 
stroke-linecap:round; stroke-linejoin:round;">
<circle cx="66311" cy="37301.2" r="157.48" /> 
</g>
<g style="fill:#FFFFFF; fill-opacity:1.0; 
stroke:#FFFFFF; stroke-width:39.3701; stroke-opacity:1; 
stroke-linecap:round; stroke-linejoin:round;">
</g>
<g style="fill:#FFFFFF; fill-opacity:1.0; 
stroke:#FFFFFF; stroke-width:0; stroke-opacity:1; 
stroke-linecap:round; stroke-linejoin:round;">
<circle cx="54104.3" cy="32322.8" r="157.48" /> 
</g>
<g style="fill:#FFFFFF; fill-opacity:1.0; 
stroke:#FFFFFF; stroke-width:39.3701; stroke-opacity:1; 
stroke-linecap:round; stroke-linejoin:round;">
</g>
<g style="fill:#FFFFFF; fill-opacity:1.0; 
stroke:#FFFFFF; stroke-width:0; stroke-opacity:1; 
stroke-linecap:round; stroke-linejoin:round;">
<circle cx="54104.3" cy="33700.8" r="157.48" /> 
</g>
<g style="fill:#FFFFFF; fill-opacity:1.0; 
stroke:#FFFFFF; stroke-width:39.3701; stroke-opacity:1; 
stroke-linecap:round; stroke-linejoin:round;">
</g>
<g style="fill:#FFFFFF; fill-opacity:1.0; 
stroke:#FFFFFF; stroke-width:0; stroke-opacity:1; 
stroke-linecap:round; stroke-linejoin:round;">
<circle cx="50984.3" cy="27165.4" r="196.85" /> 
</g>
<g style="fill:#FFFFFF; fill-opacity:1.0; 
stroke:#FFFFFF; stroke-width:39.3701; stroke-opacity:1; 
stroke-linecap:round; stroke-linejoin:round;">
</g>
<g style="fill:#FFFFFF; fill-opacity:1.0; 
stroke:#FFFFFF; stroke-width:0; stroke-opacity:1; 
stroke-linecap:round; stroke-linejoin:round;">
<circle cx="56984.3" cy="27165.4" r="196.85" /> 
</g>
<g style="fill:#FFFFFF; fill-opacity:1.0; 
stroke:#FFFFFF; stroke-width:39.3701; stroke-opacity:1; 
stroke-linecap:round; stroke-linejoin:round;">
</g>
<g style="fill:#FFFFFF; fill-opacity:1.0; 
stroke:#FFFFFF; stroke-width:0; stroke-opacity:1; 
stroke-linecap:round; stroke-linejoin:round;">
<circle cx="51220.5" cy="50265.7" r="157.48" /> 
</g>
<g style="fill:#FFFFFF; fill-opacity:1.0; 
stroke:#FFFFFF; stroke-width:39.3701; stroke-opacity:1; 
stroke-linecap:round; stroke-linejoin:round;">
</g>
<g style="fill:#FFFFFF; fill-opacity:1.0; 
stroke:#FFFFFF; stroke-width:0; stroke-opacity:1; 
stroke-linecap:round; stroke-linejoin:round;">
<circle cx="51220.5" cy="49265.7" r="157.48" /> 
</g>
<g style="fill:#FFFFFF; fill-opacity:1.0; 
stroke:#FFFFFF; stroke-width:39.3701; stroke-opacity:1; 
stroke-linecap:round; stroke-linejoin:round;">
</g>
<g style="fill:#FFFFFF; fill-opacity:1.0; 
stroke:#FFFFFF; stroke-width:0; stroke-opacity:1; 
stroke-linecap:round; stroke-linejoin:round;">
<circle cx="63040.4" cy="21427.7" r="196.85" /> 
</g>
<g style="fill:#FFFFFF; fill-opacity:1.0; 
stroke:#FFFFFF; stroke-width:39.3701; stroke-opacity:1; 
stroke-linecap:round; stroke-linejoin:round;">
</g>
<g style="fill:#FFFFFF; fill-opacity:1.0; 
stroke:#FFFFFF; stroke-width:0; stroke-opacity:1; 
stroke-linecap:round; stroke-linejoin:round;">
<circle cx="59300.2" cy="21427.7" r="196.85" /> 
</g>
<g style="fill:#FFFFFF; fill-opacity:1.0; 
stroke:#FFFFFF; stroke-width:39.3701; stroke-opacity:1; 
stroke-linecap:round; stroke-linejoin:round;">
</g>
<g style="fill:#FFFFFF; fill-opacity:1.0; 
stroke:#FFFFFF; stroke-width:0; stroke-opacity:1; 
stroke-linecap:round; stroke-linejoin:round;">
<circle cx="63040.4" cy="16782" r="196.85" /> 
</g>
<g style="fill:#FFFFFF; fill-opacity:1.0; 
stroke:#FFFFFF; stroke-width:39.3701; stroke-opacity:1; 
stroke-linecap:round; stroke-linejoin:round;">
</g>
<g style="fill:#FFFFFF; fill-opacity:1.0; 
stroke:#FFFFFF; stroke-width:0; stroke-opacity:1; 
stroke-linecap:round; stroke-linejoin:round;">
<circle cx="59300.2" cy="16782" r="196.85" /> 
</g>
<g style="fill:#FFFFFF; fill-opacity:1.0; 
stroke:#FFFFFF; stroke-width:39.3701; stroke-opacity:1; 
stroke-linecap:round; stroke-linejoin:round;">
</g>
<g style="fill:#FFFFFF; fill-opacity:1.0; 
stroke:#FFFFFF; stroke-width:0; stroke-opacity:1; 
stroke-linecap:round; stroke-linejoin:round;">
<circle cx="59400.6" cy="49044.7" r="196.85" /> 
</g>
<g style="fill:#FFFFFF; fill-opacity:1.0; 
stroke:#FFFFFF; stroke-width:39.3701; stroke-opacity:1; 
stroke-linecap:round; stroke-linejoin:round;">
</g>
<g style="fill:#FFFFFF; fill-opacity:1.0; 
stroke:#FFFFFF; stroke-width:0; stroke-opacity:1; 
stroke-linecap:round; stroke-linejoin:round;">
<circle cx="63140.7" cy="49044.7" r="196.85" /> 
</g>
<g style="fill:#FFFFFF; fill-opacity:1.0; 
stroke:#FFFFFF; stroke-width:39.3701; stroke-opacity:1; 
stroke-linecap:round; stroke-linejoin:round;">
</g>
<g style="fill:#FFFFFF; fill-opacity:1.0; 
stroke:#FFFFFF; stroke-width:0; stroke-opacity:1; 
stroke-linecap:round; stroke-linejoin:round;">
<circle cx="59400.6" cy="53690.4" r="196.85" /> 
</g>
<g style="fill:#FFFFFF; fill-opacity:1.0; 
stroke:#FFFFFF; stroke-width:39.3701; stroke-opacity:1; 
stroke-linecap:round; stroke-linejoin:round;">
</g>
<g style="fill:#FFFFFF; fill-opacity:1.0; 
stroke:#FFFFFF; stroke-width:0; stroke-opacity:1; 
stroke-linecap:round; stroke-linejoin:round;">
<circle cx="63140.7" cy="53690.4" r="196.85" /> 
</g>
<g style="fill:#FFFFFF; fill-opacity:1.0; 
stroke:#FFFFFF; stroke-width:39.3701; stroke-opacity:1; 
stroke-linecap:round; stroke-linejoin:round;">
</g>
<g style="fill:#FFFFFF; fill-opacity:1.0; 
stroke:#FFFFFF; stroke-width:0; stroke-opacity:1; 
stroke-linecap:round; stroke-linejoin:round;">
<circle cx="69911.4" cy="39409.4" r="196.85" /> 
</g>
<g style="fill:#FFFFFF; fill-opacity:1.0; 
stroke:#FFFFFF; stroke-width:39.3701; stroke-opacity:1; 
stroke-linecap:round; stroke-linejoin:round;">
</g>
<g style="fill:#FFFFFF; fill-opacity:1.0; 
stroke:#FFFFFF; stroke-width:0; stroke-opacity:1; 
stroke-linecap:round; stroke-linejoin:round;">
<circle cx="69911.4" cy="37409.4" r="196.85" /> 
</g>
<g style="fill:#FFFFFF; fill-opacity:1.0; 
stroke:#FFFFFF; stroke-width:39.3701; stroke-opacity:1; 
stroke-linecap:round; stroke-linejoin:round;">
</g>
<g style="fill:#FFFFFF; fill-opacity:1.0; 
stroke:#FFFFFF; stroke-width:0; stroke-opacity:1; 
stroke-linecap:round; stroke-linejoin:round;">
<circle cx="69911.4" cy="35275.6" r="196.85" /> 
</g>
<g style="fill:#FFFFFF; fill-opacity:1.0; 
stroke:#FFFFFF; stroke-width:39.3701; stroke-opacity:1; 
stroke-linecap:round; stroke-linejoin:round;">
</g>
<g style="fill:#FFFFFF; fill-opacity:1.0; 
stroke:#FFFFFF; stroke-width:0; stroke-opacity:1; 
stroke-linecap:round; stroke-linejoin:round;">
<circle cx="69911.4" cy="33275.6" r="196.85" /> 
</g>
<g style="fill:#FFFFFF; fill-opacity:1.0; 
stroke:#FFFFFF; stroke-width:39.3701; stroke-opacity:1; 
stroke-linecap:round; stroke-linejoin:round;">
</g>
<g style="fill:#FFFFFF; fill-opacity:1.0; 
stroke:#FFFFFF; stroke-width:0; stroke-opacity:1; 
stroke-linecap:round; stroke-linejoin:round;">
<circle cx="69901.6" cy="44094.5" r="196.85" /> 
</g>
<g style="fill:#FFFFFF; fill-opacity:1.0; 
stroke:#FFFFFF; stroke-width:39.3701; stroke-opacity:1; 
stroke-linecap:round; stroke-linejoin:round;">
</g>
<g style="fill:#FFFFFF; fill-opacity:1.0; 
stroke:#FFFFFF; stroke-width:0; stroke-opacity:1; 
stroke-linecap:round; stroke-linejoin:round;">
<circle cx="69901.6" cy="42094.5" r="196.85" /> 
</g>
<g style="fill:#FFFFFF; fill-opacity:1.0; 
stroke:#FFFFFF; stroke-width:39.3701; stroke-opacity:1; 
stroke-linecap:round; stroke-linejoin:round;">
</g>
<g style="fill:#FFFFFF; fill-opacity:1.0; 
stroke:#FFFFFF; stroke-width:0; stroke-opacity:1; 
stroke-linecap:round; stroke-linejoin:round;">
<circle cx="69901.6" cy="48228.3" r="196.85" /> 
</g>
<g style="fill:#FFFFFF; fill-opacity:1.0; 
stroke:#FFFFFF; stroke-width:39.3701; stroke-opacity:1; 
stroke-linecap:round; stroke-linejoin:round;">
</g>
<g style="fill:#FFFFFF; fill-opacity:1.0; 
stroke:#FFFFFF; stroke-width:0; stroke-opacity:1; 
stroke-linecap:round; stroke-linejoin:round;">
<circle cx="69901.6" cy="46228.3" r="196.85" /> 
</g>
<g style="fill:#FFFFFF; fill-opacity:1.0; 
stroke:#FFFFFF; stroke-width:39.3701; stroke-opacity:1; 
stroke-linecap:round; stroke-linejoin:round;">
</g>
<g style="fill:#FFFFFF; fill-opacity:1.0; 
stroke:#FFFFFF; stroke-width:0; stroke-opacity:1; 
stroke-linecap:round; stroke-linejoin:round;">
<circle cx="53720.5" cy="48011.8" r="157.48" /> 
</g>
<g style="fill:#FFFFFF; fill-opacity:1.0; 
stroke:#FFFFFF; stroke-width:39.3701; stroke-opacity:1; 
stroke-linecap:round; stroke-linejoin:round;">
</g>
<g style="fill:#FFFFFF; fill-opacity:1.0; 
stroke:#FFFFFF; stroke-width:0; stroke-opacity:1; 
stroke-linecap:round; stroke-linejoin:round;">
<circle cx="50720.5" cy="48011.8" r="157.48" /> 
</g>
<g style="fill:#FFFFFF; fill-opacity:1.0; 
stroke:#FFFFFF; stroke-width:39.3701; stroke-opacity:1; 
stroke-linecap:round; stroke-linejoin:round;">
</g>
<g style="fill:#FFFFFF; fill-opacity:1.0; 
stroke:#FFFFFF; stroke-width:0; stroke-opacity:1; 
stroke-linecap:round; stroke-linejoin:round;">
<circle cx="66311" cy="42137.8" r="157.48" /> 
</g>
<g style="fill:#FFFFFF; fill-opacity:1.0; 
stroke:#FFFFFF; stroke-width:39.3701; stroke-opacity:1; 
stroke-linecap:round; stroke-linejoin:round;">
</g>
<g style="fill:#FFFFFF; fill-opacity:1.0; 
stroke:#FFFFFF; stroke-width:0; stroke-opacity:1; 
stroke-linecap:round; stroke-linejoin:round;">
<circle cx="50964.6" cy="39133.9" r="157.48" /> 
</g>
<g style="fill:#FFFFFF; fill-opacity:1.0; 
stroke:#FFFFFF; stroke-width:39.3701; stroke-opacity:1; 
stroke-linecap:round; stroke-linejoin:round;">
</g>
<g style="fill:#FFFFFF; fill-opacity:1.0; 
stroke:#FFFFFF; stroke-width:0; stroke-opacity:1; 
stroke-linecap:round; stroke-linejoin:round;">
<circle cx="50964.6" cy="40133.9" r="157.48" /> 
</g>
<g style="fill:#FFFFFF; fill-opacity:1.0; 
stroke:#FFFFFF; stroke-width:39.3701; stroke-opacity:1; 
stroke-linecap:round; stroke-linejoin:round;">
</g>
<g style="fill:#FFFFFF; fill-opacity:1.0; 
stroke:#FFFFFF; stroke-width:0; stroke-opacity:1; 
stroke-linecap:round; stroke-linejoin:round;">
<circle cx="50964.6" cy="41133.9" r="157.48" /> 
</g>
<g style="fill:#FFFFFF; fill-opacity:1.0; 
stroke:#FFFFFF; stroke-width:39.3701; stroke-opacity:1; 
stroke-linecap:round; stroke-linejoin:round;">
</g>
<g style="fill:#FFFFFF; fill-opacity:1.0; 
stroke:#FFFFFF; stroke-width:0; stroke-opacity:1; 
stroke-linecap:round; stroke-linejoin:round;">
<circle cx="50964.6" cy="42133.9" r="157.48" /> 
</g>
<g style="fill:#FFFFFF; fill-opacity:1.0; 
stroke:#FFFFFF; stroke-width:39.3701; stroke-opacity:1; 
stroke-linecap:round; stroke-linejoin:round;">
</g>
<g style="fill:#FFFFFF; fill-opacity:1.0; 
stroke:#FFFFFF; stroke-width:0; stroke-opacity:1; 
stroke-linecap:round; stroke-linejoin:round;">
<circle cx="50964.6" cy="43133.9" r="157.48" /> 
</g>
<g style="fill:#FFFFFF; fill-opacity:1.0; 
stroke:#FFFFFF; stroke-width:39.3701; stroke-opacity:1; 
stroke-linecap:round; stroke-linejoin:round;">
</g>
<g style="fill:#FFFFFF; fill-opacity:1.0; 
stroke:#FFFFFF; stroke-width:0; stroke-opacity:1; 
stroke-linecap:round; stroke-linejoin:round;">
<circle cx="50964.6" cy="44133.9" r="157.48" /> 
</g>
<g style="fill:#FFFFFF; fill-opacity:1.0; 
stroke:#FFFFFF; stroke-width:39.3701; stroke-opacity:1; 
stroke-linecap:round; stroke-linejoin:round;">
</g>
<g style="fill:#FFFFFF; fill-opacity:1.0; 
stroke:#FFFFFF; stroke-width:0; stroke-opacity:1; 
stroke-linecap:round; stroke-linejoin:round;">
<circle cx="50964.6" cy="45133.9" r="157.48" /> 
</g>
<g style="fill:#FFFFFF; fill-opacity:1.0; 
stroke:#FFFFFF; stroke-width:39.3701; stroke-opacity:1; 
stroke-linecap:round; stroke-linejoin:round;">
</g>
<g style="fill:#FFFFFF; fill-opacity:1.0; 
stroke:#FFFFFF; stroke-width:0; stroke-opacity:1; 
stroke-linecap:round; stroke-linejoin:round;">
<circle cx="50964.6" cy="46133.9" r="157.48" /> 
</g>
<g style="fill:#FFFFFF; fill-opacity:1.0; 
stroke:#FFFFFF; stroke-width:39.3701; stroke-opacity:1; 
stroke-linecap:round; stroke-linejoin:round;">
</g>
<g style="fill:#FFFFFF; fill-opacity:1.0; 
stroke:#FFFFFF; stroke-width:0; stroke-opacity:1; 
stroke-linecap:round; stroke-linejoin:round;">
<circle cx="66318.9" cy="39133.9" r="157.48" /> 
</g>
<g style="fill:#FFFFFF; fill-opacity:1.0; 
stroke:#FFFFFF; stroke-width:39.3701; stroke-opacity:1; 
stroke-linecap:round; stroke-linejoin:round;">
</g>
<g style="fill:#FFFFFF; fill-opacity:1.0; 
stroke:#FFFFFF; stroke-width:0; stroke-opacity:1; 
stroke-linecap:round; stroke-linejoin:round;">
<circle cx="66311" cy="40129.9" r="157.48" /> 
</g>
<g style="fill:#FFFFFF; fill-opacity:1.0; 
stroke:#FFFFFF; stroke-width:39.3701; stroke-opacity:1; 
stroke-linecap:round; stroke-linejoin:round;">
</g>
<g style="fill:#FFFFFF; fill-opacity:1.0; 
stroke:#FFFFFF; stroke-width:0; stroke-opacity:1; 
stroke-linecap:round; stroke-linejoin:round;">
<circle cx="66311" cy="41129.9" r="157.48" /> 
</g>
<g style="fill:#FFFFFF; fill-opacity:1.0; 
stroke:#FFFFFF; stroke-width:39.3701; stroke-opacity:1; 
stroke-linecap:round; stroke-linejoin:round;">
</g>
<g style="fill:#FFFFFF; fill-opacity:1.0; 
stroke:#FFFFFF; stroke-width:0; stroke-opacity:1; 
stroke-linecap:round; stroke-linejoin:round;">
<circle cx="66311" cy="43129.9" r="157.48" /> 
</g>
<g style="fill:#FFFFFF; fill-opacity:1.0; 
stroke:#FFFFFF; stroke-width:39.3701; stroke-opacity:1; 
stroke-linecap:round; stroke-linejoin:round;">
</g>
<g style="fill:#FFFFFF; fill-opacity:1.0; 
stroke:#FFFFFF; stroke-width:0; stroke-opacity:1; 
stroke-linecap:round; stroke-linejoin:round;">
<circle cx="66311" cy="44129.9" r="157.48" /> 
</g>
<g style="fill:#FFFFFF; fill-opacity:1.0; 
stroke:#FFFFFF; stroke-width:39.3701; stroke-opacity:1; 
stroke-linecap:round; stroke-linejoin:round;">
</g>
<g style="fill:#FFFFFF; fill-opacity:1.0; 
stroke:#FFFFFF; stroke-width:0; stroke-opacity:1; 
stroke-linecap:round; stroke-linejoin:round;">
<circle cx="66311" cy="45129.9" r="157.48" /> 
</g>
<g style="fill:#FFFFFF; fill-opacity:1.0; 
stroke:#FFFFFF; stroke-width:39.3701; stroke-opacity:1; 
stroke-linecap:round; stroke-linejoin:round;">
</g>
<g style="fill:#FFFFFF; fill-opacity:1.0; 
stroke:#FFFFFF; stroke-width:0; stroke-opacity:1; 
stroke-linecap:round; stroke-linejoin:round;">
<circle cx="66311" cy="46129.9" r="157.48" /> 
</g>
<g style="fill:#FFFFFF; fill-opacity:1.0; 
stroke:#FFFFFF; stroke-width:39.3701; stroke-opacity:1; 
stroke-linecap:round; stroke-linejoin:round;">
</g>
<g style="fill:#FFFFFF; fill-opacity:1.0; 
stroke:#FFFFFF; stroke-width:0; stroke-opacity:1; 
stroke-linecap:round; stroke-linejoin:round;">
<circle cx="65669.3" cy="25393.7" r="157.48" /> 
</g>
<g style="fill:#FFFFFF; fill-opacity:1.0; 
stroke:#FFFFFF; stroke-width:39.3701; stroke-opacity:1; 
stroke-linecap:round; stroke-linejoin:round;">
</g>
<g style="fill:#FFFFFF; fill-opacity:1.0; 
stroke:#FFFFFF; stroke-width:0; stroke-opacity:1; 
stroke-linecap:round; stroke-linejoin:round;">
<circle cx="65669.3" cy="26378" r="157.48" /> 
</g>
<g style="fill:#FFFFFF; fill-opacity:1.0; 
stroke:#FFFFFF; stroke-width:39.3701; stroke-opacity:1; 
stroke-linecap:round; stroke-linejoin:round;">
</g>
<g style="fill:#FFFFFF; fill-opacity:1.0; 
stroke:#FFFFFF; stroke-width:0; stroke-opacity:1; 
stroke-linecap:round; stroke-linejoin:round;">
<circle cx="69852.4" cy="26161.4" r="196.85" /> 
</g>
<g style="fill:#FFFFFF; fill-opacity:1.0; 
stroke:#FFFFFF; stroke-width:39.3701; stroke-opacity:1; 
stroke-linecap:round; stroke-linejoin:round;">
</g>
<g style="fill:#FFFFFF; fill-opacity:1.0; 
stroke:#FFFFFF; stroke-width:0; stroke-opacity:1; 
stroke-linecap:round; stroke-linejoin:round;">
<circle cx="69852.4" cy="24161.4" r="196.85" /> 
</g>
<g style="fill:#FFFFFF; fill-opacity:1.0; 
stroke:#FFFFFF; stroke-width:39.3701; stroke-opacity:1; 
stroke-linecap:round; stroke-linejoin:round;">
</g>
<g style="fill:#FFFFFF; fill-opacity:1.0; 
stroke:#FFFFFF; stroke-width:0; stroke-opacity:1; 
stroke-linecap:round; stroke-linejoin:round;">
<circle cx="69862.2" cy="30315" r="196.85" /> 
</g>
<g style="fill:#FFFFFF; fill-opacity:1.0; 
stroke:#FFFFFF; stroke-width:39.3701; stroke-opacity:1; 
stroke-linecap:round; stroke-linejoin:round;">
</g>
<g style="fill:#FFFFFF; fill-opacity:1.0; 
stroke:#FFFFFF; stroke-width:0; stroke-opacity:1; 
stroke-linecap:round; stroke-linejoin:round;">
<circle cx="69862.2" cy="28315" r="196.85" /> 
</g>
<g style="fill:#FFFFFF; fill-opacity:1.0; 
stroke:#FFFFFF; stroke-width:39.3701; stroke-opacity:1; 
stroke-linecap:round; stroke-linejoin:round;">
</g>
<g style="fill:#FFFFFF; fill-opacity:1.0; 
stroke:#FFFFFF; stroke-width:0; stroke-opacity:1; 
stroke-linecap:round; stroke-linejoin:round;">
<circle cx="63484.3" cy="26368.1" r="196.85" /> 
</g>
<g style="fill:#FFFFFF; fill-opacity:1.0; 
stroke:#FFFFFF; stroke-width:39.3701; stroke-opacity:1; 
stroke-linecap:round; stroke-linejoin:round;">
</g>
<g style="fill:#FFFFFF; fill-opacity:1.0; 
stroke:#FFFFFF; stroke-width:0; stroke-opacity:1; 
stroke-linecap:round; stroke-linejoin:round;">
<circle cx="63484.3" cy="25368.1" r="196.85" /> 
</g>
<g style="fill:#FFFFFF; fill-opacity:1.0; 
stroke:#FFFFFF; stroke-width:39.3701; stroke-opacity:1; 
stroke-linecap:round; stroke-linejoin:round;">
</g>
<g style="fill:#FFFFFF; fill-opacity:1.0; 
stroke:#FFFFFF; stroke-width:0; stroke-opacity:1; 
stroke-linecap:round; stroke-linejoin:round;">
<circle cx="63484.3" cy="27368.1" r="196.85" /> 
</g>
<g style="fill:#FFFFFF; fill-opacity:1.0; 
stroke:#FFFFFF; stroke-width:39.3701; stroke-opacity:1; 
stroke-linecap:round; stroke-linejoin:round;">
</g>
<g style="fill:#FFFFFF; fill-opacity:1.0; 
stroke:#FFFFFF; stroke-width:0; stroke-opacity:1; 
stroke-linecap:round; stroke-linejoin:round;">
<circle cx="63533.5" cy="33356.3" r="157.48" /> 
</g>
<g style="fill:#FFFFFF; fill-opacity:1.0; 
stroke:#FFFFFF; stroke-width:39.3701; stroke-opacity:1; 
stroke-linecap:round; stroke-linejoin:round;">
</g>
<g style="fill:#FFFFFF; fill-opacity:1.0; 
stroke:#FFFFFF; stroke-width:0; stroke-opacity:1; 
stroke-linecap:round; stroke-linejoin:round;">
<circle cx="63533.5" cy="34340.6" r="157.48" /> 
</g>
<g style="fill:#FFFFFF; fill-opacity:1.0; 
stroke:#FFFFFF; stroke-width:39.3701; stroke-opacity:1; 
stroke-linecap:round; stroke-linejoin:round;">
</g>
<g style="fill:#FFFFFF; fill-opacity:1.0; 
stroke:#FFFFFF; stroke-width:0; stroke-opacity:1; 
stroke-linecap:round; stroke-linejoin:round;">
<circle cx="63553.1" cy="42145.7" r="157.48" /> 
</g>
<g style="fill:#FFFFFF; fill-opacity:1.0; 
stroke:#FFFFFF; stroke-width:39.3701; stroke-opacity:1; 
stroke-linecap:round; stroke-linejoin:round;">
</g>
<g style="fill:#FFFFFF; fill-opacity:1.0; 
stroke:#FFFFFF; stroke-width:0; stroke-opacity:1; 
stroke-linecap:round; stroke-linejoin:round;">
<circle cx="63553.1" cy="43129.9" r="157.48" /> 
</g>
<g style="fill:#FFFFFF; fill-opacity:1.0; 
stroke:#FFFFFF; stroke-width:39.3701; stroke-opacity:1; 
stroke-linecap:round; stroke-linejoin:round;">
</g>
<g style="fill:#FFFFFF; fill-opacity:1.0; 
stroke:#FFFFFF; stroke-width:0; stroke-opacity:1; 
stroke-linecap:round; stroke-linejoin:round;">
<circle cx="66574.8" cy="27606.3" r="157.48" /> 
</g>
<g style="fill:#FFFFFF; fill-opacity:1.0; 
stroke:#FFFFFF; stroke-width:39.3701; stroke-opacity:1; 
stroke-linecap:round; stroke-linejoin:round;">
</g>
<g style="fill:#FFFFFF; fill-opacity:1.0; 
stroke:#FFFFFF; stroke-width:0; stroke-opacity:1; 
stroke-linecap:round; stroke-linejoin:round;">
<circle cx="65590.6" cy="27606.3" r="157.48" /> 
</g>
<g style="fill:#FFFFFF; fill-opacity:1.0; 
stroke:#FFFFFF; stroke-width:39.3701; stroke-opacity:1; 
stroke-linecap:round; stroke-linejoin:round;">
</g>
<g style="fill:#FFFFFF; fill-opacity:1.0; 
stroke:#FFFFFF; stroke-width:0; stroke-opacity:1; 
stroke-linecap:round; stroke-linejoin:round;">
<circle cx="63059.1" cy="32189" r="157.48" /> 
</g>
<g style="fill:#FFFFFF; fill-opacity:1.0; 
stroke:#FFFFFF; stroke-width:39.3701; stroke-opacity:1; 
stroke-linecap:round; stroke-linejoin:round;">
</g>
<g style="fill:#FFFFFF; fill-opacity:1.0; 
stroke:#FFFFFF; stroke-width:0; stroke-opacity:1; 
stroke-linecap:round; stroke-linejoin:round;">
<circle cx="63059.1" cy="31204.7" r="157.48" /> 
</g>
<g style="fill:#FFFFFF; fill-opacity:1.0; 
stroke:#FFFFFF; stroke-width:39.3701; stroke-opacity:1; 
stroke-linecap:round; stroke-linejoin:round;">
</g>
<g style="fill:#FFFFFF; fill-opacity:1.0; 
stroke:#FFFFFF; stroke-width:0; stroke-opacity:1; 
stroke-linecap:round; stroke-linejoin:round;">
<circle cx="63074.8" cy="40940.9" r="157.48" /> 
</g>
<g style="fill:#FFFFFF; fill-opacity:1.0; 
stroke:#FFFFFF; stroke-width:39.3701; stroke-opacity:1; 
stroke-linecap:round; stroke-linejoin:round;">
</g>
<g style="fill:#FFFFFF; fill-opacity:1.0; 
stroke:#FFFFFF; stroke-width:0; stroke-opacity:1; 
stroke-linecap:round; stroke-linejoin:round;">
<circle cx="63074.8" cy="39956.7" r="157.48" /> 
</g>
<g style="fill:#FFFFFF; fill-opacity:1.0; 
stroke:#FFFFFF; stroke-width:39.3701; stroke-opacity:1; 
stroke-linecap:round; stroke-linejoin:round;">
</g>
<g style="fill:#000000; fill-opacity:1.0; 
stroke:#000000; stroke-width:39.3701; stroke-opacity:1; 
stroke-linecap:round; stroke-linejoin:round;">
</g> 
</svg>
