G04 #@! TF.GenerationSoftware,KiCad,Pcbnew,(5.0.2)-1*
G04 #@! TF.CreationDate,2019-08-12T16:14:08+05:45*
G04 #@! TF.ProjectId,Minor_Project,4d696e6f-725f-4507-926f-6a6563742e6b,rev?*
G04 #@! TF.SameCoordinates,Original*
G04 #@! TF.FileFunction,Copper,L1,Top*
G04 #@! TF.FilePolarity,Positive*
%FSLAX46Y46*%
G04 Gerber Fmt 4.6, Leading zero omitted, Abs format (unit mm)*
G04 Created by KiCad (PCBNEW (5.0.2)-1) date 8/12/2019 4:14:08 PM*
%MOMM*%
%LPD*%
G01*
G04 APERTURE LIST*
%ADD10C,0.100000*%
%ADD11C,0.150000*%
%ADD12C,0.300000*%
%ADD13C,0.400000*%
G04 #@! TA.AperFunction,ComponentPad*
%ADD14C,2.100000*%
G04 #@! TD*
G04 #@! TA.AperFunction,ComponentPad*
%ADD15C,2.150000*%
G04 #@! TD*
G04 #@! TA.AperFunction,ComponentPad*
%ADD16O,1.500000X2.300000*%
G04 #@! TD*
G04 #@! TA.AperFunction,ComponentPad*
%ADD17O,3.000000X6.000000*%
G04 #@! TD*
G04 #@! TA.AperFunction,ComponentPad*
%ADD18O,2.200000X2.500000*%
G04 #@! TD*
G04 #@! TA.AperFunction,ComponentPad*
%ADD19C,2.000000*%
G04 #@! TD*
G04 #@! TA.AperFunction,ComponentPad*
%ADD20C,2.500000*%
G04 #@! TD*
G04 #@! TA.AperFunction,ComponentPad*
%ADD21O,5.000000X3.000000*%
G04 #@! TD*
G04 #@! TA.AperFunction,ComponentPad*
%ADD22C,2.200000*%
G04 #@! TD*
G04 #@! TA.AperFunction,ComponentPad*
%ADD23R,1.800000X1.800000*%
G04 #@! TD*
G04 #@! TA.AperFunction,ComponentPad*
%ADD24O,1.800000X1.800000*%
G04 #@! TD*
G04 #@! TA.AperFunction,ComponentPad*
%ADD25C,3.500000*%
G04 #@! TD*
G04 #@! TA.AperFunction,ComponentPad*
%ADD26C,3.810000*%
G04 #@! TD*
G04 #@! TA.AperFunction,ComponentPad*
%ADD27O,2.500000X2.000000*%
G04 #@! TD*
G04 #@! TA.AperFunction,ComponentPad*
%ADD28O,2.000000X2.500000*%
G04 #@! TD*
G04 #@! TA.AperFunction,ComponentPad*
%ADD29C,2.600000*%
G04 #@! TD*
G04 #@! TA.AperFunction,ComponentPad*
%ADD30O,2.000000X1.500000*%
G04 #@! TD*
G04 #@! TA.AperFunction,ComponentPad*
%ADD31C,1.500000*%
G04 #@! TD*
G04 #@! TA.AperFunction,Conductor*
%ADD32C,1.500000*%
G04 #@! TD*
G04 #@! TA.AperFunction,ComponentPad*
%ADD33O,1.500000X2.000000*%
G04 #@! TD*
G04 #@! TA.AperFunction,ComponentPad*
%ADD34C,3.000000*%
G04 #@! TD*
G04 #@! TA.AperFunction,ComponentPad*
%ADD35O,2.000000X3.000000*%
G04 #@! TD*
G04 #@! TA.AperFunction,ComponentPad*
%ADD36O,2.050000X2.500000*%
G04 #@! TD*
G04 #@! TA.AperFunction,ViaPad*
%ADD37C,2.100000*%
G04 #@! TD*
G04 #@! TA.AperFunction,Conductor*
%ADD38C,1.400000*%
G04 #@! TD*
G04 #@! TA.AperFunction,Conductor*
%ADD39C,0.800000*%
G04 #@! TD*
G04 #@! TA.AperFunction,Conductor*
%ADD40C,0.250000*%
G04 #@! TD*
G04 #@! TA.AperFunction,Conductor*
%ADD41C,1.000000*%
G04 #@! TD*
G04 APERTURE END LIST*
D10*
D11*
X177002200Y-166007200D02*
X177002200Y-198007200D01*
X285002200Y-198007200D01*
X285002200Y-166007200D01*
X177002200Y-166007200D01*
D10*
D11*
X10000000Y-10000000D02*
X10000000Y-200007200D01*
X287002200Y-200007200D01*
X287002200Y-10000000D01*
X10000000Y-10000000D01*
D10*
D11*
X12000000Y-12000000D02*
X12000000Y-198007200D01*
X285002200Y-198007200D01*
X285002200Y-12000000D01*
X12000000Y-12000000D01*
D10*
D11*
X60000000Y-12000000D02*
X60000000Y-10000000D01*
D10*
D11*
X110000000Y-12000000D02*
X110000000Y-10000000D01*
D10*
D11*
X160000000Y-12000000D02*
X160000000Y-10000000D01*
D10*
D11*
X210000000Y-12000000D02*
X210000000Y-10000000D01*
D10*
D11*
X260000000Y-12000000D02*
X260000000Y-10000000D01*
D10*
D11*
X36065476Y-11588095D02*
X35322619Y-11588095D01*
X35694047Y-11588095D02*
X35694047Y-10288095D01*
X35570238Y-10473809D01*
X35446428Y-10597619D01*
X35322619Y-10659523D01*
D10*
D11*
X85322619Y-10411904D02*
X85384523Y-10350000D01*
X85508333Y-10288095D01*
X85817857Y-10288095D01*
X85941666Y-10350000D01*
X86003571Y-10411904D01*
X86065476Y-10535714D01*
X86065476Y-10659523D01*
X86003571Y-10845238D01*
X85260714Y-11588095D01*
X86065476Y-11588095D01*
D10*
D11*
X135260714Y-10288095D02*
X136065476Y-10288095D01*
X135632142Y-10783333D01*
X135817857Y-10783333D01*
X135941666Y-10845238D01*
X136003571Y-10907142D01*
X136065476Y-11030952D01*
X136065476Y-11340476D01*
X136003571Y-11464285D01*
X135941666Y-11526190D01*
X135817857Y-11588095D01*
X135446428Y-11588095D01*
X135322619Y-11526190D01*
X135260714Y-11464285D01*
D10*
D11*
X185941666Y-10721428D02*
X185941666Y-11588095D01*
X185632142Y-10226190D02*
X185322619Y-11154761D01*
X186127380Y-11154761D01*
D10*
D11*
X236003571Y-10288095D02*
X235384523Y-10288095D01*
X235322619Y-10907142D01*
X235384523Y-10845238D01*
X235508333Y-10783333D01*
X235817857Y-10783333D01*
X235941666Y-10845238D01*
X236003571Y-10907142D01*
X236065476Y-11030952D01*
X236065476Y-11340476D01*
X236003571Y-11464285D01*
X235941666Y-11526190D01*
X235817857Y-11588095D01*
X235508333Y-11588095D01*
X235384523Y-11526190D01*
X235322619Y-11464285D01*
D10*
D11*
X285941666Y-10288095D02*
X285694047Y-10288095D01*
X285570238Y-10350000D01*
X285508333Y-10411904D01*
X285384523Y-10597619D01*
X285322619Y-10845238D01*
X285322619Y-11340476D01*
X285384523Y-11464285D01*
X285446428Y-11526190D01*
X285570238Y-11588095D01*
X285817857Y-11588095D01*
X285941666Y-11526190D01*
X286003571Y-11464285D01*
X286065476Y-11340476D01*
X286065476Y-11030952D01*
X286003571Y-10907142D01*
X285941666Y-10845238D01*
X285817857Y-10783333D01*
X285570238Y-10783333D01*
X285446428Y-10845238D01*
X285384523Y-10907142D01*
X285322619Y-11030952D01*
D10*
D11*
X60000000Y-198007200D02*
X60000000Y-200007200D01*
D10*
D11*
X110000000Y-198007200D02*
X110000000Y-200007200D01*
D10*
D11*
X160000000Y-198007200D02*
X160000000Y-200007200D01*
D10*
D11*
X210000000Y-198007200D02*
X210000000Y-200007200D01*
D10*
D11*
X260000000Y-198007200D02*
X260000000Y-200007200D01*
D10*
D11*
X36065476Y-199595295D02*
X35322619Y-199595295D01*
X35694047Y-199595295D02*
X35694047Y-198295295D01*
X35570238Y-198481009D01*
X35446428Y-198604819D01*
X35322619Y-198666723D01*
D10*
D11*
X85322619Y-198419104D02*
X85384523Y-198357200D01*
X85508333Y-198295295D01*
X85817857Y-198295295D01*
X85941666Y-198357200D01*
X86003571Y-198419104D01*
X86065476Y-198542914D01*
X86065476Y-198666723D01*
X86003571Y-198852438D01*
X85260714Y-199595295D01*
X86065476Y-199595295D01*
D10*
D11*
X135260714Y-198295295D02*
X136065476Y-198295295D01*
X135632142Y-198790533D01*
X135817857Y-198790533D01*
X135941666Y-198852438D01*
X136003571Y-198914342D01*
X136065476Y-199038152D01*
X136065476Y-199347676D01*
X136003571Y-199471485D01*
X135941666Y-199533390D01*
X135817857Y-199595295D01*
X135446428Y-199595295D01*
X135322619Y-199533390D01*
X135260714Y-199471485D01*
D10*
D11*
X185941666Y-198728628D02*
X185941666Y-199595295D01*
X185632142Y-198233390D02*
X185322619Y-199161961D01*
X186127380Y-199161961D01*
D10*
D11*
X236003571Y-198295295D02*
X235384523Y-198295295D01*
X235322619Y-198914342D01*
X235384523Y-198852438D01*
X235508333Y-198790533D01*
X235817857Y-198790533D01*
X235941666Y-198852438D01*
X236003571Y-198914342D01*
X236065476Y-199038152D01*
X236065476Y-199347676D01*
X236003571Y-199471485D01*
X235941666Y-199533390D01*
X235817857Y-199595295D01*
X235508333Y-199595295D01*
X235384523Y-199533390D01*
X235322619Y-199471485D01*
D10*
D11*
X285941666Y-198295295D02*
X285694047Y-198295295D01*
X285570238Y-198357200D01*
X285508333Y-198419104D01*
X285384523Y-198604819D01*
X285322619Y-198852438D01*
X285322619Y-199347676D01*
X285384523Y-199471485D01*
X285446428Y-199533390D01*
X285570238Y-199595295D01*
X285817857Y-199595295D01*
X285941666Y-199533390D01*
X286003571Y-199471485D01*
X286065476Y-199347676D01*
X286065476Y-199038152D01*
X286003571Y-198914342D01*
X285941666Y-198852438D01*
X285817857Y-198790533D01*
X285570238Y-198790533D01*
X285446428Y-198852438D01*
X285384523Y-198914342D01*
X285322619Y-199038152D01*
D10*
D11*
X10000000Y-60000000D02*
X12000000Y-60000000D01*
D10*
D11*
X10000000Y-110000000D02*
X12000000Y-110000000D01*
D10*
D11*
X10000000Y-160000000D02*
X12000000Y-160000000D01*
D10*
D11*
X10690476Y-35216666D02*
X11309523Y-35216666D01*
X10566666Y-35588095D02*
X11000000Y-34288095D01*
X11433333Y-35588095D01*
D10*
D11*
X11092857Y-84907142D02*
X11278571Y-84969047D01*
X11340476Y-85030952D01*
X11402380Y-85154761D01*
X11402380Y-85340476D01*
X11340476Y-85464285D01*
X11278571Y-85526190D01*
X11154761Y-85588095D01*
X10659523Y-85588095D01*
X10659523Y-84288095D01*
X11092857Y-84288095D01*
X11216666Y-84350000D01*
X11278571Y-84411904D01*
X11340476Y-84535714D01*
X11340476Y-84659523D01*
X11278571Y-84783333D01*
X11216666Y-84845238D01*
X11092857Y-84907142D01*
X10659523Y-84907142D01*
D10*
D11*
X11402380Y-135464285D02*
X11340476Y-135526190D01*
X11154761Y-135588095D01*
X11030952Y-135588095D01*
X10845238Y-135526190D01*
X10721428Y-135402380D01*
X10659523Y-135278571D01*
X10597619Y-135030952D01*
X10597619Y-134845238D01*
X10659523Y-134597619D01*
X10721428Y-134473809D01*
X10845238Y-134350000D01*
X11030952Y-134288095D01*
X11154761Y-134288095D01*
X11340476Y-134350000D01*
X11402380Y-134411904D01*
D10*
D11*
X10659523Y-185588095D02*
X10659523Y-184288095D01*
X10969047Y-184288095D01*
X11154761Y-184350000D01*
X11278571Y-184473809D01*
X11340476Y-184597619D01*
X11402380Y-184845238D01*
X11402380Y-185030952D01*
X11340476Y-185278571D01*
X11278571Y-185402380D01*
X11154761Y-185526190D01*
X10969047Y-185588095D01*
X10659523Y-185588095D01*
D10*
D11*
X287002200Y-60000000D02*
X285002200Y-60000000D01*
D10*
D11*
X287002200Y-110000000D02*
X285002200Y-110000000D01*
D10*
D11*
X287002200Y-160000000D02*
X285002200Y-160000000D01*
D10*
D11*
X285692676Y-35216666D02*
X286311723Y-35216666D01*
X285568866Y-35588095D02*
X286002200Y-34288095D01*
X286435533Y-35588095D01*
D10*
D11*
X286095057Y-84907142D02*
X286280771Y-84969047D01*
X286342676Y-85030952D01*
X286404580Y-85154761D01*
X286404580Y-85340476D01*
X286342676Y-85464285D01*
X286280771Y-85526190D01*
X286156961Y-85588095D01*
X285661723Y-85588095D01*
X285661723Y-84288095D01*
X286095057Y-84288095D01*
X286218866Y-84350000D01*
X286280771Y-84411904D01*
X286342676Y-84535714D01*
X286342676Y-84659523D01*
X286280771Y-84783333D01*
X286218866Y-84845238D01*
X286095057Y-84907142D01*
X285661723Y-84907142D01*
D10*
D11*
X286404580Y-135464285D02*
X286342676Y-135526190D01*
X286156961Y-135588095D01*
X286033152Y-135588095D01*
X285847438Y-135526190D01*
X285723628Y-135402380D01*
X285661723Y-135278571D01*
X285599819Y-135030952D01*
X285599819Y-134845238D01*
X285661723Y-134597619D01*
X285723628Y-134473809D01*
X285847438Y-134350000D01*
X286033152Y-134288095D01*
X286156961Y-134288095D01*
X286342676Y-134350000D01*
X286404580Y-134411904D01*
D10*
D11*
X285661723Y-185588095D02*
X285661723Y-184288095D01*
X285971247Y-184288095D01*
X286156961Y-184350000D01*
X286280771Y-184473809D01*
X286342676Y-184597619D01*
X286404580Y-184845238D01*
X286404580Y-185030952D01*
X286342676Y-185278571D01*
X286280771Y-185402380D01*
X286156961Y-185526190D01*
X285971247Y-185588095D01*
X285661723Y-185588095D01*
D10*
D11*
X200434342Y-193785771D02*
X200434342Y-192285771D01*
X200791485Y-192285771D01*
X201005771Y-192357200D01*
X201148628Y-192500057D01*
X201220057Y-192642914D01*
X201291485Y-192928628D01*
X201291485Y-193142914D01*
X201220057Y-193428628D01*
X201148628Y-193571485D01*
X201005771Y-193714342D01*
X200791485Y-193785771D01*
X200434342Y-193785771D01*
X202577200Y-193785771D02*
X202577200Y-193000057D01*
X202505771Y-192857200D01*
X202362914Y-192785771D01*
X202077200Y-192785771D01*
X201934342Y-192857200D01*
X202577200Y-193714342D02*
X202434342Y-193785771D01*
X202077200Y-193785771D01*
X201934342Y-193714342D01*
X201862914Y-193571485D01*
X201862914Y-193428628D01*
X201934342Y-193285771D01*
X202077200Y-193214342D01*
X202434342Y-193214342D01*
X202577200Y-193142914D01*
X203077200Y-192785771D02*
X203648628Y-192785771D01*
X203291485Y-192285771D02*
X203291485Y-193571485D01*
X203362914Y-193714342D01*
X203505771Y-193785771D01*
X203648628Y-193785771D01*
X204720057Y-193714342D02*
X204577200Y-193785771D01*
X204291485Y-193785771D01*
X204148628Y-193714342D01*
X204077200Y-193571485D01*
X204077200Y-193000057D01*
X204148628Y-192857200D01*
X204291485Y-192785771D01*
X204577200Y-192785771D01*
X204720057Y-192857200D01*
X204791485Y-193000057D01*
X204791485Y-193142914D01*
X204077200Y-193285771D01*
X205434342Y-193642914D02*
X205505771Y-193714342D01*
X205434342Y-193785771D01*
X205362914Y-193714342D01*
X205434342Y-193642914D01*
X205434342Y-193785771D01*
X205434342Y-192857200D02*
X205505771Y-192928628D01*
X205434342Y-193000057D01*
X205362914Y-192928628D01*
X205434342Y-192857200D01*
X205434342Y-193000057D01*
D10*
D11*
X177002200Y-194507200D02*
X285002200Y-194507200D01*
D10*
D11*
X178434342Y-196585771D02*
X178434342Y-195085771D01*
X179291485Y-196585771D02*
X178648628Y-195728628D01*
X179291485Y-195085771D02*
X178434342Y-195942914D01*
X179934342Y-196585771D02*
X179934342Y-195585771D01*
X179934342Y-195085771D02*
X179862914Y-195157200D01*
X179934342Y-195228628D01*
X180005771Y-195157200D01*
X179934342Y-195085771D01*
X179934342Y-195228628D01*
X181505771Y-196442914D02*
X181434342Y-196514342D01*
X181220057Y-196585771D01*
X181077200Y-196585771D01*
X180862914Y-196514342D01*
X180720057Y-196371485D01*
X180648628Y-196228628D01*
X180577200Y-195942914D01*
X180577200Y-195728628D01*
X180648628Y-195442914D01*
X180720057Y-195300057D01*
X180862914Y-195157200D01*
X181077200Y-195085771D01*
X181220057Y-195085771D01*
X181434342Y-195157200D01*
X181505771Y-195228628D01*
X182791485Y-196585771D02*
X182791485Y-195800057D01*
X182720057Y-195657200D01*
X182577200Y-195585771D01*
X182291485Y-195585771D01*
X182148628Y-195657200D01*
X182791485Y-196514342D02*
X182648628Y-196585771D01*
X182291485Y-196585771D01*
X182148628Y-196514342D01*
X182077200Y-196371485D01*
X182077200Y-196228628D01*
X182148628Y-196085771D01*
X182291485Y-196014342D01*
X182648628Y-196014342D01*
X182791485Y-195942914D01*
X184148628Y-196585771D02*
X184148628Y-195085771D01*
X184148628Y-196514342D02*
X184005771Y-196585771D01*
X183720057Y-196585771D01*
X183577200Y-196514342D01*
X183505771Y-196442914D01*
X183434342Y-196300057D01*
X183434342Y-195871485D01*
X183505771Y-195728628D01*
X183577200Y-195657200D01*
X183720057Y-195585771D01*
X184005771Y-195585771D01*
X184148628Y-195657200D01*
X186005771Y-195800057D02*
X186505771Y-195800057D01*
X186720057Y-196585771D02*
X186005771Y-196585771D01*
X186005771Y-195085771D01*
X186720057Y-195085771D01*
X187362914Y-196442914D02*
X187434342Y-196514342D01*
X187362914Y-196585771D01*
X187291485Y-196514342D01*
X187362914Y-196442914D01*
X187362914Y-196585771D01*
X188077200Y-196585771D02*
X188077200Y-195085771D01*
X188434342Y-195085771D01*
X188648628Y-195157200D01*
X188791485Y-195300057D01*
X188862914Y-195442914D01*
X188934342Y-195728628D01*
X188934342Y-195942914D01*
X188862914Y-196228628D01*
X188791485Y-196371485D01*
X188648628Y-196514342D01*
X188434342Y-196585771D01*
X188077200Y-196585771D01*
X189577200Y-196442914D02*
X189648628Y-196514342D01*
X189577200Y-196585771D01*
X189505771Y-196514342D01*
X189577200Y-196442914D01*
X189577200Y-196585771D01*
X190220057Y-196157200D02*
X190934342Y-196157200D01*
X190077200Y-196585771D02*
X190577200Y-195085771D01*
X191077200Y-196585771D01*
X191577200Y-196442914D02*
X191648628Y-196514342D01*
X191577200Y-196585771D01*
X191505771Y-196514342D01*
X191577200Y-196442914D01*
X191577200Y-196585771D01*
X194577200Y-196585771D02*
X194577200Y-195085771D01*
X194720057Y-196014342D02*
X195148628Y-196585771D01*
X195148628Y-195585771D02*
X194577200Y-196157200D01*
X195791485Y-196585771D02*
X195791485Y-195585771D01*
X195791485Y-195085771D02*
X195720057Y-195157200D01*
X195791485Y-195228628D01*
X195862914Y-195157200D01*
X195791485Y-195085771D01*
X195791485Y-195228628D01*
X197148628Y-196514342D02*
X197005771Y-196585771D01*
X196720057Y-196585771D01*
X196577200Y-196514342D01*
X196505771Y-196442914D01*
X196434342Y-196300057D01*
X196434342Y-195871485D01*
X196505771Y-195728628D01*
X196577200Y-195657200D01*
X196720057Y-195585771D01*
X197005771Y-195585771D01*
X197148628Y-195657200D01*
X198434342Y-196585771D02*
X198434342Y-195800057D01*
X198362914Y-195657200D01*
X198220057Y-195585771D01*
X197934342Y-195585771D01*
X197791485Y-195657200D01*
X198434342Y-196514342D02*
X198291485Y-196585771D01*
X197934342Y-196585771D01*
X197791485Y-196514342D01*
X197720057Y-196371485D01*
X197720057Y-196228628D01*
X197791485Y-196085771D01*
X197934342Y-196014342D01*
X198291485Y-196014342D01*
X198434342Y-195942914D01*
X199791485Y-196585771D02*
X199791485Y-195085771D01*
X199791485Y-196514342D02*
X199648628Y-196585771D01*
X199362914Y-196585771D01*
X199220057Y-196514342D01*
X199148628Y-196442914D01*
X199077200Y-196300057D01*
X199077200Y-195871485D01*
X199148628Y-195728628D01*
X199220057Y-195657200D01*
X199362914Y-195585771D01*
X199648628Y-195585771D01*
X199791485Y-195657200D01*
X202077200Y-197157200D02*
X202005771Y-197085771D01*
X201862914Y-196871485D01*
X201791485Y-196728628D01*
X201720057Y-196514342D01*
X201648628Y-196157200D01*
X201648628Y-195871485D01*
X201720057Y-195514342D01*
X201791485Y-195300057D01*
X201862914Y-195157200D01*
X202005771Y-194942914D01*
X202077200Y-194871485D01*
X203362914Y-195085771D02*
X202648628Y-195085771D01*
X202577200Y-195800057D01*
X202648628Y-195728628D01*
X202791485Y-195657200D01*
X203148628Y-195657200D01*
X203291485Y-195728628D01*
X203362914Y-195800057D01*
X203434342Y-195942914D01*
X203434342Y-196300057D01*
X203362914Y-196442914D01*
X203291485Y-196514342D01*
X203148628Y-196585771D01*
X202791485Y-196585771D01*
X202648628Y-196514342D01*
X202577200Y-196442914D01*
X204077200Y-196442914D02*
X204148628Y-196514342D01*
X204077200Y-196585771D01*
X204005771Y-196514342D01*
X204077200Y-196442914D01*
X204077200Y-196585771D01*
X205077200Y-195085771D02*
X205220057Y-195085771D01*
X205362914Y-195157200D01*
X205434342Y-195228628D01*
X205505771Y-195371485D01*
X205577200Y-195657200D01*
X205577200Y-196014342D01*
X205505771Y-196300057D01*
X205434342Y-196442914D01*
X205362914Y-196514342D01*
X205220057Y-196585771D01*
X205077200Y-196585771D01*
X204934342Y-196514342D01*
X204862914Y-196442914D01*
X204791485Y-196300057D01*
X204720057Y-196014342D01*
X204720057Y-195657200D01*
X204791485Y-195371485D01*
X204862914Y-195228628D01*
X204934342Y-195157200D01*
X205077200Y-195085771D01*
X206220057Y-196442914D02*
X206291485Y-196514342D01*
X206220057Y-196585771D01*
X206148628Y-196514342D01*
X206220057Y-196442914D01*
X206220057Y-196585771D01*
X206862914Y-195228628D02*
X206934342Y-195157200D01*
X207077200Y-195085771D01*
X207434342Y-195085771D01*
X207577200Y-195157200D01*
X207648628Y-195228628D01*
X207720057Y-195371485D01*
X207720057Y-195514342D01*
X207648628Y-195728628D01*
X206791485Y-196585771D01*
X207720057Y-196585771D01*
X208220057Y-197157200D02*
X208291485Y-197085771D01*
X208434342Y-196871485D01*
X208505771Y-196728628D01*
X208577200Y-196514342D01*
X208648628Y-196157200D01*
X208648628Y-195871485D01*
X208577200Y-195514342D01*
X208505771Y-195300057D01*
X208434342Y-195157200D01*
X208291485Y-194942914D01*
X208220057Y-194871485D01*
X209362914Y-196014342D02*
X210505771Y-196014342D01*
X212005771Y-196585771D02*
X211148628Y-196585771D01*
X211577200Y-196585771D02*
X211577200Y-195085771D01*
X211434342Y-195300057D01*
X211291485Y-195442914D01*
X211148628Y-195514342D01*
D10*
D11*
X177002200Y-191507200D02*
X285002200Y-191507200D01*
D10*
D12*
X264411485Y-193785771D02*
X263911485Y-193071485D01*
X263554342Y-193785771D02*
X263554342Y-192285771D01*
X264125771Y-192285771D01*
X264268628Y-192357200D01*
X264340057Y-192428628D01*
X264411485Y-192571485D01*
X264411485Y-192785771D01*
X264340057Y-192928628D01*
X264268628Y-193000057D01*
X264125771Y-193071485D01*
X263554342Y-193071485D01*
X265625771Y-193714342D02*
X265482914Y-193785771D01*
X265197200Y-193785771D01*
X265054342Y-193714342D01*
X264982914Y-193571485D01*
X264982914Y-193000057D01*
X265054342Y-192857200D01*
X265197200Y-192785771D01*
X265482914Y-192785771D01*
X265625771Y-192857200D01*
X265697200Y-193000057D01*
X265697200Y-193142914D01*
X264982914Y-193285771D01*
X266197200Y-192785771D02*
X266554342Y-193785771D01*
X266911485Y-192785771D01*
X267482914Y-193642914D02*
X267554342Y-193714342D01*
X267482914Y-193785771D01*
X267411485Y-193714342D01*
X267482914Y-193642914D01*
X267482914Y-193785771D01*
X267482914Y-192857200D02*
X267554342Y-192928628D01*
X267482914Y-193000057D01*
X267411485Y-192928628D01*
X267482914Y-192857200D01*
X267482914Y-193000057D01*
D10*
D11*
X178362914Y-193714342D02*
X178577200Y-193785771D01*
X178934342Y-193785771D01*
X179077200Y-193714342D01*
X179148628Y-193642914D01*
X179220057Y-193500057D01*
X179220057Y-193357200D01*
X179148628Y-193214342D01*
X179077200Y-193142914D01*
X178934342Y-193071485D01*
X178648628Y-193000057D01*
X178505771Y-192928628D01*
X178434342Y-192857200D01*
X178362914Y-192714342D01*
X178362914Y-192571485D01*
X178434342Y-192428628D01*
X178505771Y-192357200D01*
X178648628Y-192285771D01*
X179005771Y-192285771D01*
X179220057Y-192357200D01*
X179862914Y-193785771D02*
X179862914Y-192785771D01*
X179862914Y-192285771D02*
X179791485Y-192357200D01*
X179862914Y-192428628D01*
X179934342Y-192357200D01*
X179862914Y-192285771D01*
X179862914Y-192428628D01*
X180434342Y-192785771D02*
X181220057Y-192785771D01*
X180434342Y-193785771D01*
X181220057Y-193785771D01*
X182362914Y-193714342D02*
X182220057Y-193785771D01*
X181934342Y-193785771D01*
X181791485Y-193714342D01*
X181720057Y-193571485D01*
X181720057Y-193000057D01*
X181791485Y-192857200D01*
X181934342Y-192785771D01*
X182220057Y-192785771D01*
X182362914Y-192857200D01*
X182434342Y-193000057D01*
X182434342Y-193142914D01*
X181720057Y-193285771D01*
X183077200Y-193642914D02*
X183148628Y-193714342D01*
X183077200Y-193785771D01*
X183005771Y-193714342D01*
X183077200Y-193642914D01*
X183077200Y-193785771D01*
X183077200Y-192857200D02*
X183148628Y-192928628D01*
X183077200Y-193000057D01*
X183005771Y-192928628D01*
X183077200Y-192857200D01*
X183077200Y-193000057D01*
X184862914Y-193357200D02*
X185577200Y-193357200D01*
X184720057Y-193785771D02*
X185220057Y-192285771D01*
X185720057Y-193785771D01*
X186862914Y-192785771D02*
X186862914Y-193785771D01*
X186505771Y-192214342D02*
X186148628Y-193285771D01*
X187077200Y-193285771D01*
D10*
D11*
X263434342Y-196585771D02*
X263434342Y-195085771D01*
X264791485Y-196585771D02*
X264791485Y-195085771D01*
X264791485Y-196514342D02*
X264648628Y-196585771D01*
X264362914Y-196585771D01*
X264220057Y-196514342D01*
X264148628Y-196442914D01*
X264077200Y-196300057D01*
X264077200Y-195871485D01*
X264148628Y-195728628D01*
X264220057Y-195657200D01*
X264362914Y-195585771D01*
X264648628Y-195585771D01*
X264791485Y-195657200D01*
X265505771Y-196442914D02*
X265577200Y-196514342D01*
X265505771Y-196585771D01*
X265434342Y-196514342D01*
X265505771Y-196442914D01*
X265505771Y-196585771D01*
X265505771Y-195657200D02*
X265577200Y-195728628D01*
X265505771Y-195800057D01*
X265434342Y-195728628D01*
X265505771Y-195657200D01*
X265505771Y-195800057D01*
X268148628Y-196585771D02*
X267291485Y-196585771D01*
X267720057Y-196585771D02*
X267720057Y-195085771D01*
X267577200Y-195300057D01*
X267434342Y-195442914D01*
X267291485Y-195514342D01*
X269862914Y-195014342D02*
X268577200Y-196942914D01*
X271148628Y-196585771D02*
X270291485Y-196585771D01*
X270720057Y-196585771D02*
X270720057Y-195085771D01*
X270577200Y-195300057D01*
X270434342Y-195442914D01*
X270291485Y-195514342D01*
D10*
D11*
X177002200Y-187507200D02*
X285002200Y-187507200D01*
D10*
D13*
X178714580Y-188211961D02*
X179857438Y-188211961D01*
X179036009Y-190211961D02*
X179286009Y-188211961D01*
X180274104Y-190211961D02*
X180440771Y-188878628D01*
X180524104Y-188211961D02*
X180416961Y-188307200D01*
X180500295Y-188402438D01*
X180607438Y-188307200D01*
X180524104Y-188211961D01*
X180500295Y-188402438D01*
X181107438Y-188878628D02*
X181869342Y-188878628D01*
X181476485Y-188211961D02*
X181262200Y-189926247D01*
X181333628Y-190116723D01*
X181512200Y-190211961D01*
X181702676Y-190211961D01*
X182655057Y-190211961D02*
X182476485Y-190116723D01*
X182405057Y-189926247D01*
X182619342Y-188211961D01*
X184190771Y-190116723D02*
X183988390Y-190211961D01*
X183607438Y-190211961D01*
X183428866Y-190116723D01*
X183357438Y-189926247D01*
X183452676Y-189164342D01*
X183571723Y-188973866D01*
X183774104Y-188878628D01*
X184155057Y-188878628D01*
X184333628Y-188973866D01*
X184405057Y-189164342D01*
X184381247Y-189354819D01*
X183405057Y-189545295D01*
X185155057Y-190021485D02*
X185238390Y-190116723D01*
X185131247Y-190211961D01*
X185047914Y-190116723D01*
X185155057Y-190021485D01*
X185131247Y-190211961D01*
X185286009Y-188973866D02*
X185369342Y-189069104D01*
X185262200Y-189164342D01*
X185178866Y-189069104D01*
X185286009Y-188973866D01*
X185262200Y-189164342D01*
D10*
D11*
X178934342Y-185600057D02*
X178434342Y-185600057D01*
X178434342Y-186385771D02*
X178434342Y-184885771D01*
X179148628Y-184885771D01*
X179720057Y-186385771D02*
X179720057Y-185385771D01*
X179720057Y-184885771D02*
X179648628Y-184957200D01*
X179720057Y-185028628D01*
X179791485Y-184957200D01*
X179720057Y-184885771D01*
X179720057Y-185028628D01*
X180648628Y-186385771D02*
X180505771Y-186314342D01*
X180434342Y-186171485D01*
X180434342Y-184885771D01*
X181791485Y-186314342D02*
X181648628Y-186385771D01*
X181362914Y-186385771D01*
X181220057Y-186314342D01*
X181148628Y-186171485D01*
X181148628Y-185600057D01*
X181220057Y-185457200D01*
X181362914Y-185385771D01*
X181648628Y-185385771D01*
X181791485Y-185457200D01*
X181862914Y-185600057D01*
X181862914Y-185742914D01*
X181148628Y-185885771D01*
X182505771Y-186242914D02*
X182577200Y-186314342D01*
X182505771Y-186385771D01*
X182434342Y-186314342D01*
X182505771Y-186242914D01*
X182505771Y-186385771D01*
X182505771Y-185457200D02*
X182577200Y-185528628D01*
X182505771Y-185600057D01*
X182434342Y-185528628D01*
X182505771Y-185457200D01*
X182505771Y-185600057D01*
X184362914Y-186385771D02*
X184362914Y-184885771D01*
X184862914Y-185957200D01*
X185362914Y-184885771D01*
X185362914Y-186385771D01*
X186077200Y-186385771D02*
X186077200Y-185385771D01*
X186077200Y-184885771D02*
X186005771Y-184957200D01*
X186077200Y-185028628D01*
X186148628Y-184957200D01*
X186077200Y-184885771D01*
X186077200Y-185028628D01*
X186791485Y-185385771D02*
X186791485Y-186385771D01*
X186791485Y-185528628D02*
X186862914Y-185457200D01*
X187005771Y-185385771D01*
X187220057Y-185385771D01*
X187362914Y-185457200D01*
X187434342Y-185600057D01*
X187434342Y-186385771D01*
X188362914Y-186385771D02*
X188220057Y-186314342D01*
X188148628Y-186242914D01*
X188077200Y-186100057D01*
X188077200Y-185671485D01*
X188148628Y-185528628D01*
X188220057Y-185457200D01*
X188362914Y-185385771D01*
X188577200Y-185385771D01*
X188720057Y-185457200D01*
X188791485Y-185528628D01*
X188862914Y-185671485D01*
X188862914Y-186100057D01*
X188791485Y-186242914D01*
X188720057Y-186314342D01*
X188577200Y-186385771D01*
X188362914Y-186385771D01*
X189505771Y-186385771D02*
X189505771Y-185385771D01*
X189505771Y-185671485D02*
X189577200Y-185528628D01*
X189648628Y-185457200D01*
X189791485Y-185385771D01*
X189934342Y-185385771D01*
X190077200Y-186528628D02*
X191220057Y-186528628D01*
X191577200Y-186385771D02*
X191577200Y-184885771D01*
X192148628Y-184885771D01*
X192291485Y-184957200D01*
X192362914Y-185028628D01*
X192434342Y-185171485D01*
X192434342Y-185385771D01*
X192362914Y-185528628D01*
X192291485Y-185600057D01*
X192148628Y-185671485D01*
X191577200Y-185671485D01*
X193077200Y-186385771D02*
X193077200Y-185385771D01*
X193077200Y-185671485D02*
X193148628Y-185528628D01*
X193220057Y-185457200D01*
X193362914Y-185385771D01*
X193505771Y-185385771D01*
X194220057Y-186385771D02*
X194077200Y-186314342D01*
X194005771Y-186242914D01*
X193934342Y-186100057D01*
X193934342Y-185671485D01*
X194005771Y-185528628D01*
X194077200Y-185457200D01*
X194220057Y-185385771D01*
X194434342Y-185385771D01*
X194577200Y-185457200D01*
X194648628Y-185528628D01*
X194720057Y-185671485D01*
X194720057Y-186100057D01*
X194648628Y-186242914D01*
X194577200Y-186314342D01*
X194434342Y-186385771D01*
X194220057Y-186385771D01*
X195362914Y-185385771D02*
X195362914Y-186671485D01*
X195291485Y-186814342D01*
X195148628Y-186885771D01*
X195077200Y-186885771D01*
X195362914Y-184885771D02*
X195291485Y-184957200D01*
X195362914Y-185028628D01*
X195434342Y-184957200D01*
X195362914Y-184885771D01*
X195362914Y-185028628D01*
X196648628Y-186314342D02*
X196505771Y-186385771D01*
X196220057Y-186385771D01*
X196077200Y-186314342D01*
X196005771Y-186171485D01*
X196005771Y-185600057D01*
X196077200Y-185457200D01*
X196220057Y-185385771D01*
X196505771Y-185385771D01*
X196648628Y-185457200D01*
X196720057Y-185600057D01*
X196720057Y-185742914D01*
X196005771Y-185885771D01*
X198005771Y-186314342D02*
X197862914Y-186385771D01*
X197577200Y-186385771D01*
X197434342Y-186314342D01*
X197362914Y-186242914D01*
X197291485Y-186100057D01*
X197291485Y-185671485D01*
X197362914Y-185528628D01*
X197434342Y-185457200D01*
X197577200Y-185385771D01*
X197862914Y-185385771D01*
X198005771Y-185457200D01*
X198434342Y-185385771D02*
X199005771Y-185385771D01*
X198648628Y-184885771D02*
X198648628Y-186171485D01*
X198720057Y-186314342D01*
X198862914Y-186385771D01*
X199005771Y-186385771D01*
X199505771Y-186242914D02*
X199577200Y-186314342D01*
X199505771Y-186385771D01*
X199434342Y-186314342D01*
X199505771Y-186242914D01*
X199505771Y-186385771D01*
X200220057Y-186385771D02*
X200220057Y-184885771D01*
X200362914Y-185814342D02*
X200791485Y-186385771D01*
X200791485Y-185385771D02*
X200220057Y-185957200D01*
X201434342Y-186385771D02*
X201434342Y-185385771D01*
X201434342Y-184885771D02*
X201362914Y-184957200D01*
X201434342Y-185028628D01*
X201505771Y-184957200D01*
X201434342Y-184885771D01*
X201434342Y-185028628D01*
X202791485Y-186314342D02*
X202648628Y-186385771D01*
X202362914Y-186385771D01*
X202220057Y-186314342D01*
X202148628Y-186242914D01*
X202077200Y-186100057D01*
X202077200Y-185671485D01*
X202148628Y-185528628D01*
X202220057Y-185457200D01*
X202362914Y-185385771D01*
X202648628Y-185385771D01*
X202791485Y-185457200D01*
X204077200Y-186385771D02*
X204077200Y-185600057D01*
X204005771Y-185457200D01*
X203862914Y-185385771D01*
X203577200Y-185385771D01*
X203434342Y-185457200D01*
X204077200Y-186314342D02*
X203934342Y-186385771D01*
X203577200Y-186385771D01*
X203434342Y-186314342D01*
X203362914Y-186171485D01*
X203362914Y-186028628D01*
X203434342Y-185885771D01*
X203577200Y-185814342D01*
X203934342Y-185814342D01*
X204077200Y-185742914D01*
X205434342Y-186385771D02*
X205434342Y-184885771D01*
X205434342Y-186314342D02*
X205291485Y-186385771D01*
X205005771Y-186385771D01*
X204862914Y-186314342D01*
X204791485Y-186242914D01*
X204720057Y-186100057D01*
X204720057Y-185671485D01*
X204791485Y-185528628D01*
X204862914Y-185457200D01*
X205005771Y-185385771D01*
X205291485Y-185385771D01*
X205434342Y-185457200D01*
X205791485Y-186528628D02*
X206934342Y-186528628D01*
X207291485Y-185385771D02*
X207291485Y-186885771D01*
X207291485Y-185457200D02*
X207434342Y-185385771D01*
X207720057Y-185385771D01*
X207862914Y-185457200D01*
X207934342Y-185528628D01*
X208005771Y-185671485D01*
X208005771Y-186100057D01*
X207934342Y-186242914D01*
X207862914Y-186314342D01*
X207720057Y-186385771D01*
X207434342Y-186385771D01*
X207291485Y-186314342D01*
X209291485Y-186314342D02*
X209148628Y-186385771D01*
X208862914Y-186385771D01*
X208720057Y-186314342D01*
X208648628Y-186242914D01*
X208577200Y-186100057D01*
X208577200Y-185671485D01*
X208648628Y-185528628D01*
X208720057Y-185457200D01*
X208862914Y-185385771D01*
X209148628Y-185385771D01*
X209291485Y-185457200D01*
X209934342Y-186385771D02*
X209934342Y-184885771D01*
X209934342Y-185457200D02*
X210077200Y-185385771D01*
X210362914Y-185385771D01*
X210505771Y-185457200D01*
X210577200Y-185528628D01*
X210648628Y-185671485D01*
X210648628Y-186100057D01*
X210577200Y-186242914D01*
X210505771Y-186314342D01*
X210362914Y-186385771D01*
X210077200Y-186385771D01*
X209934342Y-186314342D01*
D10*
D11*
X177002200Y-181507200D02*
X285002200Y-181507200D01*
D10*
D11*
X178362914Y-183614342D02*
X178577200Y-183685771D01*
X178934342Y-183685771D01*
X179077200Y-183614342D01*
X179148628Y-183542914D01*
X179220057Y-183400057D01*
X179220057Y-183257200D01*
X179148628Y-183114342D01*
X179077200Y-183042914D01*
X178934342Y-182971485D01*
X178648628Y-182900057D01*
X178505771Y-182828628D01*
X178434342Y-182757200D01*
X178362914Y-182614342D01*
X178362914Y-182471485D01*
X178434342Y-182328628D01*
X178505771Y-182257200D01*
X178648628Y-182185771D01*
X179005771Y-182185771D01*
X179220057Y-182257200D01*
X179862914Y-183685771D02*
X179862914Y-182185771D01*
X180505771Y-183685771D02*
X180505771Y-182900057D01*
X180434342Y-182757200D01*
X180291485Y-182685771D01*
X180077200Y-182685771D01*
X179934342Y-182757200D01*
X179862914Y-182828628D01*
X181791485Y-183614342D02*
X181648628Y-183685771D01*
X181362914Y-183685771D01*
X181220057Y-183614342D01*
X181148628Y-183471485D01*
X181148628Y-182900057D01*
X181220057Y-182757200D01*
X181362914Y-182685771D01*
X181648628Y-182685771D01*
X181791485Y-182757200D01*
X181862914Y-182900057D01*
X181862914Y-183042914D01*
X181148628Y-183185771D01*
X183077200Y-183614342D02*
X182934342Y-183685771D01*
X182648628Y-183685771D01*
X182505771Y-183614342D01*
X182434342Y-183471485D01*
X182434342Y-182900057D01*
X182505771Y-182757200D01*
X182648628Y-182685771D01*
X182934342Y-182685771D01*
X183077200Y-182757200D01*
X183148628Y-182900057D01*
X183148628Y-183042914D01*
X182434342Y-183185771D01*
X183577200Y-182685771D02*
X184148628Y-182685771D01*
X183791485Y-182185771D02*
X183791485Y-183471485D01*
X183862914Y-183614342D01*
X184005771Y-183685771D01*
X184148628Y-183685771D01*
X184648628Y-183542914D02*
X184720057Y-183614342D01*
X184648628Y-183685771D01*
X184577200Y-183614342D01*
X184648628Y-183542914D01*
X184648628Y-183685771D01*
X184648628Y-182757200D02*
X184720057Y-182828628D01*
X184648628Y-182900057D01*
X184577200Y-182828628D01*
X184648628Y-182757200D01*
X184648628Y-182900057D01*
D10*
D11*
X197002200Y-191507200D02*
X197002200Y-194507200D01*
D10*
D11*
X261002200Y-191507200D02*
X261002200Y-198007200D01*
D14*
G04 #@! TO.P,C24,2*
G04 #@! TO.N,GND*
X108940000Y-140110000D03*
G04 #@! TO.P,C24,1*
G04 #@! TO.N,+12V*
X108940000Y-137610000D03*
G04 #@! TD*
D15*
G04 #@! TO.P,U2,GND*
G04 #@! TO.N,N/C*
X107874700Y-123862300D03*
X107874700Y-126402300D03*
G04 #@! TO.P,U2,23*
G04 #@! TO.N,/GUN_EEPROM_VCC*
X148514700Y-126402300D03*
G04 #@! TO.P,U2,22*
G04 #@! TO.N,/GUN_TRIGGER*
X148514700Y-123862300D03*
G04 #@! TO.P,U2,VCC*
G04 #@! TO.N,N/C*
X151054700Y-123862300D03*
G04 #@! TO.P,U2,53*
G04 #@! TO.N,/POWER_CUTOFF*
X110414700Y-126402300D03*
G04 #@! TO.P,U2,52*
G04 #@! TO.N,N/C*
X110414700Y-123862300D03*
G04 #@! TO.P,U2,51*
X112954700Y-126402300D03*
G04 #@! TO.P,U2,50*
X112954700Y-123862300D03*
G04 #@! TO.P,U2,49*
X115494700Y-126402300D03*
G04 #@! TO.P,U2,48*
X115494700Y-123862300D03*
G04 #@! TO.P,U2,47*
X118034700Y-126402300D03*
G04 #@! TO.P,U2,46*
X118034700Y-123862300D03*
G04 #@! TO.P,U2,45*
X120574700Y-126402300D03*
G04 #@! TO.P,U2,44*
X120574700Y-123862300D03*
G04 #@! TO.P,U2,43*
X123114700Y-126402300D03*
G04 #@! TO.P,U2,42*
X123114700Y-123862300D03*
G04 #@! TO.P,U2,41*
X125654700Y-126402300D03*
G04 #@! TO.P,U2,40*
X125654700Y-123862300D03*
G04 #@! TO.P,U2,A7*
X102794700Y-98462300D03*
G04 #@! TO.P,U2,A6*
X102794700Y-95922300D03*
G04 #@! TO.P,U2,VIN*
G04 #@! TO.N,/VIN*
X102794700Y-75602300D03*
G04 #@! TO.P,U2,GND2*
G04 #@! TO.N,GND*
X102794700Y-73062300D03*
G04 #@! TO.P,U2,GND1*
X102794700Y-70522300D03*
G04 #@! TO.P,U2,5V1*
G04 #@! TO.N,Net-(R17-Pad1)*
X102794700Y-67982300D03*
G04 #@! TO.P,U2,3V3*
G04 #@! TO.N,+3V3*
X102794700Y-65442300D03*
G04 #@! TO.P,U2,RST1*
G04 #@! TO.N,/RESET*
X102794700Y-62902300D03*
G04 #@! TO.P,U2,19*
G04 #@! TO.N,/RX1*
X151054700Y-111162300D03*
G04 #@! TO.P,U2,18*
G04 #@! TO.N,/TX1*
X151054700Y-108622300D03*
G04 #@! TO.P,U2,17*
G04 #@! TO.N,/RX2*
X151054700Y-106082300D03*
G04 #@! TO.P,U2,16*
G04 #@! TO.N,/TX2*
X151054700Y-103542300D03*
G04 #@! TO.P,U2,15*
G04 #@! TO.N,/PI_RX*
X151054700Y-101002300D03*
G04 #@! TO.P,U2,14*
G04 #@! TO.N,/PI_TX*
X151054700Y-98462300D03*
G04 #@! TO.P,U2,0*
G04 #@! TO.N,N/C*
X151054700Y-93382300D03*
G04 #@! TO.P,U2,1*
X151054700Y-90842300D03*
G04 #@! TO.P,U2,2*
G04 #@! TO.N,/PI_INT2*
X151054700Y-88302300D03*
G04 #@! TO.P,U2,3*
G04 #@! TO.N,/PI_INT1*
X151054700Y-85762300D03*
G04 #@! TO.P,U2,4*
G04 #@! TO.N,N/C*
X151054700Y-83222300D03*
G04 #@! TO.P,U2,5*
G04 #@! TO.N,/BP_MEASURE*
X151054700Y-80682300D03*
G04 #@! TO.P,U2,6*
G04 #@! TO.N,/BP_VCC_TRIGGER*
X151054700Y-78142300D03*
G04 #@! TO.P,U2,7*
G04 #@! TO.N,N/C*
X151054700Y-75602300D03*
G04 #@! TO.P,U2,GND5*
X151054700Y-56298300D03*
G04 #@! TO.P,U2,9*
X151054700Y-68998300D03*
G04 #@! TO.P,U2,10*
G04 #@! TO.N,/L+*
X151054700Y-66458300D03*
G04 #@! TO.P,U2,SCL*
G04 #@! TO.N,N/C*
X151054700Y-48678300D03*
G04 #@! TO.P,U2,SDA*
X151054700Y-51218300D03*
G04 #@! TO.P,U2,AREF*
X151054700Y-53758300D03*
G04 #@! TO.P,U2,13*
G04 #@! TO.N,/BIA_VCC_TRIGGER*
X151054700Y-58838300D03*
G04 #@! TO.P,U2,12*
G04 #@! TO.N,/BIA_TRIGGER*
X151054700Y-61378300D03*
G04 #@! TO.P,U2,11*
G04 #@! TO.N,/L-*
X151054700Y-63918300D03*
G04 #@! TO.P,U2,A2*
G04 #@! TO.N,N/C*
X102794700Y-85762300D03*
G04 #@! TO.P,U2,A3*
X102794700Y-88302300D03*
G04 #@! TO.P,U2,A4*
X102794700Y-90842300D03*
G04 #@! TO.P,U2,A5*
X102794700Y-93382300D03*
G04 #@! TO.P,U2,A8*
G04 #@! TO.N,/ECG_ADC*
X102794700Y-103542300D03*
G04 #@! TO.P,U2,A10*
G04 #@! TO.N,N/C*
X102794700Y-108622300D03*
G04 #@! TO.P,U2,A11*
G04 #@! TO.N,/POWER_DETECT*
X102794700Y-111162300D03*
G04 #@! TO.P,U2,A12*
G04 #@! TO.N,N/C*
X102794700Y-113702300D03*
G04 #@! TO.P,U2,A13*
G04 #@! TO.N,/B1*
X102794700Y-116242300D03*
G04 #@! TO.P,U2,A14*
G04 #@! TO.N,/G1*
X102794700Y-118782300D03*
G04 #@! TO.P,U2,A15*
G04 #@! TO.N,/R1*
X102794700Y-121322300D03*
G04 #@! TO.P,U2,24*
G04 #@! TO.N,/SDA*
X145974700Y-123862300D03*
G04 #@! TO.P,U2,25*
G04 #@! TO.N,/GUN_VCC_TRIGGER*
X145974700Y-126402300D03*
G04 #@! TO.P,U2,26*
G04 #@! TO.N,/SCL*
X143434700Y-123862300D03*
G04 #@! TO.P,U2,27*
G04 #@! TO.N,N/C*
X143434700Y-126402300D03*
G04 #@! TO.P,U2,28*
X140894700Y-123862300D03*
G04 #@! TO.P,U2,29*
X140894700Y-126402300D03*
G04 #@! TO.P,U2,30*
X138354700Y-123862300D03*
G04 #@! TO.P,U2,31*
X138354700Y-126402300D03*
G04 #@! TO.P,U2,32*
X135814700Y-123862300D03*
G04 #@! TO.P,U2,33*
X135814700Y-126402300D03*
G04 #@! TO.P,U2,38*
X128194700Y-123862300D03*
G04 #@! TO.P,U2,39*
X128194700Y-126402300D03*
G04 #@! TO.P,U2,IORE*
X102782000Y-60502000D03*
G04 #@! TO.P,U2,NC*
X102782000Y-57962000D03*
G04 #@! TD*
D16*
G04 #@! TO.P,D5,4*
G04 #@! TO.N,Net-(D5-Pad4)*
X98870000Y-123460000D03*
G04 #@! TO.P,D5,3*
G04 #@! TO.N,Net-(D5-Pad3)*
X97030000Y-123460000D03*
G04 #@! TO.P,D5,2*
G04 #@! TO.N,Net-(D5-Pad2)*
X95220000Y-123440000D03*
G04 #@! TO.P,D5,1*
G04 #@! TO.N,GND*
X93400000Y-123500000D03*
G04 #@! TD*
D17*
G04 #@! TO.P,J8,5*
G04 #@! TO.N,GND*
X142210000Y-135670000D03*
X128340000Y-135700000D03*
D18*
G04 #@! TO.P,J8,4*
X139040000Y-133050000D03*
G04 #@! TO.P,J8,1*
G04 #@! TO.N,+5V*
X131420000Y-133050000D03*
G04 #@! TO.P,J8,2*
G04 #@! TO.N,N/C*
X133960000Y-133050000D03*
G04 #@! TO.P,J8,3*
X136500000Y-133050000D03*
G04 #@! TD*
D17*
G04 #@! TO.P,J18,5*
G04 #@! TO.N,GND*
X156860000Y-135680000D03*
X142990000Y-135710000D03*
D18*
G04 #@! TO.P,J18,4*
X153690000Y-133060000D03*
G04 #@! TO.P,J18,1*
G04 #@! TO.N,+5V*
X146070000Y-133060000D03*
G04 #@! TO.P,J18,2*
G04 #@! TO.N,N/C*
X148610000Y-133060000D03*
G04 #@! TO.P,J18,3*
X151150000Y-133060000D03*
G04 #@! TD*
D17*
G04 #@! TO.P,J19,5*
G04 #@! TO.N,GND*
X127270000Y-135720000D03*
X113400000Y-135750000D03*
D18*
G04 #@! TO.P,J19,4*
X124100000Y-133100000D03*
G04 #@! TO.P,J19,1*
G04 #@! TO.N,+5V*
X116480000Y-133100000D03*
G04 #@! TO.P,J19,2*
G04 #@! TO.N,N/C*
X119020000Y-133100000D03*
G04 #@! TO.P,J19,3*
X121560000Y-133100000D03*
G04 #@! TD*
D19*
G04 #@! TO.P,C34,1*
G04 #@! TO.N,GND*
X106320000Y-58080000D03*
G04 #@! TO.P,C34,2*
G04 #@! TO.N,/RESET*
X106320000Y-60580000D03*
G04 #@! TD*
D20*
G04 #@! TO.P,D13,2*
G04 #@! TO.N,Net-(D13-Pad2)*
X102200000Y-133500000D03*
G04 #@! TO.P,D13,1*
G04 #@! TO.N,+5V*
X102180000Y-142500000D03*
G04 #@! TD*
D21*
G04 #@! TO.P,J3,1*
G04 #@! TO.N,/POWER_DETECT*
X65390000Y-144320000D03*
G04 #@! TO.P,J3,2*
G04 #@! TO.N,/CUTOFF*
X65390000Y-140370000D03*
G04 #@! TO.P,J3,3*
G04 #@! TO.N,GND*
X65380000Y-136480000D03*
G04 #@! TO.P,J3,4*
G04 #@! TO.N,N/C*
X65380000Y-132530000D03*
G04 #@! TO.P,J3,5*
G04 #@! TO.N,Net-(C1-Pad1)*
X65380000Y-128580000D03*
G04 #@! TD*
D20*
G04 #@! TO.P,C1,2*
G04 #@! TO.N,GND*
X89070000Y-116380000D03*
G04 #@! TO.P,C1,1*
G04 #@! TO.N,Net-(C1-Pad1)*
X84070000Y-116380000D03*
G04 #@! TD*
D19*
G04 #@! TO.P,C2,1*
G04 #@! TO.N,+5V*
X87480000Y-62260000D03*
G04 #@! TO.P,C2,2*
G04 #@! TO.N,GND*
X89980000Y-62260000D03*
G04 #@! TD*
D22*
G04 #@! TO.P,C3,2*
G04 #@! TO.N,GND*
X96820000Y-104550000D03*
G04 #@! TO.P,C3,1*
G04 #@! TO.N,Net-(C22-Pad1)*
X93320000Y-104550000D03*
G04 #@! TD*
D19*
G04 #@! TO.P,C4,2*
G04 #@! TO.N,GND*
X167132000Y-71414000D03*
G04 #@! TO.P,C4,1*
G04 #@! TO.N,/BP_VCC*
X167132000Y-73914000D03*
G04 #@! TD*
G04 #@! TO.P,C6,2*
G04 #@! TO.N,GND*
X105918000Y-72938000D03*
G04 #@! TO.P,C6,1*
G04 #@! TO.N,/VIN*
X105918000Y-75438000D03*
G04 #@! TD*
G04 #@! TO.P,C8,2*
G04 #@! TO.N,GND*
X158480000Y-70590000D03*
G04 #@! TO.P,C8,1*
G04 #@! TO.N,+3V3*
X155980000Y-70590000D03*
G04 #@! TD*
G04 #@! TO.P,C9,1*
G04 #@! TO.N,GND*
X158496000Y-140716000D03*
G04 #@! TO.P,C9,2*
G04 #@! TO.N,+5V*
X158496000Y-143216000D03*
G04 #@! TD*
G04 #@! TO.P,C13,1*
G04 #@! TO.N,GND*
X135750000Y-130100000D03*
G04 #@! TO.P,C13,2*
G04 #@! TO.N,+5V*
X133250000Y-130100000D03*
G04 #@! TD*
G04 #@! TO.P,C14,2*
G04 #@! TO.N,/GUN_EEPROM_VCC*
X168820000Y-116600000D03*
G04 #@! TO.P,C14,1*
G04 #@! TO.N,GND*
X171320000Y-116600000D03*
G04 #@! TD*
G04 #@! TO.P,C15,1*
G04 #@! TO.N,/GUN_VCC*
X177292000Y-116332000D03*
G04 #@! TO.P,C15,2*
G04 #@! TO.N,GND*
X174792000Y-116332000D03*
G04 #@! TD*
G04 #@! TO.P,C16,1*
G04 #@! TO.N,GND*
X167280000Y-32850000D03*
G04 #@! TO.P,C16,2*
G04 #@! TO.N,/BIA_VCC*
X167280000Y-35350000D03*
G04 #@! TD*
G04 #@! TO.P,C21,1*
G04 #@! TO.N,+12V*
X105340000Y-137490000D03*
G04 #@! TO.P,C21,2*
G04 #@! TO.N,GND*
X105340000Y-139990000D03*
G04 #@! TD*
G04 #@! TO.P,C22,1*
G04 #@! TO.N,Net-(C22-Pad1)*
X94490000Y-109380000D03*
G04 #@! TO.P,C22,2*
G04 #@! TO.N,GND*
X96990000Y-109380000D03*
G04 #@! TD*
G04 #@! TO.P,C23,1*
G04 #@! TO.N,+3V3*
X109140000Y-65450000D03*
G04 #@! TO.P,C23,2*
G04 #@! TO.N,GND*
X109140000Y-67950000D03*
G04 #@! TD*
G04 #@! TO.P,C25,2*
G04 #@! TO.N,GND*
X106172000Y-106132000D03*
G04 #@! TO.P,C25,1*
G04 #@! TO.N,/ECG_ADC*
X106172000Y-103632000D03*
G04 #@! TD*
G04 #@! TO.P,C27,1*
G04 #@! TO.N,Net-(C26-Pad1)*
X82475000Y-55400000D03*
G04 #@! TO.P,C27,2*
G04 #@! TO.N,GND*
X84975000Y-55400000D03*
G04 #@! TD*
D14*
G04 #@! TO.P,C28,2*
G04 #@! TO.N,GND*
X68032000Y-65278000D03*
G04 #@! TO.P,C28,1*
G04 #@! TO.N,+5V*
X65532000Y-65278000D03*
G04 #@! TD*
D19*
G04 #@! TO.P,C29,1*
G04 #@! TO.N,+5V*
X121450000Y-44080000D03*
G04 #@! TO.P,C29,2*
G04 #@! TO.N,GND*
X118950000Y-44080000D03*
G04 #@! TD*
G04 #@! TO.P,C30,1*
G04 #@! TO.N,/PI_INT1*
X148060000Y-85490000D03*
G04 #@! TO.P,C30,2*
G04 #@! TO.N,GND*
X145560000Y-85490000D03*
G04 #@! TD*
G04 #@! TO.P,C31,1*
G04 #@! TO.N,/PI_INT2*
X148090000Y-88660000D03*
G04 #@! TO.P,C31,2*
G04 #@! TO.N,GND*
X145590000Y-88660000D03*
G04 #@! TD*
G04 #@! TO.P,C32,2*
G04 #@! TO.N,GND*
X87700000Y-55525000D03*
G04 #@! TO.P,C32,1*
G04 #@! TO.N,/VIN*
X90200000Y-55525000D03*
G04 #@! TD*
G04 #@! TO.P,C33,2*
G04 #@! TO.N,GND*
X120460000Y-130410000D03*
G04 #@! TO.P,C33,1*
G04 #@! TO.N,+5V*
X117960000Y-130410000D03*
G04 #@! TD*
D14*
G04 #@! TO.P,D1,2*
G04 #@! TO.N,Net-(D1-Pad2)*
X94325000Y-36415000D03*
G04 #@! TO.P,D1,1*
G04 #@! TO.N,GND*
X94325000Y-33875000D03*
G04 #@! TD*
G04 #@! TO.P,D2,2*
G04 #@! TO.N,Net-(D2-Pad2)*
X78320000Y-123230000D03*
G04 #@! TO.P,D2,1*
G04 #@! TO.N,GND*
X75780000Y-123230000D03*
G04 #@! TD*
G04 #@! TO.P,D3,1*
G04 #@! TO.N,GND*
X78250000Y-55875000D03*
G04 #@! TO.P,D3,2*
G04 #@! TO.N,Net-(D3-Pad2)*
X78250000Y-53335000D03*
G04 #@! TD*
D20*
G04 #@! TO.P,D4,1*
G04 #@! TO.N,Net-(D4-Pad1)*
X68000000Y-43275000D03*
G04 #@! TO.P,D4,2*
G04 #@! TO.N,Net-(D4-Pad2)*
X68000000Y-33115000D03*
G04 #@! TD*
G04 #@! TO.P,D6,1*
G04 #@! TO.N,+5V*
X176766000Y-92928000D03*
G04 #@! TO.P,D6,2*
G04 #@! TO.N,Net-(D6-Pad2)*
X176766000Y-82768000D03*
G04 #@! TD*
G04 #@! TO.P,D7,1*
G04 #@! TO.N,+5V*
X161590000Y-144370000D03*
G04 #@! TO.P,D7,2*
G04 #@! TO.N,Net-(D7-Pad2)*
X171750000Y-144370000D03*
G04 #@! TD*
G04 #@! TO.P,D8,2*
G04 #@! TO.N,Net-(D8-Pad2)*
X176900000Y-46280000D03*
G04 #@! TO.P,D8,1*
G04 #@! TO.N,+5V*
X176900000Y-56440000D03*
G04 #@! TD*
D14*
G04 #@! TO.P,D9,2*
G04 #@! TO.N,Net-(D9-Pad2)*
X163310000Y-74100000D03*
G04 #@! TO.P,D9,1*
G04 #@! TO.N,GND*
X163310000Y-71560000D03*
G04 #@! TD*
G04 #@! TO.P,D10,1*
G04 #@! TO.N,GND*
X168910000Y-119940000D03*
G04 #@! TO.P,D10,2*
G04 #@! TO.N,Net-(D10-Pad2)*
X171450000Y-119940000D03*
G04 #@! TD*
G04 #@! TO.P,D11,2*
G04 #@! TO.N,Net-(D11-Pad2)*
X175180000Y-35510000D03*
G04 #@! TO.P,D11,1*
G04 #@! TO.N,GND*
X177720000Y-35510000D03*
G04 #@! TD*
D23*
G04 #@! TO.P,D12,1*
G04 #@! TO.N,/TX2*
X126700000Y-40810000D03*
D24*
G04 #@! TO.P,D12,2*
G04 #@! TO.N,GND*
X119080000Y-40810000D03*
G04 #@! TD*
D20*
G04 #@! TO.P,D14,1*
G04 #@! TO.N,/CUTOFF*
X77420000Y-141270000D03*
G04 #@! TO.P,D14,2*
G04 #@! TO.N,Net-(D14-Pad2)*
X77420000Y-131110000D03*
G04 #@! TD*
D25*
G04 #@! TO.P,D15,1*
G04 #@! TO.N,+12V*
X88650000Y-103170000D03*
G04 #@! TO.P,D15,2*
G04 #@! TO.N,Net-(D15-Pad2)*
X73410000Y-103170000D03*
G04 #@! TD*
D14*
G04 #@! TO.P,D16,2*
G04 #@! TO.N,Net-(D16-Pad2)*
X83310000Y-123000000D03*
G04 #@! TO.P,D16,1*
G04 #@! TO.N,GND*
X80770000Y-123000000D03*
G04 #@! TD*
D25*
G04 #@! TO.P,D17,2*
G04 #@! TO.N,Net-(D15-Pad2)*
X73410000Y-108460000D03*
G04 #@! TO.P,D17,1*
G04 #@! TO.N,+12V*
X88650000Y-108460000D03*
G04 #@! TD*
D20*
G04 #@! TO.P,D18,1*
G04 #@! TO.N,/CUTOFF*
X73050000Y-141330000D03*
G04 #@! TO.P,D18,2*
G04 #@! TO.N,GND*
X73050000Y-131170000D03*
G04 #@! TD*
D26*
G04 #@! TO.P,F1,2*
G04 #@! TO.N,Net-(C22-Pad1)*
X65542000Y-123965000D03*
G04 #@! TO.P,F1,1*
G04 #@! TO.N,Net-(D15-Pad2)*
X65542000Y-101994000D03*
G04 #@! TD*
G04 #@! TO.P,F2,2*
G04 #@! TO.N,Net-(C22-Pad1)*
X60647000Y-54185000D03*
G04 #@! TO.P,F2,1*
G04 #@! TO.N,Net-(D4-Pad2)*
X60647000Y-32214000D03*
G04 #@! TD*
D27*
G04 #@! TO.P,J1,5*
G04 #@! TO.N,GND*
X176276000Y-71214000D03*
G04 #@! TO.P,J1,4*
G04 #@! TO.N,/BP_VCC*
X176276000Y-68714000D03*
G04 #@! TO.P,J1,3*
G04 #@! TO.N,/BP_MEASURE*
X176276000Y-66214000D03*
G04 #@! TO.P,J1,2*
G04 #@! TO.N,/SDA*
X176276000Y-63714000D03*
G04 #@! TO.P,J1,1*
G04 #@! TO.N,/SCL*
X176276000Y-61214000D03*
G04 #@! TD*
G04 #@! TO.P,J2,1*
G04 #@! TO.N,/RX1*
X157326000Y-112878000D03*
G04 #@! TO.P,J2,2*
G04 #@! TO.N,/TX1*
X157326000Y-110378000D03*
G04 #@! TO.P,J2,3*
G04 #@! TO.N,GND*
X157326000Y-107878000D03*
G04 #@! TO.P,J2,4*
G04 #@! TO.N,+5V*
X157326000Y-105378000D03*
G04 #@! TD*
D28*
G04 #@! TO.P,J4,1*
G04 #@! TO.N,+3V3*
X166878000Y-61976000D03*
G04 #@! TO.P,J4,2*
G04 #@! TO.N,GND*
X164378000Y-61976000D03*
G04 #@! TO.P,J4,3*
G04 #@! TO.N,/ECG_ADC*
X161878000Y-61976000D03*
G04 #@! TO.P,J4,4*
G04 #@! TO.N,/L+*
X159378000Y-61976000D03*
G04 #@! TO.P,J4,5*
G04 #@! TO.N,/L-*
X156878000Y-61976000D03*
G04 #@! TD*
D27*
G04 #@! TO.P,J5,1*
G04 #@! TO.N,/SCL*
X175970000Y-99160000D03*
G04 #@! TO.P,J5,2*
G04 #@! TO.N,/SDA*
X175970000Y-101660000D03*
G04 #@! TO.P,J5,3*
G04 #@! TO.N,/GUN_TRIGGER*
X175970000Y-104160000D03*
G04 #@! TO.P,J5,4*
G04 #@! TO.N,/GUN_EEPROM_VCC*
X175970000Y-106660000D03*
G04 #@! TO.P,J5,5*
G04 #@! TO.N,GND*
X175970000Y-109160000D03*
G04 #@! TO.P,J5,6*
G04 #@! TO.N,/GUN_VCC*
X175970000Y-111660000D03*
G04 #@! TD*
D19*
G04 #@! TO.P,J6,1*
G04 #@! TO.N,Net-(J6-Pad1)*
X157090000Y-73480000D03*
G04 #@! TO.P,J6,2*
G04 #@! TO.N,Net-(D9-Pad2)*
X159630000Y-73480000D03*
G04 #@! TD*
D28*
G04 #@! TO.P,J7,1*
G04 #@! TO.N,Net-(J7-Pad1)*
X89650000Y-123260000D03*
G04 #@! TO.P,J7,2*
G04 #@! TO.N,Net-(D16-Pad2)*
X87110000Y-123260000D03*
G04 #@! TD*
G04 #@! TO.P,J9,2*
G04 #@! TO.N,Net-(D2-Pad2)*
X78880000Y-126700000D03*
G04 #@! TO.P,J9,1*
G04 #@! TO.N,Net-(J9-Pad1)*
X76340000Y-126700000D03*
G04 #@! TD*
G04 #@! TO.P,J10,1*
G04 #@! TO.N,Net-(D3-Pad2)*
X73950000Y-54150000D03*
G04 #@! TO.P,J10,2*
G04 #@! TO.N,Net-(J10-Pad2)*
X71410000Y-54150000D03*
G04 #@! TD*
G04 #@! TO.P,J11,2*
G04 #@! TO.N,Net-(D10-Pad2)*
X174700000Y-119890000D03*
G04 #@! TO.P,J11,1*
G04 #@! TO.N,Net-(J11-Pad1)*
X177240000Y-119890000D03*
G04 #@! TD*
D27*
G04 #@! TO.P,J13,2*
G04 #@! TO.N,Net-(D11-Pad2)*
X171470000Y-33980000D03*
G04 #@! TO.P,J13,1*
G04 #@! TO.N,Net-(J13-Pad1)*
X171470000Y-36520000D03*
G04 #@! TD*
G04 #@! TO.P,J14,1*
G04 #@! TO.N,Net-(J14-Pad1)*
X94525000Y-41550000D03*
G04 #@! TO.P,J14,2*
G04 #@! TO.N,Net-(D1-Pad2)*
X94525000Y-44090000D03*
G04 #@! TD*
D28*
G04 #@! TO.P,J15,1*
G04 #@! TO.N,GND*
X162550000Y-35650000D03*
G04 #@! TO.P,J15,2*
G04 #@! TO.N,/BIA_VCC*
X160050000Y-35650000D03*
G04 #@! TO.P,J15,3*
G04 #@! TO.N,/BIA_TRIGGER*
X157550000Y-35650000D03*
G04 #@! TD*
G04 #@! TO.P,J17,1*
G04 #@! TO.N,/PI_INT1*
X167386000Y-98708000D03*
G04 #@! TO.P,J17,2*
G04 #@! TO.N,/PI_INT2*
X164886000Y-98708000D03*
G04 #@! TO.P,J17,3*
G04 #@! TO.N,/PI_RX*
X162386000Y-98708000D03*
G04 #@! TO.P,J17,4*
G04 #@! TO.N,/PI_TX*
X159886000Y-98708000D03*
G04 #@! TO.P,J17,5*
G04 #@! TO.N,/RESET*
X157386000Y-98708000D03*
G04 #@! TD*
D29*
G04 #@! TO.P,L1,2*
G04 #@! TO.N,Net-(C22-Pad1)*
X76400000Y-113570000D03*
G04 #@! TO.P,L1,1*
G04 #@! TO.N,Net-(C1-Pad1)*
X76400000Y-118570000D03*
G04 #@! TD*
G04 #@! TO.P,L2,2*
G04 #@! TO.N,Net-(C26-Pad1)*
X75525000Y-44100000D03*
G04 #@! TO.P,L2,1*
G04 #@! TO.N,Net-(D4-Pad1)*
X75525000Y-49100000D03*
G04 #@! TD*
D30*
G04 #@! TO.P,Q1,2*
G04 #@! TO.N,Net-(Q1-Pad2)*
X175996000Y-78348000D03*
D31*
G04 #@! TO.P,Q1,1*
G04 #@! TO.N,Net-(D6-Pad2)*
X177647000Y-79618000D03*
D32*
G04 #@! TD*
G04 #@! TO.N,Net-(D6-Pad2)*
G04 #@! TO.C,Q1*
X177505579Y-79759421D02*
X177788421Y-79476579D01*
D31*
G04 #@! TO.P,Q1,3*
G04 #@! TO.N,GND*
X177647000Y-77078000D03*
D32*
G04 #@! TD*
G04 #@! TO.N,GND*
G04 #@! TO.C,Q1*
X177788421Y-77219421D02*
X177505579Y-76936579D01*
D31*
G04 #@! TO.P,Q2,3*
G04 #@! TO.N,GND*
X177430000Y-145241000D03*
D32*
G04 #@! TD*
G04 #@! TO.N,GND*
G04 #@! TO.C,Q2*
X177288579Y-145382421D02*
X177571421Y-145099579D01*
D31*
G04 #@! TO.P,Q2,1*
G04 #@! TO.N,Net-(D7-Pad2)*
X174890000Y-145241000D03*
D32*
G04 #@! TD*
G04 #@! TO.N,Net-(D7-Pad2)*
G04 #@! TO.C,Q2*
X174748579Y-145099579D02*
X175031421Y-145382421D01*
D33*
G04 #@! TO.P,Q2,2*
G04 #@! TO.N,Net-(Q2-Pad2)*
X176160000Y-143590000D03*
G04 #@! TD*
D31*
G04 #@! TO.P,Q3,3*
G04 #@! TO.N,GND*
X177911000Y-40480000D03*
D32*
G04 #@! TD*
G04 #@! TO.N,GND*
G04 #@! TO.C,Q3*
X178052421Y-40621421D02*
X177769579Y-40338579D01*
D31*
G04 #@! TO.P,Q3,1*
G04 #@! TO.N,Net-(D8-Pad2)*
X177911000Y-43020000D03*
D32*
G04 #@! TD*
G04 #@! TO.N,Net-(D8-Pad2)*
G04 #@! TO.C,Q3*
X177769579Y-43161421D02*
X178052421Y-42878579D01*
D30*
G04 #@! TO.P,Q3,2*
G04 #@! TO.N,Net-(Q3-Pad2)*
X176260000Y-41750000D03*
G04 #@! TD*
D31*
G04 #@! TO.P,Q4,3*
G04 #@! TO.N,GND*
X108660000Y-134801000D03*
D32*
G04 #@! TD*
G04 #@! TO.N,GND*
G04 #@! TO.C,Q4*
X108518579Y-134942421D02*
X108801421Y-134659579D01*
D31*
G04 #@! TO.P,Q4,1*
G04 #@! TO.N,Net-(D13-Pad2)*
X106120000Y-134801000D03*
D32*
G04 #@! TD*
G04 #@! TO.N,Net-(D13-Pad2)*
G04 #@! TO.C,Q4*
X105978579Y-134659579D02*
X106261421Y-134942421D01*
D33*
G04 #@! TO.P,Q4,2*
G04 #@! TO.N,Net-(Q4-Pad2)*
X107390000Y-133150000D03*
G04 #@! TD*
D14*
G04 #@! TO.P,R1,1*
G04 #@! TO.N,/VIN*
X98375000Y-43775000D03*
G04 #@! TO.P,R1,2*
G04 #@! TO.N,Net-(J14-Pad1)*
X98375000Y-36155000D03*
G04 #@! TD*
G04 #@! TO.P,R2,1*
G04 #@! TO.N,Net-(C1-Pad1)*
X72510000Y-120690000D03*
G04 #@! TO.P,R2,2*
G04 #@! TO.N,Net-(J9-Pad1)*
X72510000Y-128310000D03*
G04 #@! TD*
G04 #@! TO.P,R3,1*
G04 #@! TO.N,Net-(J10-Pad2)*
X67750000Y-47900000D03*
G04 #@! TO.P,R3,2*
G04 #@! TO.N,+5V*
X67750000Y-55520000D03*
G04 #@! TD*
G04 #@! TO.P,R4,2*
G04 #@! TO.N,/BP_VCC_TRIGGER*
X165846000Y-76858000D03*
G04 #@! TO.P,R4,1*
G04 #@! TO.N,Net-(Q1-Pad2)*
X173466000Y-76858000D03*
G04 #@! TD*
G04 #@! TO.P,R5,1*
G04 #@! TO.N,Net-(Q2-Pad2)*
X177580000Y-141030000D03*
G04 #@! TO.P,R5,2*
G04 #@! TO.N,/GUN_VCC_TRIGGER*
X177580000Y-133410000D03*
G04 #@! TD*
G04 #@! TO.P,R6,1*
G04 #@! TO.N,Net-(Q3-Pad2)*
X173530000Y-40900000D03*
G04 #@! TO.P,R6,2*
G04 #@! TO.N,/BIA_VCC_TRIGGER*
X165910000Y-40900000D03*
G04 #@! TD*
G04 #@! TO.P,R7,2*
G04 #@! TO.N,/BP_VCC*
X155470000Y-77300000D03*
G04 #@! TO.P,R7,1*
G04 #@! TO.N,Net-(J6-Pad1)*
X163090000Y-77300000D03*
G04 #@! TD*
G04 #@! TO.P,R8,1*
G04 #@! TO.N,Net-(J11-Pad1)*
X177600000Y-130710000D03*
G04 #@! TO.P,R8,2*
G04 #@! TO.N,/GUN_VCC*
X177600000Y-123090000D03*
G04 #@! TD*
G04 #@! TO.P,R9,2*
G04 #@! TO.N,/BIA_VCC*
X155630000Y-40910000D03*
G04 #@! TO.P,R9,1*
G04 #@! TO.N,Net-(J13-Pad1)*
X163250000Y-40910000D03*
G04 #@! TD*
G04 #@! TO.P,R10,1*
G04 #@! TO.N,+5V*
X135636000Y-120650000D03*
G04 #@! TO.P,R10,2*
G04 #@! TO.N,/SCL*
X143256000Y-120650000D03*
G04 #@! TD*
G04 #@! TO.P,R11,2*
G04 #@! TO.N,/SDA*
X143256000Y-117348000D03*
G04 #@! TO.P,R11,1*
G04 #@! TO.N,+5V*
X135636000Y-117348000D03*
G04 #@! TD*
G04 #@! TO.P,R12,1*
G04 #@! TO.N,Net-(Q4-Pad2)*
X101140000Y-129690000D03*
G04 #@! TO.P,R12,2*
G04 #@! TO.N,/POWER_CUTOFF*
X108760000Y-129690000D03*
G04 #@! TD*
G04 #@! TO.P,R13,2*
G04 #@! TO.N,Net-(D14-Pad2)*
X82130000Y-126410000D03*
G04 #@! TO.P,R13,1*
G04 #@! TO.N,Net-(J7-Pad1)*
X89750000Y-126410000D03*
G04 #@! TD*
G04 #@! TO.P,R14,2*
G04 #@! TO.N,/B1*
X98290000Y-112210000D03*
G04 #@! TO.P,R14,1*
G04 #@! TO.N,Net-(D5-Pad4)*
X98290000Y-119830000D03*
G04 #@! TD*
G04 #@! TO.P,R15,1*
G04 #@! TO.N,Net-(D5-Pad3)*
X95670000Y-119850000D03*
G04 #@! TO.P,R15,2*
G04 #@! TO.N,/G1*
X95670000Y-112230000D03*
G04 #@! TD*
G04 #@! TO.P,R16,1*
G04 #@! TO.N,Net-(D5-Pad2)*
X93020000Y-119860000D03*
G04 #@! TO.P,R16,2*
G04 #@! TO.N,/R1*
X93020000Y-112240000D03*
G04 #@! TD*
G04 #@! TO.P,R17,2*
G04 #@! TO.N,/RESET*
X106170000Y-62840000D03*
G04 #@! TO.P,R17,1*
G04 #@! TO.N,Net-(R17-Pad1)*
X106170000Y-70460000D03*
G04 #@! TD*
D34*
G04 #@! TO.P,Rly1,2*
G04 #@! TO.N,+5V*
X172956000Y-86438000D03*
D20*
G04 #@! TO.P,Rly1,5*
X171006000Y-92388000D03*
D34*
G04 #@! TO.P,Rly1,3*
G04 #@! TO.N,N/C*
X158756000Y-92438000D03*
G04 #@! TO.P,Rly1,4*
G04 #@! TO.N,/BP_VCC*
X158806000Y-80388000D03*
D20*
G04 #@! TO.P,Rly1,1*
G04 #@! TO.N,Net-(D6-Pad2)*
X171006000Y-80388000D03*
G04 #@! TD*
D34*
G04 #@! TO.P,Rly2,2*
G04 #@! TO.N,+5V*
X168020000Y-140550000D03*
D20*
G04 #@! TO.P,Rly2,5*
X162070000Y-138600000D03*
D34*
G04 #@! TO.P,Rly2,3*
G04 #@! TO.N,N/C*
X162020000Y-126350000D03*
G04 #@! TO.P,Rly2,4*
G04 #@! TO.N,/GUN_VCC*
X174070000Y-126400000D03*
D20*
G04 #@! TO.P,Rly2,1*
G04 #@! TO.N,Net-(D7-Pad2)*
X174070000Y-138600000D03*
G04 #@! TD*
G04 #@! TO.P,Rly3,1*
G04 #@! TO.N,Net-(D8-Pad2)*
X171140000Y-43940000D03*
D34*
G04 #@! TO.P,Rly3,4*
G04 #@! TO.N,/BIA_VCC*
X158940000Y-43940000D03*
G04 #@! TO.P,Rly3,3*
G04 #@! TO.N,N/C*
X158890000Y-55990000D03*
D20*
G04 #@! TO.P,Rly3,5*
G04 #@! TO.N,+5V*
X171140000Y-55940000D03*
D34*
G04 #@! TO.P,Rly3,2*
G04 #@! TO.N,+12V*
X173090000Y-49990000D03*
G04 #@! TD*
G04 #@! TO.P,Rly4,2*
G04 #@! TO.N,+12V*
X98400000Y-135650000D03*
D20*
G04 #@! TO.P,Rly4,5*
G04 #@! TO.N,+5V*
X96450000Y-141600000D03*
D34*
G04 #@! TO.P,Rly4,3*
G04 #@! TO.N,N/C*
X84200000Y-141650000D03*
G04 #@! TO.P,Rly4,4*
G04 #@! TO.N,Net-(D14-Pad2)*
X84250000Y-129600000D03*
D20*
G04 #@! TO.P,Rly4,1*
G04 #@! TO.N,Net-(D13-Pad2)*
X96450000Y-129600000D03*
G04 #@! TD*
D35*
G04 #@! TO.P,U1,0*
G04 #@! TO.N,N/C*
X86315000Y-35040000D03*
G04 #@! TO.P,U1,1*
G04 #@! TO.N,Net-(C26-Pad1)*
X83775000Y-51700000D03*
G04 #@! TO.P,U1,2*
G04 #@! TO.N,GND*
X86315000Y-51700000D03*
G04 #@! TO.P,U1,3*
G04 #@! TO.N,/VIN*
X88855000Y-51700000D03*
G04 #@! TD*
D36*
G04 #@! TO.P,U3,4*
G04 #@! TO.N,GND*
X75595000Y-59295000D03*
X73055000Y-59295000D03*
X70515000Y-59295000D03*
X67975000Y-59295000D03*
G04 #@! TO.P,U3,3*
G04 #@! TO.N,+5V*
X62895000Y-59295000D03*
X60355000Y-59295000D03*
X57825000Y-59275000D03*
G04 #@! TO.P,U3,2*
G04 #@! TO.N,GND*
X75605000Y-98275000D03*
X73065000Y-98275000D03*
X70525000Y-98275000D03*
X67985000Y-98275000D03*
G04 #@! TO.P,U3,1*
G04 #@! TO.N,+12V*
X65445000Y-98275000D03*
X62905000Y-98275000D03*
X60365000Y-98275000D03*
X57825000Y-98275000D03*
G04 #@! TO.P,U3,3*
G04 #@! TO.N,+5V*
X65455000Y-59295000D03*
G04 #@! TD*
G04 #@! TO.P,U4,3*
G04 #@! TO.N,+5V*
X87405000Y-59295000D03*
G04 #@! TO.P,U4,1*
G04 #@! TO.N,+12V*
X79775000Y-98275000D03*
X82315000Y-98275000D03*
X84855000Y-98275000D03*
X87395000Y-98275000D03*
G04 #@! TO.P,U4,2*
G04 #@! TO.N,GND*
X89935000Y-98275000D03*
X92475000Y-98275000D03*
X95015000Y-98275000D03*
X97555000Y-98275000D03*
G04 #@! TO.P,U4,3*
G04 #@! TO.N,+5V*
X79775000Y-59275000D03*
X82305000Y-59295000D03*
X84845000Y-59295000D03*
G04 #@! TO.P,U4,4*
G04 #@! TO.N,GND*
X89925000Y-59295000D03*
X92465000Y-59295000D03*
X95005000Y-59295000D03*
X97545000Y-59295000D03*
G04 #@! TD*
D14*
G04 #@! TO.P,C5,1*
G04 #@! TO.N,/VIN*
X94275000Y-54400000D03*
G04 #@! TO.P,C5,2*
G04 #@! TO.N,GND*
X96775000Y-54400000D03*
G04 #@! TD*
D22*
G04 #@! TO.P,C26,1*
G04 #@! TO.N,Net-(C26-Pad1)*
X73900000Y-36775000D03*
G04 #@! TO.P,C26,2*
G04 #@! TO.N,GND*
X77400000Y-36775000D03*
G04 #@! TD*
D36*
G04 #@! TO.P,J12,4*
G04 #@! TO.N,+5V*
X119000000Y-37340000D03*
G04 #@! TO.P,J12,3*
G04 #@! TO.N,GND*
X121540000Y-37340000D03*
G04 #@! TO.P,J12,2*
G04 #@! TO.N,/RX2*
X124080000Y-37340000D03*
G04 #@! TO.P,J12,1*
G04 #@! TO.N,/TX2*
X126620000Y-37340000D03*
G04 #@! TD*
D37*
G04 #@! TO.N,+12V*
X128260000Y-83050000D03*
X128155000Y-63140000D03*
X127760000Y-100940000D03*
X127860000Y-108150000D03*
G04 #@! TO.N,GND*
X167132000Y-71414000D03*
X172560000Y-71400000D03*
X176100000Y-75770000D03*
X148160000Y-108500000D03*
X147760000Y-93050000D03*
X117040000Y-57930000D03*
X112430000Y-58090000D03*
G04 #@! TO.N,+5V*
X179760000Y-103420000D03*
X177620000Y-95320000D03*
X123290000Y-80240000D03*
X122920000Y-64330000D03*
G04 #@! TO.N,/ECG_ADC*
X131780000Y-71040000D03*
X131780000Y-83210000D03*
G04 #@! TO.N,/RX2*
X137710000Y-68990000D03*
X137570000Y-77720000D03*
G04 #@! TO.N,/TX2*
X140430000Y-68880000D03*
X140390000Y-77670000D03*
G04 #@! TO.N,/RESET*
X112500000Y-63040000D03*
X112470000Y-67790000D03*
G04 #@! TD*
D38*
G04 #@! TO.N,+12V*
X128260000Y-83050000D02*
X128150000Y-82940000D01*
X128150000Y-82940000D02*
X128155000Y-63140000D01*
D39*
X127760000Y-108050000D02*
X127760000Y-100940000D01*
X127860000Y-108150000D02*
X127760000Y-108050000D01*
G04 #@! TO.N,GND*
X167146000Y-71400000D02*
X172560000Y-71400000D01*
X167146000Y-71400000D02*
X167132000Y-71414000D01*
X172560000Y-72230000D02*
X172560000Y-71400000D01*
X176100000Y-75770000D02*
X172560000Y-72230000D01*
D40*
X113400000Y-135750000D02*
X128290000Y-135750000D01*
X128290000Y-135750000D02*
X128340000Y-135700000D01*
X128340000Y-135700000D02*
X142180000Y-135700000D01*
X142180000Y-135700000D02*
X142210000Y-135670000D01*
X142210000Y-135670000D02*
X156850000Y-135670000D01*
X156850000Y-135670000D02*
X156860000Y-135680000D01*
X75605000Y-98275000D02*
X77785000Y-98275000D01*
X77815000Y-59295000D02*
X75595000Y-59295000D01*
X77840000Y-59320000D02*
X77815000Y-59295000D01*
X77840000Y-98220000D02*
X77840000Y-59320000D01*
X77785000Y-98275000D02*
X77840000Y-98220000D01*
X97545000Y-59295000D02*
X99705000Y-59295000D01*
X97610000Y-98330000D02*
X97555000Y-98275000D01*
X99690000Y-98330000D02*
X97610000Y-98330000D01*
X99720000Y-98300000D02*
X99690000Y-98330000D01*
X99720000Y-59310000D02*
X99720000Y-98300000D01*
X99705000Y-59295000D02*
X99720000Y-59310000D01*
X148160000Y-93450000D02*
X148160000Y-108500000D01*
X147760000Y-93050000D02*
X148160000Y-93450000D01*
X112590000Y-57930000D02*
X117040000Y-57930000D01*
X112430000Y-58090000D02*
X112590000Y-57930000D01*
D41*
G04 #@! TO.N,+5V*
X179760000Y-97460000D02*
X179760000Y-103420000D01*
X177620000Y-95320000D02*
X179760000Y-97460000D01*
D40*
X123300000Y-80230000D02*
X123290000Y-80240000D01*
X123300000Y-64710000D02*
X123300000Y-80230000D01*
X122920000Y-64330000D02*
X123300000Y-64710000D01*
D41*
G04 #@! TO.N,/ECG_ADC*
X131780000Y-83210000D02*
X131780000Y-71040000D01*
G04 #@! TO.N,/RX2*
X137710000Y-77580000D02*
X137710000Y-68990000D01*
X137570000Y-77720000D02*
X137710000Y-77580000D01*
G04 #@! TO.N,/TX2*
X140430000Y-77630000D02*
X140430000Y-68880000D01*
X140390000Y-77670000D02*
X140430000Y-77630000D01*
G04 #@! TO.N,/RESET*
X112500000Y-67760000D02*
X112500000Y-63040000D01*
X112470000Y-67790000D02*
X112500000Y-67760000D01*
G04 #@! TD*
M02*
