G04 #@! TF.GenerationSoftware,KiCad,Pcbnew,(5.0.2)-1*
G04 #@! TF.CreationDate,2019-08-12T16:14:09+05:45*
G04 #@! TF.ProjectId,Minor_Project,4d696e6f-725f-4507-926f-6a6563742e6b,rev?*
G04 #@! TF.SameCoordinates,Original*
G04 #@! TF.FileFunction,Other,Fab,Top*
%FSLAX46Y46*%
G04 Gerber Fmt 4.6, Leading zero omitted, Abs format (unit mm)*
G04 Created by KiCad (PCBNEW (5.0.2)-1) date 8/12/2019 4:14:09 PM*
%MOMM*%
%LPD*%
G01*
G04 APERTURE LIST*
%ADD10C,0.100000*%
%ADD11C,0.150000*%
%ADD12C,0.300000*%
%ADD13C,0.400000*%
G04 APERTURE END LIST*
D10*
D11*
X177002200Y-166007200D02*
X177002200Y-198007200D01*
X285002200Y-198007200D01*
X285002200Y-166007200D01*
X177002200Y-166007200D01*
D10*
D11*
X10000000Y-10000000D02*
X10000000Y-200007200D01*
X287002200Y-200007200D01*
X287002200Y-10000000D01*
X10000000Y-10000000D01*
D10*
D11*
X12000000Y-12000000D02*
X12000000Y-198007200D01*
X285002200Y-198007200D01*
X285002200Y-12000000D01*
X12000000Y-12000000D01*
D10*
D11*
X60000000Y-12000000D02*
X60000000Y-10000000D01*
D10*
D11*
X110000000Y-12000000D02*
X110000000Y-10000000D01*
D10*
D11*
X160000000Y-12000000D02*
X160000000Y-10000000D01*
D10*
D11*
X210000000Y-12000000D02*
X210000000Y-10000000D01*
D10*
D11*
X260000000Y-12000000D02*
X260000000Y-10000000D01*
D10*
D11*
X36065476Y-11588095D02*
X35322619Y-11588095D01*
X35694047Y-11588095D02*
X35694047Y-10288095D01*
X35570238Y-10473809D01*
X35446428Y-10597619D01*
X35322619Y-10659523D01*
D10*
D11*
X85322619Y-10411904D02*
X85384523Y-10350000D01*
X85508333Y-10288095D01*
X85817857Y-10288095D01*
X85941666Y-10350000D01*
X86003571Y-10411904D01*
X86065476Y-10535714D01*
X86065476Y-10659523D01*
X86003571Y-10845238D01*
X85260714Y-11588095D01*
X86065476Y-11588095D01*
D10*
D11*
X135260714Y-10288095D02*
X136065476Y-10288095D01*
X135632142Y-10783333D01*
X135817857Y-10783333D01*
X135941666Y-10845238D01*
X136003571Y-10907142D01*
X136065476Y-11030952D01*
X136065476Y-11340476D01*
X136003571Y-11464285D01*
X135941666Y-11526190D01*
X135817857Y-11588095D01*
X135446428Y-11588095D01*
X135322619Y-11526190D01*
X135260714Y-11464285D01*
D10*
D11*
X185941666Y-10721428D02*
X185941666Y-11588095D01*
X185632142Y-10226190D02*
X185322619Y-11154761D01*
X186127380Y-11154761D01*
D10*
D11*
X236003571Y-10288095D02*
X235384523Y-10288095D01*
X235322619Y-10907142D01*
X235384523Y-10845238D01*
X235508333Y-10783333D01*
X235817857Y-10783333D01*
X235941666Y-10845238D01*
X236003571Y-10907142D01*
X236065476Y-11030952D01*
X236065476Y-11340476D01*
X236003571Y-11464285D01*
X235941666Y-11526190D01*
X235817857Y-11588095D01*
X235508333Y-11588095D01*
X235384523Y-11526190D01*
X235322619Y-11464285D01*
D10*
D11*
X285941666Y-10288095D02*
X285694047Y-10288095D01*
X285570238Y-10350000D01*
X285508333Y-10411904D01*
X285384523Y-10597619D01*
X285322619Y-10845238D01*
X285322619Y-11340476D01*
X285384523Y-11464285D01*
X285446428Y-11526190D01*
X285570238Y-11588095D01*
X285817857Y-11588095D01*
X285941666Y-11526190D01*
X286003571Y-11464285D01*
X286065476Y-11340476D01*
X286065476Y-11030952D01*
X286003571Y-10907142D01*
X285941666Y-10845238D01*
X285817857Y-10783333D01*
X285570238Y-10783333D01*
X285446428Y-10845238D01*
X285384523Y-10907142D01*
X285322619Y-11030952D01*
D10*
D11*
X60000000Y-198007200D02*
X60000000Y-200007200D01*
D10*
D11*
X110000000Y-198007200D02*
X110000000Y-200007200D01*
D10*
D11*
X160000000Y-198007200D02*
X160000000Y-200007200D01*
D10*
D11*
X210000000Y-198007200D02*
X210000000Y-200007200D01*
D10*
D11*
X260000000Y-198007200D02*
X260000000Y-200007200D01*
D10*
D11*
X36065476Y-199595295D02*
X35322619Y-199595295D01*
X35694047Y-199595295D02*
X35694047Y-198295295D01*
X35570238Y-198481009D01*
X35446428Y-198604819D01*
X35322619Y-198666723D01*
D10*
D11*
X85322619Y-198419104D02*
X85384523Y-198357200D01*
X85508333Y-198295295D01*
X85817857Y-198295295D01*
X85941666Y-198357200D01*
X86003571Y-198419104D01*
X86065476Y-198542914D01*
X86065476Y-198666723D01*
X86003571Y-198852438D01*
X85260714Y-199595295D01*
X86065476Y-199595295D01*
D10*
D11*
X135260714Y-198295295D02*
X136065476Y-198295295D01*
X135632142Y-198790533D01*
X135817857Y-198790533D01*
X135941666Y-198852438D01*
X136003571Y-198914342D01*
X136065476Y-199038152D01*
X136065476Y-199347676D01*
X136003571Y-199471485D01*
X135941666Y-199533390D01*
X135817857Y-199595295D01*
X135446428Y-199595295D01*
X135322619Y-199533390D01*
X135260714Y-199471485D01*
D10*
D11*
X185941666Y-198728628D02*
X185941666Y-199595295D01*
X185632142Y-198233390D02*
X185322619Y-199161961D01*
X186127380Y-199161961D01*
D10*
D11*
X236003571Y-198295295D02*
X235384523Y-198295295D01*
X235322619Y-198914342D01*
X235384523Y-198852438D01*
X235508333Y-198790533D01*
X235817857Y-198790533D01*
X235941666Y-198852438D01*
X236003571Y-198914342D01*
X236065476Y-199038152D01*
X236065476Y-199347676D01*
X236003571Y-199471485D01*
X235941666Y-199533390D01*
X235817857Y-199595295D01*
X235508333Y-199595295D01*
X235384523Y-199533390D01*
X235322619Y-199471485D01*
D10*
D11*
X285941666Y-198295295D02*
X285694047Y-198295295D01*
X285570238Y-198357200D01*
X285508333Y-198419104D01*
X285384523Y-198604819D01*
X285322619Y-198852438D01*
X285322619Y-199347676D01*
X285384523Y-199471485D01*
X285446428Y-199533390D01*
X285570238Y-199595295D01*
X285817857Y-199595295D01*
X285941666Y-199533390D01*
X286003571Y-199471485D01*
X286065476Y-199347676D01*
X286065476Y-199038152D01*
X286003571Y-198914342D01*
X285941666Y-198852438D01*
X285817857Y-198790533D01*
X285570238Y-198790533D01*
X285446428Y-198852438D01*
X285384523Y-198914342D01*
X285322619Y-199038152D01*
D10*
D11*
X10000000Y-60000000D02*
X12000000Y-60000000D01*
D10*
D11*
X10000000Y-110000000D02*
X12000000Y-110000000D01*
D10*
D11*
X10000000Y-160000000D02*
X12000000Y-160000000D01*
D10*
D11*
X10690476Y-35216666D02*
X11309523Y-35216666D01*
X10566666Y-35588095D02*
X11000000Y-34288095D01*
X11433333Y-35588095D01*
D10*
D11*
X11092857Y-84907142D02*
X11278571Y-84969047D01*
X11340476Y-85030952D01*
X11402380Y-85154761D01*
X11402380Y-85340476D01*
X11340476Y-85464285D01*
X11278571Y-85526190D01*
X11154761Y-85588095D01*
X10659523Y-85588095D01*
X10659523Y-84288095D01*
X11092857Y-84288095D01*
X11216666Y-84350000D01*
X11278571Y-84411904D01*
X11340476Y-84535714D01*
X11340476Y-84659523D01*
X11278571Y-84783333D01*
X11216666Y-84845238D01*
X11092857Y-84907142D01*
X10659523Y-84907142D01*
D10*
D11*
X11402380Y-135464285D02*
X11340476Y-135526190D01*
X11154761Y-135588095D01*
X11030952Y-135588095D01*
X10845238Y-135526190D01*
X10721428Y-135402380D01*
X10659523Y-135278571D01*
X10597619Y-135030952D01*
X10597619Y-134845238D01*
X10659523Y-134597619D01*
X10721428Y-134473809D01*
X10845238Y-134350000D01*
X11030952Y-134288095D01*
X11154761Y-134288095D01*
X11340476Y-134350000D01*
X11402380Y-134411904D01*
D10*
D11*
X10659523Y-185588095D02*
X10659523Y-184288095D01*
X10969047Y-184288095D01*
X11154761Y-184350000D01*
X11278571Y-184473809D01*
X11340476Y-184597619D01*
X11402380Y-184845238D01*
X11402380Y-185030952D01*
X11340476Y-185278571D01*
X11278571Y-185402380D01*
X11154761Y-185526190D01*
X10969047Y-185588095D01*
X10659523Y-185588095D01*
D10*
D11*
X287002200Y-60000000D02*
X285002200Y-60000000D01*
D10*
D11*
X287002200Y-110000000D02*
X285002200Y-110000000D01*
D10*
D11*
X287002200Y-160000000D02*
X285002200Y-160000000D01*
D10*
D11*
X285692676Y-35216666D02*
X286311723Y-35216666D01*
X285568866Y-35588095D02*
X286002200Y-34288095D01*
X286435533Y-35588095D01*
D10*
D11*
X286095057Y-84907142D02*
X286280771Y-84969047D01*
X286342676Y-85030952D01*
X286404580Y-85154761D01*
X286404580Y-85340476D01*
X286342676Y-85464285D01*
X286280771Y-85526190D01*
X286156961Y-85588095D01*
X285661723Y-85588095D01*
X285661723Y-84288095D01*
X286095057Y-84288095D01*
X286218866Y-84350000D01*
X286280771Y-84411904D01*
X286342676Y-84535714D01*
X286342676Y-84659523D01*
X286280771Y-84783333D01*
X286218866Y-84845238D01*
X286095057Y-84907142D01*
X285661723Y-84907142D01*
D10*
D11*
X286404580Y-135464285D02*
X286342676Y-135526190D01*
X286156961Y-135588095D01*
X286033152Y-135588095D01*
X285847438Y-135526190D01*
X285723628Y-135402380D01*
X285661723Y-135278571D01*
X285599819Y-135030952D01*
X285599819Y-134845238D01*
X285661723Y-134597619D01*
X285723628Y-134473809D01*
X285847438Y-134350000D01*
X286033152Y-134288095D01*
X286156961Y-134288095D01*
X286342676Y-134350000D01*
X286404580Y-134411904D01*
D10*
D11*
X285661723Y-185588095D02*
X285661723Y-184288095D01*
X285971247Y-184288095D01*
X286156961Y-184350000D01*
X286280771Y-184473809D01*
X286342676Y-184597619D01*
X286404580Y-184845238D01*
X286404580Y-185030952D01*
X286342676Y-185278571D01*
X286280771Y-185402380D01*
X286156961Y-185526190D01*
X285971247Y-185588095D01*
X285661723Y-185588095D01*
D10*
D11*
X200434342Y-193785771D02*
X200434342Y-192285771D01*
X200791485Y-192285771D01*
X201005771Y-192357200D01*
X201148628Y-192500057D01*
X201220057Y-192642914D01*
X201291485Y-192928628D01*
X201291485Y-193142914D01*
X201220057Y-193428628D01*
X201148628Y-193571485D01*
X201005771Y-193714342D01*
X200791485Y-193785771D01*
X200434342Y-193785771D01*
X202577200Y-193785771D02*
X202577200Y-193000057D01*
X202505771Y-192857200D01*
X202362914Y-192785771D01*
X202077200Y-192785771D01*
X201934342Y-192857200D01*
X202577200Y-193714342D02*
X202434342Y-193785771D01*
X202077200Y-193785771D01*
X201934342Y-193714342D01*
X201862914Y-193571485D01*
X201862914Y-193428628D01*
X201934342Y-193285771D01*
X202077200Y-193214342D01*
X202434342Y-193214342D01*
X202577200Y-193142914D01*
X203077200Y-192785771D02*
X203648628Y-192785771D01*
X203291485Y-192285771D02*
X203291485Y-193571485D01*
X203362914Y-193714342D01*
X203505771Y-193785771D01*
X203648628Y-193785771D01*
X204720057Y-193714342D02*
X204577200Y-193785771D01*
X204291485Y-193785771D01*
X204148628Y-193714342D01*
X204077200Y-193571485D01*
X204077200Y-193000057D01*
X204148628Y-192857200D01*
X204291485Y-192785771D01*
X204577200Y-192785771D01*
X204720057Y-192857200D01*
X204791485Y-193000057D01*
X204791485Y-193142914D01*
X204077200Y-193285771D01*
X205434342Y-193642914D02*
X205505771Y-193714342D01*
X205434342Y-193785771D01*
X205362914Y-193714342D01*
X205434342Y-193642914D01*
X205434342Y-193785771D01*
X205434342Y-192857200D02*
X205505771Y-192928628D01*
X205434342Y-193000057D01*
X205362914Y-192928628D01*
X205434342Y-192857200D01*
X205434342Y-193000057D01*
D10*
D11*
X177002200Y-194507200D02*
X285002200Y-194507200D01*
D10*
D11*
X178434342Y-196585771D02*
X178434342Y-195085771D01*
X179291485Y-196585771D02*
X178648628Y-195728628D01*
X179291485Y-195085771D02*
X178434342Y-195942914D01*
X179934342Y-196585771D02*
X179934342Y-195585771D01*
X179934342Y-195085771D02*
X179862914Y-195157200D01*
X179934342Y-195228628D01*
X180005771Y-195157200D01*
X179934342Y-195085771D01*
X179934342Y-195228628D01*
X181505771Y-196442914D02*
X181434342Y-196514342D01*
X181220057Y-196585771D01*
X181077200Y-196585771D01*
X180862914Y-196514342D01*
X180720057Y-196371485D01*
X180648628Y-196228628D01*
X180577200Y-195942914D01*
X180577200Y-195728628D01*
X180648628Y-195442914D01*
X180720057Y-195300057D01*
X180862914Y-195157200D01*
X181077200Y-195085771D01*
X181220057Y-195085771D01*
X181434342Y-195157200D01*
X181505771Y-195228628D01*
X182791485Y-196585771D02*
X182791485Y-195800057D01*
X182720057Y-195657200D01*
X182577200Y-195585771D01*
X182291485Y-195585771D01*
X182148628Y-195657200D01*
X182791485Y-196514342D02*
X182648628Y-196585771D01*
X182291485Y-196585771D01*
X182148628Y-196514342D01*
X182077200Y-196371485D01*
X182077200Y-196228628D01*
X182148628Y-196085771D01*
X182291485Y-196014342D01*
X182648628Y-196014342D01*
X182791485Y-195942914D01*
X184148628Y-196585771D02*
X184148628Y-195085771D01*
X184148628Y-196514342D02*
X184005771Y-196585771D01*
X183720057Y-196585771D01*
X183577200Y-196514342D01*
X183505771Y-196442914D01*
X183434342Y-196300057D01*
X183434342Y-195871485D01*
X183505771Y-195728628D01*
X183577200Y-195657200D01*
X183720057Y-195585771D01*
X184005771Y-195585771D01*
X184148628Y-195657200D01*
X186005771Y-195800057D02*
X186505771Y-195800057D01*
X186720057Y-196585771D02*
X186005771Y-196585771D01*
X186005771Y-195085771D01*
X186720057Y-195085771D01*
X187362914Y-196442914D02*
X187434342Y-196514342D01*
X187362914Y-196585771D01*
X187291485Y-196514342D01*
X187362914Y-196442914D01*
X187362914Y-196585771D01*
X188077200Y-196585771D02*
X188077200Y-195085771D01*
X188434342Y-195085771D01*
X188648628Y-195157200D01*
X188791485Y-195300057D01*
X188862914Y-195442914D01*
X188934342Y-195728628D01*
X188934342Y-195942914D01*
X188862914Y-196228628D01*
X188791485Y-196371485D01*
X188648628Y-196514342D01*
X188434342Y-196585771D01*
X188077200Y-196585771D01*
X189577200Y-196442914D02*
X189648628Y-196514342D01*
X189577200Y-196585771D01*
X189505771Y-196514342D01*
X189577200Y-196442914D01*
X189577200Y-196585771D01*
X190220057Y-196157200D02*
X190934342Y-196157200D01*
X190077200Y-196585771D02*
X190577200Y-195085771D01*
X191077200Y-196585771D01*
X191577200Y-196442914D02*
X191648628Y-196514342D01*
X191577200Y-196585771D01*
X191505771Y-196514342D01*
X191577200Y-196442914D01*
X191577200Y-196585771D01*
X194577200Y-196585771D02*
X194577200Y-195085771D01*
X194720057Y-196014342D02*
X195148628Y-196585771D01*
X195148628Y-195585771D02*
X194577200Y-196157200D01*
X195791485Y-196585771D02*
X195791485Y-195585771D01*
X195791485Y-195085771D02*
X195720057Y-195157200D01*
X195791485Y-195228628D01*
X195862914Y-195157200D01*
X195791485Y-195085771D01*
X195791485Y-195228628D01*
X197148628Y-196514342D02*
X197005771Y-196585771D01*
X196720057Y-196585771D01*
X196577200Y-196514342D01*
X196505771Y-196442914D01*
X196434342Y-196300057D01*
X196434342Y-195871485D01*
X196505771Y-195728628D01*
X196577200Y-195657200D01*
X196720057Y-195585771D01*
X197005771Y-195585771D01*
X197148628Y-195657200D01*
X198434342Y-196585771D02*
X198434342Y-195800057D01*
X198362914Y-195657200D01*
X198220057Y-195585771D01*
X197934342Y-195585771D01*
X197791485Y-195657200D01*
X198434342Y-196514342D02*
X198291485Y-196585771D01*
X197934342Y-196585771D01*
X197791485Y-196514342D01*
X197720057Y-196371485D01*
X197720057Y-196228628D01*
X197791485Y-196085771D01*
X197934342Y-196014342D01*
X198291485Y-196014342D01*
X198434342Y-195942914D01*
X199791485Y-196585771D02*
X199791485Y-195085771D01*
X199791485Y-196514342D02*
X199648628Y-196585771D01*
X199362914Y-196585771D01*
X199220057Y-196514342D01*
X199148628Y-196442914D01*
X199077200Y-196300057D01*
X199077200Y-195871485D01*
X199148628Y-195728628D01*
X199220057Y-195657200D01*
X199362914Y-195585771D01*
X199648628Y-195585771D01*
X199791485Y-195657200D01*
X202077200Y-197157200D02*
X202005771Y-197085771D01*
X201862914Y-196871485D01*
X201791485Y-196728628D01*
X201720057Y-196514342D01*
X201648628Y-196157200D01*
X201648628Y-195871485D01*
X201720057Y-195514342D01*
X201791485Y-195300057D01*
X201862914Y-195157200D01*
X202005771Y-194942914D01*
X202077200Y-194871485D01*
X203362914Y-195085771D02*
X202648628Y-195085771D01*
X202577200Y-195800057D01*
X202648628Y-195728628D01*
X202791485Y-195657200D01*
X203148628Y-195657200D01*
X203291485Y-195728628D01*
X203362914Y-195800057D01*
X203434342Y-195942914D01*
X203434342Y-196300057D01*
X203362914Y-196442914D01*
X203291485Y-196514342D01*
X203148628Y-196585771D01*
X202791485Y-196585771D01*
X202648628Y-196514342D01*
X202577200Y-196442914D01*
X204077200Y-196442914D02*
X204148628Y-196514342D01*
X204077200Y-196585771D01*
X204005771Y-196514342D01*
X204077200Y-196442914D01*
X204077200Y-196585771D01*
X205077200Y-195085771D02*
X205220057Y-195085771D01*
X205362914Y-195157200D01*
X205434342Y-195228628D01*
X205505771Y-195371485D01*
X205577200Y-195657200D01*
X205577200Y-196014342D01*
X205505771Y-196300057D01*
X205434342Y-196442914D01*
X205362914Y-196514342D01*
X205220057Y-196585771D01*
X205077200Y-196585771D01*
X204934342Y-196514342D01*
X204862914Y-196442914D01*
X204791485Y-196300057D01*
X204720057Y-196014342D01*
X204720057Y-195657200D01*
X204791485Y-195371485D01*
X204862914Y-195228628D01*
X204934342Y-195157200D01*
X205077200Y-195085771D01*
X206220057Y-196442914D02*
X206291485Y-196514342D01*
X206220057Y-196585771D01*
X206148628Y-196514342D01*
X206220057Y-196442914D01*
X206220057Y-196585771D01*
X206862914Y-195228628D02*
X206934342Y-195157200D01*
X207077200Y-195085771D01*
X207434342Y-195085771D01*
X207577200Y-195157200D01*
X207648628Y-195228628D01*
X207720057Y-195371485D01*
X207720057Y-195514342D01*
X207648628Y-195728628D01*
X206791485Y-196585771D01*
X207720057Y-196585771D01*
X208220057Y-197157200D02*
X208291485Y-197085771D01*
X208434342Y-196871485D01*
X208505771Y-196728628D01*
X208577200Y-196514342D01*
X208648628Y-196157200D01*
X208648628Y-195871485D01*
X208577200Y-195514342D01*
X208505771Y-195300057D01*
X208434342Y-195157200D01*
X208291485Y-194942914D01*
X208220057Y-194871485D01*
X209362914Y-196014342D02*
X210505771Y-196014342D01*
X212005771Y-196585771D02*
X211148628Y-196585771D01*
X211577200Y-196585771D02*
X211577200Y-195085771D01*
X211434342Y-195300057D01*
X211291485Y-195442914D01*
X211148628Y-195514342D01*
D10*
D11*
X177002200Y-191507200D02*
X285002200Y-191507200D01*
D10*
D12*
X264411485Y-193785771D02*
X263911485Y-193071485D01*
X263554342Y-193785771D02*
X263554342Y-192285771D01*
X264125771Y-192285771D01*
X264268628Y-192357200D01*
X264340057Y-192428628D01*
X264411485Y-192571485D01*
X264411485Y-192785771D01*
X264340057Y-192928628D01*
X264268628Y-193000057D01*
X264125771Y-193071485D01*
X263554342Y-193071485D01*
X265625771Y-193714342D02*
X265482914Y-193785771D01*
X265197200Y-193785771D01*
X265054342Y-193714342D01*
X264982914Y-193571485D01*
X264982914Y-193000057D01*
X265054342Y-192857200D01*
X265197200Y-192785771D01*
X265482914Y-192785771D01*
X265625771Y-192857200D01*
X265697200Y-193000057D01*
X265697200Y-193142914D01*
X264982914Y-193285771D01*
X266197200Y-192785771D02*
X266554342Y-193785771D01*
X266911485Y-192785771D01*
X267482914Y-193642914D02*
X267554342Y-193714342D01*
X267482914Y-193785771D01*
X267411485Y-193714342D01*
X267482914Y-193642914D01*
X267482914Y-193785771D01*
X267482914Y-192857200D02*
X267554342Y-192928628D01*
X267482914Y-193000057D01*
X267411485Y-192928628D01*
X267482914Y-192857200D01*
X267482914Y-193000057D01*
D10*
D11*
X178362914Y-193714342D02*
X178577200Y-193785771D01*
X178934342Y-193785771D01*
X179077200Y-193714342D01*
X179148628Y-193642914D01*
X179220057Y-193500057D01*
X179220057Y-193357200D01*
X179148628Y-193214342D01*
X179077200Y-193142914D01*
X178934342Y-193071485D01*
X178648628Y-193000057D01*
X178505771Y-192928628D01*
X178434342Y-192857200D01*
X178362914Y-192714342D01*
X178362914Y-192571485D01*
X178434342Y-192428628D01*
X178505771Y-192357200D01*
X178648628Y-192285771D01*
X179005771Y-192285771D01*
X179220057Y-192357200D01*
X179862914Y-193785771D02*
X179862914Y-192785771D01*
X179862914Y-192285771D02*
X179791485Y-192357200D01*
X179862914Y-192428628D01*
X179934342Y-192357200D01*
X179862914Y-192285771D01*
X179862914Y-192428628D01*
X180434342Y-192785771D02*
X181220057Y-192785771D01*
X180434342Y-193785771D01*
X181220057Y-193785771D01*
X182362914Y-193714342D02*
X182220057Y-193785771D01*
X181934342Y-193785771D01*
X181791485Y-193714342D01*
X181720057Y-193571485D01*
X181720057Y-193000057D01*
X181791485Y-192857200D01*
X181934342Y-192785771D01*
X182220057Y-192785771D01*
X182362914Y-192857200D01*
X182434342Y-193000057D01*
X182434342Y-193142914D01*
X181720057Y-193285771D01*
X183077200Y-193642914D02*
X183148628Y-193714342D01*
X183077200Y-193785771D01*
X183005771Y-193714342D01*
X183077200Y-193642914D01*
X183077200Y-193785771D01*
X183077200Y-192857200D02*
X183148628Y-192928628D01*
X183077200Y-193000057D01*
X183005771Y-192928628D01*
X183077200Y-192857200D01*
X183077200Y-193000057D01*
X184862914Y-193357200D02*
X185577200Y-193357200D01*
X184720057Y-193785771D02*
X185220057Y-192285771D01*
X185720057Y-193785771D01*
X186862914Y-192785771D02*
X186862914Y-193785771D01*
X186505771Y-192214342D02*
X186148628Y-193285771D01*
X187077200Y-193285771D01*
D10*
D11*
X263434342Y-196585771D02*
X263434342Y-195085771D01*
X264791485Y-196585771D02*
X264791485Y-195085771D01*
X264791485Y-196514342D02*
X264648628Y-196585771D01*
X264362914Y-196585771D01*
X264220057Y-196514342D01*
X264148628Y-196442914D01*
X264077200Y-196300057D01*
X264077200Y-195871485D01*
X264148628Y-195728628D01*
X264220057Y-195657200D01*
X264362914Y-195585771D01*
X264648628Y-195585771D01*
X264791485Y-195657200D01*
X265505771Y-196442914D02*
X265577200Y-196514342D01*
X265505771Y-196585771D01*
X265434342Y-196514342D01*
X265505771Y-196442914D01*
X265505771Y-196585771D01*
X265505771Y-195657200D02*
X265577200Y-195728628D01*
X265505771Y-195800057D01*
X265434342Y-195728628D01*
X265505771Y-195657200D01*
X265505771Y-195800057D01*
X268148628Y-196585771D02*
X267291485Y-196585771D01*
X267720057Y-196585771D02*
X267720057Y-195085771D01*
X267577200Y-195300057D01*
X267434342Y-195442914D01*
X267291485Y-195514342D01*
X269862914Y-195014342D02*
X268577200Y-196942914D01*
X271148628Y-196585771D02*
X270291485Y-196585771D01*
X270720057Y-196585771D02*
X270720057Y-195085771D01*
X270577200Y-195300057D01*
X270434342Y-195442914D01*
X270291485Y-195514342D01*
D10*
D11*
X177002200Y-187507200D02*
X285002200Y-187507200D01*
D10*
D13*
X178714580Y-188211961D02*
X179857438Y-188211961D01*
X179036009Y-190211961D02*
X179286009Y-188211961D01*
X180274104Y-190211961D02*
X180440771Y-188878628D01*
X180524104Y-188211961D02*
X180416961Y-188307200D01*
X180500295Y-188402438D01*
X180607438Y-188307200D01*
X180524104Y-188211961D01*
X180500295Y-188402438D01*
X181107438Y-188878628D02*
X181869342Y-188878628D01*
X181476485Y-188211961D02*
X181262200Y-189926247D01*
X181333628Y-190116723D01*
X181512200Y-190211961D01*
X181702676Y-190211961D01*
X182655057Y-190211961D02*
X182476485Y-190116723D01*
X182405057Y-189926247D01*
X182619342Y-188211961D01*
X184190771Y-190116723D02*
X183988390Y-190211961D01*
X183607438Y-190211961D01*
X183428866Y-190116723D01*
X183357438Y-189926247D01*
X183452676Y-189164342D01*
X183571723Y-188973866D01*
X183774104Y-188878628D01*
X184155057Y-188878628D01*
X184333628Y-188973866D01*
X184405057Y-189164342D01*
X184381247Y-189354819D01*
X183405057Y-189545295D01*
X185155057Y-190021485D02*
X185238390Y-190116723D01*
X185131247Y-190211961D01*
X185047914Y-190116723D01*
X185155057Y-190021485D01*
X185131247Y-190211961D01*
X185286009Y-188973866D02*
X185369342Y-189069104D01*
X185262200Y-189164342D01*
X185178866Y-189069104D01*
X185286009Y-188973866D01*
X185262200Y-189164342D01*
D10*
D11*
X178934342Y-185600057D02*
X178434342Y-185600057D01*
X178434342Y-186385771D02*
X178434342Y-184885771D01*
X179148628Y-184885771D01*
X179720057Y-186385771D02*
X179720057Y-185385771D01*
X179720057Y-184885771D02*
X179648628Y-184957200D01*
X179720057Y-185028628D01*
X179791485Y-184957200D01*
X179720057Y-184885771D01*
X179720057Y-185028628D01*
X180648628Y-186385771D02*
X180505771Y-186314342D01*
X180434342Y-186171485D01*
X180434342Y-184885771D01*
X181791485Y-186314342D02*
X181648628Y-186385771D01*
X181362914Y-186385771D01*
X181220057Y-186314342D01*
X181148628Y-186171485D01*
X181148628Y-185600057D01*
X181220057Y-185457200D01*
X181362914Y-185385771D01*
X181648628Y-185385771D01*
X181791485Y-185457200D01*
X181862914Y-185600057D01*
X181862914Y-185742914D01*
X181148628Y-185885771D01*
X182505771Y-186242914D02*
X182577200Y-186314342D01*
X182505771Y-186385771D01*
X182434342Y-186314342D01*
X182505771Y-186242914D01*
X182505771Y-186385771D01*
X182505771Y-185457200D02*
X182577200Y-185528628D01*
X182505771Y-185600057D01*
X182434342Y-185528628D01*
X182505771Y-185457200D01*
X182505771Y-185600057D01*
X184362914Y-186385771D02*
X184362914Y-184885771D01*
X184862914Y-185957200D01*
X185362914Y-184885771D01*
X185362914Y-186385771D01*
X186077200Y-186385771D02*
X186077200Y-185385771D01*
X186077200Y-184885771D02*
X186005771Y-184957200D01*
X186077200Y-185028628D01*
X186148628Y-184957200D01*
X186077200Y-184885771D01*
X186077200Y-185028628D01*
X186791485Y-185385771D02*
X186791485Y-186385771D01*
X186791485Y-185528628D02*
X186862914Y-185457200D01*
X187005771Y-185385771D01*
X187220057Y-185385771D01*
X187362914Y-185457200D01*
X187434342Y-185600057D01*
X187434342Y-186385771D01*
X188362914Y-186385771D02*
X188220057Y-186314342D01*
X188148628Y-186242914D01*
X188077200Y-186100057D01*
X188077200Y-185671485D01*
X188148628Y-185528628D01*
X188220057Y-185457200D01*
X188362914Y-185385771D01*
X188577200Y-185385771D01*
X188720057Y-185457200D01*
X188791485Y-185528628D01*
X188862914Y-185671485D01*
X188862914Y-186100057D01*
X188791485Y-186242914D01*
X188720057Y-186314342D01*
X188577200Y-186385771D01*
X188362914Y-186385771D01*
X189505771Y-186385771D02*
X189505771Y-185385771D01*
X189505771Y-185671485D02*
X189577200Y-185528628D01*
X189648628Y-185457200D01*
X189791485Y-185385771D01*
X189934342Y-185385771D01*
X190077200Y-186528628D02*
X191220057Y-186528628D01*
X191577200Y-186385771D02*
X191577200Y-184885771D01*
X192148628Y-184885771D01*
X192291485Y-184957200D01*
X192362914Y-185028628D01*
X192434342Y-185171485D01*
X192434342Y-185385771D01*
X192362914Y-185528628D01*
X192291485Y-185600057D01*
X192148628Y-185671485D01*
X191577200Y-185671485D01*
X193077200Y-186385771D02*
X193077200Y-185385771D01*
X193077200Y-185671485D02*
X193148628Y-185528628D01*
X193220057Y-185457200D01*
X193362914Y-185385771D01*
X193505771Y-185385771D01*
X194220057Y-186385771D02*
X194077200Y-186314342D01*
X194005771Y-186242914D01*
X193934342Y-186100057D01*
X193934342Y-185671485D01*
X194005771Y-185528628D01*
X194077200Y-185457200D01*
X194220057Y-185385771D01*
X194434342Y-185385771D01*
X194577200Y-185457200D01*
X194648628Y-185528628D01*
X194720057Y-185671485D01*
X194720057Y-186100057D01*
X194648628Y-186242914D01*
X194577200Y-186314342D01*
X194434342Y-186385771D01*
X194220057Y-186385771D01*
X195362914Y-185385771D02*
X195362914Y-186671485D01*
X195291485Y-186814342D01*
X195148628Y-186885771D01*
X195077200Y-186885771D01*
X195362914Y-184885771D02*
X195291485Y-184957200D01*
X195362914Y-185028628D01*
X195434342Y-184957200D01*
X195362914Y-184885771D01*
X195362914Y-185028628D01*
X196648628Y-186314342D02*
X196505771Y-186385771D01*
X196220057Y-186385771D01*
X196077200Y-186314342D01*
X196005771Y-186171485D01*
X196005771Y-185600057D01*
X196077200Y-185457200D01*
X196220057Y-185385771D01*
X196505771Y-185385771D01*
X196648628Y-185457200D01*
X196720057Y-185600057D01*
X196720057Y-185742914D01*
X196005771Y-185885771D01*
X198005771Y-186314342D02*
X197862914Y-186385771D01*
X197577200Y-186385771D01*
X197434342Y-186314342D01*
X197362914Y-186242914D01*
X197291485Y-186100057D01*
X197291485Y-185671485D01*
X197362914Y-185528628D01*
X197434342Y-185457200D01*
X197577200Y-185385771D01*
X197862914Y-185385771D01*
X198005771Y-185457200D01*
X198434342Y-185385771D02*
X199005771Y-185385771D01*
X198648628Y-184885771D02*
X198648628Y-186171485D01*
X198720057Y-186314342D01*
X198862914Y-186385771D01*
X199005771Y-186385771D01*
X199505771Y-186242914D02*
X199577200Y-186314342D01*
X199505771Y-186385771D01*
X199434342Y-186314342D01*
X199505771Y-186242914D01*
X199505771Y-186385771D01*
X200220057Y-186385771D02*
X200220057Y-184885771D01*
X200362914Y-185814342D02*
X200791485Y-186385771D01*
X200791485Y-185385771D02*
X200220057Y-185957200D01*
X201434342Y-186385771D02*
X201434342Y-185385771D01*
X201434342Y-184885771D02*
X201362914Y-184957200D01*
X201434342Y-185028628D01*
X201505771Y-184957200D01*
X201434342Y-184885771D01*
X201434342Y-185028628D01*
X202791485Y-186314342D02*
X202648628Y-186385771D01*
X202362914Y-186385771D01*
X202220057Y-186314342D01*
X202148628Y-186242914D01*
X202077200Y-186100057D01*
X202077200Y-185671485D01*
X202148628Y-185528628D01*
X202220057Y-185457200D01*
X202362914Y-185385771D01*
X202648628Y-185385771D01*
X202791485Y-185457200D01*
X204077200Y-186385771D02*
X204077200Y-185600057D01*
X204005771Y-185457200D01*
X203862914Y-185385771D01*
X203577200Y-185385771D01*
X203434342Y-185457200D01*
X204077200Y-186314342D02*
X203934342Y-186385771D01*
X203577200Y-186385771D01*
X203434342Y-186314342D01*
X203362914Y-186171485D01*
X203362914Y-186028628D01*
X203434342Y-185885771D01*
X203577200Y-185814342D01*
X203934342Y-185814342D01*
X204077200Y-185742914D01*
X205434342Y-186385771D02*
X205434342Y-184885771D01*
X205434342Y-186314342D02*
X205291485Y-186385771D01*
X205005771Y-186385771D01*
X204862914Y-186314342D01*
X204791485Y-186242914D01*
X204720057Y-186100057D01*
X204720057Y-185671485D01*
X204791485Y-185528628D01*
X204862914Y-185457200D01*
X205005771Y-185385771D01*
X205291485Y-185385771D01*
X205434342Y-185457200D01*
X205791485Y-186528628D02*
X206934342Y-186528628D01*
X207291485Y-185385771D02*
X207291485Y-186885771D01*
X207291485Y-185457200D02*
X207434342Y-185385771D01*
X207720057Y-185385771D01*
X207862914Y-185457200D01*
X207934342Y-185528628D01*
X208005771Y-185671485D01*
X208005771Y-186100057D01*
X207934342Y-186242914D01*
X207862914Y-186314342D01*
X207720057Y-186385771D01*
X207434342Y-186385771D01*
X207291485Y-186314342D01*
X209291485Y-186314342D02*
X209148628Y-186385771D01*
X208862914Y-186385771D01*
X208720057Y-186314342D01*
X208648628Y-186242914D01*
X208577200Y-186100057D01*
X208577200Y-185671485D01*
X208648628Y-185528628D01*
X208720057Y-185457200D01*
X208862914Y-185385771D01*
X209148628Y-185385771D01*
X209291485Y-185457200D01*
X209934342Y-186385771D02*
X209934342Y-184885771D01*
X209934342Y-185457200D02*
X210077200Y-185385771D01*
X210362914Y-185385771D01*
X210505771Y-185457200D01*
X210577200Y-185528628D01*
X210648628Y-185671485D01*
X210648628Y-186100057D01*
X210577200Y-186242914D01*
X210505771Y-186314342D01*
X210362914Y-186385771D01*
X210077200Y-186385771D01*
X209934342Y-186314342D01*
D10*
D11*
X177002200Y-181507200D02*
X285002200Y-181507200D01*
D10*
D11*
X178362914Y-183614342D02*
X178577200Y-183685771D01*
X178934342Y-183685771D01*
X179077200Y-183614342D01*
X179148628Y-183542914D01*
X179220057Y-183400057D01*
X179220057Y-183257200D01*
X179148628Y-183114342D01*
X179077200Y-183042914D01*
X178934342Y-182971485D01*
X178648628Y-182900057D01*
X178505771Y-182828628D01*
X178434342Y-182757200D01*
X178362914Y-182614342D01*
X178362914Y-182471485D01*
X178434342Y-182328628D01*
X178505771Y-182257200D01*
X178648628Y-182185771D01*
X179005771Y-182185771D01*
X179220057Y-182257200D01*
X179862914Y-183685771D02*
X179862914Y-182185771D01*
X180505771Y-183685771D02*
X180505771Y-182900057D01*
X180434342Y-182757200D01*
X180291485Y-182685771D01*
X180077200Y-182685771D01*
X179934342Y-182757200D01*
X179862914Y-182828628D01*
X181791485Y-183614342D02*
X181648628Y-183685771D01*
X181362914Y-183685771D01*
X181220057Y-183614342D01*
X181148628Y-183471485D01*
X181148628Y-182900057D01*
X181220057Y-182757200D01*
X181362914Y-182685771D01*
X181648628Y-182685771D01*
X181791485Y-182757200D01*
X181862914Y-182900057D01*
X181862914Y-183042914D01*
X181148628Y-183185771D01*
X183077200Y-183614342D02*
X182934342Y-183685771D01*
X182648628Y-183685771D01*
X182505771Y-183614342D01*
X182434342Y-183471485D01*
X182434342Y-182900057D01*
X182505771Y-182757200D01*
X182648628Y-182685771D01*
X182934342Y-182685771D01*
X183077200Y-182757200D01*
X183148628Y-182900057D01*
X183148628Y-183042914D01*
X182434342Y-183185771D01*
X183577200Y-182685771D02*
X184148628Y-182685771D01*
X183791485Y-182185771D02*
X183791485Y-183471485D01*
X183862914Y-183614342D01*
X184005771Y-183685771D01*
X184148628Y-183685771D01*
X184648628Y-183542914D02*
X184720057Y-183614342D01*
X184648628Y-183685771D01*
X184577200Y-183614342D01*
X184648628Y-183542914D01*
X184648628Y-183685771D01*
X184648628Y-182757200D02*
X184720057Y-182828628D01*
X184648628Y-182900057D01*
X184577200Y-182828628D01*
X184648628Y-182757200D01*
X184648628Y-182900057D01*
D10*
D11*
X197002200Y-191507200D02*
X197002200Y-194507200D01*
D10*
D11*
X261002200Y-191507200D02*
X261002200Y-198007200D01*
D10*
G04 #@! TO.C,C24*
X109590000Y-136010000D02*
X108290000Y-136010000D01*
X108940000Y-135410000D02*
X108940000Y-136610000D01*
X111440000Y-138860000D02*
G75*
G03X111440000Y-138860000I-2500000J0D01*
G01*
G04 #@! TO.C,D5*
X93615000Y-122020306D02*
X93615000Y-124959694D01*
X98615000Y-123490000D02*
G75*
G03X98615000Y-123490000I-2500000J0D01*
G01*
X93614984Y-124959666D02*
G75*
G03X93615000Y-122020306I2500016J1469666D01*
G01*
G04 #@! TO.C,C34*
X107620000Y-57430000D02*
X105020000Y-57430000D01*
X105020000Y-57430000D02*
X105020000Y-61230000D01*
X105020000Y-61230000D02*
X107620000Y-61230000D01*
X107620000Y-61230000D02*
X107620000Y-57430000D01*
G04 #@! TO.C,D13*
X100410000Y-140680000D02*
X104010000Y-140680000D01*
X102210000Y-132940000D02*
X102210000Y-134220000D01*
X102210000Y-143100000D02*
X102210000Y-141820000D01*
X100410000Y-134220000D02*
X100410000Y-141820000D01*
X104010000Y-134220000D02*
X100410000Y-134220000D01*
X104010000Y-141820000D02*
X104010000Y-134220000D01*
X100410000Y-141820000D02*
X104010000Y-141820000D01*
G04 #@! TO.C,J3*
X63030000Y-143930000D02*
X68780000Y-143930000D01*
X68780000Y-143930000D02*
X68780000Y-129030000D01*
X68780000Y-129030000D02*
X63030000Y-129030000D01*
X63030000Y-129030000D02*
X63030000Y-143930000D01*
X62630000Y-141830000D02*
X62630000Y-144330000D01*
X62630000Y-144330000D02*
X65130000Y-144330000D01*
G04 #@! TO.C,C1*
X82120000Y-115630000D02*
X82120000Y-117130000D01*
X81370000Y-116380000D02*
X82870000Y-116380000D01*
X91570000Y-116380000D02*
G75*
G03X91570000Y-116380000I-5000000J0D01*
G01*
G04 #@! TO.C,C2*
X86830000Y-60960000D02*
X86830000Y-63560000D01*
X86830000Y-63560000D02*
X90630000Y-63560000D01*
X90630000Y-63560000D02*
X90630000Y-60960000D01*
X90630000Y-60960000D02*
X86830000Y-60960000D01*
G04 #@! TO.C,C3*
X91720000Y-103900000D02*
X91720000Y-105200000D01*
X91120000Y-104550000D02*
X92320000Y-104550000D01*
X99070000Y-104550000D02*
G75*
G03X99070000Y-104550000I-4000000J0D01*
G01*
G04 #@! TO.C,C4*
X165832000Y-70764000D02*
X165832000Y-74564000D01*
X168432000Y-70764000D02*
X165832000Y-70764000D01*
X168432000Y-74564000D02*
X168432000Y-70764000D01*
X165832000Y-74564000D02*
X168432000Y-74564000D01*
G04 #@! TO.C,C6*
X104618000Y-72288000D02*
X104618000Y-76088000D01*
X107218000Y-72288000D02*
X104618000Y-72288000D01*
X107218000Y-76088000D02*
X107218000Y-72288000D01*
X104618000Y-76088000D02*
X107218000Y-76088000D01*
G04 #@! TO.C,C8*
X159130000Y-69290000D02*
X155330000Y-69290000D01*
X159130000Y-71890000D02*
X159130000Y-69290000D01*
X155330000Y-71890000D02*
X159130000Y-71890000D01*
X155330000Y-69290000D02*
X155330000Y-71890000D01*
G04 #@! TO.C,C9*
X159796000Y-140066000D02*
X157196000Y-140066000D01*
X157196000Y-140066000D02*
X157196000Y-143866000D01*
X157196000Y-143866000D02*
X159796000Y-143866000D01*
X159796000Y-143866000D02*
X159796000Y-140066000D01*
G04 #@! TO.C,C13*
X136400000Y-131400000D02*
X136400000Y-128800000D01*
X136400000Y-128800000D02*
X132600000Y-128800000D01*
X132600000Y-128800000D02*
X132600000Y-131400000D01*
X132600000Y-131400000D02*
X136400000Y-131400000D01*
G04 #@! TO.C,C14*
X168170000Y-117900000D02*
X171970000Y-117900000D01*
X168170000Y-115300000D02*
X168170000Y-117900000D01*
X171970000Y-115300000D02*
X168170000Y-115300000D01*
X171970000Y-117900000D02*
X171970000Y-115300000D01*
G04 #@! TO.C,C15*
X177942000Y-117632000D02*
X177942000Y-115032000D01*
X177942000Y-115032000D02*
X174142000Y-115032000D01*
X174142000Y-115032000D02*
X174142000Y-117632000D01*
X174142000Y-117632000D02*
X177942000Y-117632000D01*
G04 #@! TO.C,C16*
X168580000Y-32200000D02*
X165980000Y-32200000D01*
X165980000Y-32200000D02*
X165980000Y-36000000D01*
X165980000Y-36000000D02*
X168580000Y-36000000D01*
X168580000Y-36000000D02*
X168580000Y-32200000D01*
G04 #@! TO.C,C21*
X106640000Y-136840000D02*
X104040000Y-136840000D01*
X104040000Y-136840000D02*
X104040000Y-140640000D01*
X104040000Y-140640000D02*
X106640000Y-140640000D01*
X106640000Y-140640000D02*
X106640000Y-136840000D01*
G04 #@! TO.C,C22*
X93840000Y-108080000D02*
X93840000Y-110680000D01*
X93840000Y-110680000D02*
X97640000Y-110680000D01*
X97640000Y-110680000D02*
X97640000Y-108080000D01*
X97640000Y-108080000D02*
X93840000Y-108080000D01*
G04 #@! TO.C,C23*
X110440000Y-64800000D02*
X107840000Y-64800000D01*
X107840000Y-64800000D02*
X107840000Y-68600000D01*
X107840000Y-68600000D02*
X110440000Y-68600000D01*
X110440000Y-68600000D02*
X110440000Y-64800000D01*
G04 #@! TO.C,C25*
X107472000Y-106782000D02*
X107472000Y-102982000D01*
X104872000Y-106782000D02*
X107472000Y-106782000D01*
X104872000Y-102982000D02*
X104872000Y-106782000D01*
X107472000Y-102982000D02*
X104872000Y-102982000D01*
G04 #@! TO.C,C27*
X81825000Y-54100000D02*
X81825000Y-56700000D01*
X81825000Y-56700000D02*
X85625000Y-56700000D01*
X85625000Y-56700000D02*
X85625000Y-54100000D01*
X85625000Y-54100000D02*
X81825000Y-54100000D01*
G04 #@! TO.C,C28*
X63932000Y-64628000D02*
X63932000Y-65928000D01*
X63332000Y-65278000D02*
X64532000Y-65278000D01*
X69282000Y-65278000D02*
G75*
G03X69282000Y-65278000I-2500000J0D01*
G01*
G04 #@! TO.C,C29*
X122100000Y-45380000D02*
X122100000Y-42780000D01*
X122100000Y-42780000D02*
X118300000Y-42780000D01*
X118300000Y-42780000D02*
X118300000Y-45380000D01*
X118300000Y-45380000D02*
X122100000Y-45380000D01*
G04 #@! TO.C,C30*
X148710000Y-86790000D02*
X148710000Y-84190000D01*
X148710000Y-84190000D02*
X144910000Y-84190000D01*
X144910000Y-84190000D02*
X144910000Y-86790000D01*
X144910000Y-86790000D02*
X148710000Y-86790000D01*
G04 #@! TO.C,C31*
X148740000Y-89960000D02*
X148740000Y-87360000D01*
X148740000Y-87360000D02*
X144940000Y-87360000D01*
X144940000Y-87360000D02*
X144940000Y-89960000D01*
X144940000Y-89960000D02*
X148740000Y-89960000D01*
G04 #@! TO.C,C32*
X87050000Y-56825000D02*
X90850000Y-56825000D01*
X87050000Y-54225000D02*
X87050000Y-56825000D01*
X90850000Y-54225000D02*
X87050000Y-54225000D01*
X90850000Y-56825000D02*
X90850000Y-54225000D01*
G04 #@! TO.C,C33*
X121110000Y-129110000D02*
X117310000Y-129110000D01*
X121110000Y-131710000D02*
X121110000Y-129110000D01*
X117310000Y-131710000D02*
X121110000Y-131710000D01*
X117310000Y-129110000D02*
X117310000Y-131710000D01*
G04 #@! TO.C,D1*
X95491190Y-33645000D02*
X93158810Y-33645000D01*
X95825000Y-35145000D02*
G75*
G03X95825000Y-35145000I-1500000J0D01*
G01*
X93159524Y-33644445D02*
G75*
G03X95491190Y-33645000I1165476J-1500555D01*
G01*
G04 #@! TO.C,D2*
X75550000Y-122063810D02*
X75550000Y-124396190D01*
X78550000Y-123230000D02*
G75*
G03X78550000Y-123230000I-1500000J0D01*
G01*
X75549445Y-124395476D02*
G75*
G03X75550000Y-122063810I1500555J1165476D01*
G01*
G04 #@! TO.C,D3*
X79415476Y-56105555D02*
G75*
G03X77083810Y-56105000I-1165476J1500555D01*
G01*
X79750000Y-54605000D02*
G75*
G03X79750000Y-54605000I-1500000J0D01*
G01*
X77083810Y-56105000D02*
X79416190Y-56105000D01*
G04 #@! TO.C,D4*
X66200000Y-41995000D02*
X69800000Y-41995000D01*
X69800000Y-41995000D02*
X69800000Y-34395000D01*
X69800000Y-34395000D02*
X66200000Y-34395000D01*
X66200000Y-34395000D02*
X66200000Y-41995000D01*
X68000000Y-43275000D02*
X68000000Y-41995000D01*
X68000000Y-33115000D02*
X68000000Y-34395000D01*
X66200000Y-40855000D02*
X69800000Y-40855000D01*
G04 #@! TO.C,D6*
X174966000Y-91648000D02*
X178566000Y-91648000D01*
X178566000Y-91648000D02*
X178566000Y-84048000D01*
X178566000Y-84048000D02*
X174966000Y-84048000D01*
X174966000Y-84048000D02*
X174966000Y-91648000D01*
X176766000Y-92928000D02*
X176766000Y-91648000D01*
X176766000Y-82768000D02*
X176766000Y-84048000D01*
X174966000Y-90508000D02*
X178566000Y-90508000D01*
G04 #@! TO.C,D7*
X162870000Y-142570000D02*
X162870000Y-146170000D01*
X162870000Y-146170000D02*
X170470000Y-146170000D01*
X170470000Y-146170000D02*
X170470000Y-142570000D01*
X170470000Y-142570000D02*
X162870000Y-142570000D01*
X161590000Y-144370000D02*
X162870000Y-144370000D01*
X171750000Y-144370000D02*
X170470000Y-144370000D01*
X164010000Y-142570000D02*
X164010000Y-146170000D01*
G04 #@! TO.C,D8*
X175100000Y-54020000D02*
X178700000Y-54020000D01*
X176900000Y-46280000D02*
X176900000Y-47560000D01*
X176900000Y-56440000D02*
X176900000Y-55160000D01*
X175100000Y-47560000D02*
X175100000Y-55160000D01*
X178700000Y-47560000D02*
X175100000Y-47560000D01*
X178700000Y-55160000D02*
X178700000Y-47560000D01*
X175100000Y-55160000D02*
X178700000Y-55160000D01*
G04 #@! TO.C,D9*
X164476190Y-71330000D02*
X162143810Y-71330000D01*
X164810000Y-72830000D02*
G75*
G03X164810000Y-72830000I-1500000J0D01*
G01*
X162144524Y-71329445D02*
G75*
G03X164476190Y-71330000I1165476J-1500555D01*
G01*
G04 #@! TO.C,D10*
X168679445Y-121105476D02*
G75*
G03X168680000Y-118773810I1500555J1165476D01*
G01*
X171680000Y-119940000D02*
G75*
G03X171680000Y-119940000I-1500000J0D01*
G01*
X168680000Y-118773810D02*
X168680000Y-121106190D01*
G04 #@! TO.C,D11*
X177950000Y-36676190D02*
X177950000Y-34343810D01*
X177950000Y-35510000D02*
G75*
G03X177950000Y-35510000I-1500000J0D01*
G01*
X177950555Y-34344524D02*
G75*
G03X177950000Y-36676190I-1500555J-1165476D01*
G01*
G04 #@! TO.C,D12*
X125490000Y-42160000D02*
X125490000Y-39460000D01*
X125490000Y-39460000D02*
X120290000Y-39460000D01*
X120290000Y-39460000D02*
X120290000Y-42160000D01*
X120290000Y-42160000D02*
X125490000Y-42160000D01*
X126700000Y-40810000D02*
X125490000Y-40810000D01*
X119080000Y-40810000D02*
X120290000Y-40810000D01*
X124710000Y-42160000D02*
X124710000Y-39460000D01*
G04 #@! TO.C,D14*
X75620000Y-139990000D02*
X79220000Y-139990000D01*
X79220000Y-139990000D02*
X79220000Y-132390000D01*
X79220000Y-132390000D02*
X75620000Y-132390000D01*
X75620000Y-132390000D02*
X75620000Y-139990000D01*
X77420000Y-141270000D02*
X77420000Y-139990000D01*
X77420000Y-131110000D02*
X77420000Y-132390000D01*
X75620000Y-138850000D02*
X79220000Y-138850000D01*
G04 #@! TO.C,D15*
X85780000Y-105770000D02*
X85780000Y-100570000D01*
X85780000Y-100570000D02*
X76280000Y-100570000D01*
X76280000Y-100570000D02*
X76280000Y-105770000D01*
X76280000Y-105770000D02*
X85780000Y-105770000D01*
X88650000Y-103170000D02*
X85780000Y-103170000D01*
X73410000Y-103170000D02*
X76280000Y-103170000D01*
X84355000Y-105770000D02*
X84355000Y-100570000D01*
G04 #@! TO.C,D16*
X80540000Y-121833810D02*
X80540000Y-124166190D01*
X83540000Y-123000000D02*
G75*
G03X83540000Y-123000000I-1500000J0D01*
G01*
X80539445Y-124165476D02*
G75*
G03X80540000Y-121833810I1500555J1165476D01*
G01*
G04 #@! TO.C,D17*
X84355000Y-111060000D02*
X84355000Y-105860000D01*
X73410000Y-108460000D02*
X76280000Y-108460000D01*
X88650000Y-108460000D02*
X85780000Y-108460000D01*
X76280000Y-111060000D02*
X85780000Y-111060000D01*
X76280000Y-105860000D02*
X76280000Y-111060000D01*
X85780000Y-105860000D02*
X76280000Y-105860000D01*
X85780000Y-111060000D02*
X85780000Y-105860000D01*
G04 #@! TO.C,D18*
X71250000Y-140050000D02*
X74850000Y-140050000D01*
X74850000Y-140050000D02*
X74850000Y-132450000D01*
X74850000Y-132450000D02*
X71250000Y-132450000D01*
X71250000Y-132450000D02*
X71250000Y-140050000D01*
X73050000Y-141330000D02*
X73050000Y-140050000D01*
X73050000Y-131170000D02*
X73050000Y-132450000D01*
X71250000Y-138910000D02*
X74850000Y-138910000D01*
G04 #@! TO.C,J1*
X179026000Y-58364000D02*
X176526000Y-58364000D01*
X179026000Y-60864000D02*
X179026000Y-58364000D01*
X178626000Y-73664000D02*
X178626000Y-58764000D01*
X172876000Y-73664000D02*
X178626000Y-73664000D01*
X172876000Y-58764000D02*
X172876000Y-73664000D01*
X178626000Y-58764000D02*
X172876000Y-58764000D01*
G04 #@! TO.C,J2*
X154976000Y-115328000D02*
X160726000Y-115328000D01*
X160726000Y-115328000D02*
X160726000Y-102928000D01*
X160726000Y-102928000D02*
X154976000Y-102928000D01*
X154976000Y-102928000D02*
X154976000Y-115328000D01*
X154576000Y-113228000D02*
X154576000Y-115728000D01*
X154576000Y-115728000D02*
X157076000Y-115728000D01*
G04 #@! TO.C,J4*
X169328000Y-64326000D02*
X169328000Y-58576000D01*
X169328000Y-58576000D02*
X154428000Y-58576000D01*
X154428000Y-58576000D02*
X154428000Y-64326000D01*
X154428000Y-64326000D02*
X169328000Y-64326000D01*
X167228000Y-64726000D02*
X169728000Y-64726000D01*
X169728000Y-64726000D02*
X169728000Y-62226000D01*
G04 #@! TO.C,J5*
X178320000Y-96710000D02*
X172570000Y-96710000D01*
X172570000Y-96710000D02*
X172570000Y-114110000D01*
X172570000Y-114110000D02*
X178320000Y-114110000D01*
X178320000Y-114110000D02*
X178320000Y-96710000D01*
X178720000Y-98810000D02*
X178720000Y-96310000D01*
X178720000Y-96310000D02*
X176220000Y-96310000D01*
G04 #@! TO.C,J6*
X155820000Y-74115000D02*
X155820000Y-72210000D01*
X155820000Y-72210000D02*
X160900000Y-72210000D01*
X160900000Y-72210000D02*
X160900000Y-74750000D01*
X160900000Y-74750000D02*
X156455000Y-74750000D01*
X156455000Y-74750000D02*
X155820000Y-74115000D01*
G04 #@! TO.C,J7*
X90920000Y-122625000D02*
X90920000Y-124530000D01*
X90920000Y-124530000D02*
X85840000Y-124530000D01*
X85840000Y-124530000D02*
X85840000Y-121990000D01*
X85840000Y-121990000D02*
X90285000Y-121990000D01*
X90285000Y-121990000D02*
X90920000Y-122625000D01*
G04 #@! TO.C,J9*
X75705000Y-127970000D02*
X75070000Y-127335000D01*
X80150000Y-127970000D02*
X75705000Y-127970000D01*
X80150000Y-125430000D02*
X80150000Y-127970000D01*
X75070000Y-125430000D02*
X80150000Y-125430000D01*
X75070000Y-127335000D02*
X75070000Y-125430000D01*
G04 #@! TO.C,J10*
X75220000Y-53515000D02*
X75220000Y-55420000D01*
X75220000Y-55420000D02*
X70140000Y-55420000D01*
X70140000Y-55420000D02*
X70140000Y-52880000D01*
X70140000Y-52880000D02*
X74585000Y-52880000D01*
X74585000Y-52880000D02*
X75220000Y-53515000D01*
G04 #@! TO.C,J11*
X177875000Y-118620000D02*
X178510000Y-119255000D01*
X173430000Y-118620000D02*
X177875000Y-118620000D01*
X173430000Y-121160000D02*
X173430000Y-118620000D01*
X178510000Y-121160000D02*
X173430000Y-121160000D01*
X178510000Y-119255000D02*
X178510000Y-121160000D01*
G04 #@! TO.C,J13*
X172740000Y-37155000D02*
X172105000Y-37790000D01*
X172740000Y-32710000D02*
X172740000Y-37155000D01*
X170200000Y-32710000D02*
X172740000Y-32710000D01*
X170200000Y-37790000D02*
X170200000Y-32710000D01*
X172105000Y-37790000D02*
X170200000Y-37790000D01*
G04 #@! TO.C,J14*
X93890000Y-40280000D02*
X95795000Y-40280000D01*
X95795000Y-40280000D02*
X95795000Y-45360000D01*
X95795000Y-45360000D02*
X93255000Y-45360000D01*
X93255000Y-45360000D02*
X93255000Y-40915000D01*
X93255000Y-40915000D02*
X93890000Y-40280000D01*
G04 #@! TO.C,J15*
X165000000Y-38000000D02*
X165000000Y-32250000D01*
X165000000Y-32250000D02*
X155100000Y-32250000D01*
X155100000Y-32250000D02*
X155100000Y-38000000D01*
X155100000Y-38000000D02*
X165000000Y-38000000D01*
X162900000Y-38400000D02*
X165400000Y-38400000D01*
X165400000Y-38400000D02*
X165400000Y-35900000D01*
G04 #@! TO.C,J17*
X169836000Y-101058000D02*
X169836000Y-95308000D01*
X169836000Y-95308000D02*
X154936000Y-95308000D01*
X154936000Y-95308000D02*
X154936000Y-101058000D01*
X154936000Y-101058000D02*
X169836000Y-101058000D01*
X167736000Y-101458000D02*
X170236000Y-101458000D01*
X170236000Y-101458000D02*
X170236000Y-98958000D01*
G04 #@! TO.C,L1*
X81150000Y-116070000D02*
G75*
G03X81150000Y-116070000I-4750000J0D01*
G01*
G04 #@! TO.C,L2*
X80275000Y-46600000D02*
G75*
G03X80275000Y-46600000I-4750000J0D01*
G01*
G04 #@! TO.C,Q1*
X179016000Y-80118000D02*
X179016000Y-76618000D01*
X179019625Y-76594375D02*
G75*
G03X174786000Y-78348000I-1753625J-1753625D01*
G01*
X179019625Y-80101625D02*
G75*
G02X174786000Y-78348000I-1753625J1753625D01*
G01*
G04 #@! TO.C,Q2*
X174406375Y-146613625D02*
G75*
G02X176160000Y-142380000I1753625J1753625D01*
G01*
X177913625Y-146613625D02*
G75*
G03X176160000Y-142380000I-1753625J1753625D01*
G01*
X174390000Y-146610000D02*
X177890000Y-146610000D01*
G04 #@! TO.C,Q3*
X179283625Y-43503625D02*
G75*
G02X175050000Y-41750000I-1753625J1753625D01*
G01*
X179283625Y-39996375D02*
G75*
G03X175050000Y-41750000I-1753625J-1753625D01*
G01*
X179280000Y-43520000D02*
X179280000Y-40020000D01*
G04 #@! TO.C,Q4*
X105636375Y-136173625D02*
G75*
G02X107390000Y-131940000I1753625J1753625D01*
G01*
X109143625Y-136173625D02*
G75*
G03X107390000Y-131940000I-1753625J1753625D01*
G01*
X105620000Y-136170000D02*
X109120000Y-136170000D01*
G04 #@! TO.C,R1*
X97125000Y-43115000D02*
X99625000Y-43115000D01*
X99625000Y-43115000D02*
X99625000Y-36815000D01*
X99625000Y-36815000D02*
X97125000Y-36815000D01*
X97125000Y-36815000D02*
X97125000Y-43115000D01*
X98375000Y-43775000D02*
X98375000Y-43115000D01*
X98375000Y-36155000D02*
X98375000Y-36815000D01*
G04 #@! TO.C,R2*
X73760000Y-121350000D02*
X71260000Y-121350000D01*
X71260000Y-121350000D02*
X71260000Y-127650000D01*
X71260000Y-127650000D02*
X73760000Y-127650000D01*
X73760000Y-127650000D02*
X73760000Y-121350000D01*
X72510000Y-120690000D02*
X72510000Y-121350000D01*
X72510000Y-128310000D02*
X72510000Y-127650000D01*
G04 #@! TO.C,R3*
X69000000Y-48560000D02*
X66500000Y-48560000D01*
X66500000Y-48560000D02*
X66500000Y-54860000D01*
X66500000Y-54860000D02*
X69000000Y-54860000D01*
X69000000Y-54860000D02*
X69000000Y-48560000D01*
X67750000Y-47900000D02*
X67750000Y-48560000D01*
X67750000Y-55520000D02*
X67750000Y-54860000D01*
G04 #@! TO.C,R4*
X165846000Y-76858000D02*
X166506000Y-76858000D01*
X173466000Y-76858000D02*
X172806000Y-76858000D01*
X166506000Y-78108000D02*
X172806000Y-78108000D01*
X166506000Y-75608000D02*
X166506000Y-78108000D01*
X172806000Y-75608000D02*
X166506000Y-75608000D01*
X172806000Y-78108000D02*
X172806000Y-75608000D01*
G04 #@! TO.C,R5*
X176330000Y-140370000D02*
X178830000Y-140370000D01*
X178830000Y-140370000D02*
X178830000Y-134070000D01*
X178830000Y-134070000D02*
X176330000Y-134070000D01*
X176330000Y-134070000D02*
X176330000Y-140370000D01*
X177580000Y-141030000D02*
X177580000Y-140370000D01*
X177580000Y-133410000D02*
X177580000Y-134070000D01*
G04 #@! TO.C,R6*
X172870000Y-42150000D02*
X172870000Y-39650000D01*
X172870000Y-39650000D02*
X166570000Y-39650000D01*
X166570000Y-39650000D02*
X166570000Y-42150000D01*
X166570000Y-42150000D02*
X172870000Y-42150000D01*
X173530000Y-40900000D02*
X172870000Y-40900000D01*
X165910000Y-40900000D02*
X166570000Y-40900000D01*
G04 #@! TO.C,R7*
X155470000Y-77300000D02*
X156130000Y-77300000D01*
X163090000Y-77300000D02*
X162430000Y-77300000D01*
X156130000Y-78550000D02*
X162430000Y-78550000D01*
X156130000Y-76050000D02*
X156130000Y-78550000D01*
X162430000Y-76050000D02*
X156130000Y-76050000D01*
X162430000Y-78550000D02*
X162430000Y-76050000D01*
G04 #@! TO.C,R8*
X176350000Y-130050000D02*
X178850000Y-130050000D01*
X178850000Y-130050000D02*
X178850000Y-123750000D01*
X178850000Y-123750000D02*
X176350000Y-123750000D01*
X176350000Y-123750000D02*
X176350000Y-130050000D01*
X177600000Y-130710000D02*
X177600000Y-130050000D01*
X177600000Y-123090000D02*
X177600000Y-123750000D01*
G04 #@! TO.C,R9*
X155630000Y-40910000D02*
X156290000Y-40910000D01*
X163250000Y-40910000D02*
X162590000Y-40910000D01*
X156290000Y-42160000D02*
X162590000Y-42160000D01*
X156290000Y-39660000D02*
X156290000Y-42160000D01*
X162590000Y-39660000D02*
X156290000Y-39660000D01*
X162590000Y-42160000D02*
X162590000Y-39660000D01*
G04 #@! TO.C,R10*
X136296000Y-119400000D02*
X136296000Y-121900000D01*
X136296000Y-121900000D02*
X142596000Y-121900000D01*
X142596000Y-121900000D02*
X142596000Y-119400000D01*
X142596000Y-119400000D02*
X136296000Y-119400000D01*
X135636000Y-120650000D02*
X136296000Y-120650000D01*
X143256000Y-120650000D02*
X142596000Y-120650000D01*
G04 #@! TO.C,R11*
X143256000Y-117348000D02*
X142596000Y-117348000D01*
X135636000Y-117348000D02*
X136296000Y-117348000D01*
X142596000Y-116098000D02*
X136296000Y-116098000D01*
X142596000Y-118598000D02*
X142596000Y-116098000D01*
X136296000Y-118598000D02*
X142596000Y-118598000D01*
X136296000Y-116098000D02*
X136296000Y-118598000D01*
G04 #@! TO.C,R12*
X101800000Y-128440000D02*
X101800000Y-130940000D01*
X101800000Y-130940000D02*
X108100000Y-130940000D01*
X108100000Y-130940000D02*
X108100000Y-128440000D01*
X108100000Y-128440000D02*
X101800000Y-128440000D01*
X101140000Y-129690000D02*
X101800000Y-129690000D01*
X108760000Y-129690000D02*
X108100000Y-129690000D01*
G04 #@! TO.C,R13*
X82130000Y-126410000D02*
X82790000Y-126410000D01*
X89750000Y-126410000D02*
X89090000Y-126410000D01*
X82790000Y-127660000D02*
X89090000Y-127660000D01*
X82790000Y-125160000D02*
X82790000Y-127660000D01*
X89090000Y-125160000D02*
X82790000Y-125160000D01*
X89090000Y-127660000D02*
X89090000Y-125160000D01*
G04 #@! TO.C,R14*
X98290000Y-112210000D02*
X98290000Y-112870000D01*
X98290000Y-119830000D02*
X98290000Y-119170000D01*
X97040000Y-112870000D02*
X97040000Y-119170000D01*
X99540000Y-112870000D02*
X97040000Y-112870000D01*
X99540000Y-119170000D02*
X99540000Y-112870000D01*
X97040000Y-119170000D02*
X99540000Y-119170000D01*
G04 #@! TO.C,R15*
X94420000Y-119190000D02*
X96920000Y-119190000D01*
X96920000Y-119190000D02*
X96920000Y-112890000D01*
X96920000Y-112890000D02*
X94420000Y-112890000D01*
X94420000Y-112890000D02*
X94420000Y-119190000D01*
X95670000Y-119850000D02*
X95670000Y-119190000D01*
X95670000Y-112230000D02*
X95670000Y-112890000D01*
G04 #@! TO.C,R16*
X91770000Y-119200000D02*
X94270000Y-119200000D01*
X94270000Y-119200000D02*
X94270000Y-112900000D01*
X94270000Y-112900000D02*
X91770000Y-112900000D01*
X91770000Y-112900000D02*
X91770000Y-119200000D01*
X93020000Y-119860000D02*
X93020000Y-119200000D01*
X93020000Y-112240000D02*
X93020000Y-112900000D01*
G04 #@! TO.C,R17*
X106170000Y-62840000D02*
X106170000Y-63500000D01*
X106170000Y-70460000D02*
X106170000Y-69800000D01*
X104920000Y-63500000D02*
X104920000Y-69800000D01*
X107420000Y-63500000D02*
X104920000Y-63500000D01*
X107420000Y-69800000D02*
X107420000Y-63500000D01*
X104920000Y-69800000D02*
X107420000Y-69800000D01*
G04 #@! TO.C,U1*
X81315000Y-38640000D02*
X81315000Y-32240000D01*
X81315000Y-32240000D02*
X91315000Y-32240000D01*
X91315000Y-32240000D02*
X91315000Y-38640000D01*
X91315000Y-38640000D02*
X81315000Y-38640000D01*
X81315000Y-47890000D02*
X81315000Y-38640000D01*
X81315000Y-38640000D02*
X91315000Y-38640000D01*
X91315000Y-38640000D02*
X91315000Y-47890000D01*
X91315000Y-47890000D02*
X81315000Y-47890000D01*
X83775000Y-47890000D02*
X83775000Y-51700000D01*
X86315000Y-47890000D02*
X86315000Y-51700000D01*
X88855000Y-47890000D02*
X88855000Y-51700000D01*
X88165000Y-35040000D02*
G75*
G03X88165000Y-35040000I-1850000J0D01*
G01*
G04 #@! TO.C,C5*
X98025000Y-54400000D02*
G75*
G03X98025000Y-54400000I-2500000J0D01*
G01*
X92075000Y-54400000D02*
X93275000Y-54400000D01*
X92675000Y-53750000D02*
X92675000Y-55050000D01*
G04 #@! TO.C,C26*
X79650000Y-36775000D02*
G75*
G03X79650000Y-36775000I-4000000J0D01*
G01*
X71700000Y-36775000D02*
X72900000Y-36775000D01*
X72300000Y-36125000D02*
X72300000Y-37425000D01*
G04 #@! TO.C,J12*
X127890000Y-38610000D02*
X127890000Y-36070000D01*
X117730000Y-38610000D02*
X127890000Y-38610000D01*
X117730000Y-36070000D02*
X117730000Y-38610000D01*
X127890000Y-36070000D02*
X117730000Y-36070000D01*
G04 #@! TD*
G04 #@! TO.C,C24*
D11*
X107465428Y-142786380D02*
X106894000Y-142786380D01*
X107179714Y-142786380D02*
X107179714Y-141786380D01*
X107084476Y-141929238D01*
X106989238Y-142024476D01*
X106894000Y-142072095D01*
X108084476Y-141786380D02*
X108179714Y-141786380D01*
X108274952Y-141834000D01*
X108322571Y-141881619D01*
X108370190Y-141976857D01*
X108417809Y-142167333D01*
X108417809Y-142405428D01*
X108370190Y-142595904D01*
X108322571Y-142691142D01*
X108274952Y-142738761D01*
X108179714Y-142786380D01*
X108084476Y-142786380D01*
X107989238Y-142738761D01*
X107941619Y-142691142D01*
X107894000Y-142595904D01*
X107846380Y-142405428D01*
X107846380Y-142167333D01*
X107894000Y-141976857D01*
X107941619Y-141881619D01*
X107989238Y-141834000D01*
X108084476Y-141786380D01*
X109274952Y-142119714D02*
X109274952Y-142786380D01*
X108846380Y-142119714D02*
X108846380Y-142643523D01*
X108894000Y-142738761D01*
X108989238Y-142786380D01*
X109132095Y-142786380D01*
X109227333Y-142738761D01*
X109274952Y-142691142D01*
X109608285Y-142119714D02*
X109989238Y-142119714D01*
X109751142Y-142786380D02*
X109751142Y-141929238D01*
X109798761Y-141834000D01*
X109894000Y-141786380D01*
X109989238Y-141786380D01*
G04 #@! TO.C,U2*
X112953809Y-29186666D02*
X113430000Y-29186666D01*
X112858571Y-29472380D02*
X113191904Y-28472380D01*
X113525238Y-29472380D01*
X113858571Y-29472380D02*
X113858571Y-28805714D01*
X113858571Y-28996190D02*
X113906190Y-28900952D01*
X113953809Y-28853333D01*
X114049047Y-28805714D01*
X114144285Y-28805714D01*
X114906190Y-29472380D02*
X114906190Y-28472380D01*
X114906190Y-29424761D02*
X114810952Y-29472380D01*
X114620476Y-29472380D01*
X114525238Y-29424761D01*
X114477619Y-29377142D01*
X114430000Y-29281904D01*
X114430000Y-28996190D01*
X114477619Y-28900952D01*
X114525238Y-28853333D01*
X114620476Y-28805714D01*
X114810952Y-28805714D01*
X114906190Y-28853333D01*
X115810952Y-28805714D02*
X115810952Y-29472380D01*
X115382380Y-28805714D02*
X115382380Y-29329523D01*
X115430000Y-29424761D01*
X115525238Y-29472380D01*
X115668095Y-29472380D01*
X115763333Y-29424761D01*
X115810952Y-29377142D01*
X116287142Y-29472380D02*
X116287142Y-28805714D01*
X116287142Y-28472380D02*
X116239523Y-28520000D01*
X116287142Y-28567619D01*
X116334761Y-28520000D01*
X116287142Y-28472380D01*
X116287142Y-28567619D01*
X116763333Y-28805714D02*
X116763333Y-29472380D01*
X116763333Y-28900952D02*
X116810952Y-28853333D01*
X116906190Y-28805714D01*
X117049047Y-28805714D01*
X117144285Y-28853333D01*
X117191904Y-28948571D01*
X117191904Y-29472380D01*
X117810952Y-29472380D02*
X117715714Y-29424761D01*
X117668095Y-29377142D01*
X117620476Y-29281904D01*
X117620476Y-28996190D01*
X117668095Y-28900952D01*
X117715714Y-28853333D01*
X117810952Y-28805714D01*
X117953809Y-28805714D01*
X118049047Y-28853333D01*
X118096666Y-28900952D01*
X118144285Y-28996190D01*
X118144285Y-29281904D01*
X118096666Y-29377142D01*
X118049047Y-29424761D01*
X117953809Y-29472380D01*
X117810952Y-29472380D01*
X118334761Y-29567619D02*
X119096666Y-29567619D01*
X119334761Y-29472380D02*
X119334761Y-28472380D01*
X119668095Y-29186666D01*
X120001428Y-28472380D01*
X120001428Y-29472380D01*
X120858571Y-29424761D02*
X120763333Y-29472380D01*
X120572857Y-29472380D01*
X120477619Y-29424761D01*
X120430000Y-29329523D01*
X120430000Y-28948571D01*
X120477619Y-28853333D01*
X120572857Y-28805714D01*
X120763333Y-28805714D01*
X120858571Y-28853333D01*
X120906190Y-28948571D01*
X120906190Y-29043809D01*
X120430000Y-29139047D01*
X121763333Y-28805714D02*
X121763333Y-29615238D01*
X121715714Y-29710476D01*
X121668095Y-29758095D01*
X121572857Y-29805714D01*
X121430000Y-29805714D01*
X121334761Y-29758095D01*
X121763333Y-29424761D02*
X121668095Y-29472380D01*
X121477619Y-29472380D01*
X121382380Y-29424761D01*
X121334761Y-29377142D01*
X121287142Y-29281904D01*
X121287142Y-28996190D01*
X121334761Y-28900952D01*
X121382380Y-28853333D01*
X121477619Y-28805714D01*
X121668095Y-28805714D01*
X121763333Y-28853333D01*
X122668095Y-29472380D02*
X122668095Y-28948571D01*
X122620476Y-28853333D01*
X122525238Y-28805714D01*
X122334761Y-28805714D01*
X122239523Y-28853333D01*
X122668095Y-29424761D02*
X122572857Y-29472380D01*
X122334761Y-29472380D01*
X122239523Y-29424761D01*
X122191904Y-29329523D01*
X122191904Y-29234285D01*
X122239523Y-29139047D01*
X122334761Y-29091428D01*
X122572857Y-29091428D01*
X122668095Y-29043809D01*
X123096666Y-28567619D02*
X123144285Y-28520000D01*
X123239523Y-28472380D01*
X123477619Y-28472380D01*
X123572857Y-28520000D01*
X123620476Y-28567619D01*
X123668095Y-28662857D01*
X123668095Y-28758095D01*
X123620476Y-28900952D01*
X123049047Y-29472380D01*
X123668095Y-29472380D01*
X124572857Y-28472380D02*
X124096666Y-28472380D01*
X124049047Y-28948571D01*
X124096666Y-28900952D01*
X124191904Y-28853333D01*
X124430000Y-28853333D01*
X124525238Y-28900952D01*
X124572857Y-28948571D01*
X124620476Y-29043809D01*
X124620476Y-29281904D01*
X124572857Y-29377142D01*
X124525238Y-29424761D01*
X124430000Y-29472380D01*
X124191904Y-29472380D01*
X124096666Y-29424761D01*
X124049047Y-29377142D01*
X125477619Y-28472380D02*
X125287142Y-28472380D01*
X125191904Y-28520000D01*
X125144285Y-28567619D01*
X125049047Y-28710476D01*
X125001428Y-28900952D01*
X125001428Y-29281904D01*
X125049047Y-29377142D01*
X125096666Y-29424761D01*
X125191904Y-29472380D01*
X125382380Y-29472380D01*
X125477619Y-29424761D01*
X125525238Y-29377142D01*
X125572857Y-29281904D01*
X125572857Y-29043809D01*
X125525238Y-28948571D01*
X125477619Y-28900952D01*
X125382380Y-28853333D01*
X125191904Y-28853333D01*
X125096666Y-28900952D01*
X125049047Y-28948571D01*
X125001428Y-29043809D01*
X126191904Y-28472380D02*
X126287142Y-28472380D01*
X126382380Y-28520000D01*
X126429999Y-28567619D01*
X126477619Y-28662857D01*
X126525238Y-28853333D01*
X126525238Y-29091428D01*
X126477619Y-29281904D01*
X126429999Y-29377142D01*
X126382380Y-29424761D01*
X126287142Y-29472380D01*
X126191904Y-29472380D01*
X126096666Y-29424761D01*
X126049047Y-29377142D01*
X126001428Y-29281904D01*
X125953809Y-29091428D01*
X125953809Y-28853333D01*
X126001428Y-28662857D01*
X126049047Y-28567619D01*
X126096666Y-28520000D01*
X126191904Y-28472380D01*
X126715714Y-29567619D02*
X127477619Y-29567619D01*
X127668095Y-29424761D02*
X127810952Y-29472380D01*
X128049047Y-29472380D01*
X128144285Y-29424761D01*
X128191904Y-29377142D01*
X128239523Y-29281904D01*
X128239523Y-29186666D01*
X128191904Y-29091428D01*
X128144285Y-29043809D01*
X128049047Y-28996190D01*
X127858571Y-28948571D01*
X127763333Y-28900952D01*
X127715714Y-28853333D01*
X127668095Y-28758095D01*
X127668095Y-28662857D01*
X127715714Y-28567619D01*
X127763333Y-28520000D01*
X127858571Y-28472380D01*
X128096666Y-28472380D01*
X128239523Y-28520000D01*
X128668095Y-29472380D02*
X128668095Y-28472380D01*
X129096666Y-29472380D02*
X129096666Y-28948571D01*
X129049047Y-28853333D01*
X128953809Y-28805714D01*
X128810952Y-28805714D01*
X128715714Y-28853333D01*
X128668095Y-28900952D01*
X129572857Y-29472380D02*
X129572857Y-28805714D01*
X129572857Y-28472380D02*
X129525238Y-28520000D01*
X129572857Y-28567619D01*
X129620476Y-28520000D01*
X129572857Y-28472380D01*
X129572857Y-28567619D01*
X130429999Y-29424761D02*
X130334761Y-29472380D01*
X130144285Y-29472380D01*
X130049047Y-29424761D01*
X130001428Y-29329523D01*
X130001428Y-28948571D01*
X130049047Y-28853333D01*
X130144285Y-28805714D01*
X130334761Y-28805714D01*
X130429999Y-28853333D01*
X130477619Y-28948571D01*
X130477619Y-29043809D01*
X130001428Y-29139047D01*
X131049047Y-29472380D02*
X130953809Y-29424761D01*
X130906190Y-29329523D01*
X130906190Y-28472380D01*
X131858571Y-29472380D02*
X131858571Y-28472380D01*
X131858571Y-29424761D02*
X131763333Y-29472380D01*
X131572857Y-29472380D01*
X131477619Y-29424761D01*
X131429999Y-29377142D01*
X131382380Y-29281904D01*
X131382380Y-28996190D01*
X131429999Y-28900952D01*
X131477619Y-28853333D01*
X131572857Y-28805714D01*
X131763333Y-28805714D01*
X131858571Y-28853333D01*
G04 #@! TO.C,D5*
X93166190Y-127320380D02*
X92690000Y-127320380D01*
X92690000Y-126320380D01*
X93499523Y-126796571D02*
X93832857Y-126796571D01*
X93975714Y-127320380D02*
X93499523Y-127320380D01*
X93499523Y-126320380D01*
X93975714Y-126320380D01*
X94404285Y-127320380D02*
X94404285Y-126320380D01*
X94642380Y-126320380D01*
X94785238Y-126368000D01*
X94880476Y-126463238D01*
X94928095Y-126558476D01*
X94975714Y-126748952D01*
X94975714Y-126891809D01*
X94928095Y-127082285D01*
X94880476Y-127177523D01*
X94785238Y-127272761D01*
X94642380Y-127320380D01*
X94404285Y-127320380D01*
X95166190Y-127415619D02*
X95928095Y-127415619D01*
X96737619Y-127225142D02*
X96690000Y-127272761D01*
X96547142Y-127320380D01*
X96451904Y-127320380D01*
X96309047Y-127272761D01*
X96213809Y-127177523D01*
X96166190Y-127082285D01*
X96118571Y-126891809D01*
X96118571Y-126748952D01*
X96166190Y-126558476D01*
X96213809Y-126463238D01*
X96309047Y-126368000D01*
X96451904Y-126320380D01*
X96547142Y-126320380D01*
X96690000Y-126368000D01*
X96737619Y-126415619D01*
X97737619Y-127320380D02*
X97404285Y-126844190D01*
X97166190Y-127320380D02*
X97166190Y-126320380D01*
X97547142Y-126320380D01*
X97642380Y-126368000D01*
X97690000Y-126415619D01*
X97737619Y-126510857D01*
X97737619Y-126653714D01*
X97690000Y-126748952D01*
X97642380Y-126796571D01*
X97547142Y-126844190D01*
X97166190Y-126844190D01*
X98690000Y-126368000D02*
X98594761Y-126320380D01*
X98451904Y-126320380D01*
X98309047Y-126368000D01*
X98213809Y-126463238D01*
X98166190Y-126558476D01*
X98118571Y-126748952D01*
X98118571Y-126891809D01*
X98166190Y-127082285D01*
X98213809Y-127177523D01*
X98309047Y-127272761D01*
X98451904Y-127320380D01*
X98547142Y-127320380D01*
X98690000Y-127272761D01*
X98737619Y-127225142D01*
X98737619Y-126891809D01*
X98547142Y-126891809D01*
X99499523Y-126796571D02*
X99642380Y-126844190D01*
X99690000Y-126891809D01*
X99737619Y-126987047D01*
X99737619Y-127129904D01*
X99690000Y-127225142D01*
X99642380Y-127272761D01*
X99547142Y-127320380D01*
X99166190Y-127320380D01*
X99166190Y-126320380D01*
X99499523Y-126320380D01*
X99594761Y-126368000D01*
X99642380Y-126415619D01*
X99690000Y-126510857D01*
X99690000Y-126606095D01*
X99642380Y-126701333D01*
X99594761Y-126748952D01*
X99499523Y-126796571D01*
X99166190Y-126796571D01*
G04 #@! TO.C,J8*
X137704571Y-130428380D02*
X137704571Y-131237904D01*
X137752190Y-131333142D01*
X137799809Y-131380761D01*
X137895047Y-131428380D01*
X138085523Y-131428380D01*
X138180761Y-131380761D01*
X138228380Y-131333142D01*
X138276000Y-131237904D01*
X138276000Y-130428380D01*
X138704571Y-131380761D02*
X138847428Y-131428380D01*
X139085523Y-131428380D01*
X139180761Y-131380761D01*
X139228380Y-131333142D01*
X139276000Y-131237904D01*
X139276000Y-131142666D01*
X139228380Y-131047428D01*
X139180761Y-130999809D01*
X139085523Y-130952190D01*
X138895047Y-130904571D01*
X138799809Y-130856952D01*
X138752190Y-130809333D01*
X138704571Y-130714095D01*
X138704571Y-130618857D01*
X138752190Y-130523619D01*
X138799809Y-130476000D01*
X138895047Y-130428380D01*
X139133142Y-130428380D01*
X139276000Y-130476000D01*
X140037904Y-130904571D02*
X140180761Y-130952190D01*
X140228380Y-130999809D01*
X140276000Y-131095047D01*
X140276000Y-131237904D01*
X140228380Y-131333142D01*
X140180761Y-131380761D01*
X140085523Y-131428380D01*
X139704571Y-131428380D01*
X139704571Y-130428380D01*
X140037904Y-130428380D01*
X140133142Y-130476000D01*
X140180761Y-130523619D01*
X140228380Y-130618857D01*
X140228380Y-130714095D01*
X140180761Y-130809333D01*
X140133142Y-130856952D01*
X140037904Y-130904571D01*
X139704571Y-130904571D01*
X140466476Y-131523619D02*
X141228380Y-131523619D01*
X141418857Y-131142666D02*
X141895047Y-131142666D01*
X141323619Y-131428380D02*
X141656952Y-130428380D01*
X141990285Y-131428380D01*
G04 #@! TO.C,J18*
X158786380Y-136857428D02*
X159595904Y-136857428D01*
X159691142Y-136809809D01*
X159738761Y-136762190D01*
X159786380Y-136666952D01*
X159786380Y-136476476D01*
X159738761Y-136381238D01*
X159691142Y-136333619D01*
X159595904Y-136286000D01*
X158786380Y-136286000D01*
X159738761Y-135857428D02*
X159786380Y-135714571D01*
X159786380Y-135476476D01*
X159738761Y-135381238D01*
X159691142Y-135333619D01*
X159595904Y-135286000D01*
X159500666Y-135286000D01*
X159405428Y-135333619D01*
X159357809Y-135381238D01*
X159310190Y-135476476D01*
X159262571Y-135666952D01*
X159214952Y-135762190D01*
X159167333Y-135809809D01*
X159072095Y-135857428D01*
X158976857Y-135857428D01*
X158881619Y-135809809D01*
X158834000Y-135762190D01*
X158786380Y-135666952D01*
X158786380Y-135428857D01*
X158834000Y-135286000D01*
X159262571Y-134524095D02*
X159310190Y-134381238D01*
X159357809Y-134333619D01*
X159453047Y-134286000D01*
X159595904Y-134286000D01*
X159691142Y-134333619D01*
X159738761Y-134381238D01*
X159786380Y-134476476D01*
X159786380Y-134857428D01*
X158786380Y-134857428D01*
X158786380Y-134524095D01*
X158834000Y-134428857D01*
X158881619Y-134381238D01*
X158976857Y-134333619D01*
X159072095Y-134333619D01*
X159167333Y-134381238D01*
X159214952Y-134428857D01*
X159262571Y-134524095D01*
X159262571Y-134857428D01*
X159881619Y-134095523D02*
X159881619Y-133333619D01*
X159500666Y-133143142D02*
X159500666Y-132666952D01*
X159786380Y-133238380D02*
X158786380Y-132905047D01*
X159786380Y-132571714D01*
G04 #@! TO.C,J19*
X122972571Y-129920380D02*
X122972571Y-130729904D01*
X123020190Y-130825142D01*
X123067809Y-130872761D01*
X123163047Y-130920380D01*
X123353523Y-130920380D01*
X123448761Y-130872761D01*
X123496380Y-130825142D01*
X123544000Y-130729904D01*
X123544000Y-129920380D01*
X123972571Y-130872761D02*
X124115428Y-130920380D01*
X124353523Y-130920380D01*
X124448761Y-130872761D01*
X124496380Y-130825142D01*
X124544000Y-130729904D01*
X124544000Y-130634666D01*
X124496380Y-130539428D01*
X124448761Y-130491809D01*
X124353523Y-130444190D01*
X124163047Y-130396571D01*
X124067809Y-130348952D01*
X124020190Y-130301333D01*
X123972571Y-130206095D01*
X123972571Y-130110857D01*
X124020190Y-130015619D01*
X124067809Y-129968000D01*
X124163047Y-129920380D01*
X124401142Y-129920380D01*
X124544000Y-129968000D01*
X125305904Y-130396571D02*
X125448761Y-130444190D01*
X125496380Y-130491809D01*
X125544000Y-130587047D01*
X125544000Y-130729904D01*
X125496380Y-130825142D01*
X125448761Y-130872761D01*
X125353523Y-130920380D01*
X124972571Y-130920380D01*
X124972571Y-129920380D01*
X125305904Y-129920380D01*
X125401142Y-129968000D01*
X125448761Y-130015619D01*
X125496380Y-130110857D01*
X125496380Y-130206095D01*
X125448761Y-130301333D01*
X125401142Y-130348952D01*
X125305904Y-130396571D01*
X124972571Y-130396571D01*
X125734476Y-131015619D02*
X126496380Y-131015619D01*
X126686857Y-130634666D02*
X127163047Y-130634666D01*
X126591619Y-130920380D02*
X126924952Y-129920380D01*
X127258285Y-130920380D01*
G04 #@! TO.C,C34*
X105483333Y-56742380D02*
X104911904Y-56742380D01*
X105197619Y-56742380D02*
X105197619Y-55742380D01*
X105102380Y-55885238D01*
X105007142Y-55980476D01*
X104911904Y-56028095D01*
X106102380Y-55742380D02*
X106197619Y-55742380D01*
X106292857Y-55790000D01*
X106340476Y-55837619D01*
X106388095Y-55932857D01*
X106435714Y-56123333D01*
X106435714Y-56361428D01*
X106388095Y-56551904D01*
X106340476Y-56647142D01*
X106292857Y-56694761D01*
X106197619Y-56742380D01*
X106102380Y-56742380D01*
X106007142Y-56694761D01*
X105959523Y-56647142D01*
X105911904Y-56551904D01*
X105864285Y-56361428D01*
X105864285Y-56123333D01*
X105911904Y-55932857D01*
X105959523Y-55837619D01*
X106007142Y-55790000D01*
X106102380Y-55742380D01*
X107292857Y-56075714D02*
X107292857Y-56742380D01*
X107054761Y-55694761D02*
X106816666Y-56409047D01*
X107435714Y-56409047D01*
G04 #@! TO.C,D13*
X105522380Y-138281904D02*
X104522380Y-138281904D01*
X104522380Y-138043809D01*
X104570000Y-137900952D01*
X104665238Y-137805714D01*
X104760476Y-137758095D01*
X104950952Y-137710476D01*
X105093809Y-137710476D01*
X105284285Y-137758095D01*
X105379523Y-137805714D01*
X105474761Y-137900952D01*
X105522380Y-138043809D01*
X105522380Y-138281904D01*
G04 #@! TO.C,J3*
X70332380Y-138789523D02*
X69332380Y-138789523D01*
X69332380Y-138408571D01*
X69380000Y-138313333D01*
X69427619Y-138265714D01*
X69522857Y-138218095D01*
X69665714Y-138218095D01*
X69760952Y-138265714D01*
X69808571Y-138313333D01*
X69856190Y-138408571D01*
X69856190Y-138789523D01*
X69332380Y-137599047D02*
X69332380Y-137408571D01*
X69380000Y-137313333D01*
X69475238Y-137218095D01*
X69665714Y-137170476D01*
X69999047Y-137170476D01*
X70189523Y-137218095D01*
X70284761Y-137313333D01*
X70332380Y-137408571D01*
X70332380Y-137599047D01*
X70284761Y-137694285D01*
X70189523Y-137789523D01*
X69999047Y-137837142D01*
X69665714Y-137837142D01*
X69475238Y-137789523D01*
X69380000Y-137694285D01*
X69332380Y-137599047D01*
X69332380Y-136837142D02*
X70332380Y-136599047D01*
X69618095Y-136408571D01*
X70332380Y-136218095D01*
X69332380Y-135980000D01*
X69808571Y-135599047D02*
X69808571Y-135265714D01*
X70332380Y-135122857D02*
X70332380Y-135599047D01*
X69332380Y-135599047D01*
X69332380Y-135122857D01*
X70332380Y-134122857D02*
X69856190Y-134456190D01*
X70332380Y-134694285D02*
X69332380Y-134694285D01*
X69332380Y-134313333D01*
X69380000Y-134218095D01*
X69427619Y-134170476D01*
X69522857Y-134122857D01*
X69665714Y-134122857D01*
X69760952Y-134170476D01*
X69808571Y-134218095D01*
X69856190Y-134313333D01*
X69856190Y-134694285D01*
X67332380Y-136813333D02*
X68046666Y-136813333D01*
X68189523Y-136860952D01*
X68284761Y-136956190D01*
X68332380Y-137099047D01*
X68332380Y-137194285D01*
X67332380Y-136432380D02*
X67332380Y-135813333D01*
X67713333Y-136146666D01*
X67713333Y-136003809D01*
X67760952Y-135908571D01*
X67808571Y-135860952D01*
X67903809Y-135813333D01*
X68141904Y-135813333D01*
X68237142Y-135860952D01*
X68284761Y-135908571D01*
X68332380Y-136003809D01*
X68332380Y-136289523D01*
X68284761Y-136384761D01*
X68237142Y-136432380D01*
G04 #@! TO.C,C1*
X88335047Y-110920380D02*
X87763619Y-110920380D01*
X88049333Y-110920380D02*
X88049333Y-109920380D01*
X87954095Y-110063238D01*
X87858857Y-110158476D01*
X87763619Y-110206095D01*
X88954095Y-109920380D02*
X89049333Y-109920380D01*
X89144571Y-109968000D01*
X89192190Y-110015619D01*
X89239809Y-110110857D01*
X89287428Y-110301333D01*
X89287428Y-110539428D01*
X89239809Y-110729904D01*
X89192190Y-110825142D01*
X89144571Y-110872761D01*
X89049333Y-110920380D01*
X88954095Y-110920380D01*
X88858857Y-110872761D01*
X88811238Y-110825142D01*
X88763619Y-110729904D01*
X88716000Y-110539428D01*
X88716000Y-110301333D01*
X88763619Y-110110857D01*
X88811238Y-110015619D01*
X88858857Y-109968000D01*
X88954095Y-109920380D01*
X89906476Y-109920380D02*
X90001714Y-109920380D01*
X90096952Y-109968000D01*
X90144571Y-110015619D01*
X90192190Y-110110857D01*
X90239809Y-110301333D01*
X90239809Y-110539428D01*
X90192190Y-110729904D01*
X90144571Y-110825142D01*
X90096952Y-110872761D01*
X90001714Y-110920380D01*
X89906476Y-110920380D01*
X89811238Y-110872761D01*
X89763619Y-110825142D01*
X89716000Y-110729904D01*
X89668380Y-110539428D01*
X89668380Y-110301333D01*
X89716000Y-110110857D01*
X89763619Y-110015619D01*
X89811238Y-109968000D01*
X89906476Y-109920380D01*
X90858857Y-109920380D02*
X90954095Y-109920380D01*
X91049333Y-109968000D01*
X91096952Y-110015619D01*
X91144571Y-110110857D01*
X91192190Y-110301333D01*
X91192190Y-110539428D01*
X91144571Y-110729904D01*
X91096952Y-110825142D01*
X91049333Y-110872761D01*
X90954095Y-110920380D01*
X90858857Y-110920380D01*
X90763619Y-110872761D01*
X90716000Y-110825142D01*
X90668380Y-110729904D01*
X90620761Y-110539428D01*
X90620761Y-110301333D01*
X90668380Y-110110857D01*
X90716000Y-110015619D01*
X90763619Y-109968000D01*
X90858857Y-109920380D01*
X92049333Y-110253714D02*
X92049333Y-110920380D01*
X91620761Y-110253714D02*
X91620761Y-110777523D01*
X91668380Y-110872761D01*
X91763619Y-110920380D01*
X91906476Y-110920380D01*
X92001714Y-110872761D01*
X92049333Y-110825142D01*
X92382666Y-110253714D02*
X92763619Y-110253714D01*
X92525523Y-110920380D02*
X92525523Y-110063238D01*
X92573142Y-109968000D01*
X92668380Y-109920380D01*
X92763619Y-109920380D01*
G04 #@! TO.C,C2*
X88063333Y-65072380D02*
X87491904Y-65072380D01*
X87777619Y-65072380D02*
X87777619Y-64072380D01*
X87682380Y-64215238D01*
X87587142Y-64310476D01*
X87491904Y-64358095D01*
X88682380Y-64072380D02*
X88777619Y-64072380D01*
X88872857Y-64120000D01*
X88920476Y-64167619D01*
X88968095Y-64262857D01*
X89015714Y-64453333D01*
X89015714Y-64691428D01*
X88968095Y-64881904D01*
X88920476Y-64977142D01*
X88872857Y-65024761D01*
X88777619Y-65072380D01*
X88682380Y-65072380D01*
X88587142Y-65024761D01*
X88539523Y-64977142D01*
X88491904Y-64881904D01*
X88444285Y-64691428D01*
X88444285Y-64453333D01*
X88491904Y-64262857D01*
X88539523Y-64167619D01*
X88587142Y-64120000D01*
X88682380Y-64072380D01*
X89872857Y-64405714D02*
X89872857Y-65072380D01*
X89634761Y-64024761D02*
X89396666Y-64739047D01*
X90015714Y-64739047D01*
G04 #@! TO.C,C3*
X93665238Y-110062380D02*
X93093809Y-110062380D01*
X93379523Y-110062380D02*
X93379523Y-109062380D01*
X93284285Y-109205238D01*
X93189047Y-109300476D01*
X93093809Y-109348095D01*
X94284285Y-109062380D02*
X94379523Y-109062380D01*
X94474761Y-109110000D01*
X94522380Y-109157619D01*
X94570000Y-109252857D01*
X94617619Y-109443333D01*
X94617619Y-109681428D01*
X94570000Y-109871904D01*
X94522380Y-109967142D01*
X94474761Y-110014761D01*
X94379523Y-110062380D01*
X94284285Y-110062380D01*
X94189047Y-110014761D01*
X94141428Y-109967142D01*
X94093809Y-109871904D01*
X94046190Y-109681428D01*
X94046190Y-109443333D01*
X94093809Y-109252857D01*
X94141428Y-109157619D01*
X94189047Y-109110000D01*
X94284285Y-109062380D01*
X95236666Y-109062380D02*
X95331904Y-109062380D01*
X95427142Y-109110000D01*
X95474761Y-109157619D01*
X95522380Y-109252857D01*
X95570000Y-109443333D01*
X95570000Y-109681428D01*
X95522380Y-109871904D01*
X95474761Y-109967142D01*
X95427142Y-110014761D01*
X95331904Y-110062380D01*
X95236666Y-110062380D01*
X95141428Y-110014761D01*
X95093809Y-109967142D01*
X95046190Y-109871904D01*
X94998571Y-109681428D01*
X94998571Y-109443333D01*
X95046190Y-109252857D01*
X95093809Y-109157619D01*
X95141428Y-109110000D01*
X95236666Y-109062380D01*
X96427142Y-109395714D02*
X96427142Y-110062380D01*
X95998571Y-109395714D02*
X95998571Y-109919523D01*
X96046190Y-110014761D01*
X96141428Y-110062380D01*
X96284285Y-110062380D01*
X96379523Y-110014761D01*
X96427142Y-109967142D01*
X96760476Y-109395714D02*
X97141428Y-109395714D01*
X96903333Y-110062380D02*
X96903333Y-109205238D01*
X96950952Y-109110000D01*
X97046190Y-109062380D01*
X97141428Y-109062380D01*
G04 #@! TO.C,C4*
X169081333Y-75040380D02*
X168509904Y-75040380D01*
X168795619Y-75040380D02*
X168795619Y-74040380D01*
X168700380Y-74183238D01*
X168605142Y-74278476D01*
X168509904Y-74326095D01*
X169700380Y-74040380D02*
X169795619Y-74040380D01*
X169890857Y-74088000D01*
X169938476Y-74135619D01*
X169986095Y-74230857D01*
X170033714Y-74421333D01*
X170033714Y-74659428D01*
X169986095Y-74849904D01*
X169938476Y-74945142D01*
X169890857Y-74992761D01*
X169795619Y-75040380D01*
X169700380Y-75040380D01*
X169605142Y-74992761D01*
X169557523Y-74945142D01*
X169509904Y-74849904D01*
X169462285Y-74659428D01*
X169462285Y-74421333D01*
X169509904Y-74230857D01*
X169557523Y-74135619D01*
X169605142Y-74088000D01*
X169700380Y-74040380D01*
X170890857Y-74373714D02*
X170890857Y-75040380D01*
X170652761Y-73992761D02*
X170414666Y-74707047D01*
X171033714Y-74707047D01*
G04 #@! TO.C,C6*
X108730380Y-74854666D02*
X108730380Y-75426095D01*
X108730380Y-75140380D02*
X107730380Y-75140380D01*
X107873238Y-75235619D01*
X107968476Y-75330857D01*
X108016095Y-75426095D01*
X107730380Y-74235619D02*
X107730380Y-74140380D01*
X107778000Y-74045142D01*
X107825619Y-73997523D01*
X107920857Y-73949904D01*
X108111333Y-73902285D01*
X108349428Y-73902285D01*
X108539904Y-73949904D01*
X108635142Y-73997523D01*
X108682761Y-74045142D01*
X108730380Y-74140380D01*
X108730380Y-74235619D01*
X108682761Y-74330857D01*
X108635142Y-74378476D01*
X108539904Y-74426095D01*
X108349428Y-74473714D01*
X108111333Y-74473714D01*
X107920857Y-74426095D01*
X107825619Y-74378476D01*
X107778000Y-74330857D01*
X107730380Y-74235619D01*
X108063714Y-73045142D02*
X108730380Y-73045142D01*
X107682761Y-73283238D02*
X108397047Y-73521333D01*
X108397047Y-72902285D01*
G04 #@! TO.C,C8*
X154706380Y-71190666D02*
X154706380Y-71762095D01*
X154706380Y-71476380D02*
X153706380Y-71476380D01*
X153849238Y-71571619D01*
X153944476Y-71666857D01*
X153992095Y-71762095D01*
X153706380Y-70571619D02*
X153706380Y-70476380D01*
X153754000Y-70381142D01*
X153801619Y-70333523D01*
X153896857Y-70285904D01*
X154087333Y-70238285D01*
X154325428Y-70238285D01*
X154515904Y-70285904D01*
X154611142Y-70333523D01*
X154658761Y-70381142D01*
X154706380Y-70476380D01*
X154706380Y-70571619D01*
X154658761Y-70666857D01*
X154611142Y-70714476D01*
X154515904Y-70762095D01*
X154325428Y-70809714D01*
X154087333Y-70809714D01*
X153896857Y-70762095D01*
X153801619Y-70714476D01*
X153754000Y-70666857D01*
X153706380Y-70571619D01*
X154039714Y-69381142D02*
X154706380Y-69381142D01*
X153658761Y-69619238D02*
X154373047Y-69857333D01*
X154373047Y-69238285D01*
G04 #@! TO.C,C9*
X157651333Y-145652380D02*
X157079904Y-145652380D01*
X157365619Y-145652380D02*
X157365619Y-144652380D01*
X157270380Y-144795238D01*
X157175142Y-144890476D01*
X157079904Y-144938095D01*
X158270380Y-144652380D02*
X158365619Y-144652380D01*
X158460857Y-144700000D01*
X158508476Y-144747619D01*
X158556095Y-144842857D01*
X158603714Y-145033333D01*
X158603714Y-145271428D01*
X158556095Y-145461904D01*
X158508476Y-145557142D01*
X158460857Y-145604761D01*
X158365619Y-145652380D01*
X158270380Y-145652380D01*
X158175142Y-145604761D01*
X158127523Y-145557142D01*
X158079904Y-145461904D01*
X158032285Y-145271428D01*
X158032285Y-145033333D01*
X158079904Y-144842857D01*
X158127523Y-144747619D01*
X158175142Y-144700000D01*
X158270380Y-144652380D01*
X159460857Y-144985714D02*
X159460857Y-145652380D01*
X159222761Y-144604761D02*
X158984666Y-145319047D01*
X159603714Y-145319047D01*
G04 #@! TO.C,C13*
X130219333Y-131174380D02*
X129647904Y-131174380D01*
X129933619Y-131174380D02*
X129933619Y-130174380D01*
X129838380Y-130317238D01*
X129743142Y-130412476D01*
X129647904Y-130460095D01*
X130838380Y-130174380D02*
X130933619Y-130174380D01*
X131028857Y-130222000D01*
X131076476Y-130269619D01*
X131124095Y-130364857D01*
X131171714Y-130555333D01*
X131171714Y-130793428D01*
X131124095Y-130983904D01*
X131076476Y-131079142D01*
X131028857Y-131126761D01*
X130933619Y-131174380D01*
X130838380Y-131174380D01*
X130743142Y-131126761D01*
X130695523Y-131079142D01*
X130647904Y-130983904D01*
X130600285Y-130793428D01*
X130600285Y-130555333D01*
X130647904Y-130364857D01*
X130695523Y-130269619D01*
X130743142Y-130222000D01*
X130838380Y-130174380D01*
X132028857Y-130507714D02*
X132028857Y-131174380D01*
X131790761Y-130126761D02*
X131552666Y-130841047D01*
X132171714Y-130841047D01*
G04 #@! TO.C,C14*
X169403333Y-114692380D02*
X168831904Y-114692380D01*
X169117619Y-114692380D02*
X169117619Y-113692380D01*
X169022380Y-113835238D01*
X168927142Y-113930476D01*
X168831904Y-113978095D01*
X170022380Y-113692380D02*
X170117619Y-113692380D01*
X170212857Y-113740000D01*
X170260476Y-113787619D01*
X170308095Y-113882857D01*
X170355714Y-114073333D01*
X170355714Y-114311428D01*
X170308095Y-114501904D01*
X170260476Y-114597142D01*
X170212857Y-114644761D01*
X170117619Y-114692380D01*
X170022380Y-114692380D01*
X169927142Y-114644761D01*
X169879523Y-114597142D01*
X169831904Y-114501904D01*
X169784285Y-114311428D01*
X169784285Y-114073333D01*
X169831904Y-113882857D01*
X169879523Y-113787619D01*
X169927142Y-113740000D01*
X170022380Y-113692380D01*
X171212857Y-114025714D02*
X171212857Y-114692380D01*
X170974761Y-113644761D02*
X170736666Y-114359047D01*
X171355714Y-114359047D01*
G04 #@! TO.C,C15*
X175375333Y-114424380D02*
X174803904Y-114424380D01*
X175089619Y-114424380D02*
X175089619Y-113424380D01*
X174994380Y-113567238D01*
X174899142Y-113662476D01*
X174803904Y-113710095D01*
X175994380Y-113424380D02*
X176089619Y-113424380D01*
X176184857Y-113472000D01*
X176232476Y-113519619D01*
X176280095Y-113614857D01*
X176327714Y-113805333D01*
X176327714Y-114043428D01*
X176280095Y-114233904D01*
X176232476Y-114329142D01*
X176184857Y-114376761D01*
X176089619Y-114424380D01*
X175994380Y-114424380D01*
X175899142Y-114376761D01*
X175851523Y-114329142D01*
X175803904Y-114233904D01*
X175756285Y-114043428D01*
X175756285Y-113805333D01*
X175803904Y-113614857D01*
X175851523Y-113519619D01*
X175899142Y-113472000D01*
X175994380Y-113424380D01*
X177184857Y-113757714D02*
X177184857Y-114424380D01*
X176946761Y-113376761D02*
X176708666Y-114091047D01*
X177327714Y-114091047D01*
G04 #@! TO.C,C16*
X166795333Y-37702380D02*
X166223904Y-37702380D01*
X166509619Y-37702380D02*
X166509619Y-36702380D01*
X166414380Y-36845238D01*
X166319142Y-36940476D01*
X166223904Y-36988095D01*
X167414380Y-36702380D02*
X167509619Y-36702380D01*
X167604857Y-36750000D01*
X167652476Y-36797619D01*
X167700095Y-36892857D01*
X167747714Y-37083333D01*
X167747714Y-37321428D01*
X167700095Y-37511904D01*
X167652476Y-37607142D01*
X167604857Y-37654761D01*
X167509619Y-37702380D01*
X167414380Y-37702380D01*
X167319142Y-37654761D01*
X167271523Y-37607142D01*
X167223904Y-37511904D01*
X167176285Y-37321428D01*
X167176285Y-37083333D01*
X167223904Y-36892857D01*
X167271523Y-36797619D01*
X167319142Y-36750000D01*
X167414380Y-36702380D01*
X168604857Y-37035714D02*
X168604857Y-37702380D01*
X168366761Y-36654761D02*
X168128666Y-37369047D01*
X168747714Y-37369047D01*
G04 #@! TO.C,C21*
X104791333Y-139318380D02*
X104219904Y-139318380D01*
X104505619Y-139318380D02*
X104505619Y-138318380D01*
X104410380Y-138461238D01*
X104315142Y-138556476D01*
X104219904Y-138604095D01*
X105410380Y-138318380D02*
X105505619Y-138318380D01*
X105600857Y-138366000D01*
X105648476Y-138413619D01*
X105696095Y-138508857D01*
X105743714Y-138699333D01*
X105743714Y-138937428D01*
X105696095Y-139127904D01*
X105648476Y-139223142D01*
X105600857Y-139270761D01*
X105505619Y-139318380D01*
X105410380Y-139318380D01*
X105315142Y-139270761D01*
X105267523Y-139223142D01*
X105219904Y-139127904D01*
X105172285Y-138937428D01*
X105172285Y-138699333D01*
X105219904Y-138508857D01*
X105267523Y-138413619D01*
X105315142Y-138366000D01*
X105410380Y-138318380D01*
X106600857Y-138651714D02*
X106600857Y-139318380D01*
X106362761Y-138270761D02*
X106124666Y-138985047D01*
X106743714Y-138985047D01*
G04 #@! TO.C,C22*
X95073333Y-112192380D02*
X94501904Y-112192380D01*
X94787619Y-112192380D02*
X94787619Y-111192380D01*
X94692380Y-111335238D01*
X94597142Y-111430476D01*
X94501904Y-111478095D01*
X95692380Y-111192380D02*
X95787619Y-111192380D01*
X95882857Y-111240000D01*
X95930476Y-111287619D01*
X95978095Y-111382857D01*
X96025714Y-111573333D01*
X96025714Y-111811428D01*
X95978095Y-112001904D01*
X95930476Y-112097142D01*
X95882857Y-112144761D01*
X95787619Y-112192380D01*
X95692380Y-112192380D01*
X95597142Y-112144761D01*
X95549523Y-112097142D01*
X95501904Y-112001904D01*
X95454285Y-111811428D01*
X95454285Y-111573333D01*
X95501904Y-111382857D01*
X95549523Y-111287619D01*
X95597142Y-111240000D01*
X95692380Y-111192380D01*
X96882857Y-111525714D02*
X96882857Y-112192380D01*
X96644761Y-111144761D02*
X96406666Y-111859047D01*
X97025714Y-111859047D01*
G04 #@! TO.C,C23*
X109182380Y-63606666D02*
X109182380Y-64178095D01*
X109182380Y-63892380D02*
X108182380Y-63892380D01*
X108325238Y-63987619D01*
X108420476Y-64082857D01*
X108468095Y-64178095D01*
X108182380Y-62987619D02*
X108182380Y-62892380D01*
X108230000Y-62797142D01*
X108277619Y-62749523D01*
X108372857Y-62701904D01*
X108563333Y-62654285D01*
X108801428Y-62654285D01*
X108991904Y-62701904D01*
X109087142Y-62749523D01*
X109134761Y-62797142D01*
X109182380Y-62892380D01*
X109182380Y-62987619D01*
X109134761Y-63082857D01*
X109087142Y-63130476D01*
X108991904Y-63178095D01*
X108801428Y-63225714D01*
X108563333Y-63225714D01*
X108372857Y-63178095D01*
X108277619Y-63130476D01*
X108230000Y-63082857D01*
X108182380Y-62987619D01*
X108515714Y-61797142D02*
X109182380Y-61797142D01*
X108134761Y-62035238D02*
X108849047Y-62273333D01*
X108849047Y-61654285D01*
G04 #@! TO.C,C25*
X104264380Y-105548666D02*
X104264380Y-106120095D01*
X104264380Y-105834380D02*
X103264380Y-105834380D01*
X103407238Y-105929619D01*
X103502476Y-106024857D01*
X103550095Y-106120095D01*
X103264380Y-104929619D02*
X103264380Y-104834380D01*
X103312000Y-104739142D01*
X103359619Y-104691523D01*
X103454857Y-104643904D01*
X103645333Y-104596285D01*
X103883428Y-104596285D01*
X104073904Y-104643904D01*
X104169142Y-104691523D01*
X104216761Y-104739142D01*
X104264380Y-104834380D01*
X104264380Y-104929619D01*
X104216761Y-105024857D01*
X104169142Y-105072476D01*
X104073904Y-105120095D01*
X103883428Y-105167714D01*
X103645333Y-105167714D01*
X103454857Y-105120095D01*
X103359619Y-105072476D01*
X103312000Y-105024857D01*
X103264380Y-104929619D01*
X103597714Y-103739142D02*
X104264380Y-103739142D01*
X103216761Y-103977238D02*
X103931047Y-104215333D01*
X103931047Y-103596285D01*
G04 #@! TO.C,C27*
X83058333Y-58212380D02*
X82486904Y-58212380D01*
X82772619Y-58212380D02*
X82772619Y-57212380D01*
X82677380Y-57355238D01*
X82582142Y-57450476D01*
X82486904Y-57498095D01*
X83677380Y-57212380D02*
X83772619Y-57212380D01*
X83867857Y-57260000D01*
X83915476Y-57307619D01*
X83963095Y-57402857D01*
X84010714Y-57593333D01*
X84010714Y-57831428D01*
X83963095Y-58021904D01*
X83915476Y-58117142D01*
X83867857Y-58164761D01*
X83772619Y-58212380D01*
X83677380Y-58212380D01*
X83582142Y-58164761D01*
X83534523Y-58117142D01*
X83486904Y-58021904D01*
X83439285Y-57831428D01*
X83439285Y-57593333D01*
X83486904Y-57402857D01*
X83534523Y-57307619D01*
X83582142Y-57260000D01*
X83677380Y-57212380D01*
X84867857Y-57545714D02*
X84867857Y-58212380D01*
X84629761Y-57164761D02*
X84391666Y-57879047D01*
X85010714Y-57879047D01*
G04 #@! TO.C,C28*
X65853428Y-69290380D02*
X65282000Y-69290380D01*
X65567714Y-69290380D02*
X65567714Y-68290380D01*
X65472476Y-68433238D01*
X65377238Y-68528476D01*
X65282000Y-68576095D01*
X66472476Y-68290380D02*
X66567714Y-68290380D01*
X66662952Y-68338000D01*
X66710571Y-68385619D01*
X66758190Y-68480857D01*
X66805809Y-68671333D01*
X66805809Y-68909428D01*
X66758190Y-69099904D01*
X66710571Y-69195142D01*
X66662952Y-69242761D01*
X66567714Y-69290380D01*
X66472476Y-69290380D01*
X66377238Y-69242761D01*
X66329619Y-69195142D01*
X66282000Y-69099904D01*
X66234380Y-68909428D01*
X66234380Y-68671333D01*
X66282000Y-68480857D01*
X66329619Y-68385619D01*
X66377238Y-68338000D01*
X66472476Y-68290380D01*
X67662952Y-68623714D02*
X67662952Y-69290380D01*
X67234380Y-68623714D02*
X67234380Y-69147523D01*
X67282000Y-69242761D01*
X67377238Y-69290380D01*
X67520095Y-69290380D01*
X67615333Y-69242761D01*
X67662952Y-69195142D01*
X67996285Y-68623714D02*
X68377238Y-68623714D01*
X68139142Y-69290380D02*
X68139142Y-68433238D01*
X68186761Y-68338000D01*
X68282000Y-68290380D01*
X68377238Y-68290380D01*
G04 #@! TO.C,C29*
X117682380Y-45886666D02*
X117682380Y-46458095D01*
X117682380Y-46172380D02*
X116682380Y-46172380D01*
X116825238Y-46267619D01*
X116920476Y-46362857D01*
X116968095Y-46458095D01*
X116682380Y-45267619D02*
X116682380Y-45172380D01*
X116730000Y-45077142D01*
X116777619Y-45029523D01*
X116872857Y-44981904D01*
X117063333Y-44934285D01*
X117301428Y-44934285D01*
X117491904Y-44981904D01*
X117587142Y-45029523D01*
X117634761Y-45077142D01*
X117682380Y-45172380D01*
X117682380Y-45267619D01*
X117634761Y-45362857D01*
X117587142Y-45410476D01*
X117491904Y-45458095D01*
X117301428Y-45505714D01*
X117063333Y-45505714D01*
X116872857Y-45458095D01*
X116777619Y-45410476D01*
X116730000Y-45362857D01*
X116682380Y-45267619D01*
X117015714Y-44077142D02*
X117682380Y-44077142D01*
X116634761Y-44315238D02*
X117349047Y-44553333D01*
X117349047Y-43934285D01*
G04 #@! TO.C,C30*
X146143333Y-83582380D02*
X145571904Y-83582380D01*
X145857619Y-83582380D02*
X145857619Y-82582380D01*
X145762380Y-82725238D01*
X145667142Y-82820476D01*
X145571904Y-82868095D01*
X146762380Y-82582380D02*
X146857619Y-82582380D01*
X146952857Y-82630000D01*
X147000476Y-82677619D01*
X147048095Y-82772857D01*
X147095714Y-82963333D01*
X147095714Y-83201428D01*
X147048095Y-83391904D01*
X147000476Y-83487142D01*
X146952857Y-83534761D01*
X146857619Y-83582380D01*
X146762380Y-83582380D01*
X146667142Y-83534761D01*
X146619523Y-83487142D01*
X146571904Y-83391904D01*
X146524285Y-83201428D01*
X146524285Y-82963333D01*
X146571904Y-82772857D01*
X146619523Y-82677619D01*
X146667142Y-82630000D01*
X146762380Y-82582380D01*
X147952857Y-82915714D02*
X147952857Y-83582380D01*
X147714761Y-82534761D02*
X147476666Y-83249047D01*
X148095714Y-83249047D01*
G04 #@! TO.C,C31*
X146221333Y-91550380D02*
X145649904Y-91550380D01*
X145935619Y-91550380D02*
X145935619Y-90550380D01*
X145840380Y-90693238D01*
X145745142Y-90788476D01*
X145649904Y-90836095D01*
X146840380Y-90550380D02*
X146935619Y-90550380D01*
X147030857Y-90598000D01*
X147078476Y-90645619D01*
X147126095Y-90740857D01*
X147173714Y-90931333D01*
X147173714Y-91169428D01*
X147126095Y-91359904D01*
X147078476Y-91455142D01*
X147030857Y-91502761D01*
X146935619Y-91550380D01*
X146840380Y-91550380D01*
X146745142Y-91502761D01*
X146697523Y-91455142D01*
X146649904Y-91359904D01*
X146602285Y-91169428D01*
X146602285Y-90931333D01*
X146649904Y-90740857D01*
X146697523Y-90645619D01*
X146745142Y-90598000D01*
X146840380Y-90550380D01*
X148030857Y-90883714D02*
X148030857Y-91550380D01*
X147792761Y-90502761D02*
X147554666Y-91217047D01*
X148173714Y-91217047D01*
G04 #@! TO.C,C32*
X88283333Y-53617380D02*
X87711904Y-53617380D01*
X87997619Y-53617380D02*
X87997619Y-52617380D01*
X87902380Y-52760238D01*
X87807142Y-52855476D01*
X87711904Y-52903095D01*
X88902380Y-52617380D02*
X88997619Y-52617380D01*
X89092857Y-52665000D01*
X89140476Y-52712619D01*
X89188095Y-52807857D01*
X89235714Y-52998333D01*
X89235714Y-53236428D01*
X89188095Y-53426904D01*
X89140476Y-53522142D01*
X89092857Y-53569761D01*
X88997619Y-53617380D01*
X88902380Y-53617380D01*
X88807142Y-53569761D01*
X88759523Y-53522142D01*
X88711904Y-53426904D01*
X88664285Y-53236428D01*
X88664285Y-52998333D01*
X88711904Y-52807857D01*
X88759523Y-52712619D01*
X88807142Y-52665000D01*
X88902380Y-52617380D01*
X90092857Y-52950714D02*
X90092857Y-53617380D01*
X89854761Y-52569761D02*
X89616666Y-53284047D01*
X90235714Y-53284047D01*
G04 #@! TO.C,C33*
X114217333Y-130666380D02*
X113645904Y-130666380D01*
X113931619Y-130666380D02*
X113931619Y-129666380D01*
X113836380Y-129809238D01*
X113741142Y-129904476D01*
X113645904Y-129952095D01*
X114836380Y-129666380D02*
X114931619Y-129666380D01*
X115026857Y-129714000D01*
X115074476Y-129761619D01*
X115122095Y-129856857D01*
X115169714Y-130047333D01*
X115169714Y-130285428D01*
X115122095Y-130475904D01*
X115074476Y-130571142D01*
X115026857Y-130618761D01*
X114931619Y-130666380D01*
X114836380Y-130666380D01*
X114741142Y-130618761D01*
X114693523Y-130571142D01*
X114645904Y-130475904D01*
X114598285Y-130285428D01*
X114598285Y-130047333D01*
X114645904Y-129856857D01*
X114693523Y-129761619D01*
X114741142Y-129714000D01*
X114836380Y-129666380D01*
X116026857Y-129999714D02*
X116026857Y-130666380D01*
X115788761Y-129618761D02*
X115550666Y-130333047D01*
X116169714Y-130333047D01*
G04 #@! TO.C,D1*
X92685714Y-32452380D02*
X92209523Y-32452380D01*
X92209523Y-31452380D01*
X93019047Y-31928571D02*
X93352380Y-31928571D01*
X93495238Y-32452380D02*
X93019047Y-32452380D01*
X93019047Y-31452380D01*
X93495238Y-31452380D01*
X93923809Y-32452380D02*
X93923809Y-31452380D01*
X94161904Y-31452380D01*
X94304761Y-31500000D01*
X94400000Y-31595238D01*
X94447619Y-31690476D01*
X94495238Y-31880952D01*
X94495238Y-32023809D01*
X94447619Y-32214285D01*
X94400000Y-32309523D01*
X94304761Y-32404761D01*
X94161904Y-32452380D01*
X93923809Y-32452380D01*
X94685714Y-32547619D02*
X95447619Y-32547619D01*
X95542857Y-31452380D02*
X95876190Y-32452380D01*
X96209523Y-31452380D01*
X96542857Y-32452380D02*
X96542857Y-31452380D01*
X97019047Y-32452380D02*
X97019047Y-31452380D01*
X97590476Y-32452380D01*
X97590476Y-31452380D01*
G04 #@! TO.C,D2*
X76407142Y-126642380D02*
X75930952Y-126642380D01*
X75930952Y-125642380D01*
X76740476Y-126118571D02*
X77073809Y-126118571D01*
X77216666Y-126642380D02*
X76740476Y-126642380D01*
X76740476Y-125642380D01*
X77216666Y-125642380D01*
X77645238Y-126642380D02*
X77645238Y-125642380D01*
X77883333Y-125642380D01*
X78026190Y-125690000D01*
X78121428Y-125785238D01*
X78169047Y-125880476D01*
X78216666Y-126070952D01*
X78216666Y-126213809D01*
X78169047Y-126404285D01*
X78121428Y-126499523D01*
X78026190Y-126594761D01*
X77883333Y-126642380D01*
X77645238Y-126642380D01*
G04 #@! TO.C,D3*
X78542380Y-55192857D02*
X78542380Y-55669047D01*
X77542380Y-55669047D01*
X78018571Y-54859523D02*
X78018571Y-54526190D01*
X78542380Y-54383333D02*
X78542380Y-54859523D01*
X77542380Y-54859523D01*
X77542380Y-54383333D01*
X78542380Y-53954761D02*
X77542380Y-53954761D01*
X77542380Y-53716666D01*
X77590000Y-53573809D01*
X77685238Y-53478571D01*
X77780476Y-53430952D01*
X77970952Y-53383333D01*
X78113809Y-53383333D01*
X78304285Y-53430952D01*
X78399523Y-53478571D01*
X78494761Y-53573809D01*
X78542380Y-53716666D01*
X78542380Y-53954761D01*
G04 #@! TO.C,D4*
X71312380Y-38456904D02*
X70312380Y-38456904D01*
X70312380Y-38218809D01*
X70360000Y-38075952D01*
X70455238Y-37980714D01*
X70550476Y-37933095D01*
X70740952Y-37885476D01*
X70883809Y-37885476D01*
X71074285Y-37933095D01*
X71169523Y-37980714D01*
X71264761Y-38075952D01*
X71312380Y-38218809D01*
X71312380Y-38456904D01*
G04 #@! TO.C,D6*
X177566380Y-87803904D02*
X176566380Y-87803904D01*
X176566380Y-87565809D01*
X176614000Y-87422952D01*
X176709238Y-87327714D01*
X176804476Y-87280095D01*
X176994952Y-87232476D01*
X177137809Y-87232476D01*
X177328285Y-87280095D01*
X177423523Y-87327714D01*
X177518761Y-87422952D01*
X177566380Y-87565809D01*
X177566380Y-87803904D01*
G04 #@! TO.C,D7*
X164914095Y-144890380D02*
X164914095Y-143890380D01*
X165152190Y-143890380D01*
X165295047Y-143938000D01*
X165390285Y-144033238D01*
X165437904Y-144128476D01*
X165485523Y-144318952D01*
X165485523Y-144461809D01*
X165437904Y-144652285D01*
X165390285Y-144747523D01*
X165295047Y-144842761D01*
X165152190Y-144890380D01*
X164914095Y-144890380D01*
G04 #@! TO.C,D8*
X177312380Y-49195904D02*
X176312380Y-49195904D01*
X176312380Y-48957809D01*
X176360000Y-48814952D01*
X176455238Y-48719714D01*
X176550476Y-48672095D01*
X176740952Y-48624476D01*
X176883809Y-48624476D01*
X177074285Y-48672095D01*
X177169523Y-48719714D01*
X177264761Y-48814952D01*
X177312380Y-48957809D01*
X177312380Y-49195904D01*
G04 #@! TO.C,D9*
X160802380Y-73472857D02*
X160802380Y-73949047D01*
X159802380Y-73949047D01*
X160278571Y-73139523D02*
X160278571Y-72806190D01*
X160802380Y-72663333D02*
X160802380Y-73139523D01*
X159802380Y-73139523D01*
X159802380Y-72663333D01*
X160802380Y-72234761D02*
X159802380Y-72234761D01*
X159802380Y-71996666D01*
X159850000Y-71853809D01*
X159945238Y-71758571D01*
X160040476Y-71710952D01*
X160230952Y-71663333D01*
X160373809Y-71663333D01*
X160564285Y-71710952D01*
X160659523Y-71758571D01*
X160754761Y-71853809D01*
X160802380Y-71996666D01*
X160802380Y-72234761D01*
G04 #@! TO.C,D10*
X169537142Y-123352380D02*
X169060952Y-123352380D01*
X169060952Y-122352380D01*
X169870476Y-122828571D02*
X170203809Y-122828571D01*
X170346666Y-123352380D02*
X169870476Y-123352380D01*
X169870476Y-122352380D01*
X170346666Y-122352380D01*
X170775238Y-123352380D02*
X170775238Y-122352380D01*
X171013333Y-122352380D01*
X171156190Y-122400000D01*
X171251428Y-122495238D01*
X171299047Y-122590476D01*
X171346666Y-122780952D01*
X171346666Y-122923809D01*
X171299047Y-123114285D01*
X171251428Y-123209523D01*
X171156190Y-123304761D01*
X171013333Y-123352380D01*
X170775238Y-123352380D01*
G04 #@! TO.C,D11*
X175807142Y-33002380D02*
X175330952Y-33002380D01*
X175330952Y-32002380D01*
X176140476Y-32478571D02*
X176473809Y-32478571D01*
X176616666Y-33002380D02*
X176140476Y-33002380D01*
X176140476Y-32002380D01*
X176616666Y-32002380D01*
X177045238Y-33002380D02*
X177045238Y-32002380D01*
X177283333Y-32002380D01*
X177426190Y-32050000D01*
X177521428Y-32145238D01*
X177569047Y-32240476D01*
X177616666Y-32430952D01*
X177616666Y-32573809D01*
X177569047Y-32764285D01*
X177521428Y-32859523D01*
X177426190Y-32954761D01*
X177283333Y-33002380D01*
X177045238Y-33002380D01*
G04 #@! TO.C,D12*
X128431904Y-41652380D02*
X128431904Y-40652380D01*
X128670000Y-40652380D01*
X128812857Y-40700000D01*
X128908095Y-40795238D01*
X128955714Y-40890476D01*
X129003333Y-41080952D01*
X129003333Y-41223809D01*
X128955714Y-41414285D01*
X128908095Y-41509523D01*
X128812857Y-41604761D01*
X128670000Y-41652380D01*
X128431904Y-41652380D01*
X129193809Y-41747619D02*
X129955714Y-41747619D01*
X130098571Y-40652380D02*
X130765238Y-40652380D01*
X130098571Y-41652380D01*
X130765238Y-41652380D01*
X131527142Y-41604761D02*
X131431904Y-41652380D01*
X131241428Y-41652380D01*
X131146190Y-41604761D01*
X131098571Y-41509523D01*
X131098571Y-41128571D01*
X131146190Y-41033333D01*
X131241428Y-40985714D01*
X131431904Y-40985714D01*
X131527142Y-41033333D01*
X131574761Y-41128571D01*
X131574761Y-41223809D01*
X131098571Y-41319047D01*
X132003333Y-40985714D02*
X132003333Y-41652380D01*
X132003333Y-41080952D02*
X132050952Y-41033333D01*
X132146190Y-40985714D01*
X132289047Y-40985714D01*
X132384285Y-41033333D01*
X132431904Y-41128571D01*
X132431904Y-41652380D01*
X133289047Y-41604761D02*
X133193809Y-41652380D01*
X133003333Y-41652380D01*
X132908095Y-41604761D01*
X132860476Y-41509523D01*
X132860476Y-41128571D01*
X132908095Y-41033333D01*
X133003333Y-40985714D01*
X133193809Y-40985714D01*
X133289047Y-41033333D01*
X133336666Y-41128571D01*
X133336666Y-41223809D01*
X132860476Y-41319047D01*
X133765238Y-41652380D02*
X133765238Y-40985714D01*
X133765238Y-41176190D02*
X133812857Y-41080952D01*
X133860476Y-41033333D01*
X133955714Y-40985714D01*
X134050952Y-40985714D01*
X121675714Y-41262380D02*
X121675714Y-40262380D01*
X121913809Y-40262380D01*
X122056666Y-40310000D01*
X122151904Y-40405238D01*
X122199523Y-40500476D01*
X122247142Y-40690952D01*
X122247142Y-40833809D01*
X122199523Y-41024285D01*
X122151904Y-41119523D01*
X122056666Y-41214761D01*
X121913809Y-41262380D01*
X121675714Y-41262380D01*
X123199523Y-41262380D02*
X122628095Y-41262380D01*
X122913809Y-41262380D02*
X122913809Y-40262380D01*
X122818571Y-40405238D01*
X122723333Y-40500476D01*
X122628095Y-40548095D01*
X123580476Y-40357619D02*
X123628095Y-40310000D01*
X123723333Y-40262380D01*
X123961428Y-40262380D01*
X124056666Y-40310000D01*
X124104285Y-40357619D01*
X124151904Y-40452857D01*
X124151904Y-40548095D01*
X124104285Y-40690952D01*
X123532857Y-41262380D01*
X124151904Y-41262380D01*
G04 #@! TO.C,D14*
X77847380Y-133932904D02*
X76847380Y-133932904D01*
X76847380Y-133694809D01*
X76895000Y-133551952D01*
X76990238Y-133456714D01*
X77085476Y-133409095D01*
X77275952Y-133361476D01*
X77418809Y-133361476D01*
X77609285Y-133409095D01*
X77704523Y-133456714D01*
X77799761Y-133551952D01*
X77847380Y-133694809D01*
X77847380Y-133932904D01*
G04 #@! TO.C,D15*
X82389095Y-102887380D02*
X82389095Y-101887380D01*
X82627190Y-101887380D01*
X82770047Y-101935000D01*
X82865285Y-102030238D01*
X82912904Y-102125476D01*
X82960523Y-102315952D01*
X82960523Y-102458809D01*
X82912904Y-102649285D01*
X82865285Y-102744523D01*
X82770047Y-102839761D01*
X82627190Y-102887380D01*
X82389095Y-102887380D01*
G04 #@! TO.C,D16*
X81397142Y-126412380D02*
X80920952Y-126412380D01*
X80920952Y-125412380D01*
X81730476Y-125888571D02*
X82063809Y-125888571D01*
X82206666Y-126412380D02*
X81730476Y-126412380D01*
X81730476Y-125412380D01*
X82206666Y-125412380D01*
X82635238Y-126412380D02*
X82635238Y-125412380D01*
X82873333Y-125412380D01*
X83016190Y-125460000D01*
X83111428Y-125555238D01*
X83159047Y-125650476D01*
X83206666Y-125840952D01*
X83206666Y-125983809D01*
X83159047Y-126174285D01*
X83111428Y-126269523D01*
X83016190Y-126364761D01*
X82873333Y-126412380D01*
X82635238Y-126412380D01*
G04 #@! TO.C,D17*
X82897095Y-108656380D02*
X82897095Y-107656380D01*
X83135190Y-107656380D01*
X83278047Y-107704000D01*
X83373285Y-107799238D01*
X83420904Y-107894476D01*
X83468523Y-108084952D01*
X83468523Y-108227809D01*
X83420904Y-108418285D01*
X83373285Y-108513523D01*
X83278047Y-108608761D01*
X83135190Y-108656380D01*
X82897095Y-108656380D01*
G04 #@! TO.C,D18*
X73559380Y-134017904D02*
X72559380Y-134017904D01*
X72559380Y-133779809D01*
X72607000Y-133636952D01*
X72702238Y-133541714D01*
X72797476Y-133494095D01*
X72987952Y-133446476D01*
X73130809Y-133446476D01*
X73321285Y-133494095D01*
X73416523Y-133541714D01*
X73511761Y-133636952D01*
X73559380Y-133779809D01*
X73559380Y-134017904D01*
G04 #@! TO.C,J1*
X180360380Y-72388857D02*
X179360380Y-72388857D01*
X179360380Y-72007904D01*
X179408000Y-71912666D01*
X179455619Y-71865047D01*
X179550857Y-71817428D01*
X179693714Y-71817428D01*
X179788952Y-71865047D01*
X179836571Y-71912666D01*
X179884190Y-72007904D01*
X179884190Y-72388857D01*
X180360380Y-70817428D02*
X179884190Y-71150761D01*
X180360380Y-71388857D02*
X179360380Y-71388857D01*
X179360380Y-71007904D01*
X179408000Y-70912666D01*
X179455619Y-70865047D01*
X179550857Y-70817428D01*
X179693714Y-70817428D01*
X179788952Y-70865047D01*
X179836571Y-70912666D01*
X179884190Y-71007904D01*
X179884190Y-71388857D01*
X179836571Y-70388857D02*
X179836571Y-70055523D01*
X180360380Y-69912666D02*
X180360380Y-70388857D01*
X179360380Y-70388857D01*
X179360380Y-69912666D01*
X180312761Y-69531714D02*
X180360380Y-69388857D01*
X180360380Y-69150761D01*
X180312761Y-69055523D01*
X180265142Y-69007904D01*
X180169904Y-68960285D01*
X180074666Y-68960285D01*
X179979428Y-69007904D01*
X179931809Y-69055523D01*
X179884190Y-69150761D01*
X179836571Y-69341238D01*
X179788952Y-69436476D01*
X179741333Y-69484095D01*
X179646095Y-69531714D01*
X179550857Y-69531714D01*
X179455619Y-69484095D01*
X179408000Y-69436476D01*
X179360380Y-69341238D01*
X179360380Y-69103142D01*
X179408000Y-68960285D01*
X180312761Y-68579333D02*
X180360380Y-68436476D01*
X180360380Y-68198380D01*
X180312761Y-68103142D01*
X180265142Y-68055523D01*
X180169904Y-68007904D01*
X180074666Y-68007904D01*
X179979428Y-68055523D01*
X179931809Y-68103142D01*
X179884190Y-68198380D01*
X179836571Y-68388857D01*
X179788952Y-68484095D01*
X179741333Y-68531714D01*
X179646095Y-68579333D01*
X179550857Y-68579333D01*
X179455619Y-68531714D01*
X179408000Y-68484095D01*
X179360380Y-68388857D01*
X179360380Y-68150761D01*
X179408000Y-68007904D01*
X179360380Y-67579333D02*
X180169904Y-67579333D01*
X180265142Y-67531714D01*
X180312761Y-67484095D01*
X180360380Y-67388857D01*
X180360380Y-67198380D01*
X180312761Y-67103142D01*
X180265142Y-67055523D01*
X180169904Y-67007904D01*
X179360380Y-67007904D01*
X180360380Y-65960285D02*
X179884190Y-66293619D01*
X180360380Y-66531714D02*
X179360380Y-66531714D01*
X179360380Y-66150761D01*
X179408000Y-66055523D01*
X179455619Y-66007904D01*
X179550857Y-65960285D01*
X179693714Y-65960285D01*
X179788952Y-66007904D01*
X179836571Y-66055523D01*
X179884190Y-66150761D01*
X179884190Y-66531714D01*
X179836571Y-65531714D02*
X179836571Y-65198380D01*
X180360380Y-65055523D02*
X180360380Y-65531714D01*
X179360380Y-65531714D01*
X179360380Y-65055523D01*
X173228380Y-66547333D02*
X173942666Y-66547333D01*
X174085523Y-66594952D01*
X174180761Y-66690190D01*
X174228380Y-66833047D01*
X174228380Y-66928285D01*
X174228380Y-65547333D02*
X174228380Y-66118761D01*
X174228380Y-65833047D02*
X173228380Y-65833047D01*
X173371238Y-65928285D01*
X173466476Y-66023523D01*
X173514095Y-66118761D01*
G04 #@! TO.C,J2*
X154413047Y-117204380D02*
X154413047Y-116204380D01*
X154413047Y-116680571D02*
X154984476Y-116680571D01*
X154984476Y-117204380D02*
X154984476Y-116204380D01*
X155460666Y-116680571D02*
X155794000Y-116680571D01*
X155936857Y-117204380D02*
X155460666Y-117204380D01*
X155460666Y-116204380D01*
X155936857Y-116204380D01*
X156365428Y-117204380D02*
X156365428Y-116204380D01*
X157365428Y-116252000D02*
X157270190Y-116204380D01*
X157127333Y-116204380D01*
X156984476Y-116252000D01*
X156889238Y-116347238D01*
X156841619Y-116442476D01*
X156794000Y-116632952D01*
X156794000Y-116775809D01*
X156841619Y-116966285D01*
X156889238Y-117061523D01*
X156984476Y-117156761D01*
X157127333Y-117204380D01*
X157222571Y-117204380D01*
X157365428Y-117156761D01*
X157413047Y-117109142D01*
X157413047Y-116775809D01*
X157222571Y-116775809D01*
X157841619Y-117204380D02*
X157841619Y-116204380D01*
X157841619Y-116680571D02*
X158413047Y-116680571D01*
X158413047Y-117204380D02*
X158413047Y-116204380D01*
X158746380Y-116204380D02*
X159317809Y-116204380D01*
X159032095Y-117204380D02*
X159032095Y-116204380D01*
X160310380Y-117085333D02*
X161024666Y-117085333D01*
X161167523Y-117132952D01*
X161262761Y-117228190D01*
X161310380Y-117371047D01*
X161310380Y-117466285D01*
X160405619Y-116656761D02*
X160358000Y-116609142D01*
X160310380Y-116513904D01*
X160310380Y-116275809D01*
X160358000Y-116180571D01*
X160405619Y-116132952D01*
X160500857Y-116085333D01*
X160596095Y-116085333D01*
X160738952Y-116132952D01*
X161310380Y-116704380D01*
X161310380Y-116085333D01*
G04 #@! TO.C,J4*
X153420571Y-63356285D02*
X153420571Y-63022952D01*
X153944380Y-62880095D02*
X153944380Y-63356285D01*
X152944380Y-63356285D01*
X152944380Y-62880095D01*
X153849142Y-61880095D02*
X153896761Y-61927714D01*
X153944380Y-62070571D01*
X153944380Y-62165809D01*
X153896761Y-62308666D01*
X153801523Y-62403904D01*
X153706285Y-62451523D01*
X153515809Y-62499142D01*
X153372952Y-62499142D01*
X153182476Y-62451523D01*
X153087238Y-62403904D01*
X152992000Y-62308666D01*
X152944380Y-62165809D01*
X152944380Y-62070571D01*
X152992000Y-61927714D01*
X153039619Y-61880095D01*
X152992000Y-60927714D02*
X152944380Y-61022952D01*
X152944380Y-61165809D01*
X152992000Y-61308666D01*
X153087238Y-61403904D01*
X153182476Y-61451523D01*
X153372952Y-61499142D01*
X153515809Y-61499142D01*
X153706285Y-61451523D01*
X153801523Y-61403904D01*
X153896761Y-61308666D01*
X153944380Y-61165809D01*
X153944380Y-61070571D01*
X153896761Y-60927714D01*
X153849142Y-60880095D01*
X153515809Y-60880095D01*
X153515809Y-61070571D01*
X152904666Y-58800380D02*
X152904666Y-59514666D01*
X152857047Y-59657523D01*
X152761809Y-59752761D01*
X152618952Y-59800380D01*
X152523714Y-59800380D01*
X153809428Y-59133714D02*
X153809428Y-59800380D01*
X153571333Y-58752761D02*
X153333238Y-59467047D01*
X153952285Y-59467047D01*
G04 #@! TO.C,J5*
X179106380Y-110671619D02*
X179106380Y-110100190D01*
X180106380Y-110385904D02*
X179106380Y-110385904D01*
X179582571Y-109766857D02*
X179582571Y-109433523D01*
X180106380Y-109290666D02*
X180106380Y-109766857D01*
X179106380Y-109766857D01*
X179106380Y-109290666D01*
X180106380Y-108862095D02*
X179106380Y-108862095D01*
X179820666Y-108528761D01*
X179106380Y-108195428D01*
X180106380Y-108195428D01*
X180106380Y-107719238D02*
X179106380Y-107719238D01*
X179106380Y-107338285D01*
X179154000Y-107243047D01*
X179201619Y-107195428D01*
X179296857Y-107147809D01*
X179439714Y-107147809D01*
X179534952Y-107195428D01*
X179582571Y-107243047D01*
X179630190Y-107338285D01*
X179630190Y-107719238D01*
X180011142Y-106719238D02*
X180058761Y-106671619D01*
X180106380Y-106719238D01*
X180058761Y-106766857D01*
X180011142Y-106719238D01*
X180106380Y-106719238D01*
X173772380Y-105401333D02*
X174486666Y-105401333D01*
X174629523Y-105448952D01*
X174724761Y-105544190D01*
X174772380Y-105687047D01*
X174772380Y-105782285D01*
X173772380Y-104448952D02*
X173772380Y-104925142D01*
X174248571Y-104972761D01*
X174200952Y-104925142D01*
X174153333Y-104829904D01*
X174153333Y-104591809D01*
X174200952Y-104496571D01*
X174248571Y-104448952D01*
X174343809Y-104401333D01*
X174581904Y-104401333D01*
X174677142Y-104448952D01*
X174724761Y-104496571D01*
X174772380Y-104591809D01*
X174772380Y-104829904D01*
X174724761Y-104925142D01*
X174677142Y-104972761D01*
G04 #@! TO.C,J6*
X158026666Y-72932380D02*
X158026666Y-73646666D01*
X157979047Y-73789523D01*
X157883809Y-73884761D01*
X157740952Y-73932380D01*
X157645714Y-73932380D01*
X158931428Y-72932380D02*
X158740952Y-72932380D01*
X158645714Y-72980000D01*
X158598095Y-73027619D01*
X158502857Y-73170476D01*
X158455238Y-73360952D01*
X158455238Y-73741904D01*
X158502857Y-73837142D01*
X158550476Y-73884761D01*
X158645714Y-73932380D01*
X158836190Y-73932380D01*
X158931428Y-73884761D01*
X158979047Y-73837142D01*
X159026666Y-73741904D01*
X159026666Y-73503809D01*
X158979047Y-73408571D01*
X158931428Y-73360952D01*
X158836190Y-73313333D01*
X158645714Y-73313333D01*
X158550476Y-73360952D01*
X158502857Y-73408571D01*
X158455238Y-73503809D01*
G04 #@! TO.C,J7*
X88046666Y-122712380D02*
X88046666Y-123426666D01*
X87999047Y-123569523D01*
X87903809Y-123664761D01*
X87760952Y-123712380D01*
X87665714Y-123712380D01*
X88427619Y-122712380D02*
X89094285Y-122712380D01*
X88665714Y-123712380D01*
G04 #@! TO.C,J9*
X77276666Y-126152380D02*
X77276666Y-126866666D01*
X77229047Y-127009523D01*
X77133809Y-127104761D01*
X76990952Y-127152380D01*
X76895714Y-127152380D01*
X77800476Y-127152380D02*
X77990952Y-127152380D01*
X78086190Y-127104761D01*
X78133809Y-127057142D01*
X78229047Y-126914285D01*
X78276666Y-126723809D01*
X78276666Y-126342857D01*
X78229047Y-126247619D01*
X78181428Y-126200000D01*
X78086190Y-126152380D01*
X77895714Y-126152380D01*
X77800476Y-126200000D01*
X77752857Y-126247619D01*
X77705238Y-126342857D01*
X77705238Y-126580952D01*
X77752857Y-126676190D01*
X77800476Y-126723809D01*
X77895714Y-126771428D01*
X78086190Y-126771428D01*
X78181428Y-126723809D01*
X78229047Y-126676190D01*
X78276666Y-126580952D01*
G04 #@! TO.C,J10*
X73420476Y-56212380D02*
X73420476Y-56926666D01*
X73372857Y-57069523D01*
X73277619Y-57164761D01*
X73134761Y-57212380D01*
X73039523Y-57212380D01*
X74420476Y-57212380D02*
X73849047Y-57212380D01*
X74134761Y-57212380D02*
X74134761Y-56212380D01*
X74039523Y-56355238D01*
X73944285Y-56450476D01*
X73849047Y-56498095D01*
X75039523Y-56212380D02*
X75134761Y-56212380D01*
X75230000Y-56260000D01*
X75277619Y-56307619D01*
X75325238Y-56402857D01*
X75372857Y-56593333D01*
X75372857Y-56831428D01*
X75325238Y-57021904D01*
X75277619Y-57117142D01*
X75230000Y-57164761D01*
X75134761Y-57212380D01*
X75039523Y-57212380D01*
X74944285Y-57164761D01*
X74896666Y-57117142D01*
X74849047Y-57021904D01*
X74801428Y-56831428D01*
X74801428Y-56593333D01*
X74849047Y-56402857D01*
X74896666Y-56307619D01*
X74944285Y-56260000D01*
X75039523Y-56212380D01*
G04 #@! TO.C,J11*
X175160476Y-119342380D02*
X175160476Y-120056666D01*
X175112857Y-120199523D01*
X175017619Y-120294761D01*
X174874761Y-120342380D01*
X174779523Y-120342380D01*
X176160476Y-120342380D02*
X175589047Y-120342380D01*
X175874761Y-120342380D02*
X175874761Y-119342380D01*
X175779523Y-119485238D01*
X175684285Y-119580476D01*
X175589047Y-119628095D01*
X177112857Y-120342380D02*
X176541428Y-120342380D01*
X176827142Y-120342380D02*
X176827142Y-119342380D01*
X176731904Y-119485238D01*
X176636666Y-119580476D01*
X176541428Y-119628095D01*
G04 #@! TO.C,J13*
X170922380Y-36059523D02*
X171636666Y-36059523D01*
X171779523Y-36107142D01*
X171874761Y-36202380D01*
X171922380Y-36345238D01*
X171922380Y-36440476D01*
X171922380Y-35059523D02*
X171922380Y-35630952D01*
X171922380Y-35345238D02*
X170922380Y-35345238D01*
X171065238Y-35440476D01*
X171160476Y-35535714D01*
X171208095Y-35630952D01*
X170922380Y-34726190D02*
X170922380Y-34107142D01*
X171303333Y-34440476D01*
X171303333Y-34297619D01*
X171350952Y-34202380D01*
X171398571Y-34154761D01*
X171493809Y-34107142D01*
X171731904Y-34107142D01*
X171827142Y-34154761D01*
X171874761Y-34202380D01*
X171922380Y-34297619D01*
X171922380Y-34583333D01*
X171874761Y-34678571D01*
X171827142Y-34726190D01*
G04 #@! TO.C,J14*
X92120238Y-45872380D02*
X92120238Y-46586666D01*
X92072619Y-46729523D01*
X91977380Y-46824761D01*
X91834523Y-46872380D01*
X91739285Y-46872380D01*
X92596428Y-45872380D02*
X92596428Y-46681904D01*
X92644047Y-46777142D01*
X92691666Y-46824761D01*
X92786904Y-46872380D01*
X92977380Y-46872380D01*
X93072619Y-46824761D01*
X93120238Y-46777142D01*
X93167857Y-46681904D01*
X93167857Y-45872380D01*
X93644047Y-46872380D02*
X93644047Y-45872380D01*
X93977380Y-46586666D01*
X94310714Y-45872380D01*
X94310714Y-46872380D01*
X94786904Y-46872380D02*
X94786904Y-45872380D01*
X95167857Y-45872380D01*
X95263095Y-45920000D01*
X95310714Y-45967619D01*
X95358333Y-46062857D01*
X95358333Y-46205714D01*
X95310714Y-46300952D01*
X95263095Y-46348571D01*
X95167857Y-46396190D01*
X94786904Y-46396190D01*
X95786904Y-46348571D02*
X96120238Y-46348571D01*
X96263095Y-46872380D02*
X95786904Y-46872380D01*
X95786904Y-45872380D01*
X96263095Y-45872380D01*
X97263095Y-46872380D02*
X96929761Y-46396190D01*
X96691666Y-46872380D02*
X96691666Y-45872380D01*
X97072619Y-45872380D01*
X97167857Y-45920000D01*
X97215476Y-45967619D01*
X97263095Y-46062857D01*
X97263095Y-46205714D01*
X97215476Y-46300952D01*
X97167857Y-46348571D01*
X97072619Y-46396190D01*
X96691666Y-46396190D01*
X93977380Y-43629523D02*
X94691666Y-43629523D01*
X94834523Y-43677142D01*
X94929761Y-43772380D01*
X94977380Y-43915238D01*
X94977380Y-44010476D01*
X94977380Y-42629523D02*
X94977380Y-43200952D01*
X94977380Y-42915238D02*
X93977380Y-42915238D01*
X94120238Y-43010476D01*
X94215476Y-43105714D01*
X94263095Y-43200952D01*
X94310714Y-41772380D02*
X94977380Y-41772380D01*
X93929761Y-42010476D02*
X94644047Y-42248571D01*
X94644047Y-41629523D01*
G04 #@! TO.C,J15*
X154182571Y-36321238D02*
X154230190Y-36178380D01*
X154277809Y-36130761D01*
X154373047Y-36083142D01*
X154515904Y-36083142D01*
X154611142Y-36130761D01*
X154658761Y-36178380D01*
X154706380Y-36273619D01*
X154706380Y-36654571D01*
X153706380Y-36654571D01*
X153706380Y-36321238D01*
X153754000Y-36226000D01*
X153801619Y-36178380D01*
X153896857Y-36130761D01*
X153992095Y-36130761D01*
X154087333Y-36178380D01*
X154134952Y-36226000D01*
X154182571Y-36321238D01*
X154182571Y-36654571D01*
X154706380Y-35654571D02*
X153706380Y-35654571D01*
X154420666Y-35226000D02*
X154420666Y-34749809D01*
X154706380Y-35321238D02*
X153706380Y-34987904D01*
X154706380Y-34654571D01*
X159240476Y-32602380D02*
X159240476Y-33316666D01*
X159192857Y-33459523D01*
X159097619Y-33554761D01*
X158954761Y-33602380D01*
X158859523Y-33602380D01*
X160240476Y-33602380D02*
X159669047Y-33602380D01*
X159954761Y-33602380D02*
X159954761Y-32602380D01*
X159859523Y-32745238D01*
X159764285Y-32840476D01*
X159669047Y-32888095D01*
X161145238Y-32602380D02*
X160669047Y-32602380D01*
X160621428Y-33078571D01*
X160669047Y-33030952D01*
X160764285Y-32983333D01*
X161002380Y-32983333D01*
X161097619Y-33030952D01*
X161145238Y-33078571D01*
X161192857Y-33173809D01*
X161192857Y-33411904D01*
X161145238Y-33507142D01*
X161097619Y-33554761D01*
X161002380Y-33602380D01*
X160764285Y-33602380D01*
X160669047Y-33554761D01*
X160621428Y-33507142D01*
G04 #@! TO.C,J17*
X173312000Y-95868380D02*
X173312000Y-94868380D01*
X173692952Y-94868380D01*
X173788190Y-94916000D01*
X173835809Y-94963619D01*
X173883428Y-95058857D01*
X173883428Y-95201714D01*
X173835809Y-95296952D01*
X173788190Y-95344571D01*
X173692952Y-95392190D01*
X173312000Y-95392190D01*
X174312000Y-95868380D02*
X174312000Y-94868380D01*
X158270476Y-96392380D02*
X158270476Y-97106666D01*
X158222857Y-97249523D01*
X158127619Y-97344761D01*
X157984761Y-97392380D01*
X157889523Y-97392380D01*
X159270476Y-97392380D02*
X158699047Y-97392380D01*
X158984761Y-97392380D02*
X158984761Y-96392380D01*
X158889523Y-96535238D01*
X158794285Y-96630476D01*
X158699047Y-96678095D01*
X159603809Y-96392380D02*
X160270476Y-96392380D01*
X159841904Y-97392380D01*
G04 #@! TO.C,L1*
X70170380Y-120110380D02*
X69170380Y-120110380D01*
X70170380Y-119634190D02*
X69170380Y-119634190D01*
X70170380Y-119062761D01*
X69170380Y-119062761D01*
X70170380Y-118586571D02*
X69170380Y-118586571D01*
X69170380Y-118348476D01*
X69218000Y-118205619D01*
X69313238Y-118110380D01*
X69408476Y-118062761D01*
X69598952Y-118015142D01*
X69741809Y-118015142D01*
X69932285Y-118062761D01*
X70027523Y-118110380D01*
X70122761Y-118205619D01*
X70170380Y-118348476D01*
X70170380Y-118586571D01*
X69170380Y-117586571D02*
X69979904Y-117586571D01*
X70075142Y-117538952D01*
X70122761Y-117491333D01*
X70170380Y-117396095D01*
X70170380Y-117205619D01*
X70122761Y-117110380D01*
X70075142Y-117062761D01*
X69979904Y-117015142D01*
X69170380Y-117015142D01*
X70075142Y-115967523D02*
X70122761Y-116015142D01*
X70170380Y-116158000D01*
X70170380Y-116253238D01*
X70122761Y-116396095D01*
X70027523Y-116491333D01*
X69932285Y-116538952D01*
X69741809Y-116586571D01*
X69598952Y-116586571D01*
X69408476Y-116538952D01*
X69313238Y-116491333D01*
X69218000Y-116396095D01*
X69170380Y-116253238D01*
X69170380Y-116158000D01*
X69218000Y-116015142D01*
X69265619Y-115967523D01*
X69170380Y-115681809D02*
X69170380Y-115110380D01*
X70170380Y-115396095D02*
X69170380Y-115396095D01*
X69170380Y-114586571D02*
X69170380Y-114396095D01*
X69218000Y-114300857D01*
X69313238Y-114205619D01*
X69503714Y-114158000D01*
X69837047Y-114158000D01*
X70027523Y-114205619D01*
X70122761Y-114300857D01*
X70170380Y-114396095D01*
X70170380Y-114586571D01*
X70122761Y-114681809D01*
X70027523Y-114777047D01*
X69837047Y-114824666D01*
X69503714Y-114824666D01*
X69313238Y-114777047D01*
X69218000Y-114681809D01*
X69170380Y-114586571D01*
X70170380Y-113158000D02*
X69694190Y-113491333D01*
X70170380Y-113729428D02*
X69170380Y-113729428D01*
X69170380Y-113348476D01*
X69218000Y-113253238D01*
X69265619Y-113205619D01*
X69360857Y-113158000D01*
X69503714Y-113158000D01*
X69598952Y-113205619D01*
X69646571Y-113253238D01*
X69694190Y-113348476D01*
X69694190Y-113729428D01*
G04 #@! TO.C,L2*
X82472380Y-49412380D02*
X81472380Y-49412380D01*
X82472380Y-48936190D02*
X81472380Y-48936190D01*
X82472380Y-48364761D01*
X81472380Y-48364761D01*
X82472380Y-47888571D02*
X81472380Y-47888571D01*
X81472380Y-47650476D01*
X81520000Y-47507619D01*
X81615238Y-47412380D01*
X81710476Y-47364761D01*
X81900952Y-47317142D01*
X82043809Y-47317142D01*
X82234285Y-47364761D01*
X82329523Y-47412380D01*
X82424761Y-47507619D01*
X82472380Y-47650476D01*
X82472380Y-47888571D01*
X81472380Y-46888571D02*
X82281904Y-46888571D01*
X82377142Y-46840952D01*
X82424761Y-46793333D01*
X82472380Y-46698095D01*
X82472380Y-46507619D01*
X82424761Y-46412380D01*
X82377142Y-46364761D01*
X82281904Y-46317142D01*
X81472380Y-46317142D01*
X82377142Y-45269523D02*
X82424761Y-45317142D01*
X82472380Y-45460000D01*
X82472380Y-45555238D01*
X82424761Y-45698095D01*
X82329523Y-45793333D01*
X82234285Y-45840952D01*
X82043809Y-45888571D01*
X81900952Y-45888571D01*
X81710476Y-45840952D01*
X81615238Y-45793333D01*
X81520000Y-45698095D01*
X81472380Y-45555238D01*
X81472380Y-45460000D01*
X81520000Y-45317142D01*
X81567619Y-45269523D01*
X81472380Y-44983809D02*
X81472380Y-44412380D01*
X82472380Y-44698095D02*
X81472380Y-44698095D01*
X81472380Y-43888571D02*
X81472380Y-43698095D01*
X81520000Y-43602857D01*
X81615238Y-43507619D01*
X81805714Y-43460000D01*
X82139047Y-43460000D01*
X82329523Y-43507619D01*
X82424761Y-43602857D01*
X82472380Y-43698095D01*
X82472380Y-43888571D01*
X82424761Y-43983809D01*
X82329523Y-44079047D01*
X82139047Y-44126666D01*
X81805714Y-44126666D01*
X81615238Y-44079047D01*
X81520000Y-43983809D01*
X81472380Y-43888571D01*
X82472380Y-42460000D02*
X81996190Y-42793333D01*
X82472380Y-43031428D02*
X81472380Y-43031428D01*
X81472380Y-42650476D01*
X81520000Y-42555238D01*
X81567619Y-42507619D01*
X81662857Y-42460000D01*
X81805714Y-42460000D01*
X81900952Y-42507619D01*
X81948571Y-42555238D01*
X81996190Y-42650476D01*
X81996190Y-43031428D01*
G04 #@! TO.C,Q1*
X179861571Y-80205142D02*
X179909190Y-80062285D01*
X179956809Y-80014666D01*
X180052047Y-79967047D01*
X180194904Y-79967047D01*
X180290142Y-80014666D01*
X180337761Y-80062285D01*
X180385380Y-80157523D01*
X180385380Y-80538476D01*
X179385380Y-80538476D01*
X179385380Y-80205142D01*
X179433000Y-80109904D01*
X179480619Y-80062285D01*
X179575857Y-80014666D01*
X179671095Y-80014666D01*
X179766333Y-80062285D01*
X179813952Y-80109904D01*
X179861571Y-80205142D01*
X179861571Y-80538476D01*
X180290142Y-78967047D02*
X180337761Y-79014666D01*
X180385380Y-79157523D01*
X180385380Y-79252761D01*
X180337761Y-79395619D01*
X180242523Y-79490857D01*
X180147285Y-79538476D01*
X179956809Y-79586095D01*
X179813952Y-79586095D01*
X179623476Y-79538476D01*
X179528238Y-79490857D01*
X179433000Y-79395619D01*
X179385380Y-79252761D01*
X179385380Y-79157523D01*
X179433000Y-79014666D01*
X179480619Y-78967047D01*
X179385380Y-78062285D02*
X179385380Y-78538476D01*
X179861571Y-78586095D01*
X179813952Y-78538476D01*
X179766333Y-78443238D01*
X179766333Y-78205142D01*
X179813952Y-78109904D01*
X179861571Y-78062285D01*
X179956809Y-78014666D01*
X180194904Y-78014666D01*
X180290142Y-78062285D01*
X180337761Y-78109904D01*
X180385380Y-78205142D01*
X180385380Y-78443238D01*
X180337761Y-78538476D01*
X180290142Y-78586095D01*
X179718714Y-77157523D02*
X180385380Y-77157523D01*
X179337761Y-77395619D02*
X180052047Y-77633714D01*
X180052047Y-77014666D01*
X179385380Y-76728952D02*
X179385380Y-76062285D01*
X180385380Y-76490857D01*
X173813619Y-79713238D02*
X173766000Y-79808476D01*
X173670761Y-79903714D01*
X173527904Y-80046571D01*
X173480285Y-80141809D01*
X173480285Y-80237047D01*
X173718380Y-80189428D02*
X173670761Y-80284666D01*
X173575523Y-80379904D01*
X173385047Y-80427523D01*
X173051714Y-80427523D01*
X172861238Y-80379904D01*
X172766000Y-80284666D01*
X172718380Y-80189428D01*
X172718380Y-79998952D01*
X172766000Y-79903714D01*
X172861238Y-79808476D01*
X173051714Y-79760857D01*
X173385047Y-79760857D01*
X173575523Y-79808476D01*
X173670761Y-79903714D01*
X173718380Y-79998952D01*
X173718380Y-80189428D01*
X173718380Y-78808476D02*
X173718380Y-79379904D01*
X173718380Y-79094190D02*
X172718380Y-79094190D01*
X172861238Y-79189428D01*
X172956476Y-79284666D01*
X173004095Y-79379904D01*
G04 #@! TO.C,Q2*
X179836571Y-146549142D02*
X179884190Y-146406285D01*
X179931809Y-146358666D01*
X180027047Y-146311047D01*
X180169904Y-146311047D01*
X180265142Y-146358666D01*
X180312761Y-146406285D01*
X180360380Y-146501523D01*
X180360380Y-146882476D01*
X179360380Y-146882476D01*
X179360380Y-146549142D01*
X179408000Y-146453904D01*
X179455619Y-146406285D01*
X179550857Y-146358666D01*
X179646095Y-146358666D01*
X179741333Y-146406285D01*
X179788952Y-146453904D01*
X179836571Y-146549142D01*
X179836571Y-146882476D01*
X180265142Y-145311047D02*
X180312761Y-145358666D01*
X180360380Y-145501523D01*
X180360380Y-145596761D01*
X180312761Y-145739619D01*
X180217523Y-145834857D01*
X180122285Y-145882476D01*
X179931809Y-145930095D01*
X179788952Y-145930095D01*
X179598476Y-145882476D01*
X179503238Y-145834857D01*
X179408000Y-145739619D01*
X179360380Y-145596761D01*
X179360380Y-145501523D01*
X179408000Y-145358666D01*
X179455619Y-145311047D01*
X179360380Y-144406285D02*
X179360380Y-144882476D01*
X179836571Y-144930095D01*
X179788952Y-144882476D01*
X179741333Y-144787238D01*
X179741333Y-144549142D01*
X179788952Y-144453904D01*
X179836571Y-144406285D01*
X179931809Y-144358666D01*
X180169904Y-144358666D01*
X180265142Y-144406285D01*
X180312761Y-144453904D01*
X180360380Y-144549142D01*
X180360380Y-144787238D01*
X180312761Y-144882476D01*
X180265142Y-144930095D01*
X179693714Y-143501523D02*
X180360380Y-143501523D01*
X179312761Y-143739619D02*
X180027047Y-143977714D01*
X180027047Y-143358666D01*
X179360380Y-143072952D02*
X179360380Y-142406285D01*
X180360380Y-142834857D01*
X174794761Y-141407619D02*
X174699523Y-141360000D01*
X174604285Y-141264761D01*
X174461428Y-141121904D01*
X174366190Y-141074285D01*
X174270952Y-141074285D01*
X174318571Y-141312380D02*
X174223333Y-141264761D01*
X174128095Y-141169523D01*
X174080476Y-140979047D01*
X174080476Y-140645714D01*
X174128095Y-140455238D01*
X174223333Y-140360000D01*
X174318571Y-140312380D01*
X174509047Y-140312380D01*
X174604285Y-140360000D01*
X174699523Y-140455238D01*
X174747142Y-140645714D01*
X174747142Y-140979047D01*
X174699523Y-141169523D01*
X174604285Y-141264761D01*
X174509047Y-141312380D01*
X174318571Y-141312380D01*
X175128095Y-140407619D02*
X175175714Y-140360000D01*
X175270952Y-140312380D01*
X175509047Y-140312380D01*
X175604285Y-140360000D01*
X175651904Y-140407619D01*
X175699523Y-140502857D01*
X175699523Y-140598095D01*
X175651904Y-140740952D01*
X175080476Y-141312380D01*
X175699523Y-141312380D01*
G04 #@! TO.C,Q3*
X180125571Y-43607142D02*
X180173190Y-43464285D01*
X180220809Y-43416666D01*
X180316047Y-43369047D01*
X180458904Y-43369047D01*
X180554142Y-43416666D01*
X180601761Y-43464285D01*
X180649380Y-43559523D01*
X180649380Y-43940476D01*
X179649380Y-43940476D01*
X179649380Y-43607142D01*
X179697000Y-43511904D01*
X179744619Y-43464285D01*
X179839857Y-43416666D01*
X179935095Y-43416666D01*
X180030333Y-43464285D01*
X180077952Y-43511904D01*
X180125571Y-43607142D01*
X180125571Y-43940476D01*
X180554142Y-42369047D02*
X180601761Y-42416666D01*
X180649380Y-42559523D01*
X180649380Y-42654761D01*
X180601761Y-42797619D01*
X180506523Y-42892857D01*
X180411285Y-42940476D01*
X180220809Y-42988095D01*
X180077952Y-42988095D01*
X179887476Y-42940476D01*
X179792238Y-42892857D01*
X179697000Y-42797619D01*
X179649380Y-42654761D01*
X179649380Y-42559523D01*
X179697000Y-42416666D01*
X179744619Y-42369047D01*
X179649380Y-41464285D02*
X179649380Y-41940476D01*
X180125571Y-41988095D01*
X180077952Y-41940476D01*
X180030333Y-41845238D01*
X180030333Y-41607142D01*
X180077952Y-41511904D01*
X180125571Y-41464285D01*
X180220809Y-41416666D01*
X180458904Y-41416666D01*
X180554142Y-41464285D01*
X180601761Y-41511904D01*
X180649380Y-41607142D01*
X180649380Y-41845238D01*
X180601761Y-41940476D01*
X180554142Y-41988095D01*
X179982714Y-40559523D02*
X180649380Y-40559523D01*
X179601761Y-40797619D02*
X180316047Y-41035714D01*
X180316047Y-40416666D01*
X179649380Y-40130952D02*
X179649380Y-39464285D01*
X180649380Y-39892857D01*
X174077619Y-43115238D02*
X174030000Y-43210476D01*
X173934761Y-43305714D01*
X173791904Y-43448571D01*
X173744285Y-43543809D01*
X173744285Y-43639047D01*
X173982380Y-43591428D02*
X173934761Y-43686666D01*
X173839523Y-43781904D01*
X173649047Y-43829523D01*
X173315714Y-43829523D01*
X173125238Y-43781904D01*
X173030000Y-43686666D01*
X172982380Y-43591428D01*
X172982380Y-43400952D01*
X173030000Y-43305714D01*
X173125238Y-43210476D01*
X173315714Y-43162857D01*
X173649047Y-43162857D01*
X173839523Y-43210476D01*
X173934761Y-43305714D01*
X173982380Y-43400952D01*
X173982380Y-43591428D01*
X172982380Y-42829523D02*
X172982380Y-42210476D01*
X173363333Y-42543809D01*
X173363333Y-42400952D01*
X173410952Y-42305714D01*
X173458571Y-42258095D01*
X173553809Y-42210476D01*
X173791904Y-42210476D01*
X173887142Y-42258095D01*
X173934761Y-42305714D01*
X173982380Y-42400952D01*
X173982380Y-42686666D01*
X173934761Y-42781904D01*
X173887142Y-42829523D01*
G04 #@! TO.C,Q4*
X105532857Y-137015571D02*
X105675714Y-137063190D01*
X105723333Y-137110809D01*
X105770952Y-137206047D01*
X105770952Y-137348904D01*
X105723333Y-137444142D01*
X105675714Y-137491761D01*
X105580476Y-137539380D01*
X105199523Y-137539380D01*
X105199523Y-136539380D01*
X105532857Y-136539380D01*
X105628095Y-136587000D01*
X105675714Y-136634619D01*
X105723333Y-136729857D01*
X105723333Y-136825095D01*
X105675714Y-136920333D01*
X105628095Y-136967952D01*
X105532857Y-137015571D01*
X105199523Y-137015571D01*
X106770952Y-137444142D02*
X106723333Y-137491761D01*
X106580476Y-137539380D01*
X106485238Y-137539380D01*
X106342380Y-137491761D01*
X106247142Y-137396523D01*
X106199523Y-137301285D01*
X106151904Y-137110809D01*
X106151904Y-136967952D01*
X106199523Y-136777476D01*
X106247142Y-136682238D01*
X106342380Y-136587000D01*
X106485238Y-136539380D01*
X106580476Y-136539380D01*
X106723333Y-136587000D01*
X106770952Y-136634619D01*
X107675714Y-136539380D02*
X107199523Y-136539380D01*
X107151904Y-137015571D01*
X107199523Y-136967952D01*
X107294761Y-136920333D01*
X107532857Y-136920333D01*
X107628095Y-136967952D01*
X107675714Y-137015571D01*
X107723333Y-137110809D01*
X107723333Y-137348904D01*
X107675714Y-137444142D01*
X107628095Y-137491761D01*
X107532857Y-137539380D01*
X107294761Y-137539380D01*
X107199523Y-137491761D01*
X107151904Y-137444142D01*
X108580476Y-136872714D02*
X108580476Y-137539380D01*
X108342380Y-136491761D02*
X108104285Y-137206047D01*
X108723333Y-137206047D01*
X109009047Y-136539380D02*
X109675714Y-136539380D01*
X109247142Y-137539380D01*
X111030761Y-132347619D02*
X110935523Y-132300000D01*
X110840285Y-132204761D01*
X110697428Y-132061904D01*
X110602190Y-132014285D01*
X110506952Y-132014285D01*
X110554571Y-132252380D02*
X110459333Y-132204761D01*
X110364095Y-132109523D01*
X110316476Y-131919047D01*
X110316476Y-131585714D01*
X110364095Y-131395238D01*
X110459333Y-131300000D01*
X110554571Y-131252380D01*
X110745047Y-131252380D01*
X110840285Y-131300000D01*
X110935523Y-131395238D01*
X110983142Y-131585714D01*
X110983142Y-131919047D01*
X110935523Y-132109523D01*
X110840285Y-132204761D01*
X110745047Y-132252380D01*
X110554571Y-132252380D01*
X111840285Y-131585714D02*
X111840285Y-132252380D01*
X111602190Y-131204761D02*
X111364095Y-131919047D01*
X111983142Y-131919047D01*
G04 #@! TO.C,R1*
X98852380Y-39809047D02*
X98852380Y-40380476D01*
X98852380Y-40094761D02*
X97852380Y-40094761D01*
X97995238Y-40190000D01*
X98090476Y-40285238D01*
X98138095Y-40380476D01*
X98852380Y-39380476D02*
X97852380Y-39380476D01*
X98471428Y-39285238D02*
X98852380Y-38999523D01*
X98185714Y-38999523D02*
X98566666Y-39380476D01*
G04 #@! TO.C,R2*
X69652380Y-125714285D02*
X69652380Y-125095238D01*
X70033333Y-125428571D01*
X70033333Y-125285714D01*
X70080952Y-125190476D01*
X70128571Y-125142857D01*
X70223809Y-125095238D01*
X70461904Y-125095238D01*
X70557142Y-125142857D01*
X70604761Y-125190476D01*
X70652380Y-125285714D01*
X70652380Y-125571428D01*
X70604761Y-125666666D01*
X70557142Y-125714285D01*
X70652380Y-124666666D02*
X69652380Y-124666666D01*
X70271428Y-124571428D02*
X70652380Y-124285714D01*
X69985714Y-124285714D02*
X70366666Y-124666666D01*
X69652380Y-123952380D02*
X69652380Y-123333333D01*
X70033333Y-123666666D01*
X70033333Y-123523809D01*
X70080952Y-123428571D01*
X70128571Y-123380952D01*
X70223809Y-123333333D01*
X70461904Y-123333333D01*
X70557142Y-123380952D01*
X70604761Y-123428571D01*
X70652380Y-123523809D01*
X70652380Y-123809523D01*
X70604761Y-123904761D01*
X70557142Y-123952380D01*
G04 #@! TO.C,R3*
X68242380Y-52405238D02*
X68242380Y-52976666D01*
X68242380Y-52690952D02*
X67242380Y-52690952D01*
X67385238Y-52786190D01*
X67480476Y-52881428D01*
X67528095Y-52976666D01*
X68242380Y-51976666D02*
X67242380Y-51976666D01*
X67861428Y-51881428D02*
X68242380Y-51595714D01*
X67575714Y-51595714D02*
X67956666Y-51976666D01*
X67242380Y-50690952D02*
X67242380Y-51167142D01*
X67718571Y-51214761D01*
X67670952Y-51167142D01*
X67623333Y-51071904D01*
X67623333Y-50833809D01*
X67670952Y-50738571D01*
X67718571Y-50690952D01*
X67813809Y-50643333D01*
X68051904Y-50643333D01*
X68147142Y-50690952D01*
X68194761Y-50738571D01*
X68242380Y-50833809D01*
X68242380Y-51071904D01*
X68194761Y-51167142D01*
X68147142Y-51214761D01*
G04 #@! TO.C,R4*
X168438476Y-76326380D02*
X169057523Y-76326380D01*
X168724190Y-76707333D01*
X168867047Y-76707333D01*
X168962285Y-76754952D01*
X169009904Y-76802571D01*
X169057523Y-76897809D01*
X169057523Y-77135904D01*
X169009904Y-77231142D01*
X168962285Y-77278761D01*
X168867047Y-77326380D01*
X168581333Y-77326380D01*
X168486095Y-77278761D01*
X168438476Y-77231142D01*
X169486095Y-77326380D02*
X169486095Y-76326380D01*
X170057523Y-77326380D02*
X169628952Y-76754952D01*
X170057523Y-76326380D02*
X169486095Y-76897809D01*
X170390857Y-76326380D02*
X171009904Y-76326380D01*
X170676571Y-76707333D01*
X170819428Y-76707333D01*
X170914666Y-76754952D01*
X170962285Y-76802571D01*
X171009904Y-76897809D01*
X171009904Y-77135904D01*
X170962285Y-77231142D01*
X170914666Y-77278761D01*
X170819428Y-77326380D01*
X170533714Y-77326380D01*
X170438476Y-77278761D01*
X170390857Y-77231142D01*
G04 #@! TO.C,R5*
X177074380Y-138635523D02*
X177074380Y-138016476D01*
X177455333Y-138349809D01*
X177455333Y-138206952D01*
X177502952Y-138111714D01*
X177550571Y-138064095D01*
X177645809Y-138016476D01*
X177883904Y-138016476D01*
X177979142Y-138064095D01*
X178026761Y-138111714D01*
X178074380Y-138206952D01*
X178074380Y-138492666D01*
X178026761Y-138587904D01*
X177979142Y-138635523D01*
X178074380Y-137587904D02*
X177074380Y-137587904D01*
X178074380Y-137016476D02*
X177502952Y-137445047D01*
X177074380Y-137016476D02*
X177645809Y-137587904D01*
X177074380Y-136683142D02*
X177074380Y-136064095D01*
X177455333Y-136397428D01*
X177455333Y-136254571D01*
X177502952Y-136159333D01*
X177550571Y-136111714D01*
X177645809Y-136064095D01*
X177883904Y-136064095D01*
X177979142Y-136111714D01*
X178026761Y-136159333D01*
X178074380Y-136254571D01*
X178074380Y-136540285D01*
X178026761Y-136635523D01*
X177979142Y-136683142D01*
G04 #@! TO.C,R6*
X168184476Y-40258380D02*
X168803523Y-40258380D01*
X168470190Y-40639333D01*
X168613047Y-40639333D01*
X168708285Y-40686952D01*
X168755904Y-40734571D01*
X168803523Y-40829809D01*
X168803523Y-41067904D01*
X168755904Y-41163142D01*
X168708285Y-41210761D01*
X168613047Y-41258380D01*
X168327333Y-41258380D01*
X168232095Y-41210761D01*
X168184476Y-41163142D01*
X169232095Y-41258380D02*
X169232095Y-40258380D01*
X169803523Y-41258380D02*
X169374952Y-40686952D01*
X169803523Y-40258380D02*
X169232095Y-40829809D01*
X170136857Y-40258380D02*
X170755904Y-40258380D01*
X170422571Y-40639333D01*
X170565428Y-40639333D01*
X170660666Y-40686952D01*
X170708285Y-40734571D01*
X170755904Y-40829809D01*
X170755904Y-41067904D01*
X170708285Y-41163142D01*
X170660666Y-41210761D01*
X170565428Y-41258380D01*
X170279714Y-41258380D01*
X170184476Y-41210761D01*
X170136857Y-41163142D01*
G04 #@! TO.C,R7*
X158357714Y-77580380D02*
X157786285Y-77580380D01*
X158072000Y-77580380D02*
X158072000Y-76580380D01*
X157976761Y-76723238D01*
X157881523Y-76818476D01*
X157786285Y-76866095D01*
X158786285Y-77580380D02*
X158786285Y-76580380D01*
X159357714Y-77580380D02*
X158929142Y-77008952D01*
X159357714Y-76580380D02*
X158786285Y-77151809D01*
G04 #@! TO.C,R8*
X178074380Y-127126285D02*
X178074380Y-127697714D01*
X178074380Y-127412000D02*
X177074380Y-127412000D01*
X177217238Y-127507238D01*
X177312476Y-127602476D01*
X177360095Y-127697714D01*
X178074380Y-126697714D02*
X177074380Y-126697714D01*
X178074380Y-126126285D02*
X177502952Y-126554857D01*
X177074380Y-126126285D02*
X177645809Y-126697714D01*
G04 #@! TO.C,R9*
X158865714Y-41258380D02*
X158294285Y-41258380D01*
X158580000Y-41258380D02*
X158580000Y-40258380D01*
X158484761Y-40401238D01*
X158389523Y-40496476D01*
X158294285Y-40544095D01*
X159294285Y-41258380D02*
X159294285Y-40258380D01*
X159865714Y-41258380D02*
X159437142Y-40686952D01*
X159865714Y-40258380D02*
X159294285Y-40829809D01*
G04 #@! TO.C,R10*
X138323523Y-120601714D02*
X138323523Y-121268380D01*
X138085428Y-120220761D02*
X137847333Y-120935047D01*
X138466380Y-120935047D01*
X138847333Y-121268380D02*
X138847333Y-120268380D01*
X138942571Y-120887428D02*
X139228285Y-121268380D01*
X139228285Y-120601714D02*
X138847333Y-120982666D01*
X139561619Y-120268380D02*
X140228285Y-120268380D01*
X139799714Y-121268380D01*
G04 #@! TO.C,R11*
X141371523Y-114759714D02*
X141371523Y-115426380D01*
X141133428Y-114378761D02*
X140895333Y-115093047D01*
X141514380Y-115093047D01*
X141895333Y-115426380D02*
X141895333Y-114426380D01*
X141990571Y-115045428D02*
X142276285Y-115426380D01*
X142276285Y-114759714D02*
X141895333Y-115140666D01*
X142609619Y-114426380D02*
X143276285Y-114426380D01*
X142847714Y-115426380D01*
G04 #@! TO.C,R12*
X103444476Y-129332380D02*
X104063523Y-129332380D01*
X103730190Y-129713333D01*
X103873047Y-129713333D01*
X103968285Y-129760952D01*
X104015904Y-129808571D01*
X104063523Y-129903809D01*
X104063523Y-130141904D01*
X104015904Y-130237142D01*
X103968285Y-130284761D01*
X103873047Y-130332380D01*
X103587333Y-130332380D01*
X103492095Y-130284761D01*
X103444476Y-130237142D01*
X104492095Y-130332380D02*
X104492095Y-129332380D01*
X105063523Y-130332380D02*
X104634952Y-129760952D01*
X105063523Y-129332380D02*
X104492095Y-129903809D01*
X105396857Y-129332380D02*
X106015904Y-129332380D01*
X105682571Y-129713333D01*
X105825428Y-129713333D01*
X105920666Y-129760952D01*
X105968285Y-129808571D01*
X106015904Y-129903809D01*
X106015904Y-130141904D01*
X105968285Y-130237142D01*
X105920666Y-130284761D01*
X105825428Y-130332380D01*
X105539714Y-130332380D01*
X105444476Y-130284761D01*
X105396857Y-130237142D01*
G04 #@! TO.C,R13*
X85200714Y-126814380D02*
X84629285Y-126814380D01*
X84915000Y-126814380D02*
X84915000Y-125814380D01*
X84819761Y-125957238D01*
X84724523Y-126052476D01*
X84629285Y-126100095D01*
X85629285Y-126814380D02*
X85629285Y-125814380D01*
X86200714Y-126814380D02*
X85772142Y-126242952D01*
X86200714Y-125814380D02*
X85629285Y-126385809D01*
G04 #@! TO.C,R14*
X98642380Y-116288285D02*
X98642380Y-116859714D01*
X98642380Y-116574000D02*
X97642380Y-116574000D01*
X97785238Y-116669238D01*
X97880476Y-116764476D01*
X97928095Y-116859714D01*
X98642380Y-115859714D02*
X97642380Y-115859714D01*
X98642380Y-115288285D02*
X98070952Y-115716857D01*
X97642380Y-115288285D02*
X98213809Y-115859714D01*
G04 #@! TO.C,R15*
X96322380Y-116323285D02*
X96322380Y-116894714D01*
X96322380Y-116609000D02*
X95322380Y-116609000D01*
X95465238Y-116704238D01*
X95560476Y-116799476D01*
X95608095Y-116894714D01*
X96322380Y-115894714D02*
X95322380Y-115894714D01*
X96322380Y-115323285D02*
X95750952Y-115751857D01*
X95322380Y-115323285D02*
X95893809Y-115894714D01*
G04 #@! TO.C,R16*
X93180380Y-116318285D02*
X93180380Y-116889714D01*
X93180380Y-116604000D02*
X92180380Y-116604000D01*
X92323238Y-116699238D01*
X92418476Y-116794476D01*
X92466095Y-116889714D01*
X93180380Y-115889714D02*
X92180380Y-115889714D01*
X93180380Y-115318285D02*
X92608952Y-115746857D01*
X92180380Y-115318285D02*
X92751809Y-115889714D01*
G04 #@! TO.C,R17*
X105845714Y-67355714D02*
X106512380Y-67355714D01*
X105464761Y-67593809D02*
X106179047Y-67831904D01*
X106179047Y-67212857D01*
X106512380Y-66831904D02*
X105512380Y-66831904D01*
X106512380Y-66260476D02*
X105940952Y-66689047D01*
X105512380Y-66260476D02*
X106083809Y-66831904D01*
X105512380Y-65927142D02*
X105512380Y-65260476D01*
X106512380Y-65689047D01*
G04 #@! TO.C,Rly1*
X161263142Y-92328380D02*
X161072666Y-92328380D01*
X160977428Y-92376000D01*
X160929809Y-92423619D01*
X160834571Y-92566476D01*
X160786952Y-92756952D01*
X160786952Y-93137904D01*
X160834571Y-93233142D01*
X160882190Y-93280761D01*
X160977428Y-93328380D01*
X161167904Y-93328380D01*
X161263142Y-93280761D01*
X161310761Y-93233142D01*
X161358380Y-93137904D01*
X161358380Y-92899809D01*
X161310761Y-92804571D01*
X161263142Y-92756952D01*
X161167904Y-92709333D01*
X160977428Y-92709333D01*
X160882190Y-92756952D01*
X160834571Y-92804571D01*
X160786952Y-92899809D01*
X161644095Y-92328380D02*
X161977428Y-93328380D01*
X162310761Y-92328380D01*
X162406000Y-93423619D02*
X163167904Y-93423619D01*
X163977428Y-93328380D02*
X163644095Y-92852190D01*
X163406000Y-93328380D02*
X163406000Y-92328380D01*
X163786952Y-92328380D01*
X163882190Y-92376000D01*
X163929809Y-92423619D01*
X163977428Y-92518857D01*
X163977428Y-92661714D01*
X163929809Y-92756952D01*
X163882190Y-92804571D01*
X163786952Y-92852190D01*
X163406000Y-92852190D01*
X164786952Y-93280761D02*
X164691714Y-93328380D01*
X164501238Y-93328380D01*
X164406000Y-93280761D01*
X164358380Y-93185523D01*
X164358380Y-92804571D01*
X164406000Y-92709333D01*
X164501238Y-92661714D01*
X164691714Y-92661714D01*
X164786952Y-92709333D01*
X164834571Y-92804571D01*
X164834571Y-92899809D01*
X164358380Y-92995047D01*
X165406000Y-93328380D02*
X165310761Y-93280761D01*
X165263142Y-93185523D01*
X165263142Y-92328380D01*
X166215523Y-93328380D02*
X166215523Y-92804571D01*
X166167904Y-92709333D01*
X166072666Y-92661714D01*
X165882190Y-92661714D01*
X165786952Y-92709333D01*
X166215523Y-93280761D02*
X166120285Y-93328380D01*
X165882190Y-93328380D01*
X165786952Y-93280761D01*
X165739333Y-93185523D01*
X165739333Y-93090285D01*
X165786952Y-92995047D01*
X165882190Y-92947428D01*
X166120285Y-92947428D01*
X166215523Y-92899809D01*
X166596476Y-92661714D02*
X166834571Y-93328380D01*
X167072666Y-92661714D02*
X166834571Y-93328380D01*
X166739333Y-93566476D01*
X166691714Y-93614095D01*
X166596476Y-93661714D01*
G04 #@! TO.C,Rly2*
X158532380Y-130316857D02*
X158532380Y-130507333D01*
X158580000Y-130602571D01*
X158627619Y-130650190D01*
X158770476Y-130745428D01*
X158960952Y-130793047D01*
X159341904Y-130793047D01*
X159437142Y-130745428D01*
X159484761Y-130697809D01*
X159532380Y-130602571D01*
X159532380Y-130412095D01*
X159484761Y-130316857D01*
X159437142Y-130269238D01*
X159341904Y-130221619D01*
X159103809Y-130221619D01*
X159008571Y-130269238D01*
X158960952Y-130316857D01*
X158913333Y-130412095D01*
X158913333Y-130602571D01*
X158960952Y-130697809D01*
X159008571Y-130745428D01*
X159103809Y-130793047D01*
X158532380Y-129935904D02*
X159532380Y-129602571D01*
X158532380Y-129269238D01*
X159627619Y-129174000D02*
X159627619Y-128412095D01*
X159532380Y-127602571D02*
X159056190Y-127935904D01*
X159532380Y-128174000D02*
X158532380Y-128174000D01*
X158532380Y-127793047D01*
X158580000Y-127697809D01*
X158627619Y-127650190D01*
X158722857Y-127602571D01*
X158865714Y-127602571D01*
X158960952Y-127650190D01*
X159008571Y-127697809D01*
X159056190Y-127793047D01*
X159056190Y-128174000D01*
X159484761Y-126793047D02*
X159532380Y-126888285D01*
X159532380Y-127078761D01*
X159484761Y-127174000D01*
X159389523Y-127221619D01*
X159008571Y-127221619D01*
X158913333Y-127174000D01*
X158865714Y-127078761D01*
X158865714Y-126888285D01*
X158913333Y-126793047D01*
X159008571Y-126745428D01*
X159103809Y-126745428D01*
X159199047Y-127221619D01*
X159532380Y-126174000D02*
X159484761Y-126269238D01*
X159389523Y-126316857D01*
X158532380Y-126316857D01*
X159532380Y-125364476D02*
X159008571Y-125364476D01*
X158913333Y-125412095D01*
X158865714Y-125507333D01*
X158865714Y-125697809D01*
X158913333Y-125793047D01*
X159484761Y-125364476D02*
X159532380Y-125459714D01*
X159532380Y-125697809D01*
X159484761Y-125793047D01*
X159389523Y-125840666D01*
X159294285Y-125840666D01*
X159199047Y-125793047D01*
X159151428Y-125697809D01*
X159151428Y-125459714D01*
X159103809Y-125364476D01*
X158865714Y-124983523D02*
X159532380Y-124745428D01*
X158865714Y-124507333D02*
X159532380Y-124745428D01*
X159770476Y-124840666D01*
X159818095Y-124888285D01*
X159865714Y-124983523D01*
G04 #@! TO.C,Rly3*
X162279142Y-54990380D02*
X162088666Y-54990380D01*
X161993428Y-55038000D01*
X161945809Y-55085619D01*
X161850571Y-55228476D01*
X161802952Y-55418952D01*
X161802952Y-55799904D01*
X161850571Y-55895142D01*
X161898190Y-55942761D01*
X161993428Y-55990380D01*
X162183904Y-55990380D01*
X162279142Y-55942761D01*
X162326761Y-55895142D01*
X162374380Y-55799904D01*
X162374380Y-55561809D01*
X162326761Y-55466571D01*
X162279142Y-55418952D01*
X162183904Y-55371333D01*
X161993428Y-55371333D01*
X161898190Y-55418952D01*
X161850571Y-55466571D01*
X161802952Y-55561809D01*
X162660095Y-54990380D02*
X162993428Y-55990380D01*
X163326761Y-54990380D01*
X163422000Y-56085619D02*
X164183904Y-56085619D01*
X164993428Y-55990380D02*
X164660095Y-55514190D01*
X164422000Y-55990380D02*
X164422000Y-54990380D01*
X164802952Y-54990380D01*
X164898190Y-55038000D01*
X164945809Y-55085619D01*
X164993428Y-55180857D01*
X164993428Y-55323714D01*
X164945809Y-55418952D01*
X164898190Y-55466571D01*
X164802952Y-55514190D01*
X164422000Y-55514190D01*
X165802952Y-55942761D02*
X165707714Y-55990380D01*
X165517238Y-55990380D01*
X165422000Y-55942761D01*
X165374380Y-55847523D01*
X165374380Y-55466571D01*
X165422000Y-55371333D01*
X165517238Y-55323714D01*
X165707714Y-55323714D01*
X165802952Y-55371333D01*
X165850571Y-55466571D01*
X165850571Y-55561809D01*
X165374380Y-55657047D01*
X166422000Y-55990380D02*
X166326761Y-55942761D01*
X166279142Y-55847523D01*
X166279142Y-54990380D01*
X167231523Y-55990380D02*
X167231523Y-55466571D01*
X167183904Y-55371333D01*
X167088666Y-55323714D01*
X166898190Y-55323714D01*
X166802952Y-55371333D01*
X167231523Y-55942761D02*
X167136285Y-55990380D01*
X166898190Y-55990380D01*
X166802952Y-55942761D01*
X166755333Y-55847523D01*
X166755333Y-55752285D01*
X166802952Y-55657047D01*
X166898190Y-55609428D01*
X167136285Y-55609428D01*
X167231523Y-55561809D01*
X167612476Y-55323714D02*
X167850571Y-55990380D01*
X168088666Y-55323714D02*
X167850571Y-55990380D01*
X167755333Y-56228476D01*
X167707714Y-56276095D01*
X167612476Y-56323714D01*
G04 #@! TO.C,Rly4*
X88105142Y-144098380D02*
X87914666Y-144098380D01*
X87819428Y-144146000D01*
X87771809Y-144193619D01*
X87676571Y-144336476D01*
X87628952Y-144526952D01*
X87628952Y-144907904D01*
X87676571Y-145003142D01*
X87724190Y-145050761D01*
X87819428Y-145098380D01*
X88009904Y-145098380D01*
X88105142Y-145050761D01*
X88152761Y-145003142D01*
X88200380Y-144907904D01*
X88200380Y-144669809D01*
X88152761Y-144574571D01*
X88105142Y-144526952D01*
X88009904Y-144479333D01*
X87819428Y-144479333D01*
X87724190Y-144526952D01*
X87676571Y-144574571D01*
X87628952Y-144669809D01*
X88486095Y-144098380D02*
X88819428Y-145098380D01*
X89152761Y-144098380D01*
X89248000Y-145193619D02*
X90009904Y-145193619D01*
X90819428Y-145098380D02*
X90486095Y-144622190D01*
X90248000Y-145098380D02*
X90248000Y-144098380D01*
X90628952Y-144098380D01*
X90724190Y-144146000D01*
X90771809Y-144193619D01*
X90819428Y-144288857D01*
X90819428Y-144431714D01*
X90771809Y-144526952D01*
X90724190Y-144574571D01*
X90628952Y-144622190D01*
X90248000Y-144622190D01*
X91628952Y-145050761D02*
X91533714Y-145098380D01*
X91343238Y-145098380D01*
X91248000Y-145050761D01*
X91200380Y-144955523D01*
X91200380Y-144574571D01*
X91248000Y-144479333D01*
X91343238Y-144431714D01*
X91533714Y-144431714D01*
X91628952Y-144479333D01*
X91676571Y-144574571D01*
X91676571Y-144669809D01*
X91200380Y-144765047D01*
X92248000Y-145098380D02*
X92152761Y-145050761D01*
X92105142Y-144955523D01*
X92105142Y-144098380D01*
X93057523Y-145098380D02*
X93057523Y-144574571D01*
X93009904Y-144479333D01*
X92914666Y-144431714D01*
X92724190Y-144431714D01*
X92628952Y-144479333D01*
X93057523Y-145050761D02*
X92962285Y-145098380D01*
X92724190Y-145098380D01*
X92628952Y-145050761D01*
X92581333Y-144955523D01*
X92581333Y-144860285D01*
X92628952Y-144765047D01*
X92724190Y-144717428D01*
X92962285Y-144717428D01*
X93057523Y-144669809D01*
X93438476Y-144431714D02*
X93676571Y-145098380D01*
X93914666Y-144431714D02*
X93676571Y-145098380D01*
X93581333Y-145336476D01*
X93533714Y-145384095D01*
X93438476Y-145431714D01*
G04 #@! TO.C,U1*
X86794761Y-31752380D02*
X86318571Y-31752380D01*
X86318571Y-30752380D01*
X87032857Y-30752380D02*
X87699523Y-30752380D01*
X87270952Y-31752380D01*
X88223333Y-31180952D02*
X88128095Y-31133333D01*
X88080476Y-31085714D01*
X88032857Y-30990476D01*
X88032857Y-30942857D01*
X88080476Y-30847619D01*
X88128095Y-30800000D01*
X88223333Y-30752380D01*
X88413809Y-30752380D01*
X88509047Y-30800000D01*
X88556666Y-30847619D01*
X88604285Y-30942857D01*
X88604285Y-30990476D01*
X88556666Y-31085714D01*
X88509047Y-31133333D01*
X88413809Y-31180952D01*
X88223333Y-31180952D01*
X88128095Y-31228571D01*
X88080476Y-31276190D01*
X88032857Y-31371428D01*
X88032857Y-31561904D01*
X88080476Y-31657142D01*
X88128095Y-31704761D01*
X88223333Y-31752380D01*
X88413809Y-31752380D01*
X88509047Y-31704761D01*
X88556666Y-31657142D01*
X88604285Y-31561904D01*
X88604285Y-31371428D01*
X88556666Y-31276190D01*
X88509047Y-31228571D01*
X88413809Y-31180952D01*
X89223333Y-30752380D02*
X89318571Y-30752380D01*
X89413809Y-30800000D01*
X89461428Y-30847619D01*
X89509047Y-30942857D01*
X89556666Y-31133333D01*
X89556666Y-31371428D01*
X89509047Y-31561904D01*
X89461428Y-31657142D01*
X89413809Y-31704761D01*
X89318571Y-31752380D01*
X89223333Y-31752380D01*
X89128095Y-31704761D01*
X89080476Y-31657142D01*
X89032857Y-31561904D01*
X88985238Y-31371428D01*
X88985238Y-31133333D01*
X89032857Y-30942857D01*
X89080476Y-30847619D01*
X89128095Y-30800000D01*
X89223333Y-30752380D01*
X90032857Y-31752380D02*
X90223333Y-31752380D01*
X90318571Y-31704761D01*
X90366190Y-31657142D01*
X90461428Y-31514285D01*
X90509047Y-31323809D01*
X90509047Y-30942857D01*
X90461428Y-30847619D01*
X90413809Y-30800000D01*
X90318571Y-30752380D01*
X90128095Y-30752380D01*
X90032857Y-30800000D01*
X89985238Y-30847619D01*
X89937619Y-30942857D01*
X89937619Y-31180952D01*
X89985238Y-31276190D01*
X90032857Y-31323809D01*
X90128095Y-31371428D01*
X90318571Y-31371428D01*
X90413809Y-31323809D01*
X90461428Y-31276190D01*
X90509047Y-31180952D01*
X85648095Y-39632380D02*
X85648095Y-40441904D01*
X85695714Y-40537142D01*
X85743333Y-40584761D01*
X85838571Y-40632380D01*
X86029047Y-40632380D01*
X86124285Y-40584761D01*
X86171904Y-40537142D01*
X86219523Y-40441904D01*
X86219523Y-39632380D01*
X87219523Y-40632380D02*
X86648095Y-40632380D01*
X86933809Y-40632380D02*
X86933809Y-39632380D01*
X86838571Y-39775238D01*
X86743333Y-39870476D01*
X86648095Y-39918095D01*
G04 #@! TO.C,U3*
X54878571Y-96594285D02*
X54926190Y-96451428D01*
X54973809Y-96403809D01*
X55069047Y-96356190D01*
X55211904Y-96356190D01*
X55307142Y-96403809D01*
X55354761Y-96451428D01*
X55402380Y-96546666D01*
X55402380Y-96927619D01*
X54402380Y-96927619D01*
X54402380Y-96594285D01*
X54450000Y-96499047D01*
X54497619Y-96451428D01*
X54592857Y-96403809D01*
X54688095Y-96403809D01*
X54783333Y-96451428D01*
X54830952Y-96499047D01*
X54878571Y-96594285D01*
X54878571Y-96927619D01*
X54735714Y-95499047D02*
X55402380Y-95499047D01*
X54735714Y-95927619D02*
X55259523Y-95927619D01*
X55354761Y-95880000D01*
X55402380Y-95784761D01*
X55402380Y-95641904D01*
X55354761Y-95546666D01*
X55307142Y-95499047D01*
X55354761Y-94594285D02*
X55402380Y-94689523D01*
X55402380Y-94880000D01*
X55354761Y-94975238D01*
X55307142Y-95022857D01*
X55211904Y-95070476D01*
X54926190Y-95070476D01*
X54830952Y-95022857D01*
X54783333Y-94975238D01*
X54735714Y-94880000D01*
X54735714Y-94689523D01*
X54783333Y-94594285D01*
X55402380Y-94165714D02*
X54402380Y-94165714D01*
X55021428Y-94070476D02*
X55402380Y-93784761D01*
X54735714Y-93784761D02*
X55116666Y-94165714D01*
G04 #@! TO.C,U4*
X76868571Y-89674285D02*
X76916190Y-89531428D01*
X76963809Y-89483809D01*
X77059047Y-89436190D01*
X77201904Y-89436190D01*
X77297142Y-89483809D01*
X77344761Y-89531428D01*
X77392380Y-89626666D01*
X77392380Y-90007619D01*
X76392380Y-90007619D01*
X76392380Y-89674285D01*
X76440000Y-89579047D01*
X76487619Y-89531428D01*
X76582857Y-89483809D01*
X76678095Y-89483809D01*
X76773333Y-89531428D01*
X76820952Y-89579047D01*
X76868571Y-89674285D01*
X76868571Y-90007619D01*
X76725714Y-88579047D02*
X77392380Y-88579047D01*
X76725714Y-89007619D02*
X77249523Y-89007619D01*
X77344761Y-88960000D01*
X77392380Y-88864761D01*
X77392380Y-88721904D01*
X77344761Y-88626666D01*
X77297142Y-88579047D01*
X77344761Y-87674285D02*
X77392380Y-87769523D01*
X77392380Y-87960000D01*
X77344761Y-88055238D01*
X77297142Y-88102857D01*
X77201904Y-88150476D01*
X76916190Y-88150476D01*
X76820952Y-88102857D01*
X76773333Y-88055238D01*
X76725714Y-87960000D01*
X76725714Y-87769523D01*
X76773333Y-87674285D01*
X77392380Y-87245714D02*
X76392380Y-87245714D01*
X77011428Y-87150476D02*
X77392380Y-86864761D01*
X76725714Y-86864761D02*
X77106666Y-87245714D01*
G04 #@! TO.C,C5*
X97011428Y-51202380D02*
X96440000Y-51202380D01*
X96725714Y-51202380D02*
X96725714Y-50202380D01*
X96630476Y-50345238D01*
X96535238Y-50440476D01*
X96440000Y-50488095D01*
X97630476Y-50202380D02*
X97725714Y-50202380D01*
X97820952Y-50250000D01*
X97868571Y-50297619D01*
X97916190Y-50392857D01*
X97963809Y-50583333D01*
X97963809Y-50821428D01*
X97916190Y-51011904D01*
X97868571Y-51107142D01*
X97820952Y-51154761D01*
X97725714Y-51202380D01*
X97630476Y-51202380D01*
X97535238Y-51154761D01*
X97487619Y-51107142D01*
X97440000Y-51011904D01*
X97392380Y-50821428D01*
X97392380Y-50583333D01*
X97440000Y-50392857D01*
X97487619Y-50297619D01*
X97535238Y-50250000D01*
X97630476Y-50202380D01*
X98820952Y-50535714D02*
X98820952Y-51202380D01*
X98392380Y-50535714D02*
X98392380Y-51059523D01*
X98440000Y-51154761D01*
X98535238Y-51202380D01*
X98678095Y-51202380D01*
X98773333Y-51154761D01*
X98820952Y-51107142D01*
X99154285Y-50535714D02*
X99535238Y-50535714D01*
X99297142Y-51202380D02*
X99297142Y-50345238D01*
X99344761Y-50250000D01*
X99440000Y-50202380D01*
X99535238Y-50202380D01*
G04 #@! TO.C,C26*
X70755238Y-32252380D02*
X70183809Y-32252380D01*
X70469523Y-32252380D02*
X70469523Y-31252380D01*
X70374285Y-31395238D01*
X70279047Y-31490476D01*
X70183809Y-31538095D01*
X71374285Y-31252380D02*
X71469523Y-31252380D01*
X71564761Y-31300000D01*
X71612380Y-31347619D01*
X71660000Y-31442857D01*
X71707619Y-31633333D01*
X71707619Y-31871428D01*
X71660000Y-32061904D01*
X71612380Y-32157142D01*
X71564761Y-32204761D01*
X71469523Y-32252380D01*
X71374285Y-32252380D01*
X71279047Y-32204761D01*
X71231428Y-32157142D01*
X71183809Y-32061904D01*
X71136190Y-31871428D01*
X71136190Y-31633333D01*
X71183809Y-31442857D01*
X71231428Y-31347619D01*
X71279047Y-31300000D01*
X71374285Y-31252380D01*
X72326666Y-31252380D02*
X72421904Y-31252380D01*
X72517142Y-31300000D01*
X72564761Y-31347619D01*
X72612380Y-31442857D01*
X72660000Y-31633333D01*
X72660000Y-31871428D01*
X72612380Y-32061904D01*
X72564761Y-32157142D01*
X72517142Y-32204761D01*
X72421904Y-32252380D01*
X72326666Y-32252380D01*
X72231428Y-32204761D01*
X72183809Y-32157142D01*
X72136190Y-32061904D01*
X72088571Y-31871428D01*
X72088571Y-31633333D01*
X72136190Y-31442857D01*
X72183809Y-31347619D01*
X72231428Y-31300000D01*
X72326666Y-31252380D01*
X73517142Y-31585714D02*
X73517142Y-32252380D01*
X73088571Y-31585714D02*
X73088571Y-32109523D01*
X73136190Y-32204761D01*
X73231428Y-32252380D01*
X73374285Y-32252380D01*
X73469523Y-32204761D01*
X73517142Y-32157142D01*
X73850476Y-31585714D02*
X74231428Y-31585714D01*
X73993333Y-32252380D02*
X73993333Y-31395238D01*
X74040952Y-31300000D01*
X74136190Y-31252380D01*
X74231428Y-31252380D01*
G04 #@! TO.C,J12*
X116358571Y-42120000D02*
X116406190Y-41977142D01*
X116453809Y-41929523D01*
X116549047Y-41881904D01*
X116691904Y-41881904D01*
X116787142Y-41929523D01*
X116834761Y-41977142D01*
X116882380Y-42072380D01*
X116882380Y-42453333D01*
X115882380Y-42453333D01*
X115882380Y-42120000D01*
X115930000Y-42024761D01*
X115977619Y-41977142D01*
X116072857Y-41929523D01*
X116168095Y-41929523D01*
X116263333Y-41977142D01*
X116310952Y-42024761D01*
X116358571Y-42120000D01*
X116358571Y-42453333D01*
X116882380Y-41310476D02*
X116834761Y-41405714D01*
X116739523Y-41453333D01*
X115882380Y-41453333D01*
X116215714Y-40500952D02*
X116882380Y-40500952D01*
X116215714Y-40929523D02*
X116739523Y-40929523D01*
X116834761Y-40881904D01*
X116882380Y-40786666D01*
X116882380Y-40643809D01*
X116834761Y-40548571D01*
X116787142Y-40500952D01*
X116834761Y-39643809D02*
X116882380Y-39739047D01*
X116882380Y-39929523D01*
X116834761Y-40024761D01*
X116739523Y-40072380D01*
X116358571Y-40072380D01*
X116263333Y-40024761D01*
X116215714Y-39929523D01*
X116215714Y-39739047D01*
X116263333Y-39643809D01*
X116358571Y-39596190D01*
X116453809Y-39596190D01*
X116549047Y-40072380D01*
X116215714Y-39310476D02*
X116215714Y-38929523D01*
X115882380Y-39167619D02*
X116739523Y-39167619D01*
X116834761Y-39120000D01*
X116882380Y-39024761D01*
X116882380Y-38929523D01*
X116882380Y-38453333D02*
X116834761Y-38548571D01*
X116787142Y-38596190D01*
X116691904Y-38643809D01*
X116406190Y-38643809D01*
X116310952Y-38596190D01*
X116263333Y-38548571D01*
X116215714Y-38453333D01*
X116215714Y-38310476D01*
X116263333Y-38215238D01*
X116310952Y-38167619D01*
X116406190Y-38120000D01*
X116691904Y-38120000D01*
X116787142Y-38167619D01*
X116834761Y-38215238D01*
X116882380Y-38310476D01*
X116882380Y-38453333D01*
X116882380Y-37548571D02*
X116834761Y-37643809D01*
X116787142Y-37691428D01*
X116691904Y-37739047D01*
X116406190Y-37739047D01*
X116310952Y-37691428D01*
X116263333Y-37643809D01*
X116215714Y-37548571D01*
X116215714Y-37405714D01*
X116263333Y-37310476D01*
X116310952Y-37262857D01*
X116406190Y-37215238D01*
X116691904Y-37215238D01*
X116787142Y-37262857D01*
X116834761Y-37310476D01*
X116882380Y-37405714D01*
X116882380Y-37548571D01*
X116215714Y-36929523D02*
X116215714Y-36548571D01*
X115882380Y-36786666D02*
X116739523Y-36786666D01*
X116834761Y-36739047D01*
X116882380Y-36643809D01*
X116882380Y-36548571D01*
X116882380Y-36215238D02*
X115882380Y-36215238D01*
X116882380Y-35786666D02*
X116358571Y-35786666D01*
X116263333Y-35834285D01*
X116215714Y-35929523D01*
X116215714Y-36072380D01*
X116263333Y-36167619D01*
X116310952Y-36215238D01*
X128402380Y-38149523D02*
X129116666Y-38149523D01*
X129259523Y-38197142D01*
X129354761Y-38292380D01*
X129402380Y-38435238D01*
X129402380Y-38530476D01*
X129402380Y-37149523D02*
X129402380Y-37720952D01*
X129402380Y-37435238D02*
X128402380Y-37435238D01*
X128545238Y-37530476D01*
X128640476Y-37625714D01*
X128688095Y-37720952D01*
X128497619Y-36768571D02*
X128450000Y-36720952D01*
X128402380Y-36625714D01*
X128402380Y-36387619D01*
X128450000Y-36292380D01*
X128497619Y-36244761D01*
X128592857Y-36197142D01*
X128688095Y-36197142D01*
X128830952Y-36244761D01*
X129402380Y-36816190D01*
X129402380Y-36197142D01*
G04 #@! TD*
M02*
