<?xml version="1.0" standalone="no"?>
 <!DOCTYPE svg PUBLIC "-//W3C//DTD SVG 1.1//EN" 
 "http://www.w3.org/Graphics/SVG/1.1/DTD/svg11.dtd"> 
<svg xmlns="http://www.w3.org/2000/svg" version="1.1" 
    width="2.159cm" height="3.8862cm" viewBox="0 0 8500 15300 ">
<title>SVG Picture created as communication-brd.svg date 2017/11/24 09:23:37 </title>
  <desc>Picture generated by PCBNEW </desc>
<g style="fill:#000000; fill-opacity:1;stroke:#000000; stroke-opacity:1;
stroke-linecap:round; stroke-linejoin:round; "
 transform="translate(0 0) scale(1 1)">
</g>
<g style="fill:#000000; fill-opacity:0.0; 
stroke:#000000; stroke-width:-0.000393701; stroke-opacity:1; 
stroke-linecap:round; stroke-linejoin:round;">
</g>
<g style="fill:#000000; fill-opacity:1.0; 
stroke:#000000; stroke-width:0; stroke-opacity:1; 
stroke-linecap:round; stroke-linejoin:round;">
<circle cx="5200" cy="13200" r="393.701" /> 
</g>
<g style="fill:#000000; fill-opacity:1.0; 
stroke:#000000; stroke-width:39.3701; stroke-opacity:1; 
stroke-linecap:round; stroke-linejoin:round;">
</g>
<g style="fill:#000000; fill-opacity:1.0; 
stroke:#000000; stroke-width:0; stroke-opacity:1; 
stroke-linecap:round; stroke-linejoin:round;">
<circle cx="6200" cy="13200" r="393.701" /> 
</g>
<g style="fill:#000000; fill-opacity:1.0; 
stroke:#000000; stroke-width:39.3701; stroke-opacity:1; 
stroke-linecap:round; stroke-linejoin:round;">
</g>
<g style="fill:#000000; fill-opacity:1.0; 
stroke:#000000; stroke-width:0; stroke-opacity:1; 
stroke-linecap:round; stroke-linejoin:round;">
<circle cx="6200" cy="11600" r="393.701" /> 
</g>
<g style="fill:#000000; fill-opacity:1.0; 
stroke:#000000; stroke-width:39.3701; stroke-opacity:1; 
stroke-linecap:round; stroke-linejoin:round;">
</g>
<g style="fill:#000000; fill-opacity:1.0; 
stroke:#000000; stroke-width:0; stroke-opacity:1; 
stroke-linecap:round; stroke-linejoin:round;">
<circle cx="5200" cy="11600" r="393.701" /> 
</g>
<g style="fill:#000000; fill-opacity:1.0; 
stroke:#000000; stroke-width:39.3701; stroke-opacity:1; 
stroke-linecap:round; stroke-linejoin:round;">
</g>
<g style="fill:#000000; fill-opacity:1.0; 
stroke:#000000; stroke-width:0; stroke-opacity:1; 
stroke-linecap:round; stroke-linejoin:round;">
<circle cx="6100" cy="2300" r="393.701" /> 
</g>
<g style="fill:#000000; fill-opacity:1.0; 
stroke:#000000; stroke-width:39.3701; stroke-opacity:1; 
stroke-linecap:round; stroke-linejoin:round;">
</g>
<g style="fill:#000000; fill-opacity:1.0; 
stroke:#000000; stroke-width:0; stroke-opacity:1; 
stroke-linecap:round; stroke-linejoin:round;">
<circle cx="7100" cy="2300" r="393.701" /> 
</g>
<g style="fill:#000000; fill-opacity:1.0; 
stroke:#000000; stroke-width:39.3701; stroke-opacity:1; 
stroke-linecap:round; stroke-linejoin:round;">
</g>
<g style="fill:#000000; fill-opacity:1.0; 
stroke:#000000; stroke-width:0; stroke-opacity:1; 
stroke-linecap:round; stroke-linejoin:round;">
<circle cx="4300" cy="2700" r="393.701" /> 
</g>
<g style="fill:#000000; fill-opacity:1.0; 
stroke:#000000; stroke-width:39.3701; stroke-opacity:1; 
stroke-linecap:round; stroke-linejoin:round;">
</g>
<g style="fill:#000000; fill-opacity:1.0; 
stroke:#000000; stroke-width:0; stroke-opacity:1; 
stroke-linecap:round; stroke-linejoin:round;">
<circle cx="4300" cy="1700" r="393.701" /> 
</g>
<g style="fill:#000000; fill-opacity:1.0; 
stroke:#000000; stroke-width:39.3701; stroke-opacity:1; 
stroke-linecap:round; stroke-linejoin:round;">
</g>
<g style="fill:#000000; fill-opacity:1.0; 
stroke:#000000; stroke-width:0; stroke-opacity:1; 
stroke-linecap:round; stroke-linejoin:round;">
<circle cx="2000" cy="1100" r="393.701" /> 
</g>
<g style="fill:#000000; fill-opacity:1.0; 
stroke:#000000; stroke-width:39.3701; stroke-opacity:1; 
stroke-linecap:round; stroke-linejoin:round;">
</g>
<g style="fill:#000000; fill-opacity:1.0; 
stroke:#000000; stroke-width:0; stroke-opacity:1; 
stroke-linecap:round; stroke-linejoin:round;">
<circle cx="2000" cy="4100" r="393.701" /> 
</g>
<g style="fill:#000000; fill-opacity:1.0; 
stroke:#000000; stroke-width:39.3701; stroke-opacity:1; 
stroke-linecap:round; stroke-linejoin:round;">
</g>
<g style="fill:#000000; fill-opacity:1.0; 
stroke:#000000; stroke-width:0; stroke-opacity:1; 
stroke-linecap:round; stroke-linejoin:round;">
<circle cx="2000" cy="6500" r="393.701" /> 
</g>
<g style="fill:#000000; fill-opacity:1.0; 
stroke:#000000; stroke-width:39.3701; stroke-opacity:1; 
stroke-linecap:round; stroke-linejoin:round;">
</g>
<g style="fill:#000000; fill-opacity:1.0; 
stroke:#000000; stroke-width:0; stroke-opacity:1; 
stroke-linecap:round; stroke-linejoin:round;">
<circle cx="2000" cy="9500" r="393.701" /> 
</g>
<g style="fill:#000000; fill-opacity:1.0; 
stroke:#000000; stroke-width:39.3701; stroke-opacity:1; 
stroke-linecap:round; stroke-linejoin:round;">
</g>
<g style="fill:#000000; fill-opacity:1.0; 
stroke:#000000; stroke-width:0; stroke-opacity:1; 
stroke-linecap:round; stroke-linejoin:round;">
<circle cx="1731.5" cy="13500" r="393.701" /> 
</g>
<g style="fill:#000000; fill-opacity:1.0; 
stroke:#000000; stroke-width:39.3701; stroke-opacity:1; 
stroke-linecap:round; stroke-linejoin:round;">
</g>
<g style="fill:#000000; fill-opacity:1.0; 
stroke:#000000; stroke-width:0; stroke-opacity:1; 
stroke-linecap:round; stroke-linejoin:round;">
<circle cx="2715.75" cy="11531.5" r="393.701" /> 
</g>
<g style="fill:#000000; fill-opacity:1.0; 
stroke:#000000; stroke-width:39.3701; stroke-opacity:1; 
stroke-linecap:round; stroke-linejoin:round;">
</g>
<g style="fill:#000000; fill-opacity:1.0; 
stroke:#000000; stroke-width:0; stroke-opacity:1; 
stroke-linecap:round; stroke-linejoin:round;">
<circle cx="3700" cy="13500" r="393.701" /> 
</g>
<g style="fill:#000000; fill-opacity:1.0; 
stroke:#000000; stroke-width:39.3701; stroke-opacity:1; 
stroke-linecap:round; stroke-linejoin:round;">
</g>
<g style="fill:#000000; fill-opacity:1.0; 
stroke:#000000; stroke-width:0; stroke-opacity:1; 
stroke-linecap:round; stroke-linejoin:round;">
<circle cx="3221.65" cy="3924.8" r="393.701" /> 
</g>
<g style="fill:#000000; fill-opacity:1.0; 
stroke:#000000; stroke-width:39.3701; stroke-opacity:1; 
stroke-linecap:round; stroke-linejoin:round;">
</g>
<g style="fill:#000000; fill-opacity:1.0; 
stroke:#000000; stroke-width:0; stroke-opacity:1; 
stroke-linecap:round; stroke-linejoin:round;">
<circle cx="6221.65" cy="9924.8" r="393.701" /> 
</g>
<g style="fill:#000000; fill-opacity:1.0; 
stroke:#000000; stroke-width:39.3701; stroke-opacity:1; 
stroke-linecap:round; stroke-linejoin:round;">
</g>
<g style="fill:#000000; fill-opacity:1.0; 
stroke:#000000; stroke-width:0; stroke-opacity:1; 
stroke-linecap:round; stroke-linejoin:round;">
<circle cx="3221.65" cy="4924.8" r="393.701" /> 
</g>
<g style="fill:#000000; fill-opacity:1.0; 
stroke:#000000; stroke-width:39.3701; stroke-opacity:1; 
stroke-linecap:round; stroke-linejoin:round;">
</g>
<g style="fill:#000000; fill-opacity:1.0; 
stroke:#000000; stroke-width:0; stroke-opacity:1; 
stroke-linecap:round; stroke-linejoin:round;">
<circle cx="6221.65" cy="8924.8" r="393.701" /> 
</g>
<g style="fill:#000000; fill-opacity:1.0; 
stroke:#000000; stroke-width:39.3701; stroke-opacity:1; 
stroke-linecap:round; stroke-linejoin:round;">
</g>
<g style="fill:#000000; fill-opacity:1.0; 
stroke:#000000; stroke-width:0; stroke-opacity:1; 
stroke-linecap:round; stroke-linejoin:round;">
<circle cx="3221.65" cy="5924.8" r="393.701" /> 
</g>
<g style="fill:#000000; fill-opacity:1.0; 
stroke:#000000; stroke-width:39.3701; stroke-opacity:1; 
stroke-linecap:round; stroke-linejoin:round;">
</g>
<g style="fill:#000000; fill-opacity:1.0; 
stroke:#000000; stroke-width:0; stroke-opacity:1; 
stroke-linecap:round; stroke-linejoin:round;">
<circle cx="6221.65" cy="7924.8" r="393.701" /> 
</g>
<g style="fill:#000000; fill-opacity:1.0; 
stroke:#000000; stroke-width:39.3701; stroke-opacity:1; 
stroke-linecap:round; stroke-linejoin:round;">
</g>
<g style="fill:#000000; fill-opacity:1.0; 
stroke:#000000; stroke-width:0; stroke-opacity:1; 
stroke-linecap:round; stroke-linejoin:round;">
<circle cx="3221.65" cy="6924.8" r="393.701" /> 
</g>
<g style="fill:#000000; fill-opacity:1.0; 
stroke:#000000; stroke-width:39.3701; stroke-opacity:1; 
stroke-linecap:round; stroke-linejoin:round;">
</g>
<g style="fill:#000000; fill-opacity:1.0; 
stroke:#000000; stroke-width:0; stroke-opacity:1; 
stroke-linecap:round; stroke-linejoin:round;">
<circle cx="6221.65" cy="6924.8" r="393.701" /> 
</g>
<g style="fill:#000000; fill-opacity:1.0; 
stroke:#000000; stroke-width:39.3701; stroke-opacity:1; 
stroke-linecap:round; stroke-linejoin:round;">
</g>
<g style="fill:#000000; fill-opacity:1.0; 
stroke:#000000; stroke-width:0; stroke-opacity:1; 
stroke-linecap:round; stroke-linejoin:round;">
<circle cx="3221.65" cy="7924.8" r="393.701" /> 
</g>
<g style="fill:#000000; fill-opacity:1.0; 
stroke:#000000; stroke-width:39.3701; stroke-opacity:1; 
stroke-linecap:round; stroke-linejoin:round;">
</g>
<g style="fill:#000000; fill-opacity:1.0; 
stroke:#000000; stroke-width:0; stroke-opacity:1; 
stroke-linecap:round; stroke-linejoin:round;">
<circle cx="6221.65" cy="5924.8" r="393.701" /> 
</g>
<g style="fill:#000000; fill-opacity:1.0; 
stroke:#000000; stroke-width:39.3701; stroke-opacity:1; 
stroke-linecap:round; stroke-linejoin:round;">
</g>
<g style="fill:#000000; fill-opacity:1.0; 
stroke:#000000; stroke-width:0; stroke-opacity:1; 
stroke-linecap:round; stroke-linejoin:round;">
<circle cx="3221.65" cy="8924.8" r="393.701" /> 
</g>
<g style="fill:#000000; fill-opacity:1.0; 
stroke:#000000; stroke-width:39.3701; stroke-opacity:1; 
stroke-linecap:round; stroke-linejoin:round;">
</g>
<g style="fill:#000000; fill-opacity:1.0; 
stroke:#000000; stroke-width:0; stroke-opacity:1; 
stroke-linecap:round; stroke-linejoin:round;">
<circle cx="6221.65" cy="4924.8" r="393.701" /> 
</g>
<g style="fill:#000000; fill-opacity:1.0; 
stroke:#000000; stroke-width:39.3701; stroke-opacity:1; 
stroke-linecap:round; stroke-linejoin:round;">
</g>
<g style="fill:#000000; fill-opacity:1.0; 
stroke:#000000; stroke-width:0; stroke-opacity:1; 
stroke-linecap:round; stroke-linejoin:round;">
<circle cx="3221.65" cy="9924.8" r="393.701" /> 
</g>
<g style="fill:#000000; fill-opacity:1.0; 
stroke:#000000; stroke-width:39.3701; stroke-opacity:1; 
stroke-linecap:round; stroke-linejoin:round;">
</g>
<g style="fill:#000000; fill-opacity:1.0; 
stroke:#000000; stroke-width:0; stroke-opacity:1; 
stroke-linecap:round; stroke-linejoin:round;">
<circle cx="6221.65" cy="3924.8" r="393.701" /> 
</g>
<g style="fill:#000000; fill-opacity:1.0; 
stroke:#000000; stroke-width:39.3701; stroke-opacity:1; 
stroke-linecap:round; stroke-linejoin:round;">
</g>
<g style="fill:#000000; fill-opacity:1.0; 
stroke:#000000; stroke-width:0; stroke-opacity:1; 
stroke-linecap:round; stroke-linejoin:round;">
<polyline style="fill-rule:evenodd;"
points="1665,5634
1665,4965
2334,4965
2334,5634
1665,5634
" /> 
</g>
<g style="fill:#FFFFFF; fill-opacity:1.0; 
stroke:#FFFFFF; stroke-width:0; stroke-opacity:1; 
stroke-linecap:round; stroke-linejoin:round;">
<circle cx="5200" cy="13200" r="196.85" /> 
</g>
<g style="fill:#FFFFFF; fill-opacity:1.0; 
stroke:#FFFFFF; stroke-width:39.3701; stroke-opacity:1; 
stroke-linecap:round; stroke-linejoin:round;">
</g>
<g style="fill:#FFFFFF; fill-opacity:1.0; 
stroke:#FFFFFF; stroke-width:0; stroke-opacity:1; 
stroke-linecap:round; stroke-linejoin:round;">
<circle cx="6200" cy="13200" r="196.85" /> 
</g>
<g style="fill:#FFFFFF; fill-opacity:1.0; 
stroke:#FFFFFF; stroke-width:39.3701; stroke-opacity:1; 
stroke-linecap:round; stroke-linejoin:round;">
</g>
<g style="fill:#FFFFFF; fill-opacity:1.0; 
stroke:#FFFFFF; stroke-width:0; stroke-opacity:1; 
stroke-linecap:round; stroke-linejoin:round;">
<circle cx="6200" cy="11600" r="196.85" /> 
</g>
<g style="fill:#FFFFFF; fill-opacity:1.0; 
stroke:#FFFFFF; stroke-width:39.3701; stroke-opacity:1; 
stroke-linecap:round; stroke-linejoin:round;">
</g>
<g style="fill:#FFFFFF; fill-opacity:1.0; 
stroke:#FFFFFF; stroke-width:0; stroke-opacity:1; 
stroke-linecap:round; stroke-linejoin:round;">
<circle cx="5200" cy="11600" r="196.85" /> 
</g>
<g style="fill:#FFFFFF; fill-opacity:1.0; 
stroke:#FFFFFF; stroke-width:39.3701; stroke-opacity:1; 
stroke-linecap:round; stroke-linejoin:round;">
</g>
<g style="fill:#FFFFFF; fill-opacity:1.0; 
stroke:#FFFFFF; stroke-width:0; stroke-opacity:1; 
stroke-linecap:round; stroke-linejoin:round;">
<circle cx="6100" cy="2300" r="177.165" /> 
</g>
<g style="fill:#FFFFFF; fill-opacity:1.0; 
stroke:#FFFFFF; stroke-width:39.3701; stroke-opacity:1; 
stroke-linecap:round; stroke-linejoin:round;">
</g>
<g style="fill:#FFFFFF; fill-opacity:1.0; 
stroke:#FFFFFF; stroke-width:0; stroke-opacity:1; 
stroke-linecap:round; stroke-linejoin:round;">
<circle cx="7100" cy="2300" r="177.165" /> 
</g>
<g style="fill:#FFFFFF; fill-opacity:1.0; 
stroke:#FFFFFF; stroke-width:39.3701; stroke-opacity:1; 
stroke-linecap:round; stroke-linejoin:round;">
</g>
<g style="fill:#FFFFFF; fill-opacity:1.0; 
stroke:#FFFFFF; stroke-width:0; stroke-opacity:1; 
stroke-linecap:round; stroke-linejoin:round;">
<circle cx="4300" cy="2700" r="177.165" /> 
</g>
<g style="fill:#FFFFFF; fill-opacity:1.0; 
stroke:#FFFFFF; stroke-width:39.3701; stroke-opacity:1; 
stroke-linecap:round; stroke-linejoin:round;">
</g>
<g style="fill:#FFFFFF; fill-opacity:1.0; 
stroke:#FFFFFF; stroke-width:0; stroke-opacity:1; 
stroke-linecap:round; stroke-linejoin:round;">
<circle cx="4300" cy="1700" r="150" /> 
</g>
<g style="fill:#FFFFFF; fill-opacity:1.0; 
stroke:#FFFFFF; stroke-width:39.3701; stroke-opacity:1; 
stroke-linecap:round; stroke-linejoin:round;">
</g>
<g style="fill:#FFFFFF; fill-opacity:1.0; 
stroke:#FFFFFF; stroke-width:0; stroke-opacity:1; 
stroke-linecap:round; stroke-linejoin:round;">
<circle cx="2000" cy="1100" r="157.48" /> 
</g>
<g style="fill:#FFFFFF; fill-opacity:1.0; 
stroke:#FFFFFF; stroke-width:39.3701; stroke-opacity:1; 
stroke-linecap:round; stroke-linejoin:round;">
</g>
<g style="fill:#FFFFFF; fill-opacity:1.0; 
stroke:#FFFFFF; stroke-width:0; stroke-opacity:1; 
stroke-linecap:round; stroke-linejoin:round;">
<circle cx="2000" cy="4100" r="157.48" /> 
</g>
<g style="fill:#FFFFFF; fill-opacity:1.0; 
stroke:#FFFFFF; stroke-width:39.3701; stroke-opacity:1; 
stroke-linecap:round; stroke-linejoin:round;">
</g>
<g style="fill:#FFFFFF; fill-opacity:1.0; 
stroke:#FFFFFF; stroke-width:0; stroke-opacity:1; 
stroke-linecap:round; stroke-linejoin:round;">
<circle cx="2000" cy="6500" r="157.48" /> 
</g>
<g style="fill:#FFFFFF; fill-opacity:1.0; 
stroke:#FFFFFF; stroke-width:39.3701; stroke-opacity:1; 
stroke-linecap:round; stroke-linejoin:round;">
</g>
<g style="fill:#FFFFFF; fill-opacity:1.0; 
stroke:#FFFFFF; stroke-width:0; stroke-opacity:1; 
stroke-linecap:round; stroke-linejoin:round;">
<circle cx="2000" cy="9500" r="157.48" /> 
</g>
<g style="fill:#FFFFFF; fill-opacity:1.0; 
stroke:#FFFFFF; stroke-width:39.3701; stroke-opacity:1; 
stroke-linecap:round; stroke-linejoin:round;">
</g>
<g style="fill:#FFFFFF; fill-opacity:1.0; 
stroke:#FFFFFF; stroke-width:0; stroke-opacity:1; 
stroke-linecap:round; stroke-linejoin:round;">
<circle cx="1731.5" cy="13500" r="177.165" /> 
</g>
<g style="fill:#FFFFFF; fill-opacity:1.0; 
stroke:#FFFFFF; stroke-width:39.3701; stroke-opacity:1; 
stroke-linecap:round; stroke-linejoin:round;">
</g>
<g style="fill:#FFFFFF; fill-opacity:1.0; 
stroke:#FFFFFF; stroke-width:0; stroke-opacity:1; 
stroke-linecap:round; stroke-linejoin:round;">
<circle cx="2715.75" cy="11531.5" r="177.165" /> 
</g>
<g style="fill:#FFFFFF; fill-opacity:1.0; 
stroke:#FFFFFF; stroke-width:39.3701; stroke-opacity:1; 
stroke-linecap:round; stroke-linejoin:round;">
</g>
<g style="fill:#FFFFFF; fill-opacity:1.0; 
stroke:#FFFFFF; stroke-width:0; stroke-opacity:1; 
stroke-linecap:round; stroke-linejoin:round;">
<circle cx="3700" cy="13500" r="177.165" /> 
</g>
<g style="fill:#FFFFFF; fill-opacity:1.0; 
stroke:#FFFFFF; stroke-width:39.3701; stroke-opacity:1; 
stroke-linecap:round; stroke-linejoin:round;">
</g>
<g style="fill:#FFFFFF; fill-opacity:1.0; 
stroke:#FFFFFF; stroke-width:0; stroke-opacity:1; 
stroke-linecap:round; stroke-linejoin:round;">
<circle cx="3221.65" cy="3924.8" r="157.48" /> 
</g>
<g style="fill:#FFFFFF; fill-opacity:1.0; 
stroke:#FFFFFF; stroke-width:39.3701; stroke-opacity:1; 
stroke-linecap:round; stroke-linejoin:round;">
</g>
<g style="fill:#FFFFFF; fill-opacity:1.0; 
stroke:#FFFFFF; stroke-width:0; stroke-opacity:1; 
stroke-linecap:round; stroke-linejoin:round;">
<circle cx="6221.65" cy="9924.8" r="157.48" /> 
</g>
<g style="fill:#FFFFFF; fill-opacity:1.0; 
stroke:#FFFFFF; stroke-width:39.3701; stroke-opacity:1; 
stroke-linecap:round; stroke-linejoin:round;">
</g>
<g style="fill:#FFFFFF; fill-opacity:1.0; 
stroke:#FFFFFF; stroke-width:0; stroke-opacity:1; 
stroke-linecap:round; stroke-linejoin:round;">
<circle cx="3221.65" cy="4924.8" r="157.48" /> 
</g>
<g style="fill:#FFFFFF; fill-opacity:1.0; 
stroke:#FFFFFF; stroke-width:39.3701; stroke-opacity:1; 
stroke-linecap:round; stroke-linejoin:round;">
</g>
<g style="fill:#FFFFFF; fill-opacity:1.0; 
stroke:#FFFFFF; stroke-width:0; stroke-opacity:1; 
stroke-linecap:round; stroke-linejoin:round;">
<circle cx="6221.65" cy="8924.8" r="157.48" /> 
</g>
<g style="fill:#FFFFFF; fill-opacity:1.0; 
stroke:#FFFFFF; stroke-width:39.3701; stroke-opacity:1; 
stroke-linecap:round; stroke-linejoin:round;">
</g>
<g style="fill:#FFFFFF; fill-opacity:1.0; 
stroke:#FFFFFF; stroke-width:0; stroke-opacity:1; 
stroke-linecap:round; stroke-linejoin:round;">
<circle cx="3221.65" cy="5924.8" r="157.48" /> 
</g>
<g style="fill:#FFFFFF; fill-opacity:1.0; 
stroke:#FFFFFF; stroke-width:39.3701; stroke-opacity:1; 
stroke-linecap:round; stroke-linejoin:round;">
</g>
<g style="fill:#FFFFFF; fill-opacity:1.0; 
stroke:#FFFFFF; stroke-width:0; stroke-opacity:1; 
stroke-linecap:round; stroke-linejoin:round;">
<circle cx="6221.65" cy="7924.8" r="157.48" /> 
</g>
<g style="fill:#FFFFFF; fill-opacity:1.0; 
stroke:#FFFFFF; stroke-width:39.3701; stroke-opacity:1; 
stroke-linecap:round; stroke-linejoin:round;">
</g>
<g style="fill:#FFFFFF; fill-opacity:1.0; 
stroke:#FFFFFF; stroke-width:0; stroke-opacity:1; 
stroke-linecap:round; stroke-linejoin:round;">
<circle cx="3221.65" cy="6924.8" r="157.48" /> 
</g>
<g style="fill:#FFFFFF; fill-opacity:1.0; 
stroke:#FFFFFF; stroke-width:39.3701; stroke-opacity:1; 
stroke-linecap:round; stroke-linejoin:round;">
</g>
<g style="fill:#FFFFFF; fill-opacity:1.0; 
stroke:#FFFFFF; stroke-width:0; stroke-opacity:1; 
stroke-linecap:round; stroke-linejoin:round;">
<circle cx="6221.65" cy="6924.8" r="157.48" /> 
</g>
<g style="fill:#FFFFFF; fill-opacity:1.0; 
stroke:#FFFFFF; stroke-width:39.3701; stroke-opacity:1; 
stroke-linecap:round; stroke-linejoin:round;">
</g>
<g style="fill:#FFFFFF; fill-opacity:1.0; 
stroke:#FFFFFF; stroke-width:0; stroke-opacity:1; 
stroke-linecap:round; stroke-linejoin:round;">
<circle cx="3221.65" cy="7924.8" r="157.48" /> 
</g>
<g style="fill:#FFFFFF; fill-opacity:1.0; 
stroke:#FFFFFF; stroke-width:39.3701; stroke-opacity:1; 
stroke-linecap:round; stroke-linejoin:round;">
</g>
<g style="fill:#FFFFFF; fill-opacity:1.0; 
stroke:#FFFFFF; stroke-width:0; stroke-opacity:1; 
stroke-linecap:round; stroke-linejoin:round;">
<circle cx="6221.65" cy="5924.8" r="157.48" /> 
</g>
<g style="fill:#FFFFFF; fill-opacity:1.0; 
stroke:#FFFFFF; stroke-width:39.3701; stroke-opacity:1; 
stroke-linecap:round; stroke-linejoin:round;">
</g>
<g style="fill:#FFFFFF; fill-opacity:1.0; 
stroke:#FFFFFF; stroke-width:0; stroke-opacity:1; 
stroke-linecap:round; stroke-linejoin:round;">
<circle cx="3221.65" cy="8924.8" r="157.48" /> 
</g>
<g style="fill:#FFFFFF; fill-opacity:1.0; 
stroke:#FFFFFF; stroke-width:39.3701; stroke-opacity:1; 
stroke-linecap:round; stroke-linejoin:round;">
</g>
<g style="fill:#FFFFFF; fill-opacity:1.0; 
stroke:#FFFFFF; stroke-width:0; stroke-opacity:1; 
stroke-linecap:round; stroke-linejoin:round;">
<circle cx="6221.65" cy="4924.8" r="157.48" /> 
</g>
<g style="fill:#FFFFFF; fill-opacity:1.0; 
stroke:#FFFFFF; stroke-width:39.3701; stroke-opacity:1; 
stroke-linecap:round; stroke-linejoin:round;">
</g>
<g style="fill:#FFFFFF; fill-opacity:1.0; 
stroke:#FFFFFF; stroke-width:0; stroke-opacity:1; 
stroke-linecap:round; stroke-linejoin:round;">
<circle cx="3221.65" cy="9924.8" r="157.48" /> 
</g>
<g style="fill:#FFFFFF; fill-opacity:1.0; 
stroke:#FFFFFF; stroke-width:39.3701; stroke-opacity:1; 
stroke-linecap:round; stroke-linejoin:round;">
</g>
<g style="fill:#FFFFFF; fill-opacity:1.0; 
stroke:#FFFFFF; stroke-width:0; stroke-opacity:1; 
stroke-linecap:round; stroke-linejoin:round;">
<circle cx="6221.65" cy="3924.8" r="157.48" /> 
</g>
<g style="fill:#FFFFFF; fill-opacity:1.0; 
stroke:#FFFFFF; stroke-width:39.3701; stroke-opacity:1; 
stroke-linecap:round; stroke-linejoin:round;">
</g>
<g style="fill:#FFFFFF; fill-opacity:1.0; 
stroke:#FFFFFF; stroke-width:0; stroke-opacity:1; 
stroke-linecap:round; stroke-linejoin:round;">
<circle cx="2000" cy="5300" r="196.85" /> 
</g>
<g style="fill:#FFFFFF; fill-opacity:1.0; 
stroke:#FFFFFF; stroke-width:39.3701; stroke-opacity:1; 
stroke-linecap:round; stroke-linejoin:round;">
</g>
<g style="fill:#000000; fill-opacity:1.0; 
stroke:#000000; stroke-width:39.3701; stroke-opacity:1; 
stroke-linecap:round; stroke-linejoin:round;">
</g>
<g style="fill:#000000; fill-opacity:0.0; 
stroke:#000000; stroke-width:39.3701; stroke-opacity:1; 
stroke-linecap:round; stroke-linejoin:round;">
</g>
<g style="fill:#000000; fill-opacity:0.0; 
stroke:#000000; stroke-width:118.11; stroke-opacity:1; 
stroke-linecap:round; stroke-linejoin:round;">
<path d="M1223 4609
L1223 4721
L1195 4778
L1139 4834
L1026 4862
L829 4862
L717 4834
L660 4778
L632 4721
L632 4609
L660 4553
L717 4496
L829 4468
L1026 4468
L1139 4496
L1195 4553
L1223 4609
" />
<path d="M1223 5115
L745 5115
L689 5143
L660 5171
L632 5228
L632 5340
L660 5396
L689 5424
L745 5453
L1223 5453
" />
<path d="M1223 5649
L1223 5987
" />
<path d="M632 5818
L1223 5818
" />
<path d="M3887 14076
L4084 14667
L4281 14076
" />
<path d="M4815 14610
L4787 14639
L4703 14667
L4647 14667
L4562 14639
L4506 14582
L4478 14526
L4450 14414
L4450 14329
L4478 14217
L4506 14160
L4562 14104
L4647 14076
L4703 14076
L4787 14104
L4815 14132
" />
<path d="M5406 14610
L5378 14639
L5293 14667
L5237 14667
L5153 14639
L5096 14582
L5068 14526
L5040 14414
L5040 14329
L5068 14217
L5096 14160
L5153 14104
L5237 14076
L5293 14076
L5378 14104
L5406 14132
" />
<path d="M6418 14104
L6362 14076
L6278 14076
L6193 14104
L6137 14160
L6109 14217
L6081 14329
L6081 14414
L6109 14526
L6137 14582
L6193 14639
L6278 14667
L6334 14667
L6418 14639
L6446 14610
L6446 14414
L6334 14414
" />
<path d="M6699 14667
L6699 14076
L7037 14667
L7037 14076
" />
<path d="M7318 14667
L7318 14076
L7459 14076
L7543 14104
L7599 14160
L7627 14217
L7656 14329
L7656 14414
L7627 14526
L7599 14582
L7543 14639
L7459 14667
L7318 14667
" />
</g>
<g style="fill:#000000; fill-opacity:0.0; 
stroke:#000000; stroke-width:236.22; stroke-opacity:1; 
stroke-linecap:round; stroke-linejoin:round;">
<path d="M300 15000
L300 200
" />
<path d="M8300 15000
L300 15000
" />
<path d="M8300 200
L8300 15000
" />
</g>
<g style="fill:#000000; fill-opacity:0.0; 
stroke:#000000; stroke-width:78.7402; stroke-opacity:1; 
stroke-linecap:round; stroke-linejoin:round;">
<path d="M300 200
L500 200
" />
<path d="M300 15100
L300 200
" />
<path d="M8300 15100
L300 15100
" />
<path d="M8300 200
L8300 15100
" />
</g>
<g style="fill:#000000; fill-opacity:0.0; 
stroke:#000000; stroke-width:236.22; stroke-opacity:1; 
stroke-linecap:round; stroke-linejoin:round;">
<path d="M300 200
L8300 200
" />
</g>
<g style="fill:#000000; fill-opacity:0.0; 
stroke:#000000; stroke-width:47.2441; stroke-opacity:1; 
stroke-linecap:round; stroke-linejoin:round;">
<path d="M6723 13723
L6723 12676
" />
<path d="M5700 13723
L6723 13723
" />
<path d="M5700 12676
L6723 12676
" />
<path d="M5700 13723
L5700 12676
" />
<path d="M5200 13723
L4676 13723
" />
<path d="M4676 13723
L4676 13200
" />
<path d="M4676 11076
L4676 12123
" />
<path d="M5700 11076
L4676 11076
" />
<path d="M5700 12123
L4676 12123
" />
<path d="M5700 11076
L5700 12123
" />
<path d="M6200 11076
L6723 11076
" />
<path d="M6723 11076
L6723 11600
" />
<path d="M7258.4 1875.35 A783.465 783.465 0.0 0 0 5985.83 1813.58 " />
<path d="M5985.83 2786.42 A783.465 783.465 0.0 0 0 7258.4 2724.65 " />
<path d="M7009.89 1874.87 A590.551 590.551 0.0 0 0 6190.17 1874.8 " />
<path d="M6190.17 2725.2 A590.551 590.551 0.0 0 0 7009.89 2725.13 " />
<path d="M5985 1813
L5985 1874
" />
<path d="M5985 2725
L5985 2786
" />
<path d="M3875.35 1541.6 A783.465 783.465 0.0 0 0 3813.58 2814.17 " />
<path d="M4786.42 2814.17 A783.465 783.465 0.0 0 0 4724.65 1541.6 " />
<path d="M3874.87 1790.11 A590.551 590.551 0.0 0 0 3874.8 2609.83 " />
<path d="M4725.2 2609.83 A590.551 590.551 0.0 0 0 4725.13 1790.11 " />
<path d="M3813 2814
L3874 2814
" />
<path d="M4725 2814
L4786 2814
" />
<path d="M2385 1336
L2515 1336
" />
<path d="M2515 1336
L2515 3863
" />
<path d="M2515 3863
L2385 3863
" />
<path d="M1614 1336
L1484 1336
" />
<path d="M1484 1336
L1484 3863
" />
<path d="M1484 3863
L1614 3863
" />
<path d="M2385 6736
L2515 6736
" />
<path d="M2515 6736
L2515 9263
" />
<path d="M2515 9263
L2385 9263
" />
<path d="M1614 6736
L1484 6736
" />
<path d="M1484 6736
L1484 9263
" />
<path d="M1484 9263
L1614 9263
" />
<circle cx="2715.75" cy="12515.7" r="354.331" /> 
<path d="M1451 13156
L1451 11251
" />
<path d="M3979 13156
L3979 11251
" />
<path d="M2029 13779
L3401 13779
" />
<path d="M1451 11251
L2417 11251
" />
<path d="M3014 11251
L3979 11251
" />
<path d="M4327 3377
L3631 3377
" />
<path d="M3631 3377
L3631 10472
" />
<path d="M3631 10472
L5812 10472
" />
<path d="M5812 10472
L5812 3377
" />
<path d="M5812 3377
L5115 3377
" />
<path d="M4327.95 3377.56 A393.701 393.701 0.0 0 0 5115.35 3377.56 " />
<path d="M1476 5823
L2523 5823
" />
<path d="M1476 5800
L1476 5823
" />
<path d="M2523 5800
L2523 5823
" />
<path d="M1476 5800
L2523 5800
" />
<path d="M1476 5300
L1476 4776
" />
<path d="M1476 4776
L2000 4776
" />
</g>
<g style="fill:#000000; fill-opacity:0.0; 
stroke:#000000; stroke-width:59.0551; stroke-opacity:1; 
stroke-linecap:round; stroke-linejoin:round;">
<path d="M4460 13490
L4067 13490
L4067 13340
L4085 13303
L4104 13284
L4142 13265
L4198 13265
L4235 13284
L4254 13303
L4273 13340
L4273 13490
" />
<path d="M4104 13115
L4085 13096
L4067 13059
L4067 12965
L4085 12928
L4104 12909
L4142 12890
L4179 12890
L4235 12909
L4460 13134
L4460 12890
" />
<path d="M7295 11890
L6901 11890
L6901 11740
L6920 11703
L6939 11684
L6976 11665
L7032 11665
L7070 11684
L7089 11703
L7107 11740
L7107 11890
" />
<path d="M7295 11290
L7295 11515
" />
<path d="M7295 11403
L6901 11403
L6957 11440
L6995 11478
L7014 11515
" />
<path d="M6309 1312
L6309 919
L6403 919
L6459 937
L6496 975
L6515 1012
L6534 1087
L6534 1144
L6515 1219
L6496 1256
L6459 1294
L6403 1312
L6309 1312
" />
<path d="M6909 1312
L6684 1312
" />
<path d="M6796 1312
L6796 919
L6759 975
L6721 1012
L6684 1031
" />
<path d="M3312 2490
L2919 2490
L2919 2396
L2937 2340
L2975 2303
L3012 2284
L3087 2265
L3144 2265
L3219 2284
L3256 2303
L3294 2340
L3312 2396
L3312 2490
" />
<path d="M2956 2115
L2937 2096
L2919 2059
L2919 1965
L2937 1928
L2956 1909
L2994 1890
L3031 1890
L3087 1909
L3312 2134
L3312 1890
" />
<path d="M3087 2665
L2900 2796
" />
<path d="M3087 2890
L2693 2890
L2693 2740
L2712 2703
L2731 2684
L2768 2665
L2825 2665
L2862 2684
L2881 2703
L2900 2740
L2900 2890
" />
<path d="M2731 2515
L2712 2496
L2693 2459
L2693 2365
L2712 2328
L2731 2309
L2768 2290
L2806 2290
L2862 2309
L3087 2534
L3087 2290
" />
<path d="M3087 8065
L2900 8196
" />
<path d="M3087 8290
L2693 8290
L2693 8140
L2712 8103
L2731 8084
L2768 8065
L2825 8065
L2862 8084
L2881 8103
L2900 8140
L2900 8290
" />
<path d="M3087 7690
L3087 7915
" />
<path d="M3087 7803
L2693 7803
L2750 7840
L2787 7878
L2806 7915
" />
<path d="M1098 12750
L911 12881
" />
<path d="M1098 12975
L704 12975
L704 12825
L723 12787
L742 12768
L779 12750
L836 12750
L873 12768
L892 12787
L911 12825
L911 12975
" />
<path d="M704 12637
L1098 12506
L704 12375
" />
<path d="M1098 12037
L1098 12262
" />
<path d="M1098 12150
L704 12150
L761 12187
L798 12225
L817 12262
" />
<path d="M4421 2768
L4421 3086
L4440 3124
L4459 3143
L4496 3161
L4571 3161
L4609 3143
L4627 3124
L4646 3086
L4646 2768
" />
<path d="M5040 3161
L4815 3161
" />
<path d="M4927 3161
L4927 2768
L4890 2824
L4852 2861
L4815 2880
" />
<path d="M1709 4560
L1709 4167
L1859 4167
L1896 4185
L1915 4204
L1934 4242
L1934 4298
L1915 4335
L1896 4354
L1859 4373
L1709 4373
" />
<path d="M2065 4167
L2309 4167
L2178 4317
L2234 4317
L2271 4335
L2290 4354
L2309 4392
L2309 4485
L2290 4523
L2271 4542
L2234 4560
L2121 4560
L2084 4542
L2065 4523
" />
</g>
<g style="fill:#000000; fill-opacity:0.0; 
stroke:#000000; stroke-width:19.685; stroke-opacity:1; 
stroke-linecap:round; stroke-linejoin:round;">
<path d="M4491 13908
L6912 13908
" />
<path d="M6912 13908
L6912 12491
" />
<path d="M6912 12491
L4491 12491
" />
<path d="M4491 12491
L4491 13908
" />
<path d="M6908 10891
L4487 10891
" />
<path d="M4487 10891
L4487 12308
" />
<path d="M4487 12308
L6908 12308
" />
<path d="M6908 12308
L6908 10891
" />
<path d="M5647 1414
L5647 3185
" />
<path d="M5647 3185
L7556 3185
" />
<path d="M7556 3185
L7556 1414
" />
<path d="M7556 1414
L5647 1414
" />
<path d="M3414 3152
L5185 3152
" />
<path d="M5185 3152
L5185 1243
" />
<path d="M5185 1243
L3414 1243
" />
<path d="M3414 1243
L3414 3152
" />
<path d="M2629 686
L1370 686
" />
<path d="M1370 686
L1370 4525
" />
<path d="M1370 4525
L2629 4525
" />
<path d="M2629 4525
L2629 686
" />
<path d="M2629 6086
L1370 6086
" />
<path d="M1370 6086
L1370 9925
" />
<path d="M1370 9925
L2629 9925
" />
<path d="M2629 9925
L2629 6086
" />
<path d="M1298 13933
L4133 13933
" />
<path d="M4133 13933
L4133 11098
" />
<path d="M4133 11098
L1298 11098
" />
<path d="M1298 11098
L1298 13933
" />
<path d="M2788 3294
L2788 10538
" />
<path d="M2788 10538
L6646 10538
" />
<path d="M6646 10538
L6646 3294
" />
<path d="M6646 3294
L2788 3294
" />
<path d="M1291 4591
L1291 6008
" />
<path d="M1291 6008
L2708 6008
" />
<path d="M2708 6008
L2708 4591
" />
<path d="M2708 4591
L1291 4591
" />
</g>
<g style="fill:#000000; fill-opacity:0.0; 
stroke:#000000; stroke-width:39.3701; stroke-opacity:1; 
stroke-linecap:round; stroke-linejoin:round;">
<path d="M4700 13450
L4700 12700
" />
<path d="M4700 12700
L6700 12700
" />
<path d="M6700 12700
L6700 13700
" />
<path d="M6700 13700
L4950 13700
" />
<path d="M4950 13700
L4700 13450
" />
<path d="M6700 11350
L6700 12100
" />
<path d="M6700 12100
L4700 12100
" />
<path d="M4700 12100
L4700 11100
" />
<path d="M4700 11100
L6450 11100
" />
<path d="M6450 11100
L6700 11350
" />
<path d="M6009.23 2758.85 A748.031 748.031 0.0 1 0 6009.45 1840.87 " />
<circle cx="6600" cy="2300" r="590.551" /> 
<path d="M6009 1840
L6009 2759
" />
<path d="M4758.85 2790.77 A748.031 748.031 0.0 1 0 3840.87 2790.55 " />
<circle cx="4300" cy="2200" r="590.551" /> 
<path d="M3840 2790
L4759 2790
" />
<path d="M2492 1359
L1507 1359
" />
<path d="M1507 1359
L1507 3840
" />
<path d="M1507 3840
L2492 3840
" />
<path d="M2492 3840
L2492 1359
" />
<path d="M2000 1100
L2000 1359
" />
<path d="M2000 4100
L2000 3840
" />
<path d="M2492 6759
L1507 6759
" />
<path d="M1507 6759
L1507 9240
" />
<path d="M1507 9240
L2492 9240
" />
<path d="M2492 9240
L2492 6759
" />
<path d="M2000 6500
L2000 6759
" />
<path d="M2000 9500
L2000 9240
" />
<circle cx="2715.75" cy="12515.7" r="393.701" /> 
<circle cx="2715.75" cy="12515.7" r="354.331" /> 
<path d="M1475 13755
L3955 13755
" />
<path d="M3955 13755
L3955 11275
" />
<path d="M3955 11275
L1475 11275
" />
<path d="M1475 11275
L1475 13755
" />
<path d="M3865 3424
L5971 3424
" />
<path d="M5971 3424
L5971 10424
" />
<path d="M5971 10424
L3471 10424
" />
<path d="M3471 10424
L3471 3818
" />
<path d="M3471 3818
L3865 3424
" />
<path d="M1750 4800
L2500 4800
" />
<path d="M2500 4800
L2500 5800
" />
<path d="M2500 5800
L1500 5800
" />
<path d="M1500 5800
L1500 5050
" />
<path d="M1500 5050
L1750 4800
" />
</g>
<g style="fill:#000000; fill-opacity:0.0; 
stroke:#000000; stroke-width:59.0551; stroke-opacity:1; 
stroke-linecap:round; stroke-linejoin:round;">
<path d="M7257 14034
L7276 14053
L7295 14109
L7295 14146
L7276 14202
L7239 14240
L7201 14259
L7126 14277
L7070 14277
L6995 14259
L6957 14240
L6920 14202
L6901 14146
L6901 14109
L6920 14053
L6939 14034
" />
<path d="M6901 13790
L6901 13715
L6920 13678
L6957 13640
L7032 13621
L7164 13621
L7239 13640
L7276 13678
L7295 13715
L7295 13790
L7276 13828
L7239 13865
L7164 13884
L7032 13884
L6957 13865
L6920 13828
L6901 13790
" />
<path d="M7295 13453
L6901 13453
L7295 13228
L6901 13228
" />
<path d="M7295 13040
L6901 13040
L7295 12815
L6901 12815
" />
<path d="M7332 12721
L7332 12421
" />
<path d="M6939 12346
L6920 12328
L6901 12290
L6901 12197
L6920 12159
L6939 12140
L6976 12122
L7014 12122
L7070 12140
L7295 12365
L7295 12122
" />
<path d="M5409 13378
L5409 12984
L5559 12984
L5596 13003
L5615 13021
L5634 13059
L5634 13115
L5615 13153
L5596 13171
L5559 13190
L5409 13190
" />
<path d="M5784 13021
L5803 13003
L5840 12984
L5934 12984
L5971 13003
L5990 13021
L6009 13059
L6009 13096
L5990 13153
L5765 13378
L6009 13378
" />
<path d="M4423 12434
L4442 12453
L4460 12509
L4460 12546
L4442 12602
L4404 12640
L4367 12659
L4292 12677
L4235 12677
L4160 12659
L4123 12640
L4085 12602
L4067 12546
L4067 12509
L4085 12453
L4104 12434
" />
<path d="M4067 12190
L4067 12115
L4085 12078
L4123 12040
L4198 12021
L4329 12021
L4404 12040
L4442 12078
L4460 12115
L4460 12190
L4442 12228
L4404 12265
L4329 12284
L4198 12284
L4123 12265
L4085 12228
L4067 12190
" />
<path d="M4460 11853
L4067 11853
L4460 11628
L4067 11628
" />
<path d="M4460 11440
L4067 11440
L4460 11215
L4067 11215
" />
<path d="M4498 11121
L4498 10821
" />
<path d="M4104 10746
L4085 10728
L4067 10690
L4067 10597
L4085 10559
L4104 10540
L4142 10522
L4179 10522
L4235 10540
L4460 10765
L4460 10522
" />
<path d="M5409 11778
L5409 11384
L5559 11384
L5596 11403
L5615 11421
L5634 11459
L5634 11515
L5615 11553
L5596 11571
L5559 11590
L5409 11590
" />
<path d="M6009 11778
L5784 11778
" />
<path d="M5896 11778
L5896 11384
L5859 11440
L5821 11478
L5784 11496
" />
<path d="M6346 3643
L6159 3643
L6159 3249
" />
<path d="M6478 3437
L6609 3437
" />
<path d="M6665 3643
L6478 3643
L6478 3249
L6665 3249
" />
<path d="M6834 3643
L6834 3249
L6928 3249
L6984 3268
L7021 3305
L7040 3343
L7059 3418
L7059 3474
L7040 3549
L7021 3587
L6984 3624
L6928 3643
L6834 3643
" />
<path d="M5643 2453
L5643 2640
L5249 2640
" />
<path d="M5437 2321
L5437 2190
" />
<path d="M5643 2134
L5643 2321
L5249 2321
L5249 2134
" />
<path d="M5643 1965
L5249 1965
L5249 1871
L5268 1815
L5305 1778
L5343 1759
L5418 1740
L5474 1740
L5549 1759
L5587 1778
L5624 1815
L5643 1871
L5643 1965
" />
<path d="M1268 2478
L1081 2609
" />
<path d="M1268 2703
L874 2703
L874 2553
L893 2515
L912 2496
L949 2478
L1006 2478
L1043 2496
L1062 2515
L1081 2553
L1081 2703
" />
<path d="M1268 7878
L1081 8009
" />
<path d="M1268 8103
L874 8103
L874 7953
L893 7915
L912 7896
L949 7878
L1006 7878
L1043 7896
L1062 7915
L1081 7953
L1081 8103
" />
<path d="M4689 12975
L4295 12975
L4295 12825
L4314 12787
L4332 12768
L4370 12750
L4426 12750
L4464 12768
L4482 12787
L4501 12825
L4501 12975
" />
<path d="M4295 12506
L4295 12431
L4314 12393
L4351 12356
L4426 12337
L4557 12337
L4632 12356
L4670 12393
L4689 12431
L4689 12506
L4670 12543
L4632 12581
L4557 12600
L4426 12600
L4351 12581
L4314 12543
L4295 12506
" />
<path d="M4295 12225
L4295 12000
" />
<path d="M4689 12112
L4295 12112
" />
<path d="M4056 11043
L3868 11043
L3868 10650
" />
<path d="M4187 11043
L4187 10650
L4318 10931
L4449 10650
L4449 11043
" />
<path d="M4599 10650
L4843 10650
L4712 10800
L4768 10800
L4806 10818
L4824 10837
L4843 10875
L4843 10968
L4824 11006
L4806 11025
L4768 11043
L4656 11043
L4618 11025
L4599 11006
" />
<path d="M4993 10687
L5012 10668
L5049 10650
L5143 10650
L5180 10668
L5199 10687
L5218 10725
L5218 10762
L5199 10818
L4974 11043
L5218 11043
" />
<path d="M5555 10781
L5555 11043
" />
<path d="M5462 10631
L5368 10912
L5612 10912
" />
<path d="M4421 6709
L4421 7027
L4440 7065
L4459 7084
L4496 7102
L4571 7102
L4609 7084
L4627 7065
L4646 7027
L4646 6709
" />
<path d="M5040 7102
L4815 7102
" />
<path d="M4927 7102
L4927 6709
L4890 6765
L4852 6802
L4815 6821
" />
<path d="M1165 6357
L1146 6376
L1090 6395
L1053 6395
L997 6376
L959 6339
L940 6301
L922 6226
L922 6170
L940 6095
L959 6057
L997 6020
L1053 6001
L1090 6001
L1146 6020
L1165 6039
" />
<path d="M1409 6001
L1484 6001
L1521 6020
L1559 6057
L1578 6132
L1578 6264
L1559 6339
L1521 6376
L1484 6395
L1409 6395
L1371 6376
L1334 6339
L1315 6264
L1315 6132
L1334 6057
L1371 6020
L1409 6001
" />
<path d="M1746 6395
L1746 6001
L1971 6395
L1971 6001
" />
<path d="M2159 6395
L2159 6001
L2384 6395
L2384 6001
" />
<path d="M2478 6432
L2778 6432
" />
<path d="M3077 6395
L2853 6395
" />
<path d="M2965 6395
L2965 6001
L2928 6057
L2890 6095
L2853 6114
" />
<path d="M2178 5590
L1784 5590
L1784 5440
L1803 5403
L1821 5384
L1859 5365
L1915 5365
L1953 5384
L1971 5403
L1990 5440
L1990 5590
" />
<path d="M1784 5234
L1784 4990
L1934 5121
L1934 5065
L1953 5028
L1971 5009
L2009 4990
L2103 4990
L2140 5009
L2159 5028
L2178 5065
L2178 5178
L2159 5215
L2140 5234
" />
</g> 
</svg>
